<svg width="170" height="311" viewBox="0 0 170 311" fill="none" xmlns="http://www.w3.org/2000/svg">
<path d="M93.9582 61.4658C100.761 62.3736 106.521 65.2992 114.575 69.5885C126.305 75.8354 143.996 80.2074 158.034 72.5178L106.847 46.3789L93.9582 61.4658Z" fill="#DBD9DC"/>
<path d="M15.54 6.43006C40.5619 2.66578 56.5193 8.63443 56.5193 8.63443L24.6044 34.9397L11.2591 14.4287C9.08021 11.1601 11.3641 7.05799 15.54 6.43006Z" fill="#00AAF0"/>
<path d="M3.22891 71.7503C6.07501 34.6584 39.6936 4.7417 80.9154 2.57636C96.2501 1.77077 116.733 6.31417 127.349 13.9403C143.514 25.5531 146.307 35.8646 146.531 41.0002C146.633 43.3492 147.985 45.5043 150.067 46.9232C163.485 56.0703 166.918 63.4473 167.238 68.2987C167.47 71.8178 163.598 74.4149 159.812 73.517C137.28 68.175 120.357 57.5438 112.262 51.6734C109.577 49.7261 105.569 50.2061 103.702 52.8158C91.3574 70.0657 69.4708 76.1148 56.3334 78.2334L56.2705 78.5917C53.3065 82.3474 51.081 86.6447 49.7957 91.3508C42.8355 116.842 64.0765 139.623 91.2266 139.623C96.652 139.623 103.25 139.365 108.875 138.888L134.559 126.129C135.759 125.533 137.147 126.608 136.65 127.757C134.857 131.902 131.032 139.065 124.477 143.891C123.129 144.883 122.993 146.704 124.227 147.812C130.5 153.441 134.317 159.607 136.27 163.367C136.873 164.527 135.459 165.693 134.214 165.075L105.776 150.947C98.1662 151.411 89.733 151.656 85.8816 151.656C38.1739 151.656 -0.116164 115.351 3.22891 71.7503Z" fill="#00C3FF"/>
<path d="M167.238 68.2983C167.47 71.8174 163.598 74.4142 159.811 73.5166C137.28 68.1746 120.357 57.5437 112.262 51.673C109.577 49.7257 105.569 50.2058 103.701 52.8154C91.3571 70.0653 69.4705 76.1144 56.3331 78.2331L56.2703 78.5913C53.3062 82.347 51.0807 86.6443 49.7954 91.3505C42.8352 116.842 64.0763 139.622 91.2263 139.622C96.6518 139.622 103.249 139.365 108.874 138.888L134.559 126.128C135.759 125.533 137.147 126.607 136.65 127.757C134.856 131.902 131.032 139.064 124.477 143.89C123.128 144.883 122.992 146.704 124.227 147.811C130.5 153.44 134.317 159.606 136.27 163.366C136.872 164.526 135.459 165.692 134.213 165.074L105.776 150.947C98.1656 151.411 89.7324 151.655 85.881 151.655C74.3676 151.655 63.4123 149.523 53.4488 145.702C-4.4477 113.509 17.5359 52.7559 46.8215 35.6032C84.7511 13.3878 129.31 30.6297 150.066 46.9228C163.485 56.0692 166.918 63.4466 167.238 68.2983Z" fill="#00AAF0"/>
<path d="M39.2098 59.7759C44.9612 51.8265 52.6911 45.1624 62.0613 40.801C63.8448 39.9706 65.7268 39.3304 67.6635 38.8649C69.1957 38.4967 70.6349 39.7486 70.2788 41.1401C65.995 57.8782 42.5325 60.9818 45.2485 78.1788C45.3547 78.8504 46.0432 79.3374 46.7939 79.2788C48.649 79.1346 52.3002 78.8027 56.713 78.1543C53.7489 81.91 51.0814 86.6439 49.7961 91.3498C42.8359 116.841 64.077 139.622 91.227 139.622C96.6525 139.622 103.25 139.364 108.875 138.887C37.9841 155.965 11.8382 97.6079 39.2098 59.7759Z" fill="#DBD9DC"/>
<path d="M111.266 42.236C114.52 42.236 117.158 39.8605 117.158 36.9306V34.278C117.158 31.3481 114.52 28.9727 111.266 28.9727C108.012 28.9727 105.374 31.3481 105.374 34.278V36.9306C105.374 39.8605 108.012 42.236 111.266 42.236Z" fill="#4B3F4E"/>
<path d="M111.265 36.9307C109.638 36.9307 108.318 35.7427 108.318 34.2773C108.318 32.812 109.638 31.624 111.265 31.624C112.893 31.624 114.212 32.812 114.212 34.2773C114.212 35.7427 112.893 36.9307 111.265 36.9307Z" fill="white"/>
<path d="M0.48431 71.5793C1.65126 56.3717 7.90122 41.8654 18.3153 29.8351L8.89989 15.7063C7.40078 13.4566 7.26079 10.6988 8.52548 8.32899C9.79311 5.95324 12.2788 4.32452 15.1748 3.97185C38.2894 1.15542 52.4938 4.74733 54.5702 5.32531C62.8917 2.35736 71.7221 0.574139 80.7594 0.0993859C97.6244 -0.785937 118.394 4.32981 129.072 12.001C146.101 24.2347 149.048 35.3601 149.289 40.9027C149.357 42.4579 150.248 43.9308 151.734 44.9445C163.231 52.7811 169.368 60.5111 169.976 67.9199C170.18 70.4022 169.067 72.7468 166.922 74.3521C164.752 75.9765 161.828 76.5597 159.102 75.9133C158.44 75.7561 157.783 75.5937 157.131 75.4279C151.83 78.0055 146.034 79.0692 140.23 79.0692C130.61 79.0692 120.973 76.1578 113.549 72.419C105.928 68.5806 100.84 66.1787 95.0358 65.3936C87.8434 70.915 78.8763 75.2344 68.4755 78.1335C64.7707 79.1664 61.2798 79.9131 58.1915 80.4527C55.531 83.9315 53.609 87.7943 52.4762 91.9427C49.4306 103.096 52.0728 114.533 59.7245 123.322C67.3707 132.104 78.8539 137.141 91.2307 137.141C96.5779 137.141 102.817 136.889 108.052 136.465L136.578 122.294C137.547 121.812 138.743 121.9 139.613 122.516C140.483 123.132 140.859 124.157 140.568 125.119C140.407 125.651 136.498 138.252 126.22 145.816C126.153 145.865 126.137 145.921 126.135 145.96C126.132 146.015 126.156 146.036 126.171 146.049C136.416 155.24 140.361 165.684 140.524 166.124C140.883 167.094 140.545 168.162 139.673 168.816C139.166 169.195 138.54 169.39 137.909 169.39C137.453 169.39 136.995 169.288 136.578 169.081L105.156 153.471C98.0043 153.889 89.8451 154.137 85.8854 154.137C73.8073 154.137 62.13 151.917 51.1781 147.539C40.5998 143.31 31.2149 137.286 23.2851 129.636C15.3696 121.999 9.35514 113.174 5.40822 103.405C1.30074 93.2373 -0.356 82.5297 0.48431 71.5793ZM15.9137 8.89009C14.8449 9.02044 13.9623 9.59941 13.4935 10.4784C13.0272 11.3525 13.0754 12.3272 13.6261 13.1536L22.0557 25.8032C23.2436 24.6066 24.4726 23.4374 25.7483 22.3016C31.8657 16.8557 38.7751 12.3182 46.2233 8.78521C39.952 7.91908 29.5784 7.22498 15.9137 8.89009ZM116.239 68.088C125.296 72.6492 137.934 75.8828 148.98 73.073C131.024 67.2536 117.541 58.6842 110.544 53.6108C109.836 53.0974 108.92 52.8767 108.031 53.0064C107.18 53.1298 106.459 53.5509 105.999 54.1928C104.208 56.6913 102.153 59.0472 99.8572 61.2532C104.935 62.5153 109.741 64.815 116.239 68.088ZM10.5879 101.708C14.2798 110.847 19.9077 119.104 27.3143 126.25C34.7356 133.41 43.5168 139.046 53.4146 143.003C63.6582 147.098 74.5829 149.175 85.8854 149.175C89.9039 149.175 98.3743 148.912 105.594 148.472C106.123 148.438 106.648 148.545 107.111 148.775L131.861 161.07C129.766 157.689 126.638 153.474 122.28 149.565C121.153 148.553 120.551 147.15 120.63 145.716C120.709 144.262 121.475 142.898 122.732 141.973C127.398 138.54 130.605 133.739 132.605 129.936L110.21 141.061C109.916 141.207 109.594 141.3 109.261 141.342L109.262 141.345C102.681 142.176 96.4339 142.59 90.5308 142.59C77.8306 142.59 66.7306 140.671 57.3917 136.846C45.3609 131.918 36.3457 123.726 31.32 113.155C26.0074 101.98 25.2361 88.4911 29.1496 75.1752C32.9143 62.3651 40.8147 50.9254 50.8257 43.7896C52.0187 42.9393 53.7519 43.1203 54.6969 44.1948C55.6416 45.2691 55.4399 46.83 54.2468 47.6802C45.1497 54.1653 37.9444 64.6496 34.4777 76.4449C30.8773 88.6952 31.5552 101.039 36.3869 111.202C41.5283 122.017 50.8738 129.634 63.7698 133.825C60.6754 131.709 57.8553 129.219 55.3873 126.384C46.6837 116.388 43.6722 103.402 47.1242 90.758C48.0167 87.4896 49.3387 84.3761 51.0726 81.4532C47.7735 81.8012 45.7243 81.8485 45.5388 81.8522C44.1914 81.874 43.0359 81.036 42.7753 79.8542C40.2298 68.2947 47.783 62.1491 55.0875 56.2066C60.4031 51.8822 65.4674 47.7623 67.4236 41.4773C66.2816 41.7685 65.1495 42.1148 64.0355 42.5148C62.6213 43.0223 61.0185 42.4017 60.4549 41.1293C59.8909 39.8562 60.5802 38.4128 61.9937 37.9053C64.7443 36.9177 67.5922 36.211 70.4589 35.8051C71.3021 35.6867 72.1601 35.9252 72.7807 36.4539C73.4009 36.9826 73.7143 37.7402 73.6287 38.5051C72.4819 48.7425 65.2036 54.6642 58.782 59.8891C52.3674 65.1078 47.1874 69.322 47.8466 76.7513C56.5568 76.0784 86.4733 72.2784 101.368 51.5017C102.667 49.6894 104.776 48.4524 107.154 48.107C109.582 47.7553 112.078 48.3521 114.001 49.746C121.915 55.4847 138.48 65.8912 160.505 71.1148C161.528 71.3583 162.583 71.1469 163.398 70.5365C164.156 69.9694 164.55 69.1493 164.479 68.2861C164.145 64.2129 161.085 57.5435 148.407 48.9013C145.6 46.9874 143.914 44.1429 143.781 41.0975C143.577 36.4019 140.947 26.8817 125.634 15.8797C116.057 8.99927 96.4886 4.24545 81.0794 5.05336C61.8096 6.06572 43.5352 13.4441 29.6221 25.83C15.7072 38.2176 7.3115 54.5865 5.98141 71.9207C5.19548 82.1751 6.74529 92.1971 10.5879 101.708Z" fill="black"/>
<path d="M111.27 26.4912C116.039 26.4912 119.918 29.9845 119.918 34.2778V36.9305C119.918 41.2241 116.039 44.7171 111.27 44.7171C106.502 44.7171 102.623 41.2238 102.623 36.9305V34.2778C102.623 29.9842 106.502 26.4912 111.27 26.4912ZM108.134 36.9301C108.134 38.4874 109.541 39.7542 111.27 39.7542C113 39.7542 114.407 38.4874 114.407 36.9301V34.2775C114.407 32.7202 113 31.4535 111.27 31.4535C109.541 31.4535 108.134 32.7202 108.134 34.2775V36.9301Z" fill="black"/>
<path d="M68.6061 249.533C62.468 248.625 57.2721 245.7 50.005 241.41C39.4223 235.164 23.461 230.792 10.7964 238.481L56.9778 264.62L68.6061 249.533Z" fill="#DBD9DC"/>
<path d="M139.356 304.57C116.781 308.334 102.384 302.366 102.384 302.366L131.177 276.06L143.218 296.571C145.184 299.84 143.123 303.942 139.356 304.57Z" fill="#00AAF0"/>
<path d="M150.463 239.25C147.895 276.342 117.564 306.258 80.3732 308.424C66.5381 309.229 48.0581 304.686 38.4804 297.06C23.8965 285.447 21.3758 275.135 21.1739 270C21.0817 267.651 19.8618 265.496 17.9839 264.077C5.87787 254.93 2.78035 247.553 2.49162 242.701C2.28244 239.182 5.7761 236.585 9.19219 237.483C29.5203 242.825 44.7885 253.456 52.0917 259.327C54.5143 261.274 58.1303 260.794 59.8153 258.184C70.9523 240.934 90.6987 234.885 102.551 232.767L102.608 232.408C105.282 228.653 107.29 224.355 108.45 219.649C114.729 194.158 95.5654 171.377 71.0704 171.377C66.1755 171.377 60.2231 171.635 55.1482 172.112L31.9751 184.871C30.8927 185.467 29.64 184.392 30.0889 183.243C31.7066 179.098 35.1571 171.935 41.0711 167.109C42.288 166.117 42.4107 164.296 41.2972 163.188C35.6371 157.559 32.1939 151.393 30.4316 147.633C29.888 146.473 31.1632 145.307 32.2867 145.925L57.9434 160.053C64.8093 159.589 72.4179 159.344 75.8927 159.344C118.935 159.344 153.481 195.649 150.463 239.25Z" fill="#00C3FF"/>
<path d="M2.49186 242.702C2.28268 239.183 5.77635 236.586 9.19244 237.483C29.5206 242.825 44.7887 253.456 52.092 259.327C54.5146 261.274 58.1306 260.794 59.8156 258.185C70.9526 240.935 90.699 234.886 102.552 232.767L102.608 232.409C105.283 228.653 107.29 224.356 108.45 219.65C114.73 194.158 95.5657 171.378 71.0706 171.378C66.1757 171.378 60.2233 171.635 55.1484 172.112L31.9757 184.872C30.893 185.467 29.6406 184.393 30.0891 183.243C31.7072 179.098 35.1574 171.936 41.0713 167.11C42.2882 166.117 42.4109 164.296 41.2974 163.189C35.6374 157.56 32.1941 151.394 30.4319 147.634C29.8882 146.474 31.1635 145.308 32.2873 145.926L57.9439 160.053C64.8099 159.589 72.4185 159.345 75.8932 159.345C86.2807 159.345 96.1647 161.477 105.154 165.298C157.389 197.491 137.555 258.244 111.133 275.397C76.9126 297.612 36.7115 280.37 17.9844 264.077C5.87779 254.931 2.78026 247.553 2.49186 242.702Z" fill="#00AAF0"/>
<path d="M118 251.224C112.812 259.173 105.837 265.838 97.3836 270.199C95.7745 271.029 94.0766 271.67 92.3292 272.135C90.9469 272.503 89.6484 271.251 89.9696 269.86C93.8346 253.122 115.003 250.018 112.552 232.821C112.456 232.15 111.835 231.663 111.158 231.721C109.484 231.865 106.19 232.197 102.209 232.846C104.883 229.09 107.29 224.356 108.449 219.65C114.729 194.159 95.565 171.378 71.0699 171.378C66.175 171.378 60.2226 171.636 55.1477 172.113C119.106 155.035 142.695 213.392 118 251.224Z" fill="#DBD9DC"/>
<path d="M52.9907 268.764C50.055 268.764 47.6748 271.139 47.6748 274.069V276.722C47.6748 279.652 50.055 282.027 52.9907 282.027C55.9265 282.027 58.3066 279.652 58.3066 276.722V274.069C58.3066 271.139 55.9265 268.764 52.9907 268.764Z" fill="#4B3F4E"/>
<path d="M52.9911 274.069C54.4595 274.069 55.6498 275.257 55.6498 276.723C55.6498 278.188 54.4595 279.376 52.9911 279.376C51.5228 279.376 50.3325 278.188 50.3325 276.723C50.3325 275.257 51.5228 274.069 52.9911 274.069Z" fill="white"/>
<path d="M152.939 239.421C151.886 254.628 146.247 269.135 136.852 281.165L145.346 295.294C146.699 297.543 146.825 300.301 145.684 302.671C144.541 305.047 142.298 306.675 139.685 307.028C118.831 309.845 106.015 306.253 104.142 305.675C96.6344 308.643 88.6675 310.426 80.5139 310.901C65.2982 311.786 46.5596 306.67 36.9255 298.999C21.5622 286.765 18.903 275.64 18.6855 270.097C18.6242 268.542 17.8203 267.069 16.4794 266.055C6.10746 258.219 0.570444 250.489 0.0214829 243.08C-0.162499 240.598 0.841941 238.253 2.77723 236.648C4.73506 235.024 7.37246 234.44 9.83251 235.087C10.4299 235.244 11.0219 235.406 11.6107 235.572C16.3932 232.994 21.6226 231.931 26.8593 231.931C35.5382 231.931 44.2328 234.842 50.931 238.581C57.8066 242.419 62.3969 244.821 67.6336 245.606C74.1227 240.085 82.2129 235.766 91.5966 232.866C94.9391 231.834 98.0887 231.087 100.875 230.547C103.275 227.069 105.009 223.206 106.031 219.057C108.779 207.904 106.395 196.467 99.4919 187.678C92.5934 178.896 82.2331 173.859 71.0666 173.859C66.2423 173.859 60.6131 174.111 55.8902 174.535L30.1537 188.706C29.2792 189.188 28.2008 189.1 27.4159 188.484C26.6305 187.868 26.2914 186.843 26.554 185.881C26.6995 185.349 30.2256 172.748 39.499 165.184C39.559 165.135 39.5739 165.079 39.5755 165.04C39.5782 164.985 39.557 164.964 39.5434 164.951C30.2996 155.76 26.7406 145.316 26.5937 144.876C26.2699 143.906 26.5748 142.838 27.3618 142.184C27.8186 141.805 28.3838 141.61 28.953 141.61C29.3641 141.61 29.7774 141.712 30.1537 141.919L58.5028 157.529C64.9554 157.111 72.3167 156.863 75.8892 156.863C86.7862 156.863 97.3216 159.083 107.203 163.461C116.746 167.69 125.214 173.714 132.368 181.364C139.509 189.001 144.936 197.826 148.497 207.595C152.202 217.763 153.697 228.47 152.939 239.421ZM139.018 302.11C139.983 301.98 140.779 301.401 141.202 300.522C141.623 299.647 141.579 298.673 141.082 297.846L133.477 285.197C132.405 286.393 131.297 287.563 130.146 288.698C124.626 294.144 118.393 298.682 111.673 302.215C117.331 303.081 126.69 303.775 139.018 302.11ZM48.5038 242.912C40.3324 238.351 28.9301 235.117 18.9643 237.927C35.1646 243.746 47.3293 252.316 53.6417 257.389C54.2805 257.903 55.1072 258.123 55.9091 257.994C56.6766 257.87 57.3276 257.449 57.7427 256.807C59.3587 254.309 61.2121 251.953 63.2837 249.747C58.702 248.485 54.3667 246.185 48.5038 242.912ZM143.824 209.292C140.493 200.153 135.415 191.896 128.733 184.75C122.037 177.59 114.115 171.954 105.185 167.997C95.9429 163.902 86.0864 161.825 75.8892 161.825C72.2636 161.825 64.6216 162.088 58.108 162.528C57.6303 162.562 57.1566 162.455 56.7389 162.225L34.4095 149.93C36.2997 153.311 39.1214 157.526 43.0536 161.435C44.0707 162.447 44.6133 163.85 44.5424 165.284C44.4708 166.738 43.7796 168.102 42.6459 169.027C38.4359 172.46 35.5425 177.261 33.7385 181.064L53.943 169.939C54.2089 169.793 54.4993 169.7 54.7993 169.658L54.7989 169.655C60.7364 168.824 66.3722 168.41 71.6981 168.41C83.1563 168.41 93.1709 170.329 101.597 174.154C112.451 179.082 120.584 187.274 125.119 197.845C129.912 209.02 130.608 222.509 127.077 235.825C123.68 248.635 116.552 260.075 107.52 267.21C106.444 268.061 104.88 267.88 104.028 266.805C103.176 265.731 103.358 264.17 104.434 263.32C112.641 256.835 119.142 246.35 122.27 234.555C125.518 222.305 124.907 209.961 120.547 199.798C115.909 188.983 107.477 181.366 95.8421 177.175C98.634 179.291 101.178 181.781 103.405 184.616C111.257 194.612 113.974 207.598 110.86 220.242C110.055 223.51 108.862 226.624 107.298 229.547C110.274 229.199 112.123 229.151 112.29 229.148C113.506 229.126 114.549 229.964 114.784 231.146C117.08 242.705 110.266 248.851 103.675 254.793C98.8796 259.118 94.3106 263.238 92.5457 269.523C93.576 269.232 94.5973 268.885 95.6024 268.485C96.8784 267.978 98.3244 268.598 98.8329 269.871C99.3417 271.144 98.7198 272.587 97.4446 273.095C94.963 274.082 92.3935 274.789 89.8072 275.195C89.0464 275.313 88.2723 275.075 87.7124 274.546C87.1529 274.017 86.8701 273.26 86.9473 272.495C87.9819 262.257 94.5486 256.336 100.342 251.111C106.129 245.892 110.803 241.678 110.208 234.249C102.35 234.922 75.3588 238.722 61.9209 259.498C60.7487 261.311 58.8462 262.548 56.7008 262.893C54.5096 263.245 52.2577 262.648 50.5233 261.254C43.3828 255.515 28.4375 245.109 8.56619 239.885C7.6433 239.642 6.69189 239.853 5.9563 240.463C5.27242 241.031 4.91705 241.851 4.98103 242.714C5.28269 246.787 8.04341 253.457 19.4814 262.099C22.0141 264.013 23.5353 266.857 23.6547 269.902C23.8393 274.598 26.2115 284.118 40.0277 295.12C48.6682 302.001 66.3228 306.755 80.2252 305.947C97.6106 304.934 114.098 297.556 126.651 285.17C139.205 272.782 146.779 256.414 147.98 239.079C148.689 228.825 147.29 218.803 143.824 209.292Z" fill="black"/>
<path d="M52.9865 284.509C48.6843 284.509 45.1843 281.015 45.1843 276.722V274.07C45.1843 269.776 48.6843 266.283 52.9865 266.283C57.2887 266.283 60.7886 269.776 60.7886 274.07V276.722C60.7886 281.016 57.2887 284.509 52.9865 284.509ZM55.8161 274.07C55.8161 272.513 54.5468 271.246 52.9865 271.246C51.4261 271.246 50.1568 272.513 50.1568 274.07V276.723C50.1568 278.28 51.4261 279.547 52.9865 279.547C54.5468 279.547 55.8161 278.28 55.8161 276.723V274.07Z" fill="black"/>
</svg>
