<svg width="225" height="370" viewBox="0 0 225 370" fill="none" xmlns="http://www.w3.org/2000/svg">
<path d="M118.054 118.522C124.874 119.292 131.1 118.039 139.848 116.111C152.588 113.303 170.746 113.529 182.815 123.565L127.455 134.828L118.054 118.522Z" fill="#DBD9DC"/>
<path d="M30.1012 149.02C53.6987 158.128 70.5007 156.542 70.5007 156.542L44.9067 125.93L27.6044 140.965C24.7963 143.349 26.163 147.501 30.1012 149.02Z" fill="#00AAF0"/>
<path d="M31.7842 88.4726C26.7889 121.897 53.2869 156.094 93.0074 167.532C107.784 171.787 128.698 172.507 140.641 168.223C158.827 161.699 163.71 153.236 165.003 148.751C165.595 146.699 167.364 145.108 169.69 144.335C184.683 139.355 189.574 133.632 190.902 129.42C191.865 126.365 188.635 123.176 184.757 123.094C161.679 122.607 142.96 128.088 133.841 131.403C130.816 132.503 127.011 131.153 125.737 128.416C117.32 110.325 97.2565 99.9239 84.8968 95.0165L84.9106 94.6855C82.8085 90.6828 81.5397 86.3724 81.2728 81.918C79.8287 57.791 105.301 42.5747 131.761 48.8484C137.049 50.1021 143.425 51.8543 148.807 53.5752L171.166 70.782C172.211 71.5858 173.789 70.9571 173.545 69.8265C172.666 65.7505 170.438 58.5396 165.061 52.7617C163.954 51.5729 164.203 49.9332 165.638 49.2399C172.931 45.7167 177.942 41.1517 180.633 38.2813C181.464 37.3955 180.33 36.039 178.987 36.2978L148.313 42.2064C140.994 40.0382 132.826 37.8732 129.073 36.9832C82.5775 25.9595 37.6563 49.1835 31.7842 88.4726Z" fill="#00C3FF"/>
<path d="M190.902 129.42C191.865 126.365 188.635 123.176 184.757 123.094C161.679 122.607 142.96 128.088 133.841 131.404C130.816 132.503 127.011 131.153 125.737 128.416C117.32 110.325 97.2564 99.9241 84.8967 95.0168L84.9105 94.6857C82.8084 90.6831 81.5395 86.3726 81.2726 81.9182C79.8286 57.7912 105.301 42.575 131.761 48.8487C137.049 50.1023 143.425 51.8545 148.807 53.5755L171.166 70.7821C172.211 71.5858 173.789 70.9573 173.545 69.8268C172.665 65.7506 170.438 58.5398 165.061 52.7619C163.954 51.5731 164.203 49.9334 165.638 49.2404C172.931 45.7172 177.942 41.1523 180.633 38.2818C181.463 37.3963 180.33 36.0395 178.986 36.2982L148.313 42.2069C140.993 40.0386 132.826 37.8736 129.072 36.9837C117.851 34.3232 106.728 33.6751 96.2173 34.7484C33.0495 49.809 41.7493 108.558 66.6978 130.478C99.0103 158.867 146.048 153.932 169.689 144.335C184.683 139.356 189.574 133.633 190.902 129.42Z" fill="#00AAF0"/>
<path d="M64.3427 107.364C68.2829 115.716 74.4206 123.389 82.6391 129.407C84.2033 130.553 85.9033 131.553 87.6933 132.412C89.1094 133.091 90.7743 132.318 90.7188 131.006C90.0496 115.23 67.8335 107.067 74.0825 92.5025C74.3267 91.9338 75.0997 91.6627 75.819 91.8879C77.5968 92.444 81.0856 93.5808 85.2505 95.1733C83.1484 91.1707 81.5402 86.3723 81.2733 81.9182C79.8292 57.7912 105.302 42.5749 131.762 48.8486C137.049 50.1023 143.425 51.8545 148.807 53.5754C83.2954 22.1075 45.5909 67.6187 64.3427 107.364Z" fill="#DBD9DC"/>
<path d="M130.894 139.51C134.065 140.262 136.138 142.97 135.525 145.558L134.969 147.901C134.355 150.489 131.287 151.978 128.116 151.226C124.944 150.474 122.871 147.766 123.484 145.178L124.04 142.835C124.654 140.247 127.722 138.758 130.894 139.51Z" fill="#4B3F4E"/>
<path d="M129.782 144.196C128.196 143.82 126.661 144.564 126.354 145.859C126.047 147.153 127.084 148.507 128.67 148.884C130.256 149.26 131.791 148.515 132.098 147.221C132.405 145.926 131.368 144.572 129.782 144.196Z" fill="white"/>
<path d="M29.0737 87.989C27.0257 101.693 30.0784 115.952 37.708 128.986L25.5726 139.292C23.6404 140.933 22.9263 143.336 23.6625 145.722C24.4003 148.114 26.4817 150.127 29.2303 151.108C51.1674 158.937 65.7631 159.046 67.9078 159.015C75.3961 163.56 83.6286 167.176 92.3367 169.684C108.588 174.363 129.901 174.643 141.914 170.334C161.072 163.461 166.275 154.314 167.671 149.474C168.063 148.115 169.24 147.02 170.901 146.468C183.746 142.202 191.346 136.791 193.491 130.387C194.21 128.241 193.616 125.913 191.862 123.999C190.087 122.063 187.36 120.872 184.567 120.813C183.889 120.799 183.216 120.791 182.545 120.786C177.919 117.284 172.493 115.005 166.836 113.664C157.461 111.441 147.459 111.786 139.44 113.374C131.209 115.003 125.748 115.95 119.926 115.302C114.073 108.762 106.239 102.875 96.7096 97.9101C93.3153 96.1416 90.0695 94.6753 87.1728 93.485C85.3085 89.7971 84.2444 85.9405 84.0093 82.0141C83.3772 71.4576 88.3479 61.9644 97.646 55.9683C106.937 49.9771 119.184 48.1812 131.246 51.0412C136.457 52.2768 142.485 53.9409 147.498 55.5255L172.331 74.6358C173.174 75.2854 174.358 75.4838 175.335 75.141C176.312 74.7976 176.893 73.9788 176.811 73.0619C176.765 72.5544 175.596 60.5199 167.163 51.4632C167.108 51.4046 167.104 51.3507 167.11 51.3158C167.119 51.2672 167.146 51.254 167.164 51.2455C179.074 45.4937 185.106 37.1794 185.357 36.8283C185.91 36.0547 185.804 35.0328 185.091 34.2535C184.677 33.8015 184.107 33.4846 183.492 33.3388C183.048 33.2336 182.58 33.2177 182.13 33.3043L148.238 39.8333C141.355 37.8112 133.455 35.7067 129.596 34.7917C117.825 32.0007 105.98 31.2638 94.389 32.6008C83.1938 33.8924 72.7859 37.0447 63.4552 41.9706C54.1413 46.8878 46.4313 53.2941 40.5386 61.0119C34.4058 69.0451 30.5484 78.1213 29.0737 87.989ZM30.9805 146.934C29.9661 146.572 29.2273 145.856 28.9545 144.971C28.6831 144.091 28.9342 143.242 29.6441 142.639L40.5089 133.412C41.4159 134.744 42.3688 136.06 43.3742 137.359C48.1954 143.583 53.9789 149.188 60.4977 154.03C54.2044 153.346 43.9491 151.562 30.9805 146.934ZM141.155 117.821C150.937 115.885 163.931 115.948 174.108 120.983C155.389 121.975 140.454 126.429 132.573 129.294C131.775 129.584 130.836 129.568 129.997 129.248C129.194 128.942 128.579 128.403 128.265 127.73C127.042 125.109 125.534 122.553 123.758 120.074C128.972 120.132 134.136 119.211 141.155 117.821ZM45.2311 63.7078C50.7433 56.4881 57.9576 50.4946 66.6727 45.8932C75.4052 41.2827 85.1437 38.3326 95.6187 37.1243C106.46 35.8737 117.542 36.5639 128.557 39.1756C132.473 40.1042 140.673 42.2938 147.617 44.3508C148.126 44.5026 148.66 44.5301 149.16 44.4337L175.855 39.2914C173.105 41.7939 169.175 44.7943 164.108 47.2409C162.798 47.8741 161.918 48.9743 161.694 50.2594C161.467 51.5622 161.927 52.9443 162.958 54.0515C166.787 58.1629 168.907 63.1452 170.059 66.9671L150.564 51.9644C150.307 51.7669 150.013 51.6104 149.698 51.4964L149.699 51.4936C143.459 49.2393 137.458 47.4296 131.705 46.0659C119.328 43.1315 108.108 42.262 98.205 43.4828C85.4479 45.056 74.946 50.2092 67.834 58.3862C60.3156 67.0312 56.7387 78.7688 57.7636 91.4363C58.7495 103.623 64.0531 115.554 72.3149 124.171C73.2996 125.198 75.0266 125.438 76.1727 124.707C77.3183 123.977 77.4487 122.551 76.464 121.525C68.9564 113.693 64.1302 102.767 63.2223 91.5458C62.2792 79.8919 65.5254 69.1438 72.363 61.2823C79.6389 52.9166 90.3423 48.3474 103.788 47.6256C100.329 48.7789 97.0594 50.3274 94.0604 52.2612C83.4841 59.081 77.8293 69.8567 78.5453 81.824C78.7305 84.9174 79.3668 87.9734 80.4444 90.9562C77.302 89.8864 75.3148 89.3711 75.1348 89.325C73.8262 88.9943 72.5245 89.4676 72.0231 90.4514C67.1211 100.075 73.1951 107.249 79.0692 114.187C83.3439 119.235 87.4166 124.045 88.0066 130.049C86.9547 129.528 85.924 128.96 84.922 128.349C83.65 127.574 81.958 127.752 81.1422 128.746C80.3259 129.74 80.6953 131.175 81.9666 131.95C84.4404 133.458 87.068 134.74 89.7767 135.761C90.5738 136.061 91.4599 136.048 92.1754 135.725C92.8906 135.401 93.3547 134.804 93.4315 134.108C94.4582 124.8 88.6051 117.887 83.4411 111.787C78.2827 105.695 74.117 100.775 76.3155 94.3643C84.6634 96.9715 113.024 107.241 123.188 129.037C124.074 130.938 125.87 132.518 128.115 133.373C130.409 134.245 132.966 134.294 135.132 133.507C144.047 130.266 162.371 124.901 184.93 125.376C185.978 125.397 186.962 125.828 187.628 126.555C188.248 127.232 188.46 128.047 188.211 128.793C187.032 132.314 182.652 137.499 168.487 142.204C165.35 143.246 163.111 145.369 162.344 148.029C161.161 152.13 156.605 159.932 139.376 166.113C128.601 169.978 108.535 169.656 93.6863 165.381C75.1183 160.034 58.8538 149.293 47.8886 135.137C36.922 120.978 32.1682 104.578 34.5026 88.9577C35.8845 79.7174 39.4941 71.2221 45.2311 63.7078Z" fill="black"/>
<path d="M127.6 153.42C132.247 154.522 136.76 152.332 137.659 148.539L138.215 146.196C139.114 142.403 136.065 138.421 131.418 137.319C126.77 136.217 122.258 138.407 121.359 142.199L120.803 144.543C119.904 148.336 122.953 152.318 127.6 153.42ZM126.73 143.473C127.056 142.098 128.693 141.304 130.378 141.703C132.064 142.103 133.169 143.547 132.843 144.923L132.288 147.266C131.961 148.642 130.325 149.436 128.639 149.036C126.954 148.636 125.848 147.192 126.174 145.817L126.73 143.473Z" fill="black"/>
<path d="M113.424 239.253C107.707 236.824 101.846 236.44 93.5536 236.055C81.4782 235.495 65.6597 230.736 58.3987 218.314L110.562 221.627L113.424 239.253Z" fill="#DBD9DC"/>
<path d="M200.445 232.712C182.788 218.273 167.56 215.55 167.56 215.55L179.886 250.631L199.979 240.881C203.222 239.352 203.392 235.121 200.445 232.712Z" fill="#00AAF0"/>
<path d="M179.043 288.999C194.417 258.944 182.479 220.28 151.477 199.621C139.945 191.936 121.876 186.025 110.012 187.047C91.9468 188.603 84.8873 195.307 82.2786 199.184C81.0856 200.957 79.0133 202.005 76.7234 202.146C61.9612 203.056 55.7962 207.192 53.2475 210.804C51.399 213.424 53.1764 217.22 56.544 218.267C76.5831 224.503 94.7722 224.056 103.845 223.235C106.854 222.962 109.741 225.179 109.955 228.062C111.368 247.114 125.505 261.879 134.708 269.57L134.587 269.877C135.11 274.152 134.802 278.507 133.569 282.746C126.892 305.705 99.5876 313.578 78.4926 301.077C74.2771 298.578 69.2731 295.341 65.1287 292.381L51.2214 270.666C50.5719 269.652 48.9835 269.846 48.825 270.966C48.253 275.003 47.8289 282.315 50.634 289.073C51.2113 290.464 50.4538 291.937 48.9697 292.227C41.4266 293.701 35.5381 296.722 32.2377 298.736C31.2194 299.358 31.7649 300.912 33.0257 301.006L61.8187 303.153C67.5118 307.016 73.9481 311.089 76.9406 312.863C114.009 334.83 160.971 324.327 179.043 288.999Z" fill="#00C3FF"/>
<path d="M53.2482 210.803C51.3996 213.424 53.1772 217.219 56.5447 218.267C76.5838 224.502 94.7727 224.056 103.845 223.234C106.855 222.962 109.741 225.179 109.955 228.061C111.368 247.113 125.506 261.879 134.709 269.57L134.588 269.877C135.11 274.152 134.802 278.507 133.57 282.746C126.892 305.705 99.5882 313.578 78.4932 301.076C74.2778 298.578 69.2738 295.34 65.1293 292.381L51.2223 270.666C50.5724 269.652 48.9844 269.845 48.8256 270.965C48.2539 275.003 47.8296 282.315 50.6347 289.073C51.212 290.463 50.4545 291.937 48.9705 292.226C41.4274 293.7 35.5389 296.721 32.2385 298.736C31.2204 299.357 31.7657 300.912 33.0268 301.006L61.8198 303.152C67.5129 307.016 73.9492 311.089 76.9417 312.862C85.8873 318.164 95.4101 321.556 104.963 323.183C165.21 324.894 176.932 267.691 162.31 240.914C143.372 206.233 100.576 199.077 76.7243 202.146C61.9619 203.055 55.7967 207.191 53.2482 210.803Z" fill="#00AAF0"/>
<path d="M156.763 263.153C156.063 254.344 153.217 245.621 148.004 237.926C147.012 236.461 145.853 235.099 144.569 233.846C143.553 232.855 141.842 233.163 141.458 234.405C136.851 249.349 153.61 262.557 143.347 274.633C142.946 275.105 142.18 275.165 141.624 274.774C140.251 273.808 137.572 271.87 134.451 269.335C134.973 273.611 134.801 278.508 133.569 282.746C126.892 305.705 99.5874 313.578 78.4924 301.077C74.2769 298.579 69.2729 295.341 65.1285 292.381C112.113 338.259 160.094 305.074 156.763 263.153Z" fill="#DBD9DC"/>
<path d="M109.094 216.379C106.566 214.881 105.642 211.825 107.031 209.555L108.289 207.499C109.678 205.229 112.854 204.602 115.382 206.101C117.91 207.599 118.834 210.655 117.445 212.925L116.187 214.981C114.798 217.251 111.622 217.877 109.094 216.379Z" fill="#4B3F4E"/>
<path d="M111.609 212.269C112.873 213.018 114.462 212.705 115.156 211.57C115.851 210.434 115.389 208.906 114.125 208.157C112.86 207.407 111.272 207.72 110.577 208.856C109.883 209.992 110.344 211.52 111.609 212.269Z" fill="white"/>
<path d="M181.256 290.131C187.559 277.809 189.581 263.689 187.193 249.571L201.207 242.958C203.438 241.904 204.854 239.832 204.995 237.413C205.137 234.988 203.978 232.581 201.895 230.975C185.27 218.149 172.531 214.392 170.644 213.883C165.585 207.752 159.569 202.304 152.773 197.774C140.089 189.323 121.526 183.723 109.592 184.751C90.5614 186.391 82.9967 193.655 80.1817 197.839C79.3916 199.013 78.001 199.744 76.3656 199.846C63.7181 200.625 55.2848 203.789 51.2996 209.25C49.9643 211.08 49.7177 213.41 50.6234 215.641C51.5393 217.9 53.5341 219.698 55.9592 220.452C56.5481 220.635 57.135 220.812 57.7206 220.984C60.6173 225.422 64.6165 228.915 69.1263 231.588C76.6006 236.017 85.4685 238.199 93.0096 238.72C100.751 239.254 105.842 239.736 110.724 241.8C113.695 249.391 118.615 256.867 125.321 263.903C127.71 266.409 130.068 268.595 132.212 270.435C132.63 274.356 132.292 278.235 131.205 281.971C128.284 292.017 120.809 299.663 110.697 302.951C100.592 306.236 89.2821 304.851 79.6656 299.152C75.5109 296.69 70.7825 293.622 66.9164 290.883L51.4708 266.766C50.946 265.946 49.9756 265.464 49.0077 265.541C48.0392 265.617 47.2611 266.239 47.0312 267.118C46.9042 267.605 43.9669 279.169 48.3672 289.764C48.3957 289.832 48.3817 289.884 48.3646 289.915C48.3412 289.958 48.3128 289.964 48.2947 289.967C35.9766 292.372 27.9603 298.649 27.6253 298.915C26.8866 299.501 26.6428 300.484 27.0104 301.393C27.2241 301.92 27.6184 302.359 28.1086 302.65C28.4626 302.86 28.8669 302.992 29.2892 303.023L61.1038 305.395C66.4625 309.012 72.6843 312.961 75.761 314.785C85.1454 320.346 95.271 324.003 105.856 325.653C116.08 327.246 126.228 326.9 136.016 324.623C145.787 322.35 154.644 318.28 162.342 312.527C170.354 306.539 176.718 299.004 181.256 290.131ZM198.989 234.446C199.757 235.039 200.169 235.894 200.116 236.791C200.064 237.683 199.565 238.416 198.745 238.803L186.198 244.724C185.842 243.25 185.442 241.778 184.989 240.31C182.818 233.273 179.601 226.576 175.489 220.408C180.772 222.625 189.161 226.863 198.989 234.446ZM92.9726 234.125C83.7729 233.489 72.4203 230.175 65.1699 222.912C81.8805 226.67 96.4194 226.238 104.261 225.528C105.054 225.456 105.871 225.707 106.5 226.217C107.103 226.704 107.464 227.363 107.517 228.072C107.724 230.833 108.203 233.605 108.941 236.371C104.397 235.011 99.5734 234.581 92.9726 234.125ZM159.122 308.827C151.921 314.209 143.634 318.016 134.491 320.143C125.33 322.275 115.835 322.599 106.269 321.108C96.3682 319.565 86.8955 316.143 78.1137 310.939C74.9914 309.089 68.5348 304.985 63.134 301.319C62.7384 301.05 62.2801 300.89 61.8112 300.855L36.7523 298.987C39.983 297.332 44.4111 295.506 49.651 294.483C51.0065 294.218 52.1389 293.408 52.7578 292.26C53.3854 291.097 53.4369 289.687 52.8989 288.392C50.9011 283.583 50.6856 278.385 50.9351 274.517L63.0607 293.45C63.2202 293.7 63.4262 293.92 63.6646 294.106L63.6628 294.108C68.3824 297.782 73.0394 300.979 77.6261 303.697C87.4941 309.545 97.0284 313.169 106.098 314.505C117.782 316.226 128.67 314.029 137.587 308.151C147.013 301.937 154.007 291.839 157.279 279.718C160.427 268.058 159.712 255.555 155.317 245.415C154.793 244.207 153.361 243.549 152.117 243.947C150.874 244.344 150.291 245.647 150.814 246.855C154.808 256.069 155.436 267.512 152.537 278.249C149.527 289.4 143.148 298.654 134.576 304.305C125.454 310.318 114.581 311.918 102.575 309.227C105.982 309.013 109.353 308.381 112.615 307.321C124.117 303.582 132.613 294.905 135.926 283.517C136.782 280.574 137.231 277.552 137.269 274.489C139.667 276.278 141.237 277.258 141.38 277.346C142.416 277.983 143.711 277.866 144.474 277.07C151.932 269.284 148.977 261.044 146.119 253.075C144.039 247.277 142.057 241.752 143.517 235.981C144.266 236.732 144.982 237.522 145.658 238.345C146.516 239.389 148.055 239.646 149.097 238.92C150.138 238.193 150.287 236.757 149.43 235.713C147.761 233.681 145.883 231.822 143.848 230.187C143.249 229.707 142.469 229.497 141.736 229.621C141.004 229.745 140.401 230.188 140.105 230.82C136.142 239.282 138.99 247.222 141.502 254.228C144.012 261.226 146.039 266.877 142.005 272.33C135.556 267.798 114.113 251.078 112.391 228.119C112.24 226.116 111.189 224.187 109.505 222.824C107.784 221.433 105.562 220.746 103.408 220.941C94.5376 221.744 76.7331 222.181 57.1435 216.087C56.2333 215.805 55.5142 215.156 55.1701 214.307C54.85 213.519 54.9328 212.702 55.3971 212.066C57.588 209.063 63.1275 205.304 77.075 204.444C80.1635 204.253 82.8222 202.825 84.3687 200.526C86.7539 196.982 93.3103 190.815 110.425 189.34C121.128 188.418 138.586 193.745 150.175 201.466C164.668 211.124 175.368 225.256 180.306 241.261C185.245 257.268 184.008 273.819 176.823 287.864C172.572 296.173 166.617 303.226 159.122 308.827Z" fill="black"/>
<path d="M116.555 204.176C112.85 201.981 108.179 202.901 106.144 206.229L104.886 208.284C102.851 211.611 104.209 216.105 107.914 218.3C111.619 220.496 116.289 219.575 118.325 216.248L119.582 214.192C121.618 210.865 120.26 206.372 116.555 204.176ZM114.042 213.71C113.304 214.917 111.61 215.251 110.267 214.454C108.923 213.658 108.43 212.029 109.169 210.822L110.426 208.766C111.165 207.559 112.858 207.225 114.202 208.022C115.546 208.818 116.038 210.448 115.3 211.654L114.042 213.71Z" fill="black"/>
</svg>
