<svg width="35" height="53" viewBox="0 0 35 53" fill="none" xmlns="http://www.w3.org/2000/svg">
<path d="M8.82363 53.0011C13.6218 53.0011 17.5159 49.0494 17.5159 44.1805V35.3599H8.82363C4.02551 35.3599 0.131378 39.3115 0.131378 44.1805C0.131378 49.0494 4.02551 53.0011 8.82363 53.0011Z" fill="#0ACF83"/>
<path d="M0.131378 26.5394C0.131378 21.6704 4.02551 17.7188 8.82363 17.7188H17.5159V35.36H8.82363C4.02551 35.36 0.131378 31.4084 0.131378 26.5394Z" fill="#A259FF"/>
<path d="M0.131409 8.8997C0.131409 4.03073 4.02554 0.0791016 8.82366 0.0791016H17.5159V17.7203H8.82366C4.02554 17.7203 0.131409 13.7687 0.131409 8.8997Z" fill="#F24E1E"/>
<path d="M17.5161 0.0776367H26.2084C31.0065 0.0776367 34.9007 4.02928 34.9007 8.89826C34.9007 13.7673 31.0065 17.7189 26.2084 17.7189H17.5161V0.0776367Z" fill="#FF7262"/>
<path d="M34.9007 26.5394C34.9007 31.4084 31.0065 35.36 26.2084 35.36C21.4102 35.36 17.5161 31.4084 17.5161 26.5394C17.5161 21.6704 21.4102 17.7188 26.2084 17.7188C31.0065 17.7188 34.9007 21.6704 34.9007 26.5394Z" fill="#1ABCFE"/>
</svg>
