<svg width="49" height="49" viewBox="0 0 49 49" fill="none" xmlns="http://www.w3.org/2000/svg">
<path d="M32.6893 27.9293C32.8249 29.8536 32.9565 31.6916 33.084 33.4248C33.1745 34.6398 33.2622 35.8014 33.3472 36.9096C33.959 36.4548 34.5356 35.9545 35.0721 35.4129C37.1194 33.3498 38.5542 30.7592 39.2169 27.9293H32.6893ZM10.9744 19.208C10.9456 18.3239 10.9278 17.4412 10.921 16.5599C10.6845 16.9444 10.4646 17.3405 10.261 17.7482C9.99767 18.2714 9.76361 18.8089 9.55994 19.358L11.0382 20.8363C11.0114 20.2935 10.9902 19.7507 10.9744 19.208ZM32.6893 27.9293C32.8249 29.8536 32.9565 31.6916 33.084 33.4248C33.1745 34.6398 33.2622 35.8014 33.3472 36.9096C33.959 36.4548 34.5356 35.9545 35.0721 35.4129C37.1194 33.3498 38.5542 30.7592 39.2169 27.9293H32.6893ZM32.6893 27.9293C32.8249 29.8536 32.9565 31.6916 33.084 33.4248C33.1745 34.6398 33.2622 35.8014 33.3472 36.9096C33.959 36.4548 34.5356 35.9545 35.0721 35.4129C37.1194 33.3498 38.5542 30.7592 39.2169 27.9293H32.6893ZM10.921 16.5599C10.6845 16.9444 10.4646 17.3405 10.261 17.7482C9.99767 18.2714 9.76361 18.8089 9.55994 19.358L11.0382 20.8363C11.0114 20.2935 10.9902 19.7507 10.9744 19.208C10.9456 18.3239 10.9278 17.4412 10.921 16.5599ZM46.3695 15.5052C45.0176 12.201 42.9516 9.23669 40.3196 6.82468C37.6876 4.41266 34.5546 2.61265 31.1452 1.55362C27.8636 0.545339 24.4031 0.256843 20.9998 0.707802C17.5965 1.15876 14.3305 2.33857 11.4247 4.16672C9.41228 5.43162 7.59668 6.98537 6.03606 8.77819C3.91278 11.2082 2.30339 14.0428 1.30485 17.1114C0.306311 20.1799 -0.0607105 23.4188 0.225899 26.633C0.512509 29.8472 1.44682 32.9701 2.97254 35.8136C4.49825 38.657 6.5838 41.1622 9.10352 43.1781L9.10558 43.1802C11.0234 44.7298 13.1681 45.9752 15.4646 46.8727C18.2265 47.9506 21.1656 48.5028 24.1304 48.501C24.8582 48.501 25.5778 48.4681 26.2891 48.4023C26.8915 48.3488 27.487 48.2721 28.0757 48.172C30.1594 47.827 32.187 47.2025 34.1037 46.3155C36.9914 44.9829 39.5883 43.0945 41.7462 40.7581C43.904 38.4218 45.5805 35.6833 46.6799 32.699C47.2468 31.1555 47.6506 29.5568 47.8847 27.9293C48.4936 23.7268 47.9705 19.4381 46.3695 15.5052ZM13.6718 40.2279C12.6216 39.5465 11.6459 38.7568 10.7606 37.8718C7.28878 34.4199 5.31723 29.7389 5.27331 24.8433L12.0435 31.5518L23.0037 42.4113L23.9597 43.3591C23.8097 43.3529 23.6575 43.3467 23.5074 43.3385C20.0141 43.175 16.6239 42.1028 13.6718 40.2279ZM42.6688 27.9293C41.9611 31.6657 40.1367 35.0995 37.4364 37.7772C36.6299 38.5807 35.7534 39.3108 34.8172 39.9585C34.4368 40.2217 34.0441 40.4725 33.6432 40.7069C32.1868 41.5663 30.6202 42.2234 28.9865 42.6601C28.7418 42.7258 28.4951 42.7875 28.2464 42.843L5.78935 20.386C6.29587 18.1351 7.21307 15.9968 8.49496 14.0784C9.22208 12.9888 10.0591 11.9768 10.9929 11.0582C14.4898 7.59636 19.2097 5.65152 24.1304 5.64494C28.0672 5.63187 31.9083 6.85828 35.1091 9.15031C36.7466 10.3207 38.1903 11.7408 39.3875 13.3588L36.8176 15.5875C35.4341 13.7125 33.6646 12.1561 31.6284 11.0233C30.7416 10.5306 29.8085 10.1263 28.8426 9.81643C27.3205 9.32308 25.7304 9.07193 24.1304 9.07219C23.6616 9.07219 23.197 9.09274 22.7406 9.13592C20.3273 9.36365 18.0011 10.1539 15.9484 11.4431C13.8958 12.7324 12.1739 14.4849 10.921 16.5599C10.6845 16.9444 10.4646 17.3405 10.261 17.7482C9.99767 18.2714 9.76361 18.8089 9.55994 19.358L11.0382 20.8363L12.5102 22.3083L29.2743 39.0724C30.3768 38.6917 31.4305 38.1824 32.4138 37.5552C32.7345 37.3537 33.0456 37.1385 33.3472 36.9096C33.959 36.4548 34.5356 35.9545 35.0721 35.4129C37.1194 33.3498 38.5542 30.7592 39.2169 27.9293H30.989V24.502H42.9875C42.9881 25.6518 42.8814 26.7992 42.6688 27.9293ZM32.6893 27.9293C32.8249 29.8536 32.9565 31.6916 33.084 33.4248C33.1745 34.6398 33.2622 35.8014 33.3472 36.9096C33.959 36.4548 34.5356 35.9545 35.0721 35.4129C37.1194 33.3498 38.5542 30.7592 39.2169 27.9293H32.6893ZM32.6893 27.9293C32.8249 29.8536 32.9565 31.6916 33.084 33.4248C33.1745 34.6398 33.2622 35.8014 33.3472 36.9096C33.959 36.4548 34.5356 35.9545 35.0721 35.4129C37.1194 33.3498 38.5542 30.7592 39.2169 27.9293H32.6893Z" fill="#663399"/>
</svg>
