<svg width="1075" height="301" viewBox="0 0 1075 301" fill="none" xmlns="http://www.w3.org/2000/svg">
<path fill-rule="evenodd" clip-rule="evenodd" d="M1074.01 -134.163C1073.24 -29.4129 1121.61 95.5502 1049.38 171.415C976.59 247.858 847.414 195.783 743.303 213.162C653.407 228.168 570.081 289.144 481.891 266.145C389.569 242.068 333.865 156.073 266.255 88.7526C177.088 -0.0338881 31.9849 -63.541 24.6349 -189.159C17.3351 -313.918 127.138 -422.779 232.382 -490.174C323.131 -548.287 438.63 -531.784 546.036 -523.047C621.979 -516.87 681.124 -462.376 755.87 -447.595C856.067 -427.78 980.982 -494.328 1053.74 -422.646C1124.13 -353.295 1074.73 -232.977 1074.01 -134.163Z" fill="#232529" fill-opacity="0.51"/>
</svg>
