<svg width="797" height="912" viewBox="0 0 797 912" fill="none" xmlns="http://www.w3.org/2000/svg">
<path d="M631.693 292.368C643.48 302.597 661.328 301.335 671.557 289.548C681.787 277.761 680.525 259.914 668.738 249.684C656.951 239.455 639.103 240.717 628.874 252.504C618.644 264.29 619.907 282.138 631.693 292.368Z" fill="#ADADAD"/>
<path d="M417.98 671.605C429.767 681.835 447.615 680.572 457.844 668.786C468.074 656.999 466.812 639.151 455.025 628.922C443.238 618.692 425.39 619.954 415.161 631.741C404.931 643.528 406.194 661.376 417.98 671.605Z" fill="#ADADAD"/>
<path d="M32.1733 631.507C22.1914 616.67 19.0351 588.252 39.9043 571.069C50.2543 562.547 62.3299 561.696 72.6618 563.336C86.9529 565.604 99.4057 572.593 110.062 580.876C122.353 590.431 132.692 602.21 142.876 614.015C152.929 625.67 163.135 637.151 173.898 648.093C216.035 690.882 264.459 726.986 317.495 755.157C330.587 762.107 343.993 768.564 357.712 774.528C370.533 780.386 383.757 785.319 397.281 789.292C415.433 794.261 446.66 800.375 464.201 776.731C473.502 764.194 474.727 748.798 473.422 736.197C471.843 720.961 466.589 707.279 461.407 693.922C437.299 631.792 412.862 569.866 388.588 507.84C382.923 493.364 377.062 478.974 372.517 463.827C368.261 449.645 364.889 434.535 365.625 418.328C366.268 404.173 370.112 387.757 381.252 375.345C390.49 365.051 402.935 360.313 414.505 358.741C443.15 354.85 469.308 365.894 490.757 378.403C517.405 393.943 540.609 414.121 567.143 429.824C588.567 442.502 613.983 453.141 642.271 450.934C654.022 450.249 665.348 446.292 674.968 439.509C684.735 432.136 691.971 421.913 695.677 410.251C700.049 396.981 700.278 383.587 698.954 371.306C697.344 357.301 693.602 343.624 687.859 330.749C675.945 303.436 658.956 279.854 644.593 254.363C637.549 241.862 630.708 228.919 626.662 214.435C623.235 202.165 620.692 187.427 625.449 172.922C635.264 142.995 668.593 149.008 685.348 154.87C696.604 159.008 707.493 164.081 717.902 170.036C720.13 171.263 722.588 166.821 720.37 165.6C709.435 159.307 697.947 154.028 686.049 149.831C675.827 146.432 664.515 143.807 652.487 145.744C647.034 146.6 641.822 148.592 637.189 151.592C632.556 154.593 628.606 158.534 625.595 163.16C618.026 175.038 617.785 189.042 619.07 200.452C620.769 215.541 625.989 228.963 632.157 241.563C638.652 254.833 646.2 267.332 653.8 279.763C668.986 304.603 685.741 329.535 692.379 360.107C697.022 381.493 698.893 415.658 674.523 434.844C663.705 443.361 650.841 446.195 639.34 446.51C626.009 446.676 612.76 444.423 600.234 439.859C543.664 420.344 507.994 368.232 447.259 355.7C426.609 351.439 397.428 350.985 377.919 373.189C367.785 384.723 363.203 399.392 361.655 412.785C359.799 428.826 362.25 444.006 365.918 458.099C369.988 472.697 374.92 487.041 380.689 501.056C386.769 516.622 392.858 532.182 398.956 547.736L435.917 642.181L454.282 689.107C459.887 703.429 465.946 717.76 468.427 733.796C470.457 746.925 470.273 765.415 458.029 777.945C448.305 787.896 434.767 789.418 424.007 788.953C410.074 788.35 397.133 784.55 384.861 780.074C370.705 774.912 356.976 768.905 343.521 762.54C315.967 749.493 289.492 734.281 264.343 717.048C239.245 699.872 215.514 680.779 193.364 659.939C182.173 649.409 171.4 638.433 161.045 627.012C150.375 615.235 140.429 602.727 129.333 591.378C119.298 581.112 108.209 571.849 95.0924 565.465C84.1403 560.135 71.0694 556.232 57.1369 558.66C46.6783 560.668 37.314 566.429 30.806 574.858C24.3081 583.268 20.4907 593.438 19.85 604.046C19.1683 614.857 22.0789 625.59 28.1289 634.576C29.5549 636.695 33.6056 633.637 32.1733 631.508L32.1733 631.507Z" fill="#ADADAD"/>
</svg>
