<svg width="371" height="466" viewBox="0 0 371 466" fill="none" xmlns="http://www.w3.org/2000/svg">
<path d="M221.606 201.712C229.574 204.388 238.203 200.098 240.879 192.13C243.555 184.162 239.265 175.533 231.297 172.857C223.329 170.18 214.7 174.47 212.024 182.438C209.348 190.407 213.637 199.036 221.606 201.712Z" fill="#ADADAD"/>
<path d="M188.649 405.044C196.617 407.72 205.247 403.43 207.923 395.462C210.599 387.494 206.309 378.865 198.341 376.189C190.373 373.512 181.744 377.802 179.067 385.77C176.391 393.739 180.681 402.368 188.649 405.044Z" fill="#ADADAD"/>
<path d="M25.5355 374.917C17.188 369.734 9.14171 357.137 15.6088 345.708C18.8161 340.04 24.63 337.627 30.1441 336.655C37.7712 335.312 45.5594 336.456 52.7489 338.499C61.0415 340.855 68.8693 344.566 76.6264 348.315C84.2842 352.016 91.9784 355.611 99.8265 358.864C130.542 371.576 162.861 380.149 195.668 384.287C203.765 385.306 211.906 386.045 220.091 386.505C227.805 387.065 235.508 387.131 243.142 386.703C253.306 385.96 270.235 383.559 273.574 369.703C275.344 362.357 272.446 355.04 268.924 349.439C264.667 342.666 258.935 337.226 253.313 331.923C227.16 307.261 200.89 282.747 174.679 258.16C168.561 252.422 162.366 246.756 156.652 240.52C151.304 234.682 146.182 228.267 142.855 220.659C139.95 214.013 138.121 205.788 140.835 198.191C143.085 191.89 148.197 187.62 153.595 184.958C166.96 178.367 182.491 179.091 196.013 181.28C212.812 183.999 228.955 189.436 245.735 192.249C259.283 194.52 274.353 195.181 287.924 189.428C293.614 187.146 298.347 183.423 301.588 178.68C304.767 173.641 306.037 167.708 305.223 161.701C304.375 154.841 301.436 148.616 297.979 143.165C293.986 136.966 289.008 131.275 283.216 126.289C271.064 115.667 257.238 107.618 244.283 98.2474C237.93 93.6519 231.577 88.8188 226.263 82.8061C221.762 77.712 217.138 71.3305 216.199 63.835C214.263 48.3698 232.215 45.5703 241.887 45.4744C248.43 45.5021 255.003 46.0231 261.539 47.032C262.928 47.2258 263.138 44.7631 261.756 44.5702C254.882 43.493 247.963 42.9774 241.087 43.0296C235.227 43.1702 229.001 43.8503 223.458 46.7577C220.94 48.0652 218.801 49.8576 217.18 52.0186C215.558 54.1796 214.491 56.6609 214.047 59.3014C212.989 66.054 216.06 72.5626 219.299 77.6178C223.583 84.3028 229.239 89.6285 235.179 94.4163C241.435 99.4588 248.038 103.969 254.652 108.439C267.869 117.371 281.886 126.083 292.155 139.093C299.339 148.193 308.055 163.661 300.303 176.6C296.862 182.344 291.107 185.806 285.457 187.875C278.863 190.183 271.757 191.359 264.486 191.347C231.894 191.799 202.271 173.698 169.198 178.072C157.953 179.559 143.331 184.233 138.685 197.753C136.272 204.776 137.335 212.318 139.617 218.763C142.349 226.482 147.028 233.084 152.064 238.979C157.416 245.041 163.139 250.841 169.202 256.348C175.774 262.52 182.35 268.688 188.928 274.852L228.84 312.29L248.671 330.891C254.723 336.568 261.004 342.174 265.892 349.165C269.895 354.89 274.016 363.461 270.78 371.297C268.21 377.52 261.821 380.488 256.362 382.074C249.292 384.127 241.988 384.537 234.862 384.523C226.643 384.508 218.443 384.03 210.299 383.342C193.617 381.926 176.978 379.33 160.539 375.579C144.138 371.845 127.98 366.997 112.211 361.078C104.243 358.087 96.3821 354.82 88.6276 351.277C80.6352 347.623 72.8364 343.51 64.7299 340.125C57.3975 337.062 49.7698 334.639 41.7891 333.886C35.1255 333.256 27.733 333.641 21.3545 337.093C16.6087 339.771 13.2625 343.998 11.9456 348.981C10.6292 353.952 11.0475 359.288 13.1463 364.295C15.2708 369.403 19.1648 373.873 24.2224 377.011C25.4149 377.751 26.7333 375.661 25.5356 374.917L25.5355 374.917Z" fill="#ADADAD"/>
<g filter="url(#filter0_d)">
<path d="M298.799 81.3363C294.146 69.4938 280.771 63.6754 268.926 68.3406L241.053 79.318C229.208 83.9832 223.377 97.3654 228.03 109.208L238.995 137.114C243.648 148.956 257.022 154.774 268.868 150.109L296.741 139.132C308.586 134.467 314.417 121.084 309.764 109.242L298.799 81.3363Z" fill="#F2F2F2"/>
</g>
<g filter="url(#filter1_d)">
<path d="M125.426 332.073C120.773 320.23 107.399 314.412 95.5532 319.077L67.6805 330.054C55.8351 334.72 50.0045 348.102 54.6575 359.944L65.622 387.85C70.275 399.692 83.6497 405.511 95.4951 400.846L123.368 389.868C135.213 385.203 141.044 371.821 136.391 359.978L125.426 332.073Z" fill="url(#paint0_linear)"/>
</g>
<g filter="url(#filter2_d)">
<path d="M177.895 272.851C170.291 283.053 172.406 297.484 182.619 305.085L206.651 322.969C216.865 330.569 231.309 328.461 238.913 318.259L256.832 294.221C264.436 284.019 262.321 269.588 252.108 261.987L228.076 244.103C217.863 236.503 203.418 238.611 195.814 248.813L177.895 272.851Z" fill="url(#paint1_linear)"/>
</g>
<defs>
<filter id="filter0_d" x="223.356" y="66.7305" width="91.0817" height="91.1339" filterUnits="userSpaceOnUse" color-interpolation-filters="sRGB">
<feFlood flood-opacity="0" result="BackgroundImageFix"/>
<feColorMatrix in="SourceAlpha" type="matrix" values="0 0 0 0 0 0 0 0 0 0 0 0 0 0 0 0 0 0 127 0"/>
<feOffset dy="3.07267"/>
<feGaussianBlur stdDeviation="1.53633"/>
<feColorMatrix type="matrix" values="0 0 0 0 0 0 0 0 0 0 0 0 0 0 0 0 0 0 0.25 0"/>
<feBlend mode="normal" in2="BackgroundImageFix" result="effect1_dropShadow"/>
<feBlend mode="normal" in="SourceGraphic" in2="effect1_dropShadow" result="shape"/>
</filter>
<filter id="filter1_d" x="49.9832" y="317.467" width="91.0817" height="91.1339" filterUnits="userSpaceOnUse" color-interpolation-filters="sRGB">
<feFlood flood-opacity="0" result="BackgroundImageFix"/>
<feColorMatrix in="SourceAlpha" type="matrix" values="0 0 0 0 0 0 0 0 0 0 0 0 0 0 0 0 0 0 127 0"/>
<feOffset dy="3.07267"/>
<feGaussianBlur stdDeviation="1.53633"/>
<feColorMatrix type="matrix" values="0 0 0 0 0 0 0 0 0 0 0 0 0 0 0 0 0 0 0.25 0"/>
<feBlend mode="normal" in2="BackgroundImageFix" result="effect1_dropShadow"/>
<feBlend mode="normal" in="SourceGraphic" in2="effect1_dropShadow" result="shape"/>
</filter>
<filter id="filter2_d" x="170.258" y="239.539" width="94.2109" height="94.1395" filterUnits="userSpaceOnUse" color-interpolation-filters="sRGB">
<feFlood flood-opacity="0" result="BackgroundImageFix"/>
<feColorMatrix in="SourceAlpha" type="matrix" values="0 0 0 0 0 0 0 0 0 0 0 0 0 0 0 0 0 0 127 0"/>
<feOffset dy="3.07267"/>
<feGaussianBlur stdDeviation="1.53633"/>
<feColorMatrix type="matrix" values="0 0 0 0 0 0 0 0 0 0 0 0 0 0 0 0 0 0 0.25 0"/>
<feBlend mode="normal" in2="BackgroundImageFix" result="effect1_dropShadow"/>
<feBlend mode="normal" in="SourceGraphic" in2="effect1_dropShadow" result="shape"/>
</filter>
<linearGradient id="paint0_linear" x1="107.264" y1="317.619" x2="64.9209" y2="391.911" gradientUnits="userSpaceOnUse">
<stop stop-color="#2AA4F4"/>
<stop offset="1" stop-color="#007AD9"/>
</linearGradient>
<linearGradient id="paint1_linear" x1="10.6055" y1="470.985" x2="68.4663" y2="509.679" gradientUnits="userSpaceOnUse">
<stop stop-color="#00CFFD"/>
<stop offset="1" stop-color="#E9FA66"/>
</linearGradient>
</defs>
</svg>
