<svg width="449" height="699" viewBox="0 0 449 699" fill="none" xmlns="http://www.w3.org/2000/svg">
<g id="box-pattern">
<g id="boxes">
<g id="box3" filter="url(#filter0_d)">
<path d="M194.288 48.2243C178.672 38.5068 158.142 43.3015 148.431 58.9335L125.582 95.7165C115.872 111.349 120.659 131.899 136.274 141.616L173.071 164.514C188.686 174.232 209.217 169.437 218.927 153.805L241.776 117.022C251.487 101.39 246.7 80.8402 231.084 71.1226L194.288 48.2243Z" fill="#F2F2F2"/>
</g>
<g id="box2" filter="url(#filter1_d)">
<rect width="109.913" height="109.974" rx="33.3114" transform="matrix(-0.527814 0.84969 0.848789 0.528202 336.013 497.63)" fill="#56B8FF"/>
</g>
<g id="box1" filter="url(#filter2_d)">
<path d="M190.288 308.224C174.672 298.507 154.142 303.301 144.431 318.934L121.582 355.717C111.872 371.349 116.659 391.899 132.274 401.616L169.071 424.514C184.686 434.232 205.217 429.437 214.927 413.805L237.776 377.022C247.487 361.39 242.7 340.84 227.084 331.123L190.288 308.224Z" fill="#E9FA66"/>
</g>
</g>
<g id="curve">
<path id="Vector" d="M218.549 304.041C231.508 304.041 242.013 294.868 242.013 283.554C242.013 272.239 231.508 263.066 218.549 263.066C205.59 263.066 195.085 272.239 195.085 283.554C195.085 294.868 205.59 304.041 218.549 304.041Z" fill="#ADADAD"/>
<path id="Vector_2" d="M116.573 592.454C129.531 592.454 140.036 583.282 140.036 571.967C140.036 560.652 129.531 551.48 116.573 551.48C103.614 551.48 93.109 560.652 93.109 571.967C93.109 583.282 103.614 592.454 116.573 592.454Z" fill="#ADADAD"/>
<path id="Vector_3" d="M30.616 627.038C16.7924 623.778 -0.0309397 610.219 3.57076 591.583C5.35702 582.34 12.2129 576.357 19.3216 572.488C29.1544 567.137 40.3529 565.12 51.1447 564.611C63.5924 564.023 76.0262 565.505 88.3809 567.072C100.578 568.618 112.775 570.003 125.026 570.849C172.965 574.132 221.197 571.005 268.055 561.576C279.62 559.246 291.116 556.512 302.542 553.375C313.37 550.592 323.956 547.137 334.22 543.037C347.805 537.342 369.897 526.261 368.096 505.738C367.141 494.856 359.801 486.165 352.398 480.11C343.447 472.789 333.09 467.972 322.945 463.294C275.758 441.536 228.479 420.036 181.246 398.408C170.223 393.361 159.126 388.449 148.427 382.533C138.411 376.995 128.442 370.562 120.381 361.668C113.34 353.899 107.049 343.469 107.271 331.81C107.455 322.142 112.494 313.937 118.666 307.805C133.946 292.623 155.562 286.468 175.097 283.243C199.369 279.237 223.991 279.258 248.278 275.39C267.888 272.267 288.842 266.237 304.79 252.108C311.537 246.361 316.309 239.082 318.567 231.092C320.604 222.723 319.614 214.009 315.734 206.153C311.414 197.143 304.522 189.965 297.276 184.088C288.952 177.43 279.512 171.923 269.281 167.757C247.741 158.795 225.09 154.128 203.026 147.251C192.206 143.878 181.275 140.179 171.228 134.385C162.715 129.477 153.442 122.86 148.706 113.021C138.935 92.7214 162.246 80.6229 175.455 76.0401C184.433 73.0669 193.681 70.7554 203.1 69.1299C205.092 68.7565 204.247 65.2851 202.265 65.6567C192.349 67.3446 182.632 69.8221 173.234 73.0583C165.268 75.9479 157.05 79.7455 150.793 86.2803C147.944 89.2308 145.838 92.6714 144.611 96.3787C143.384 100.086 143.064 103.977 143.671 107.8C145.328 117.54 152.532 125.045 159.297 130.481C168.244 137.67 178.445 142.364 188.788 146.191C199.681 150.221 210.805 153.363 221.925 156.444C244.146 162.6 267.363 168.087 287.423 181.187C301.455 190.352 320.517 207.534 315.849 228.833C313.777 238.287 307.485 245.679 300.695 251.116C292.722 257.312 283.526 262.194 273.556 265.524C229.105 281.144 180.183 269.974 136.877 291.189C122.153 298.402 104.269 311.535 104.125 332.199C104.05 342.934 108.978 352.779 115.07 360.56C122.367 369.88 131.817 376.773 141.431 382.533C151.554 388.376 162.065 393.69 172.909 398.446C184.755 403.879 196.604 409.305 208.455 414.723L280.375 447.654L316.109 464.016C327.015 469.01 338.201 473.8 348.117 481.131C356.236 487.133 365.829 496.98 365.001 509.207C364.343 518.918 356.955 525.925 350.204 530.61C341.462 536.677 331.642 540.601 321.871 543.862C310.601 547.623 299.146 550.743 287.669 553.548C264.159 559.285 240.164 563.386 215.912 565.811C191.719 568.243 167.348 569.036 143.015 568.184C130.721 567.752 118.445 566.893 106.189 565.608C93.5558 564.279 80.9763 562.232 68.3102 561.324C56.8535 560.503 45.2864 560.693 34.0037 563.333C24.583 565.538 14.6303 569.467 7.47917 577.133C2.20832 582.986 -0.431126 590.319 0.0574794 597.753C0.541638 605.171 3.57073 612.29 8.75091 618.185C14.0127 624.206 21.4059 628.539 29.7805 630.512C31.7552 630.977 32.5998 627.506 30.6163 627.038L30.616 627.038Z" fill="#ADADAD"/>
</g>
</g>
<defs>
<filter id="filter0_d" x="116.115" y="43.1965" width="135.128" height="135.229" filterUnits="userSpaceOnUse" color-interpolation-filters="sRGB">
<feFlood flood-opacity="0" result="BackgroundImageFix"/>
<feColorMatrix in="SourceAlpha" type="matrix" values="0 0 0 0 0 0 0 0 0 0 0 0 0 0 0 0 0 0 127 0"/>
<feOffset dy="4.44152"/>
<feGaussianBlur stdDeviation="2.22076"/>
<feColorMatrix type="matrix" values="0 0 0 0 0 0 0 0 0 0 0 0 0 0 0 0 0 0 0.25 0"/>
<feBlend mode="normal" in2="BackgroundImageFix" result="effect1_dropShadow"/>
<feBlend mode="normal" in="SourceGraphic" in2="effect1_dropShadow" result="shape"/>
</filter>
<filter id="filter1_d" x="286.115" y="510.197" width="135.128" height="135.229" filterUnits="userSpaceOnUse" color-interpolation-filters="sRGB">
<feFlood flood-opacity="0" result="BackgroundImageFix"/>
<feColorMatrix in="SourceAlpha" type="matrix" values="0 0 0 0 0 0 0 0 0 0 0 0 0 0 0 0 0 0 127 0"/>
<feOffset dy="4.44152"/>
<feGaussianBlur stdDeviation="2.22076"/>
<feColorMatrix type="matrix" values="0 0 0 0 0 0 0 0 0 0 0 0 0 0 0 0 0 0 0.25 0"/>
<feBlend mode="normal" in2="BackgroundImageFix" result="effect1_dropShadow"/>
<feBlend mode="normal" in="SourceGraphic" in2="effect1_dropShadow" result="shape"/>
</filter>
<filter id="filter2_d" x="112.115" y="303.197" width="135.128" height="135.229" filterUnits="userSpaceOnUse" color-interpolation-filters="sRGB">
<feFlood flood-opacity="0" result="BackgroundImageFix"/>
<feColorMatrix in="SourceAlpha" type="matrix" values="0 0 0 0 0 0 0 0 0 0 0 0 0 0 0 0 0 0 127 0"/>
<feOffset dy="4.44152"/>
<feGaussianBlur stdDeviation="2.22076"/>
<feColorMatrix type="matrix" values="0 0 0 0 0 0 0 0 0 0 0 0 0 0 0 0 0 0 0.25 0"/>
<feBlend mode="normal" in2="BackgroundImageFix" result="effect1_dropShadow"/>
<feBlend mode="normal" in="SourceGraphic" in2="effect1_dropShadow" result="shape"/>
</filter>
</defs>
</svg>
