<svg width="417" height="500" viewBox="0 0 417 500" fill="none" xmlns="http://www.w3.org/2000/svg">
<rect opacity="0.111111" x="6.12944" y="50.603" width="348" height="448" rx="35" transform="rotate(-8 6.12944 50.603)" stroke="url(#paint0_linear)" stroke-width="2"/>
<rect opacity="0.222222" x="11.1144" y="45.6229" width="348" height="448" rx="35" transform="rotate(-7 11.1144 45.6229)" stroke="url(#paint1_linear)" stroke-width="2"/>
<rect opacity="0.333333" x="16.0991" y="40.6419" width="348" height="448" rx="35" transform="rotate(-6 16.0991 40.6419)" stroke="url(#paint2_linear)" stroke-width="2"/>
<rect opacity="0.444444" x="21.0834" y="35.661" width="348" height="448" rx="35" transform="rotate(-5 21.0834 35.661)" stroke="url(#paint3_linear)" stroke-width="2"/>
<rect opacity="0.555556" x="26.0673" y="30.6798" width="348" height="448" rx="35" transform="rotate(-4 26.0673 30.6798)" stroke="url(#paint4_linear)" stroke-width="2"/>
<rect opacity="0.666667" x="31.051" y="25.6982" width="348" height="448" rx="35" transform="rotate(-3 31.051 25.6982)" stroke="url(#paint5_linear)" stroke-width="2"/>
<rect opacity="0.777778" x="36.0343" y="20.7167" width="348" height="448" rx="35" transform="rotate(-2 36.0343 20.7167)" stroke="url(#paint6_linear)" stroke-width="2"/>
<rect opacity="0.888889" x="41.0173" y="15.7346" width="348" height="448" rx="35" transform="rotate(-1 41.0173 15.7346)" stroke="url(#paint7_linear)" stroke-width="2"/>
<rect x="46" y="10.752" width="348" height="448" rx="35" stroke="url(#paint8_linear)" stroke-width="2"/>
<defs>
<linearGradient id="paint0_linear" x1="-97.4233" y1="49.752" x2="242.476" y2="295.727" gradientUnits="userSpaceOnUse">
<stop stop-color="#0E0F25"/>
<stop offset="0.0001"/>
<stop offset="1" stop-color="#FFB68F"/>
</linearGradient>
<linearGradient id="paint1_linear" x1="-92.4233" y1="44.7522" x2="247.476" y2="290.727" gradientUnits="userSpaceOnUse">
<stop stop-color="#0E0F25"/>
<stop offset="0.0001"/>
<stop offset="1" stop-color="#FFB68F"/>
</linearGradient>
<linearGradient id="paint2_linear" x1="-87.4233" y1="39.752" x2="252.476" y2="285.727" gradientUnits="userSpaceOnUse">
<stop stop-color="#0E0F25"/>
<stop offset="0.0001"/>
<stop offset="1" stop-color="#FFB68F"/>
</linearGradient>
<linearGradient id="paint3_linear" x1="-82.4233" y1="34.752" x2="257.476" y2="280.727" gradientUnits="userSpaceOnUse">
<stop stop-color="#0E0F25"/>
<stop offset="0.0001"/>
<stop offset="1" stop-color="#FFB68F"/>
</linearGradient>
<linearGradient id="paint4_linear" x1="-77.4233" y1="29.752" x2="262.476" y2="275.727" gradientUnits="userSpaceOnUse">
<stop stop-color="#0E0F25"/>
<stop offset="0.0001"/>
<stop offset="1" stop-color="#FFB68F"/>
</linearGradient>
<linearGradient id="paint5_linear" x1="-72.4233" y1="24.752" x2="267.476" y2="270.727" gradientUnits="userSpaceOnUse">
<stop stop-color="#0E0F25"/>
<stop offset="0.0001"/>
<stop offset="1" stop-color="#FFB68F"/>
</linearGradient>
<linearGradient id="paint6_linear" x1="-67.4233" y1="19.7522" x2="272.476" y2="265.727" gradientUnits="userSpaceOnUse">
<stop stop-color="#0E0F25"/>
<stop offset="0.0001"/>
<stop offset="1" stop-color="#FFB68F"/>
</linearGradient>
<linearGradient id="paint7_linear" x1="-62.4233" y1="14.7522" x2="277.476" y2="260.727" gradientUnits="userSpaceOnUse">
<stop stop-color="#0E0F25"/>
<stop offset="0.0001"/>
<stop offset="1" stop-color="#FFB68F"/>
</linearGradient>
<linearGradient id="paint8_linear" x1="-57.4233" y1="9.75195" x2="282.476" y2="255.727" gradientUnits="userSpaceOnUse">
<stop stop-color="#0E0F25"/>
<stop offset="0.0001"/>
<stop offset="1" stop-color="#FFB68F"/>
</linearGradient>
</defs>
</svg>
