<svg width="417" height="500" viewBox="0 0 417 500" fill="none" xmlns="http://www.w3.org/2000/svg">
<rect opacity="0.111111" x="6.12944" y="50.603" width="348" height="448" rx="35" transform="rotate(-8 6.12944 50.603)" stroke="url(#paint0_linear)" stroke-width="2"/>
<rect opacity="0.222222" x="11.1144" y="45.6229" width="348" height="448" rx="35" transform="rotate(-7 11.1144 45.6229)" stroke="url(#paint1_linear)" stroke-width="2"/>
<rect opacity="0.333333" x="16.0991" y="40.6419" width="348" height="448" rx="35" transform="rotate(-6 16.0991 40.6419)" stroke="url(#paint2_linear)" stroke-width="2"/>
<rect opacity="0.444444" x="21.0834" y="35.661" width="348" height="448" rx="35" transform="rotate(-5 21.0834 35.661)" stroke="url(#paint3_linear)" stroke-width="2"/>
<rect opacity="0.555556" x="26.0673" y="30.6798" width="348" height="448" rx="35" transform="rotate(-4 26.0673 30.6798)" stroke="url(#paint4_linear)" stroke-width="2"/>
<rect opacity="0.666667" x="31.051" y="25.6982" width="348" height="448" rx="35" transform="rotate(-3 31.051 25.6982)" stroke="url(#paint5_linear)" stroke-width="2"/>
<rect opacity="0.777778" x="36.0343" y="20.7167" width="348" height="448" rx="35" transform="rotate(-2 36.0343 20.7167)" stroke="url(#paint6_linear)" stroke-width="2"/>
<rect opacity="0.888889" x="41.0173" y="15.7346" width="348" height="448" rx="35" transform="rotate(-1 41.0173 15.7346)" stroke="url(#paint7_linear)" stroke-width="2"/>
<rect x="46" y="10.752" width="348" height="448" rx="35" stroke="url(#paint8_linear)" stroke-width="2"/>
<defs>
<linearGradient id="paint0_linear" x1="-208.359" y1="118.029" x2="408.57" y2="368.198" gradientUnits="userSpaceOnUse">
<stop offset="0.245434" stop-color="#0095FF"/>
<stop offset="1" stop-color="#FF0000"/>
</linearGradient>
<linearGradient id="paint1_linear" x1="-203.359" y1="113.029" x2="413.57" y2="363.199" gradientUnits="userSpaceOnUse">
<stop offset="0.245434" stop-color="#0095FF"/>
<stop offset="1" stop-color="#FF0000"/>
</linearGradient>
<linearGradient id="paint2_linear" x1="-198.359" y1="108.029" x2="418.57" y2="358.198" gradientUnits="userSpaceOnUse">
<stop offset="0.245434" stop-color="#0095FF"/>
<stop offset="1" stop-color="#FF0000"/>
</linearGradient>
<linearGradient id="paint3_linear" x1="-193.359" y1="103.029" x2="423.57" y2="353.198" gradientUnits="userSpaceOnUse">
<stop offset="0.245434" stop-color="#0095FF"/>
<stop offset="1" stop-color="#FF0000"/>
</linearGradient>
<linearGradient id="paint4_linear" x1="-188.359" y1="98.029" x2="428.57" y2="348.198" gradientUnits="userSpaceOnUse">
<stop offset="0.245434" stop-color="#0095FF"/>
<stop offset="1" stop-color="#FF0000"/>
</linearGradient>
<linearGradient id="paint5_linear" x1="-183.359" y1="93.029" x2="433.57" y2="343.198" gradientUnits="userSpaceOnUse">
<stop offset="0.245434" stop-color="#0095FF"/>
<stop offset="1" stop-color="#FF0000"/>
</linearGradient>
<linearGradient id="paint6_linear" x1="-178.359" y1="88.0293" x2="438.57" y2="338.199" gradientUnits="userSpaceOnUse">
<stop offset="0.245434" stop-color="#0095FF"/>
<stop offset="1" stop-color="#FF0000"/>
</linearGradient>
<linearGradient id="paint7_linear" x1="-173.359" y1="83.0293" x2="443.57" y2="333.199" gradientUnits="userSpaceOnUse">
<stop offset="0.245434" stop-color="#0095FF"/>
<stop offset="1" stop-color="#FF0000"/>
</linearGradient>
<linearGradient id="paint8_linear" x1="-168.359" y1="78.029" x2="448.57" y2="328.198" gradientUnits="userSpaceOnUse">
<stop offset="0.245434" stop-color="#0095FF"/>
<stop offset="1" stop-color="#FF0000"/>
</linearGradient>
</defs>
</svg>
