<svg width="415" height="147" viewBox="0 0 415 147" fill="none" xmlns="http://www.w3.org/2000/svg">
<ellipse cx="86.9357" cy="84.5503" rx="8" ry="7.5" transform="rotate(90 86.9357 84.5503)" fill="#E9FA66"/>
<ellipse cx="86.9357" cy="110.55" rx="8" ry="7.5" transform="rotate(90 86.9357 110.55)" fill="#E9FA66"/>
<ellipse cx="86.9357" cy="136.55" rx="8" ry="7.5" transform="rotate(90 86.9357 136.55)" fill="#E9FA66"/>
<ellipse cx="60.9357" cy="84.5503" rx="8" ry="7.5" transform="rotate(90 60.9357 84.5503)" fill="#E9FA66"/>
<ellipse cx="60.9357" cy="110.55" rx="8" ry="7.5" transform="rotate(90 60.9357 110.55)" fill="#E9FA66"/>
<ellipse cx="60.9357" cy="136.55" rx="8" ry="7.5" transform="rotate(90 60.9357 136.55)" fill="#E9FA66"/>
<ellipse cx="34.9357" cy="84.5503" rx="8" ry="7.5" transform="rotate(90 34.9357 84.5503)" fill="#E9FA66"/>
<ellipse cx="34.9357" cy="110.55" rx="8" ry="7.5" transform="rotate(90 34.9357 110.55)" fill="#E9FA66"/>
<ellipse cx="34.9357" cy="136.55" rx="8" ry="7.5" transform="rotate(90 34.9357 136.55)" fill="#E9FA66"/>
<ellipse cx="8.93567" cy="84.5503" rx="8" ry="7.5" transform="rotate(90 8.93567 84.5503)" fill="#E9FA66"/>
<ellipse cx="8.93567" cy="110.55" rx="8" ry="7.5" transform="rotate(90 8.93567 110.55)" fill="#E9FA66"/>
<ellipse cx="8.93567" cy="136.55" rx="8" ry="7.5" transform="rotate(90 8.93567 136.55)" fill="#E9FA66"/>
<ellipse cx="300.936" cy="85.5503" rx="8" ry="7.5" transform="rotate(90 300.936 85.5503)" fill="#E9FA66"/>
<ellipse cx="300.936" cy="111.55" rx="8" ry="7.5" transform="rotate(90 300.936 111.55)" fill="#E9FA66"/>
<ellipse cx="300.936" cy="137.55" rx="8" ry="7.5" transform="rotate(90 300.936 137.55)" fill="#E9FA66"/>
<ellipse cx="274.936" cy="85.5503" rx="8" ry="7.5" transform="rotate(90 274.936 85.5503)" fill="#E9FA66"/>
<ellipse cx="274.936" cy="111.55" rx="8" ry="7.5" transform="rotate(90 274.936 111.55)" fill="#E9FA66"/>
<ellipse cx="274.936" cy="137.55" rx="8" ry="7.5" transform="rotate(90 274.936 137.55)" fill="#E9FA66"/>
<ellipse cx="248.936" cy="85.5503" rx="8" ry="7.5" transform="rotate(90 248.936 85.5503)" fill="#E9FA66"/>
<ellipse cx="248.936" cy="111.55" rx="8" ry="7.5" transform="rotate(90 248.936 111.55)" fill="#E9FA66"/>
<ellipse cx="248.936" cy="137.55" rx="8" ry="7.5" transform="rotate(90 248.936 137.55)" fill="#E9FA66"/>
<ellipse cx="222.936" cy="85.5503" rx="8" ry="7.5" transform="rotate(90 222.936 85.5503)" fill="#E9FA66"/>
<ellipse cx="222.936" cy="111.55" rx="8" ry="7.5" transform="rotate(90 222.936 111.55)" fill="#E9FA66"/>
<ellipse cx="222.936" cy="137.55" rx="8" ry="7.5" transform="rotate(90 222.936 137.55)" fill="#E9FA66"/>
<ellipse cx="86.4357" cy="8.05029" rx="8" ry="7.5" transform="rotate(90 86.4357 8.05029)" fill="#E9FA66"/>
<ellipse cx="86.4357" cy="34.0503" rx="8" ry="7.5" transform="rotate(90 86.4357 34.0503)" fill="#E9FA66"/>
<ellipse cx="86.4357" cy="60.0503" rx="8" ry="7.5" transform="rotate(90 86.4357 60.0503)" fill="#E9FA66"/>
<ellipse cx="60.4357" cy="8.05029" rx="8" ry="7.5" transform="rotate(90 60.4357 8.05029)" fill="#E9FA66"/>
<ellipse cx="60.4357" cy="34.0503" rx="8" ry="7.5" transform="rotate(90 60.4357 34.0503)" fill="#E9FA66"/>
<ellipse cx="60.4357" cy="60.0503" rx="8" ry="7.5" transform="rotate(90 60.4357 60.0503)" fill="#E9FA66"/>
<ellipse cx="34.4357" cy="8.05029" rx="8" ry="7.5" transform="rotate(90 34.4357 8.05029)" fill="#E9FA66"/>
<ellipse cx="34.4357" cy="34.0503" rx="8" ry="7.5" transform="rotate(90 34.4357 34.0503)" fill="#E9FA66"/>
<ellipse cx="34.4357" cy="60.0503" rx="8" ry="7.5" transform="rotate(90 34.4357 60.0503)" fill="#E9FA66"/>
<ellipse cx="8.43567" cy="8.05029" rx="8" ry="7.5" transform="rotate(90 8.43567 8.05029)" fill="#E9FA66"/>
<ellipse cx="8.43567" cy="34.0503" rx="8" ry="7.5" transform="rotate(90 8.43567 34.0503)" fill="#E9FA66"/>
<ellipse cx="8.43567" cy="60.0503" rx="8" ry="7.5" transform="rotate(90 8.43567 60.0503)" fill="#E9FA66"/>
<ellipse cx="300.436" cy="9.05029" rx="8" ry="7.5" transform="rotate(90 300.436 9.05029)" fill="#E9FA66"/>
<ellipse cx="300.436" cy="35.0503" rx="8" ry="7.5" transform="rotate(90 300.436 35.0503)" fill="#E9FA66"/>
<ellipse cx="300.436" cy="61.0503" rx="8" ry="7.5" transform="rotate(90 300.436 61.0503)" fill="#E9FA66"/>
<ellipse cx="274.436" cy="9.05029" rx="8" ry="7.5" transform="rotate(90 274.436 9.05029)" fill="#E9FA66"/>
<ellipse cx="274.436" cy="35.0503" rx="8" ry="7.5" transform="rotate(90 274.436 35.0503)" fill="#E9FA66"/>
<ellipse cx="274.436" cy="61.0503" rx="8" ry="7.5" transform="rotate(90 274.436 61.0503)" fill="#E9FA66"/>
<ellipse cx="248.436" cy="9.05029" rx="8" ry="7.5" transform="rotate(90 248.436 9.05029)" fill="#E9FA66"/>
<ellipse cx="248.436" cy="35.0503" rx="8" ry="7.5" transform="rotate(90 248.436 35.0503)" fill="#E9FA66"/>
<ellipse cx="248.436" cy="61.0503" rx="8" ry="7.5" transform="rotate(90 248.436 61.0503)" fill="#E9FA66"/>
<ellipse cx="222.436" cy="9.05029" rx="8" ry="7.5" transform="rotate(90 222.436 9.05029)" fill="#E9FA66"/>
<ellipse cx="222.436" cy="35.0503" rx="8" ry="7.5" transform="rotate(90 222.436 35.0503)" fill="#E9FA66"/>
<ellipse cx="222.436" cy="61.0503" rx="8" ry="7.5" transform="rotate(90 222.436 61.0503)" fill="#E9FA66"/>
<ellipse cx="193.436" cy="85.0503" rx="8" ry="7.5" transform="rotate(90 193.436 85.0503)" fill="#E9FA66"/>
<ellipse cx="193.436" cy="111.05" rx="8" ry="7.5" transform="rotate(90 193.436 111.05)" fill="#E9FA66"/>
<ellipse cx="193.436" cy="137.05" rx="8" ry="7.5" transform="rotate(90 193.436 137.05)" fill="#E9FA66"/>
<ellipse cx="167.436" cy="85.0503" rx="8" ry="7.5" transform="rotate(90 167.436 85.0503)" fill="#E9FA66"/>
<ellipse cx="167.436" cy="111.05" rx="8" ry="7.5" transform="rotate(90 167.436 111.05)" fill="#E9FA66"/>
<ellipse cx="167.436" cy="137.05" rx="8" ry="7.5" transform="rotate(90 167.436 137.05)" fill="#E9FA66"/>
<ellipse cx="141.436" cy="85.0503" rx="8" ry="7.5" transform="rotate(90 141.436 85.0503)" fill="#E9FA66"/>
<ellipse cx="141.436" cy="111.05" rx="8" ry="7.5" transform="rotate(90 141.436 111.05)" fill="#E9FA66"/>
<ellipse cx="141.436" cy="137.05" rx="8" ry="7.5" transform="rotate(90 141.436 137.05)" fill="#E9FA66"/>
<ellipse cx="115.436" cy="85.0503" rx="8" ry="7.5" transform="rotate(90 115.436 85.0503)" fill="#E9FA66"/>
<ellipse cx="115.436" cy="111.05" rx="8" ry="7.5" transform="rotate(90 115.436 111.05)" fill="#E9FA66"/>
<ellipse cx="115.436" cy="137.05" rx="8" ry="7.5" transform="rotate(90 115.436 137.05)" fill="#E9FA66"/>
<ellipse cx="407.436" cy="86.0503" rx="8" ry="7.5" transform="rotate(90 407.436 86.0503)" fill="#E9FA66"/>
<ellipse cx="407.436" cy="112.05" rx="8" ry="7.5" transform="rotate(90 407.436 112.05)" fill="#E9FA66"/>
<ellipse cx="407.436" cy="138.05" rx="8" ry="7.5" transform="rotate(90 407.436 138.05)" fill="#E9FA66"/>
<ellipse cx="381.436" cy="86.0503" rx="8" ry="7.5" transform="rotate(90 381.436 86.0503)" fill="#E9FA66"/>
<ellipse cx="381.436" cy="112.05" rx="8" ry="7.5" transform="rotate(90 381.436 112.05)" fill="#E9FA66"/>
<ellipse cx="381.436" cy="138.05" rx="8" ry="7.5" transform="rotate(90 381.436 138.05)" fill="#E9FA66"/>
<ellipse cx="355.436" cy="86.0503" rx="8" ry="7.5" transform="rotate(90 355.436 86.0503)" fill="#E9FA66"/>
<ellipse cx="355.436" cy="112.05" rx="8" ry="7.5" transform="rotate(90 355.436 112.05)" fill="#E9FA66"/>
<ellipse cx="355.436" cy="138.05" rx="8" ry="7.5" transform="rotate(90 355.436 138.05)" fill="#E9FA66"/>
<ellipse cx="329.436" cy="86.0503" rx="8" ry="7.5" transform="rotate(90 329.436 86.0503)" fill="#E9FA66"/>
<ellipse cx="329.436" cy="112.05" rx="8" ry="7.5" transform="rotate(90 329.436 112.05)" fill="#E9FA66"/>
<ellipse cx="329.436" cy="138.05" rx="8" ry="7.5" transform="rotate(90 329.436 138.05)" fill="#E9FA66"/>
<ellipse cx="192.936" cy="8.55029" rx="8" ry="7.5" transform="rotate(90 192.936 8.55029)" fill="#E9FA66"/>
<ellipse cx="192.936" cy="34.5503" rx="8" ry="7.5" transform="rotate(90 192.936 34.5503)" fill="#E9FA66"/>
<ellipse cx="192.936" cy="60.5503" rx="8" ry="7.5" transform="rotate(90 192.936 60.5503)" fill="#E9FA66"/>
<ellipse cx="166.936" cy="8.55029" rx="8" ry="7.5" transform="rotate(90 166.936 8.55029)" fill="#E9FA66"/>
<ellipse cx="166.936" cy="34.5503" rx="8" ry="7.5" transform="rotate(90 166.936 34.5503)" fill="#E9FA66"/>
<ellipse cx="166.936" cy="60.5503" rx="8" ry="7.5" transform="rotate(90 166.936 60.5503)" fill="#E9FA66"/>
<ellipse cx="140.936" cy="8.55029" rx="8" ry="7.5" transform="rotate(90 140.936 8.55029)" fill="#E9FA66"/>
<ellipse cx="140.936" cy="34.5503" rx="8" ry="7.5" transform="rotate(90 140.936 34.5503)" fill="#E9FA66"/>
<ellipse cx="140.936" cy="60.5503" rx="8" ry="7.5" transform="rotate(90 140.936 60.5503)" fill="#E9FA66"/>
<ellipse cx="114.936" cy="8.55029" rx="8" ry="7.5" transform="rotate(90 114.936 8.55029)" fill="#E9FA66"/>
<ellipse cx="114.936" cy="34.5503" rx="8" ry="7.5" transform="rotate(90 114.936 34.5503)" fill="#E9FA66"/>
<ellipse cx="114.936" cy="60.5503" rx="8" ry="7.5" transform="rotate(90 114.936 60.5503)" fill="#E9FA66"/>
<ellipse cx="406.936" cy="9.55029" rx="8" ry="7.5" transform="rotate(90 406.936 9.55029)" fill="#E9FA66"/>
<ellipse cx="406.936" cy="35.5503" rx="8" ry="7.5" transform="rotate(90 406.936 35.5503)" fill="#E9FA66"/>
<ellipse cx="406.936" cy="61.5503" rx="8" ry="7.5" transform="rotate(90 406.936 61.5503)" fill="#E9FA66"/>
<ellipse cx="380.936" cy="9.55029" rx="8" ry="7.5" transform="rotate(90 380.936 9.55029)" fill="#E9FA66"/>
<ellipse cx="380.936" cy="35.5503" rx="8" ry="7.5" transform="rotate(90 380.936 35.5503)" fill="#E9FA66"/>
<ellipse cx="380.936" cy="61.5503" rx="8" ry="7.5" transform="rotate(90 380.936 61.5503)" fill="#E9FA66"/>
<ellipse cx="354.936" cy="9.55029" rx="8" ry="7.5" transform="rotate(90 354.936 9.55029)" fill="#E9FA66"/>
<ellipse cx="354.936" cy="35.5503" rx="8" ry="7.5" transform="rotate(90 354.936 35.5503)" fill="#E9FA66"/>
<ellipse cx="354.936" cy="61.5503" rx="8" ry="7.5" transform="rotate(90 354.936 61.5503)" fill="#E9FA66"/>
<ellipse cx="328.936" cy="9.55029" rx="8" ry="7.5" transform="rotate(90 328.936 9.55029)" fill="#E9FA66"/>
<ellipse cx="328.936" cy="35.5503" rx="8" ry="7.5" transform="rotate(90 328.936 35.5503)" fill="#E9FA66"/>
<ellipse cx="328.936" cy="61.5503" rx="8" ry="7.5" transform="rotate(90 328.936 61.5503)" fill="#E9FA66"/>
</svg>
