<svg width="415" height="147" viewBox="0 0 415 147" fill="none" xmlns="http://www.w3.org/2000/svg">
<ellipse cx="86.9357" cy="84.5503" rx="8" ry="7.5" transform="rotate(90 86.9357 84.5503)" fill="url(#paint0_linear)"/>
<ellipse cx="86.9357" cy="110.55" rx="8" ry="7.5" transform="rotate(90 86.9357 110.55)" fill="url(#paint1_linear)"/>
<ellipse cx="86.9357" cy="136.55" rx="8" ry="7.5" transform="rotate(90 86.9357 136.55)" fill="url(#paint2_linear)"/>
<ellipse cx="60.9357" cy="84.5503" rx="8" ry="7.5" transform="rotate(90 60.9357 84.5503)" fill="url(#paint3_linear)"/>
<ellipse cx="60.9357" cy="110.55" rx="8" ry="7.5" transform="rotate(90 60.9357 110.55)" fill="url(#paint4_linear)"/>
<ellipse cx="60.9357" cy="136.55" rx="8" ry="7.5" transform="rotate(90 60.9357 136.55)" fill="url(#paint5_linear)"/>
<ellipse cx="34.9357" cy="84.5503" rx="8" ry="7.5" transform="rotate(90 34.9357 84.5503)" fill="url(#paint6_linear)"/>
<ellipse cx="34.9357" cy="110.55" rx="8" ry="7.5" transform="rotate(90 34.9357 110.55)" fill="url(#paint7_linear)"/>
<ellipse cx="34.9357" cy="136.55" rx="8" ry="7.5" transform="rotate(90 34.9357 136.55)" fill="url(#paint8_linear)"/>
<ellipse cx="8.93567" cy="84.5503" rx="8" ry="7.5" transform="rotate(90 8.93567 84.5503)" fill="url(#paint9_linear)"/>
<ellipse cx="8.93567" cy="110.55" rx="8" ry="7.5" transform="rotate(90 8.93567 110.55)" fill="url(#paint10_linear)"/>
<ellipse cx="8.93567" cy="136.55" rx="8" ry="7.5" transform="rotate(90 8.93567 136.55)" fill="url(#paint11_linear)"/>
<ellipse cx="300.936" cy="85.5503" rx="8" ry="7.5" transform="rotate(90 300.936 85.5503)" fill="url(#paint12_linear)"/>
<ellipse cx="300.936" cy="111.55" rx="8" ry="7.5" transform="rotate(90 300.936 111.55)" fill="url(#paint13_linear)"/>
<ellipse cx="300.936" cy="137.55" rx="8" ry="7.5" transform="rotate(90 300.936 137.55)" fill="url(#paint14_linear)"/>
<ellipse cx="274.936" cy="85.5503" rx="8" ry="7.5" transform="rotate(90 274.936 85.5503)" fill="url(#paint15_linear)"/>
<ellipse cx="274.936" cy="111.55" rx="8" ry="7.5" transform="rotate(90 274.936 111.55)" fill="url(#paint16_linear)"/>
<ellipse cx="274.936" cy="137.55" rx="8" ry="7.5" transform="rotate(90 274.936 137.55)" fill="url(#paint17_linear)"/>
<ellipse cx="248.936" cy="85.5503" rx="8" ry="7.5" transform="rotate(90 248.936 85.5503)" fill="url(#paint18_linear)"/>
<ellipse cx="248.936" cy="111.55" rx="8" ry="7.5" transform="rotate(90 248.936 111.55)" fill="url(#paint19_linear)"/>
<ellipse cx="248.936" cy="137.55" rx="8" ry="7.5" transform="rotate(90 248.936 137.55)" fill="url(#paint20_linear)"/>
<ellipse cx="222.936" cy="85.5503" rx="8" ry="7.5" transform="rotate(90 222.936 85.5503)" fill="url(#paint21_linear)"/>
<ellipse cx="222.936" cy="111.55" rx="8" ry="7.5" transform="rotate(90 222.936 111.55)" fill="url(#paint22_linear)"/>
<ellipse cx="222.936" cy="137.55" rx="8" ry="7.5" transform="rotate(90 222.936 137.55)" fill="url(#paint23_linear)"/>
<ellipse cx="86.4357" cy="8.05029" rx="8" ry="7.5" transform="rotate(90 86.4357 8.05029)" fill="url(#paint24_linear)"/>
<ellipse cx="86.4357" cy="34.0503" rx="8" ry="7.5" transform="rotate(90 86.4357 34.0503)" fill="url(#paint25_linear)"/>
<ellipse cx="86.4357" cy="60.0503" rx="8" ry="7.5" transform="rotate(90 86.4357 60.0503)" fill="url(#paint26_linear)"/>
<ellipse cx="60.4357" cy="8.05029" rx="8" ry="7.5" transform="rotate(90 60.4357 8.05029)" fill="url(#paint27_linear)"/>
<ellipse cx="60.4357" cy="34.0503" rx="8" ry="7.5" transform="rotate(90 60.4357 34.0503)" fill="url(#paint28_linear)"/>
<ellipse cx="60.4357" cy="60.0503" rx="8" ry="7.5" transform="rotate(90 60.4357 60.0503)" fill="url(#paint29_linear)"/>
<ellipse cx="34.4357" cy="8.05029" rx="8" ry="7.5" transform="rotate(90 34.4357 8.05029)" fill="url(#paint30_linear)"/>
<ellipse cx="34.4357" cy="34.0503" rx="8" ry="7.5" transform="rotate(90 34.4357 34.0503)" fill="url(#paint31_linear)"/>
<ellipse cx="34.4357" cy="60.0503" rx="8" ry="7.5" transform="rotate(90 34.4357 60.0503)" fill="url(#paint32_linear)"/>
<ellipse cx="8.43567" cy="8.05029" rx="8" ry="7.5" transform="rotate(90 8.43567 8.05029)" fill="url(#paint33_linear)"/>
<ellipse cx="8.43567" cy="34.0503" rx="8" ry="7.5" transform="rotate(90 8.43567 34.0503)" fill="url(#paint34_linear)"/>
<ellipse cx="8.43567" cy="60.0503" rx="8" ry="7.5" transform="rotate(90 8.43567 60.0503)" fill="url(#paint35_linear)"/>
<ellipse cx="300.436" cy="9.05029" rx="8" ry="7.5" transform="rotate(90 300.436 9.05029)" fill="url(#paint36_linear)"/>
<ellipse cx="300.436" cy="35.0503" rx="8" ry="7.5" transform="rotate(90 300.436 35.0503)" fill="url(#paint37_linear)"/>
<ellipse cx="300.436" cy="61.0503" rx="8" ry="7.5" transform="rotate(90 300.436 61.0503)" fill="url(#paint38_linear)"/>
<ellipse cx="274.436" cy="9.05029" rx="8" ry="7.5" transform="rotate(90 274.436 9.05029)" fill="url(#paint39_linear)"/>
<ellipse cx="274.436" cy="35.0503" rx="8" ry="7.5" transform="rotate(90 274.436 35.0503)" fill="url(#paint40_linear)"/>
<ellipse cx="274.436" cy="61.0503" rx="8" ry="7.5" transform="rotate(90 274.436 61.0503)" fill="url(#paint41_linear)"/>
<ellipse cx="248.436" cy="9.05029" rx="8" ry="7.5" transform="rotate(90 248.436 9.05029)" fill="url(#paint42_linear)"/>
<ellipse cx="248.436" cy="35.0503" rx="8" ry="7.5" transform="rotate(90 248.436 35.0503)" fill="url(#paint43_linear)"/>
<ellipse cx="248.436" cy="61.0503" rx="8" ry="7.5" transform="rotate(90 248.436 61.0503)" fill="url(#paint44_linear)"/>
<ellipse cx="222.436" cy="9.05029" rx="8" ry="7.5" transform="rotate(90 222.436 9.05029)" fill="url(#paint45_linear)"/>
<ellipse cx="222.436" cy="35.0503" rx="8" ry="7.5" transform="rotate(90 222.436 35.0503)" fill="url(#paint46_linear)"/>
<ellipse cx="222.436" cy="61.0503" rx="8" ry="7.5" transform="rotate(90 222.436 61.0503)" fill="url(#paint47_linear)"/>
<ellipse cx="193.436" cy="85.0503" rx="8" ry="7.5" transform="rotate(90 193.436 85.0503)" fill="url(#paint48_linear)"/>
<ellipse cx="193.436" cy="111.05" rx="8" ry="7.5" transform="rotate(90 193.436 111.05)" fill="url(#paint49_linear)"/>
<ellipse cx="193.436" cy="137.05" rx="8" ry="7.5" transform="rotate(90 193.436 137.05)" fill="url(#paint50_linear)"/>
<ellipse cx="167.436" cy="85.0503" rx="8" ry="7.5" transform="rotate(90 167.436 85.0503)" fill="url(#paint51_linear)"/>
<ellipse cx="167.436" cy="111.05" rx="8" ry="7.5" transform="rotate(90 167.436 111.05)" fill="url(#paint52_linear)"/>
<ellipse cx="167.436" cy="137.05" rx="8" ry="7.5" transform="rotate(90 167.436 137.05)" fill="url(#paint53_linear)"/>
<ellipse cx="141.436" cy="85.0503" rx="8" ry="7.5" transform="rotate(90 141.436 85.0503)" fill="url(#paint54_linear)"/>
<ellipse cx="141.436" cy="111.05" rx="8" ry="7.5" transform="rotate(90 141.436 111.05)" fill="url(#paint55_linear)"/>
<ellipse cx="141.436" cy="137.05" rx="8" ry="7.5" transform="rotate(90 141.436 137.05)" fill="url(#paint56_linear)"/>
<ellipse cx="115.436" cy="85.0503" rx="8" ry="7.5" transform="rotate(90 115.436 85.0503)" fill="url(#paint57_linear)"/>
<ellipse cx="115.436" cy="111.05" rx="8" ry="7.5" transform="rotate(90 115.436 111.05)" fill="url(#paint58_linear)"/>
<ellipse cx="115.436" cy="137.05" rx="8" ry="7.5" transform="rotate(90 115.436 137.05)" fill="url(#paint59_linear)"/>
<ellipse cx="407.436" cy="86.0503" rx="8" ry="7.5" transform="rotate(90 407.436 86.0503)" fill="url(#paint60_linear)"/>
<ellipse cx="407.436" cy="112.05" rx="8" ry="7.5" transform="rotate(90 407.436 112.05)" fill="url(#paint61_linear)"/>
<ellipse cx="407.436" cy="138.05" rx="8" ry="7.5" transform="rotate(90 407.436 138.05)" fill="url(#paint62_linear)"/>
<ellipse cx="381.436" cy="86.0503" rx="8" ry="7.5" transform="rotate(90 381.436 86.0503)" fill="url(#paint63_linear)"/>
<ellipse cx="381.436" cy="112.05" rx="8" ry="7.5" transform="rotate(90 381.436 112.05)" fill="url(#paint64_linear)"/>
<ellipse cx="381.436" cy="138.05" rx="8" ry="7.5" transform="rotate(90 381.436 138.05)" fill="url(#paint65_linear)"/>
<ellipse cx="355.436" cy="86.0503" rx="8" ry="7.5" transform="rotate(90 355.436 86.0503)" fill="url(#paint66_linear)"/>
<ellipse cx="355.436" cy="112.05" rx="8" ry="7.5" transform="rotate(90 355.436 112.05)" fill="url(#paint67_linear)"/>
<ellipse cx="355.436" cy="138.05" rx="8" ry="7.5" transform="rotate(90 355.436 138.05)" fill="url(#paint68_linear)"/>
<ellipse cx="329.436" cy="86.0503" rx="8" ry="7.5" transform="rotate(90 329.436 86.0503)" fill="url(#paint69_linear)"/>
<ellipse cx="329.436" cy="112.05" rx="8" ry="7.5" transform="rotate(90 329.436 112.05)" fill="url(#paint70_linear)"/>
<ellipse cx="329.436" cy="138.05" rx="8" ry="7.5" transform="rotate(90 329.436 138.05)" fill="url(#paint71_linear)"/>
<ellipse cx="192.936" cy="8.55029" rx="8" ry="7.5" transform="rotate(90 192.936 8.55029)" fill="url(#paint72_linear)"/>
<ellipse cx="192.936" cy="34.5503" rx="8" ry="7.5" transform="rotate(90 192.936 34.5503)" fill="url(#paint73_linear)"/>
<ellipse cx="192.936" cy="60.5503" rx="8" ry="7.5" transform="rotate(90 192.936 60.5503)" fill="url(#paint74_linear)"/>
<ellipse cx="166.936" cy="8.55029" rx="8" ry="7.5" transform="rotate(90 166.936 8.55029)" fill="url(#paint75_linear)"/>
<ellipse cx="166.936" cy="34.5503" rx="8" ry="7.5" transform="rotate(90 166.936 34.5503)" fill="url(#paint76_linear)"/>
<ellipse cx="166.936" cy="60.5503" rx="8" ry="7.5" transform="rotate(90 166.936 60.5503)" fill="url(#paint77_linear)"/>
<ellipse cx="140.936" cy="8.55029" rx="8" ry="7.5" transform="rotate(90 140.936 8.55029)" fill="url(#paint78_linear)"/>
<ellipse cx="140.936" cy="34.5503" rx="8" ry="7.5" transform="rotate(90 140.936 34.5503)" fill="url(#paint79_linear)"/>
<ellipse cx="140.936" cy="60.5503" rx="8" ry="7.5" transform="rotate(90 140.936 60.5503)" fill="url(#paint80_linear)"/>
<ellipse cx="114.936" cy="8.55029" rx="8" ry="7.5" transform="rotate(90 114.936 8.55029)" fill="url(#paint81_linear)"/>
<ellipse cx="114.936" cy="34.5503" rx="8" ry="7.5" transform="rotate(90 114.936 34.5503)" fill="url(#paint82_linear)"/>
<ellipse cx="114.936" cy="60.5503" rx="8" ry="7.5" transform="rotate(90 114.936 60.5503)" fill="url(#paint83_linear)"/>
<ellipse cx="406.936" cy="9.55029" rx="8" ry="7.5" transform="rotate(90 406.936 9.55029)" fill="url(#paint84_linear)"/>
<ellipse cx="406.936" cy="35.5503" rx="8" ry="7.5" transform="rotate(90 406.936 35.5503)" fill="url(#paint85_linear)"/>
<ellipse cx="406.936" cy="61.5503" rx="8" ry="7.5" transform="rotate(90 406.936 61.5503)" fill="url(#paint86_linear)"/>
<ellipse cx="380.936" cy="9.55029" rx="8" ry="7.5" transform="rotate(90 380.936 9.55029)" fill="url(#paint87_linear)"/>
<ellipse cx="380.936" cy="35.5503" rx="8" ry="7.5" transform="rotate(90 380.936 35.5503)" fill="url(#paint88_linear)"/>
<ellipse cx="380.936" cy="61.5503" rx="8" ry="7.5" transform="rotate(90 380.936 61.5503)" fill="url(#paint89_linear)"/>
<ellipse cx="354.936" cy="9.55029" rx="8" ry="7.5" transform="rotate(90 354.936 9.55029)" fill="url(#paint90_linear)"/>
<ellipse cx="354.936" cy="35.5503" rx="8" ry="7.5" transform="rotate(90 354.936 35.5503)" fill="url(#paint91_linear)"/>
<ellipse cx="354.936" cy="61.5503" rx="8" ry="7.5" transform="rotate(90 354.936 61.5503)" fill="url(#paint92_linear)"/>
<ellipse cx="328.936" cy="9.55029" rx="8" ry="7.5" transform="rotate(90 328.936 9.55029)" fill="url(#paint93_linear)"/>
<ellipse cx="328.936" cy="35.5503" rx="8" ry="7.5" transform="rotate(90 328.936 35.5503)" fill="url(#paint94_linear)"/>
<ellipse cx="328.936" cy="61.5503" rx="8" ry="7.5" transform="rotate(90 328.936 61.5503)" fill="url(#paint95_linear)"/>
<defs>
<linearGradient id="paint0_linear" x1="81.3797" y1="77.6291" x2="94.6633" y2="89.0418" gradientUnits="userSpaceOnUse">
<stop stop-color="#2AA4F4"/>
<stop offset="1" stop-color="#007AD9"/>
</linearGradient>
<linearGradient id="paint1_linear" x1="81.3797" y1="103.629" x2="94.6633" y2="115.042" gradientUnits="userSpaceOnUse">
<stop stop-color="#2AA4F4"/>
<stop offset="1" stop-color="#007AD9"/>
</linearGradient>
<linearGradient id="paint2_linear" x1="81.3797" y1="129.629" x2="94.6633" y2="141.042" gradientUnits="userSpaceOnUse">
<stop stop-color="#2AA4F4"/>
<stop offset="1" stop-color="#007AD9"/>
</linearGradient>
<linearGradient id="paint3_linear" x1="55.3797" y1="77.6291" x2="68.6633" y2="89.0418" gradientUnits="userSpaceOnUse">
<stop stop-color="#2AA4F4"/>
<stop offset="1" stop-color="#007AD9"/>
</linearGradient>
<linearGradient id="paint4_linear" x1="55.3797" y1="103.629" x2="68.6633" y2="115.042" gradientUnits="userSpaceOnUse">
<stop stop-color="#2AA4F4"/>
<stop offset="1" stop-color="#007AD9"/>
</linearGradient>
<linearGradient id="paint5_linear" x1="55.3797" y1="129.629" x2="68.6633" y2="141.042" gradientUnits="userSpaceOnUse">
<stop stop-color="#2AA4F4"/>
<stop offset="1" stop-color="#007AD9"/>
</linearGradient>
<linearGradient id="paint6_linear" x1="29.3797" y1="77.6291" x2="42.6633" y2="89.0418" gradientUnits="userSpaceOnUse">
<stop stop-color="#2AA4F4"/>
<stop offset="1" stop-color="#007AD9"/>
</linearGradient>
<linearGradient id="paint7_linear" x1="29.3797" y1="103.629" x2="42.6633" y2="115.042" gradientUnits="userSpaceOnUse">
<stop stop-color="#2AA4F4"/>
<stop offset="1" stop-color="#007AD9"/>
</linearGradient>
<linearGradient id="paint8_linear" x1="29.3797" y1="129.629" x2="42.6633" y2="141.042" gradientUnits="userSpaceOnUse">
<stop stop-color="#2AA4F4"/>
<stop offset="1" stop-color="#007AD9"/>
</linearGradient>
<linearGradient id="paint9_linear" x1="3.37971" y1="77.6291" x2="16.6633" y2="89.0418" gradientUnits="userSpaceOnUse">
<stop stop-color="#2AA4F4"/>
<stop offset="1" stop-color="#007AD9"/>
</linearGradient>
<linearGradient id="paint10_linear" x1="3.37971" y1="103.629" x2="16.6633" y2="115.042" gradientUnits="userSpaceOnUse">
<stop stop-color="#2AA4F4"/>
<stop offset="1" stop-color="#007AD9"/>
</linearGradient>
<linearGradient id="paint11_linear" x1="3.37971" y1="129.629" x2="16.6633" y2="141.042" gradientUnits="userSpaceOnUse">
<stop stop-color="#2AA4F4"/>
<stop offset="1" stop-color="#007AD9"/>
</linearGradient>
<linearGradient id="paint12_linear" x1="295.38" y1="78.6291" x2="308.663" y2="90.0418" gradientUnits="userSpaceOnUse">
<stop stop-color="#2AA4F4"/>
<stop offset="1" stop-color="#007AD9"/>
</linearGradient>
<linearGradient id="paint13_linear" x1="295.38" y1="104.629" x2="308.663" y2="116.042" gradientUnits="userSpaceOnUse">
<stop stop-color="#2AA4F4"/>
<stop offset="1" stop-color="#007AD9"/>
</linearGradient>
<linearGradient id="paint14_linear" x1="295.38" y1="130.629" x2="308.663" y2="142.042" gradientUnits="userSpaceOnUse">
<stop stop-color="#2AA4F4"/>
<stop offset="1" stop-color="#007AD9"/>
</linearGradient>
<linearGradient id="paint15_linear" x1="269.38" y1="78.6291" x2="282.663" y2="90.0418" gradientUnits="userSpaceOnUse">
<stop stop-color="#2AA4F4"/>
<stop offset="1" stop-color="#007AD9"/>
</linearGradient>
<linearGradient id="paint16_linear" x1="269.38" y1="104.629" x2="282.663" y2="116.042" gradientUnits="userSpaceOnUse">
<stop stop-color="#2AA4F4"/>
<stop offset="1" stop-color="#007AD9"/>
</linearGradient>
<linearGradient id="paint17_linear" x1="269.38" y1="130.629" x2="282.663" y2="142.042" gradientUnits="userSpaceOnUse">
<stop stop-color="#2AA4F4"/>
<stop offset="1" stop-color="#007AD9"/>
</linearGradient>
<linearGradient id="paint18_linear" x1="243.38" y1="78.6291" x2="256.663" y2="90.0418" gradientUnits="userSpaceOnUse">
<stop stop-color="#2AA4F4"/>
<stop offset="1" stop-color="#007AD9"/>
</linearGradient>
<linearGradient id="paint19_linear" x1="243.38" y1="104.629" x2="256.663" y2="116.042" gradientUnits="userSpaceOnUse">
<stop stop-color="#2AA4F4"/>
<stop offset="1" stop-color="#007AD9"/>
</linearGradient>
<linearGradient id="paint20_linear" x1="243.38" y1="130.629" x2="256.663" y2="142.042" gradientUnits="userSpaceOnUse">
<stop stop-color="#2AA4F4"/>
<stop offset="1" stop-color="#007AD9"/>
</linearGradient>
<linearGradient id="paint21_linear" x1="217.38" y1="78.6291" x2="230.663" y2="90.0418" gradientUnits="userSpaceOnUse">
<stop stop-color="#2AA4F4"/>
<stop offset="1" stop-color="#007AD9"/>
</linearGradient>
<linearGradient id="paint22_linear" x1="217.38" y1="104.629" x2="230.663" y2="116.042" gradientUnits="userSpaceOnUse">
<stop stop-color="#2AA4F4"/>
<stop offset="1" stop-color="#007AD9"/>
</linearGradient>
<linearGradient id="paint23_linear" x1="217.38" y1="130.629" x2="230.663" y2="142.042" gradientUnits="userSpaceOnUse">
<stop stop-color="#2AA4F4"/>
<stop offset="1" stop-color="#007AD9"/>
</linearGradient>
<linearGradient id="paint24_linear" x1="80.8797" y1="1.12912" x2="94.1633" y2="12.5418" gradientUnits="userSpaceOnUse">
<stop stop-color="#2AA4F4"/>
<stop offset="1" stop-color="#007AD9"/>
</linearGradient>
<linearGradient id="paint25_linear" x1="80.8797" y1="27.1291" x2="94.1633" y2="38.5418" gradientUnits="userSpaceOnUse">
<stop stop-color="#2AA4F4"/>
<stop offset="1" stop-color="#007AD9"/>
</linearGradient>
<linearGradient id="paint26_linear" x1="80.8797" y1="53.1291" x2="94.1633" y2="64.5418" gradientUnits="userSpaceOnUse">
<stop stop-color="#2AA4F4"/>
<stop offset="1" stop-color="#007AD9"/>
</linearGradient>
<linearGradient id="paint27_linear" x1="54.8797" y1="1.12912" x2="68.1633" y2="12.5418" gradientUnits="userSpaceOnUse">
<stop stop-color="#2AA4F4"/>
<stop offset="1" stop-color="#007AD9"/>
</linearGradient>
<linearGradient id="paint28_linear" x1="54.8797" y1="27.1291" x2="68.1633" y2="38.5418" gradientUnits="userSpaceOnUse">
<stop stop-color="#2AA4F4"/>
<stop offset="1" stop-color="#007AD9"/>
</linearGradient>
<linearGradient id="paint29_linear" x1="54.8797" y1="53.1291" x2="68.1633" y2="64.5418" gradientUnits="userSpaceOnUse">
<stop stop-color="#2AA4F4"/>
<stop offset="1" stop-color="#007AD9"/>
</linearGradient>
<linearGradient id="paint30_linear" x1="28.8797" y1="1.12912" x2="42.1633" y2="12.5418" gradientUnits="userSpaceOnUse">
<stop stop-color="#2AA4F4"/>
<stop offset="1" stop-color="#007AD9"/>
</linearGradient>
<linearGradient id="paint31_linear" x1="28.8797" y1="27.1291" x2="42.1633" y2="38.5418" gradientUnits="userSpaceOnUse">
<stop stop-color="#2AA4F4"/>
<stop offset="1" stop-color="#007AD9"/>
</linearGradient>
<linearGradient id="paint32_linear" x1="28.8797" y1="53.1291" x2="42.1633" y2="64.5418" gradientUnits="userSpaceOnUse">
<stop stop-color="#2AA4F4"/>
<stop offset="1" stop-color="#007AD9"/>
</linearGradient>
<linearGradient id="paint33_linear" x1="2.87971" y1="1.12912" x2="16.1633" y2="12.5418" gradientUnits="userSpaceOnUse">
<stop stop-color="#2AA4F4"/>
<stop offset="1" stop-color="#007AD9"/>
</linearGradient>
<linearGradient id="paint34_linear" x1="2.87971" y1="27.1291" x2="16.1633" y2="38.5418" gradientUnits="userSpaceOnUse">
<stop stop-color="#2AA4F4"/>
<stop offset="1" stop-color="#007AD9"/>
</linearGradient>
<linearGradient id="paint35_linear" x1="2.87971" y1="53.1291" x2="16.1633" y2="64.5418" gradientUnits="userSpaceOnUse">
<stop stop-color="#2AA4F4"/>
<stop offset="1" stop-color="#007AD9"/>
</linearGradient>
<linearGradient id="paint36_linear" x1="294.88" y1="2.12912" x2="308.163" y2="13.5418" gradientUnits="userSpaceOnUse">
<stop stop-color="#2AA4F4"/>
<stop offset="1" stop-color="#007AD9"/>
</linearGradient>
<linearGradient id="paint37_linear" x1="294.88" y1="28.1291" x2="308.163" y2="39.5418" gradientUnits="userSpaceOnUse">
<stop stop-color="#2AA4F4"/>
<stop offset="1" stop-color="#007AD9"/>
</linearGradient>
<linearGradient id="paint38_linear" x1="294.88" y1="54.1291" x2="308.163" y2="65.5418" gradientUnits="userSpaceOnUse">
<stop stop-color="#2AA4F4"/>
<stop offset="1" stop-color="#007AD9"/>
</linearGradient>
<linearGradient id="paint39_linear" x1="268.88" y1="2.12912" x2="282.163" y2="13.5418" gradientUnits="userSpaceOnUse">
<stop stop-color="#2AA4F4"/>
<stop offset="1" stop-color="#007AD9"/>
</linearGradient>
<linearGradient id="paint40_linear" x1="268.88" y1="28.1291" x2="282.163" y2="39.5418" gradientUnits="userSpaceOnUse">
<stop stop-color="#2AA4F4"/>
<stop offset="1" stop-color="#007AD9"/>
</linearGradient>
<linearGradient id="paint41_linear" x1="268.88" y1="54.1291" x2="282.163" y2="65.5418" gradientUnits="userSpaceOnUse">
<stop stop-color="#2AA4F4"/>
<stop offset="1" stop-color="#007AD9"/>
</linearGradient>
<linearGradient id="paint42_linear" x1="242.88" y1="2.12912" x2="256.163" y2="13.5418" gradientUnits="userSpaceOnUse">
<stop stop-color="#2AA4F4"/>
<stop offset="1" stop-color="#007AD9"/>
</linearGradient>
<linearGradient id="paint43_linear" x1="242.88" y1="28.1291" x2="256.163" y2="39.5418" gradientUnits="userSpaceOnUse">
<stop stop-color="#2AA4F4"/>
<stop offset="1" stop-color="#007AD9"/>
</linearGradient>
<linearGradient id="paint44_linear" x1="242.88" y1="54.1291" x2="256.163" y2="65.5418" gradientUnits="userSpaceOnUse">
<stop stop-color="#2AA4F4"/>
<stop offset="1" stop-color="#007AD9"/>
</linearGradient>
<linearGradient id="paint45_linear" x1="216.88" y1="2.12912" x2="230.163" y2="13.5418" gradientUnits="userSpaceOnUse">
<stop stop-color="#2AA4F4"/>
<stop offset="1" stop-color="#007AD9"/>
</linearGradient>
<linearGradient id="paint46_linear" x1="216.88" y1="28.1291" x2="230.163" y2="39.5418" gradientUnits="userSpaceOnUse">
<stop stop-color="#2AA4F4"/>
<stop offset="1" stop-color="#007AD9"/>
</linearGradient>
<linearGradient id="paint47_linear" x1="216.88" y1="54.1291" x2="230.163" y2="65.5418" gradientUnits="userSpaceOnUse">
<stop stop-color="#2AA4F4"/>
<stop offset="1" stop-color="#007AD9"/>
</linearGradient>
<linearGradient id="paint48_linear" x1="187.88" y1="78.1291" x2="201.163" y2="89.5418" gradientUnits="userSpaceOnUse">
<stop stop-color="#2AA4F4"/>
<stop offset="1" stop-color="#007AD9"/>
</linearGradient>
<linearGradient id="paint49_linear" x1="187.88" y1="104.129" x2="201.163" y2="115.542" gradientUnits="userSpaceOnUse">
<stop stop-color="#2AA4F4"/>
<stop offset="1" stop-color="#007AD9"/>
</linearGradient>
<linearGradient id="paint50_linear" x1="187.88" y1="130.129" x2="201.163" y2="141.542" gradientUnits="userSpaceOnUse">
<stop stop-color="#2AA4F4"/>
<stop offset="1" stop-color="#007AD9"/>
</linearGradient>
<linearGradient id="paint51_linear" x1="161.88" y1="78.1291" x2="175.163" y2="89.5418" gradientUnits="userSpaceOnUse">
<stop stop-color="#2AA4F4"/>
<stop offset="1" stop-color="#007AD9"/>
</linearGradient>
<linearGradient id="paint52_linear" x1="161.88" y1="104.129" x2="175.163" y2="115.542" gradientUnits="userSpaceOnUse">
<stop stop-color="#2AA4F4"/>
<stop offset="1" stop-color="#007AD9"/>
</linearGradient>
<linearGradient id="paint53_linear" x1="161.88" y1="130.129" x2="175.163" y2="141.542" gradientUnits="userSpaceOnUse">
<stop stop-color="#2AA4F4"/>
<stop offset="1" stop-color="#007AD9"/>
</linearGradient>
<linearGradient id="paint54_linear" x1="135.88" y1="78.1291" x2="149.163" y2="89.5418" gradientUnits="userSpaceOnUse">
<stop stop-color="#2AA4F4"/>
<stop offset="1" stop-color="#007AD9"/>
</linearGradient>
<linearGradient id="paint55_linear" x1="135.88" y1="104.129" x2="149.163" y2="115.542" gradientUnits="userSpaceOnUse">
<stop stop-color="#2AA4F4"/>
<stop offset="1" stop-color="#007AD9"/>
</linearGradient>
<linearGradient id="paint56_linear" x1="135.88" y1="130.129" x2="149.163" y2="141.542" gradientUnits="userSpaceOnUse">
<stop stop-color="#2AA4F4"/>
<stop offset="1" stop-color="#007AD9"/>
</linearGradient>
<linearGradient id="paint57_linear" x1="109.88" y1="78.1291" x2="123.163" y2="89.5418" gradientUnits="userSpaceOnUse">
<stop stop-color="#2AA4F4"/>
<stop offset="1" stop-color="#007AD9"/>
</linearGradient>
<linearGradient id="paint58_linear" x1="109.88" y1="104.129" x2="123.163" y2="115.542" gradientUnits="userSpaceOnUse">
<stop stop-color="#2AA4F4"/>
<stop offset="1" stop-color="#007AD9"/>
</linearGradient>
<linearGradient id="paint59_linear" x1="109.88" y1="130.129" x2="123.163" y2="141.542" gradientUnits="userSpaceOnUse">
<stop stop-color="#2AA4F4"/>
<stop offset="1" stop-color="#007AD9"/>
</linearGradient>
<linearGradient id="paint60_linear" x1="401.88" y1="79.1291" x2="415.163" y2="90.5418" gradientUnits="userSpaceOnUse">
<stop stop-color="#2AA4F4"/>
<stop offset="1" stop-color="#007AD9"/>
</linearGradient>
<linearGradient id="paint61_linear" x1="401.88" y1="105.129" x2="415.163" y2="116.542" gradientUnits="userSpaceOnUse">
<stop stop-color="#2AA4F4"/>
<stop offset="1" stop-color="#007AD9"/>
</linearGradient>
<linearGradient id="paint62_linear" x1="401.88" y1="131.129" x2="415.163" y2="142.542" gradientUnits="userSpaceOnUse">
<stop stop-color="#2AA4F4"/>
<stop offset="1" stop-color="#007AD9"/>
</linearGradient>
<linearGradient id="paint63_linear" x1="375.88" y1="79.1291" x2="389.163" y2="90.5418" gradientUnits="userSpaceOnUse">
<stop stop-color="#2AA4F4"/>
<stop offset="1" stop-color="#007AD9"/>
</linearGradient>
<linearGradient id="paint64_linear" x1="375.88" y1="105.129" x2="389.163" y2="116.542" gradientUnits="userSpaceOnUse">
<stop stop-color="#2AA4F4"/>
<stop offset="1" stop-color="#007AD9"/>
</linearGradient>
<linearGradient id="paint65_linear" x1="375.88" y1="131.129" x2="389.163" y2="142.542" gradientUnits="userSpaceOnUse">
<stop stop-color="#2AA4F4"/>
<stop offset="1" stop-color="#007AD9"/>
</linearGradient>
<linearGradient id="paint66_linear" x1="349.88" y1="79.1291" x2="363.163" y2="90.5418" gradientUnits="userSpaceOnUse">
<stop stop-color="#2AA4F4"/>
<stop offset="1" stop-color="#007AD9"/>
</linearGradient>
<linearGradient id="paint67_linear" x1="349.88" y1="105.129" x2="363.163" y2="116.542" gradientUnits="userSpaceOnUse">
<stop stop-color="#2AA4F4"/>
<stop offset="1" stop-color="#007AD9"/>
</linearGradient>
<linearGradient id="paint68_linear" x1="349.88" y1="131.129" x2="363.163" y2="142.542" gradientUnits="userSpaceOnUse">
<stop stop-color="#2AA4F4"/>
<stop offset="1" stop-color="#007AD9"/>
</linearGradient>
<linearGradient id="paint69_linear" x1="323.88" y1="79.1291" x2="337.163" y2="90.5418" gradientUnits="userSpaceOnUse">
<stop stop-color="#2AA4F4"/>
<stop offset="1" stop-color="#007AD9"/>
</linearGradient>
<linearGradient id="paint70_linear" x1="323.88" y1="105.129" x2="337.163" y2="116.542" gradientUnits="userSpaceOnUse">
<stop stop-color="#2AA4F4"/>
<stop offset="1" stop-color="#007AD9"/>
</linearGradient>
<linearGradient id="paint71_linear" x1="323.88" y1="131.129" x2="337.163" y2="142.542" gradientUnits="userSpaceOnUse">
<stop stop-color="#2AA4F4"/>
<stop offset="1" stop-color="#007AD9"/>
</linearGradient>
<linearGradient id="paint72_linear" x1="187.38" y1="1.62912" x2="200.663" y2="13.0418" gradientUnits="userSpaceOnUse">
<stop stop-color="#2AA4F4"/>
<stop offset="1" stop-color="#007AD9"/>
</linearGradient>
<linearGradient id="paint73_linear" x1="187.38" y1="27.6291" x2="200.663" y2="39.0418" gradientUnits="userSpaceOnUse">
<stop stop-color="#2AA4F4"/>
<stop offset="1" stop-color="#007AD9"/>
</linearGradient>
<linearGradient id="paint74_linear" x1="187.38" y1="53.6291" x2="200.663" y2="65.0418" gradientUnits="userSpaceOnUse">
<stop stop-color="#2AA4F4"/>
<stop offset="1" stop-color="#007AD9"/>
</linearGradient>
<linearGradient id="paint75_linear" x1="161.38" y1="1.62912" x2="174.663" y2="13.0418" gradientUnits="userSpaceOnUse">
<stop stop-color="#2AA4F4"/>
<stop offset="1" stop-color="#007AD9"/>
</linearGradient>
<linearGradient id="paint76_linear" x1="161.38" y1="27.6291" x2="174.663" y2="39.0418" gradientUnits="userSpaceOnUse">
<stop stop-color="#2AA4F4"/>
<stop offset="1" stop-color="#007AD9"/>
</linearGradient>
<linearGradient id="paint77_linear" x1="161.38" y1="53.6291" x2="174.663" y2="65.0418" gradientUnits="userSpaceOnUse">
<stop stop-color="#2AA4F4"/>
<stop offset="1" stop-color="#007AD9"/>
</linearGradient>
<linearGradient id="paint78_linear" x1="135.38" y1="1.62912" x2="148.663" y2="13.0418" gradientUnits="userSpaceOnUse">
<stop stop-color="#2AA4F4"/>
<stop offset="1" stop-color="#007AD9"/>
</linearGradient>
<linearGradient id="paint79_linear" x1="135.38" y1="27.6291" x2="148.663" y2="39.0418" gradientUnits="userSpaceOnUse">
<stop stop-color="#2AA4F4"/>
<stop offset="1" stop-color="#007AD9"/>
</linearGradient>
<linearGradient id="paint80_linear" x1="135.38" y1="53.6291" x2="148.663" y2="65.0418" gradientUnits="userSpaceOnUse">
<stop stop-color="#2AA4F4"/>
<stop offset="1" stop-color="#007AD9"/>
</linearGradient>
<linearGradient id="paint81_linear" x1="109.38" y1="1.62912" x2="122.663" y2="13.0418" gradientUnits="userSpaceOnUse">
<stop stop-color="#2AA4F4"/>
<stop offset="1" stop-color="#007AD9"/>
</linearGradient>
<linearGradient id="paint82_linear" x1="109.38" y1="27.6291" x2="122.663" y2="39.0418" gradientUnits="userSpaceOnUse">
<stop stop-color="#2AA4F4"/>
<stop offset="1" stop-color="#007AD9"/>
</linearGradient>
<linearGradient id="paint83_linear" x1="109.38" y1="53.6291" x2="122.663" y2="65.0418" gradientUnits="userSpaceOnUse">
<stop stop-color="#2AA4F4"/>
<stop offset="1" stop-color="#007AD9"/>
</linearGradient>
<linearGradient id="paint84_linear" x1="401.38" y1="2.62912" x2="414.663" y2="14.0418" gradientUnits="userSpaceOnUse">
<stop stop-color="#2AA4F4"/>
<stop offset="1" stop-color="#007AD9"/>
</linearGradient>
<linearGradient id="paint85_linear" x1="401.38" y1="28.6291" x2="414.663" y2="40.0418" gradientUnits="userSpaceOnUse">
<stop stop-color="#2AA4F4"/>
<stop offset="1" stop-color="#007AD9"/>
</linearGradient>
<linearGradient id="paint86_linear" x1="401.38" y1="54.6291" x2="414.663" y2="66.0418" gradientUnits="userSpaceOnUse">
<stop stop-color="#2AA4F4"/>
<stop offset="1" stop-color="#007AD9"/>
</linearGradient>
<linearGradient id="paint87_linear" x1="375.38" y1="2.62912" x2="388.663" y2="14.0418" gradientUnits="userSpaceOnUse">
<stop stop-color="#2AA4F4"/>
<stop offset="1" stop-color="#007AD9"/>
</linearGradient>
<linearGradient id="paint88_linear" x1="375.38" y1="28.6291" x2="388.663" y2="40.0418" gradientUnits="userSpaceOnUse">
<stop stop-color="#2AA4F4"/>
<stop offset="1" stop-color="#007AD9"/>
</linearGradient>
<linearGradient id="paint89_linear" x1="375.38" y1="54.6291" x2="388.663" y2="66.0418" gradientUnits="userSpaceOnUse">
<stop stop-color="#2AA4F4"/>
<stop offset="1" stop-color="#007AD9"/>
</linearGradient>
<linearGradient id="paint90_linear" x1="349.38" y1="2.62912" x2="362.663" y2="14.0418" gradientUnits="userSpaceOnUse">
<stop stop-color="#2AA4F4"/>
<stop offset="1" stop-color="#007AD9"/>
</linearGradient>
<linearGradient id="paint91_linear" x1="349.38" y1="28.6291" x2="362.663" y2="40.0418" gradientUnits="userSpaceOnUse">
<stop stop-color="#2AA4F4"/>
<stop offset="1" stop-color="#007AD9"/>
</linearGradient>
<linearGradient id="paint92_linear" x1="349.38" y1="54.6291" x2="362.663" y2="66.0418" gradientUnits="userSpaceOnUse">
<stop stop-color="#2AA4F4"/>
<stop offset="1" stop-color="#007AD9"/>
</linearGradient>
<linearGradient id="paint93_linear" x1="323.38" y1="2.62912" x2="336.663" y2="14.0418" gradientUnits="userSpaceOnUse">
<stop stop-color="#2AA4F4"/>
<stop offset="1" stop-color="#007AD9"/>
</linearGradient>
<linearGradient id="paint94_linear" x1="323.38" y1="28.6291" x2="336.663" y2="40.0418" gradientUnits="userSpaceOnUse">
<stop stop-color="#2AA4F4"/>
<stop offset="1" stop-color="#007AD9"/>
</linearGradient>
<linearGradient id="paint95_linear" x1="323.38" y1="54.6291" x2="336.663" y2="66.0418" gradientUnits="userSpaceOnUse">
<stop stop-color="#2AA4F4"/>
<stop offset="1" stop-color="#007AD9"/>
</linearGradient>
</defs>
</svg>
