<svg width="243" height="181" viewBox="0 0 243 181" fill="none" xmlns="http://www.w3.org/2000/svg">
<circle cx="2.5" cy="2.5" r="2.5" fill="#F2F2F2"/>
<circle cx="36.5" cy="2.5" r="2.5" fill="#F2F2F2"/>
<circle cx="70.5" cy="2.5" r="2.5" fill="#F2F2F2"/>
<circle cx="104.5" cy="2.5" r="2.5" fill="#F2F2F2"/>
<circle cx="138.5" cy="2.5" r="2.5" fill="#F2F2F2"/>
<circle cx="172.5" cy="2.5" r="2.5" fill="#F2F2F2"/>
<circle cx="206.5" cy="2.5" r="2.5" fill="#F2F2F2"/>
<circle cx="240.5" cy="2.5" r="2.5" fill="#F2F2F2"/>
<circle cx="2.5" cy="46.5" r="2.5" fill="#F2F2F2"/>
<circle cx="36.5" cy="46.5" r="2.5" fill="#F2F2F2"/>
<circle cx="70.5" cy="46.5" r="2.5" fill="#F2F2F2"/>
<circle cx="104.5" cy="46.5" r="2.5" fill="#F2F2F2"/>
<circle cx="138.5" cy="46.5" r="2.5" fill="#F2F2F2"/>
<circle cx="172.5" cy="46.5" r="2.5" fill="#F2F2F2"/>
<circle cx="206.5" cy="46.5" r="2.5" fill="#F2F2F2"/>
<circle cx="240.5" cy="46.5" r="2.5" fill="#F2F2F2"/>
<circle cx="2.5" cy="90.5" r="2.5" fill="#F2F2F2"/>
<circle cx="36.5" cy="90.5" r="2.5" fill="#F2F2F2"/>
<circle cx="70.5" cy="90.5" r="2.5" fill="#F2F2F2"/>
<circle cx="104.5" cy="90.5" r="2.5" fill="#F2F2F2"/>
<circle cx="138.5" cy="90.5" r="2.5" fill="#F2F2F2"/>
<circle cx="172.5" cy="90.5" r="2.5" fill="#F2F2F2"/>
<circle cx="206.5" cy="90.5" r="2.5" fill="#F2F2F2"/>
<circle cx="240.5" cy="90.5" r="2.5" fill="#F2F2F2"/>
<circle cx="2.5" cy="134.5" r="2.5" fill="#F2F2F2"/>
<circle cx="36.5" cy="134.5" r="2.5" fill="#F2F2F2"/>
<circle cx="70.5" cy="134.5" r="2.5" fill="#F2F2F2"/>
<circle cx="104.5" cy="134.5" r="2.5" fill="#F2F2F2"/>
<circle cx="138.5" cy="134.5" r="2.5" fill="#F2F2F2"/>
<circle cx="172.5" cy="134.5" r="2.5" fill="#F2F2F2"/>
<circle cx="206.5" cy="134.5" r="2.5" fill="#F2F2F2"/>
<circle cx="240.5" cy="134.5" r="2.5" fill="#F2F2F2"/>
<circle cx="2.5" cy="178.5" r="2.5" fill="#F2F2F2"/>
<circle cx="36.5" cy="178.5" r="2.5" fill="#F2F2F2"/>
<circle cx="70.5" cy="178.5" r="2.5" fill="#F2F2F2"/>
<circle cx="104.5" cy="178.5" r="2.5" fill="#F2F2F2"/>
<circle cx="138.5" cy="178.5" r="2.5" fill="#F2F2F2"/>
<circle cx="172.5" cy="178.5" r="2.5" fill="#F2F2F2"/>
<circle cx="206.5" cy="178.5" r="2.5" fill="#F2F2F2"/>
<circle cx="240.5" cy="178.5" r="2.5" fill="#F2F2F2"/>
</svg>
