<svg width="44" height="88" viewBox="0 0 44 88" fill="none" xmlns="http://www.w3.org/2000/svg">
<path d="M37.0829 24.5584C35.074 25.5596 33.2522 27.5533 31.8149 30.3237C30.1398 19.4991 26.534 3.12099 23.0177 0.438374C22.646 0.120507 22.2383 -0.0283193 21.8288 0.00444234C21.4194 0.0372039 21.0202 0.250593 20.6649 0.626625C18.4656 2.9798 17.0335 10.557 18.2866 24.9114C13.4533 8.62742 11.7654 8.65095 10.9855 8.62742C10.6108 8.63706 10.246 8.84982 9.93665 9.23907C9.62734 9.62833 9.38727 10.1768 9.24647 10.8159C8.72222 12.9573 7.67372 19.6403 10.231 34.0182C7.14946 26.2527 6.20326 25.2644 5.1164 25.3585C4.7686 25.3962 4.43284 25.6065 4.14469 25.9669C3.85655 26.3273 3.62677 26.8245 3.47971 27.4058C2.55907 30.6061 2.66137 38.6539 5.52558 50.6551C4.54457 49.062 3.30243 48.1178 1.99647 47.9725C1.64476 48.0178 1.30484 48.2247 1.00776 48.5741C0.710687 48.9235 0.465925 49.4043 0.295847 49.9727C-0.867742 53.9025 1.57451 64.9389 4.59215 72.422C7.03439 78.5638 11.9317 88 19.041 88C20.0365 87.9973 21.0296 87.8239 22.0075 87.4823C22.3476 87.3714 22.6499 87.0166 22.848 86.4957C23.046 85.9749 23.1235 85.3306 23.0635 84.7046C23.0035 84.0786 22.8109 83.522 22.528 83.1573C22.2451 82.7925 21.8951 82.6494 21.5549 82.7594C21.5395 82.7644 21.5241 82.7699 21.5088 82.7759C15.6014 84.8938 11.1517 78.9167 8.4537 73.5515C4.42591 65.5272 2.66136 55.8792 2.55907 52.9377C3.40299 53.573 5.83245 56.2086 10.5635 67.3626C10.7636 67.8775 11.0666 68.2251 11.4059 68.3288C11.7452 68.4325 12.093 68.2839 12.3728 67.9156C12.6526 67.5474 12.8414 66.9897 12.8978 66.3653C12.9541 65.7408 12.8734 65.1008 12.6733 64.5859V64.5859C6.02425 46.0194 5.37213 34.7712 5.5895 30.9826C7.54585 34.6535 12.4303 48.1137 16.1129 58.2794C16.298 58.7945 16.5842 59.158 16.9115 59.2938C17.2389 59.4296 17.5821 59.3273 17.8694 59.0082C18.1567 58.6892 18.3659 58.178 18.4532 57.5817C18.5404 56.9854 18.4991 56.3501 18.3378 55.8086C10.6658 29.9236 10.9343 18.1578 11.3818 14.2044C12.5326 16.3458 15.5886 23.8054 22.0203 49.5021C22.1638 50.0574 22.4178 50.4901 22.7297 50.7106C23.0416 50.9311 23.3876 50.9227 23.6963 50.687C24.0049 50.4514 24.2526 50.0065 24.388 49.4444C24.5235 48.8822 24.5364 48.2458 24.4242 47.6666C18.1843 16.487 20.8951 5.92127 21.9308 4.72115C23.2734 4.72115 27.0454 16.6282 29.3982 32.2298C29.5388 33.1946 29.6795 34.1358 29.8073 35.0536C29.4773 36.1211 29.2196 37.2591 29.0401 38.4421C27.7615 47.0783 26.4828 66.6802 28.9506 72.069C29.1962 72.6335 29.5139 73.0772 29.8753 73.3605C30.2368 73.6439 30.6308 73.758 31.0221 73.6927C31.5175 73.5936 31.9948 73.293 32.4194 72.8128C32.844 72.3326 33.2053 71.6846 33.4771 70.9159C35.7659 64.7742 34.4233 49.3609 32.5948 35.8772C33.8404 32.6349 35.6416 30.2565 37.7095 29.1236C38.1514 28.868 38.6227 28.838 39.0731 29.037C39.5235 29.2359 39.9361 29.6562 40.2668 30.2531C41.3153 32.418 43.1438 40.5129 37.5944 69.0569C37.5373 69.3536 37.5125 69.668 37.5215 69.9823C37.5304 70.2966 37.5729 70.6046 37.6465 70.8887C37.7952 71.4623 38.0616 71.9039 38.3872 72.116C38.7127 72.3282 39.0707 72.2937 39.3825 72.0201C39.6942 71.7465 39.9341 71.2562 40.0494 70.6571C44.4736 47.9019 45.1641 33.2416 42.2104 27.0763C41.5677 25.8202 40.7472 24.919 39.8414 24.4742C38.9356 24.0293 37.9803 24.0585 37.0829 24.5584V24.5584ZM31.329 68.2569C31.2333 68.5731 31.079 68.8153 30.8942 68.9393C29.9352 66.8449 29.9352 54.4437 30.9837 44.278C32.9656 61.8562 31.8148 67.0097 31.329 68.2569V68.2569Z" fill="url(#paint0_linear)"/>
<defs>
<linearGradient id="paint0_linear" x1="24577.4" y1="-2.91881e+06" x2="51343.5" y2="-2.91881e+06" gradientUnits="userSpaceOnUse">
<stop stop-color="#2D6DD0"/>
<stop offset="0.99" stop-color="#6C139C"/>
</linearGradient>
</defs>
</svg>
