<svg width="1454" height="2053" viewBox="0 0 1454 2053" fill="none" xmlns="http://www.w3.org/2000/svg">
<g filter="url(#filter0_d)">
<rect width="1297.75" height="995.683" rx="30.2987" transform="matrix(-0.00150941 1.00028 0.999717 0.00231265 278.396 253.989)" fill="#56B8FF"/>
</g>
<g filter="url(#filter1_d)">
<rect width="1297.75" height="995.683" rx="30.2987" transform="matrix(-0.00150941 1.00028 0.999717 0.00231265 223.572 195.978)" fill="#E9FA66"/>
</g>
<g filter="url(#filter2_d)">
<rect width="1297.75" height="1020.23" rx="30.2987" transform="matrix(-0.00150941 1.00028 0.999717 0.00231265 146.132 134.84)" fill="black"/>
</g>
<ellipse cx="1138.74" cy="162.772" rx="20.1991" ry="20.1991" transform="rotate(-20.0782 1138.74 162.772)" fill="#1F1D1D"/>
<path d="M1124.69 158.529C1124.73 164.65 1128.8 169.814 1134.29 171.632C1134.97 171.727 1135.25 171.345 1135.25 170.962C1135.25 170.675 1135.24 169.719 1135.24 168.571C1131.39 169.432 1130.51 166.754 1130.51 166.754C1129.83 165.128 1128.96 164.745 1128.96 164.745C1127.71 163.884 1129.05 163.884 1129.05 163.884C1130.4 163.98 1131.18 165.319 1131.18 165.319C1132.44 167.423 1134.46 166.849 1135.23 166.467C1135.32 165.606 1135.7 164.937 1136.08 164.65C1133 164.267 1129.72 163.119 1129.69 157.859C1129.69 156.329 1130.26 155.085 1131.12 154.129C1131.02 153.746 1130.53 152.312 1131.29 150.399C1131.29 150.399 1132.44 150.016 1135.15 151.834C1136.3 151.547 1137.45 151.355 1138.61 151.355C1139.76 151.355 1141.01 151.547 1142.08 151.834C1144.76 150.016 1145.92 150.399 1145.92 150.399C1146.7 152.312 1146.22 153.746 1146.03 154.033C1146.9 154.99 1147.49 156.233 1147.5 157.763C1147.53 163.024 1144.26 164.267 1141.18 164.554C1141.67 164.937 1142.15 165.797 1142.16 167.136C1142.17 168.954 1142.18 170.484 1142.18 170.962C1142.18 171.345 1142.47 171.727 1143.15 171.632C1148.72 169.814 1152.63 164.65 1152.6 158.529C1152.56 150.877 1146.27 144.756 1138.57 144.756C1130.87 144.66 1124.65 150.877 1124.69 158.529Z" fill="white"/>
<ellipse cx="1246.24" cy="286.915" rx="20.1991" ry="20.1991" transform="rotate(-20.8608 1246.24 286.915)" fill="black"/>
<path d="M1257.23 279.233C1256.45 279.658 1255.62 279.941 1254.74 280.075C1255.64 279.418 1256.32 278.37 1256.64 277.131C1255.81 277.738 1254.88 278.184 1253.9 278.419C1253.12 277.386 1252 276.745 1250.75 276.745C1248.37 276.745 1246.44 279.123 1246.44 282.056C1246.44 282.471 1246.48 282.875 1246.55 283.268C1242.96 283.044 1239.78 280.927 1237.65 277.714C1237.28 278.499 1237.07 279.418 1237.07 280.389C1237.07 282.232 1237.83 283.855 1238.99 284.812C1238.28 284.785 1237.61 284.54 1237.03 284.148C1237.03 284.164 1237.03 284.188 1237.03 284.211C1237.03 286.787 1238.52 288.932 1240.49 289.421C1240.13 289.543 1239.75 289.611 1239.36 289.611C1239.08 289.611 1238.81 289.572 1238.54 289.514C1239.09 291.619 1240.69 293.158 1242.58 293.204C1241.1 294.626 1239.24 295.477 1237.21 295.477C1236.86 295.477 1236.52 295.453 1236.18 295.402C1238.1 296.905 1240.37 297.786 1242.8 297.786C1250.74 297.786 1255.09 289.692 1255.09 282.67C1255.09 282.439 1255.08 282.211 1255.07 281.984C1255.92 281.241 1256.65 280.304 1257.23 279.233Z" fill="url(#paint0_linear)"/>
<circle cx="1191.85" cy="225.773" r="20.1991" transform="rotate(-22.6965 1191.85 225.773)" fill="#1F1D1D"/>
<g clip-path="url(#clip0)">
<path d="M1201.46 234.087L1201.46 234.086L1201.46 234.086L1201.46 227.021C1201.46 223.565 1200.72 220.903 1196.68 220.903C1194.74 220.903 1193.43 221.969 1192.9 222.979L1192.85 222.979L1192.85 221.225L1189.01 221.225L1189.01 234.086L1193 234.086L1193 227.718C1193 226.041 1193.32 224.42 1195.4 224.42C1197.44 224.42 1197.47 226.333 1197.47 227.826L1197.47 234.087L1201.46 234.087Z" fill="#0077B5"/>
<path d="M1182.52 221.226L1186.51 221.226L1186.51 234.087L1182.52 234.087L1182.52 221.226Z" fill="#0077B5"/>
<path d="M1184.51 214.823C1183.24 214.823 1182.2 215.859 1182.2 217.137C1182.2 218.414 1183.24 219.471 1184.51 219.471C1185.79 219.471 1186.83 218.414 1186.83 217.137C1186.83 215.859 1185.79 214.823 1184.51 214.823V214.823Z" fill="#0077B5"/>
</g>
<defs>
<filter id="filter0_d" x="272.443" y="254.059" width="1005.35" height="1308.35" filterUnits="userSpaceOnUse" color-interpolation-filters="sRGB">
<feFlood flood-opacity="0" result="BackgroundImageFix"/>
<feColorMatrix in="SourceAlpha" type="matrix" values="0 0 0 0 0 0 0 0 0 0 0 0 0 0 0 0 0 0 127 0"/>
<feOffset dy="4.03982"/>
<feGaussianBlur stdDeviation="2.01991"/>
<feColorMatrix type="matrix" values="0 0 0 0 0 0 0 0 0 0 0 0 0 0 0 0 0 0 0.25 0"/>
<feBlend mode="normal" in2="BackgroundImageFix" result="effect1_dropShadow"/>
<feBlend mode="normal" in="SourceGraphic" in2="effect1_dropShadow" result="shape"/>
</filter>
<filter id="filter1_d" x="217.619" y="196.048" width="1005.35" height="1308.35" filterUnits="userSpaceOnUse" color-interpolation-filters="sRGB">
<feFlood flood-opacity="0" result="BackgroundImageFix"/>
<feColorMatrix in="SourceAlpha" type="matrix" values="0 0 0 0 0 0 0 0 0 0 0 0 0 0 0 0 0 0 127 0"/>
<feOffset dy="4.03982"/>
<feGaussianBlur stdDeviation="2.01991"/>
<feColorMatrix type="matrix" values="0 0 0 0 0 0 0 0 0 0 0 0 0 0 0 0 0 0 0.25 0"/>
<feBlend mode="normal" in2="BackgroundImageFix" result="effect1_dropShadow"/>
<feBlend mode="normal" in="SourceGraphic" in2="effect1_dropShadow" result="shape"/>
</filter>
<filter id="filter2_d" x="140.179" y="134.91" width="1029.89" height="1308.41" filterUnits="userSpaceOnUse" color-interpolation-filters="sRGB">
<feFlood flood-opacity="0" result="BackgroundImageFix"/>
<feColorMatrix in="SourceAlpha" type="matrix" values="0 0 0 0 0 0 0 0 0 0 0 0 0 0 0 0 0 0 127 0"/>
<feOffset dy="4.03982"/>
<feGaussianBlur stdDeviation="2.01991"/>
<feColorMatrix type="matrix" values="0 0 0 0 0 0 0 0 0 0 0 0 0 0 0 0 0 0 0.25 0"/>
<feBlend mode="normal" in2="BackgroundImageFix" result="effect1_dropShadow"/>
<feBlend mode="normal" in="SourceGraphic" in2="effect1_dropShadow" result="shape"/>
</filter>
<linearGradient id="paint0_linear" x1="1239.4" y1="277.557" x2="1257.81" y2="292.39" gradientUnits="userSpaceOnUse">
<stop stop-color="#2AA4F4"/>
<stop offset="1" stop-color="#007AD9"/>
</linearGradient>
<clipPath id="clip0">
<rect width="19.2639" height="19.2639" fill="white" transform="translate(1182.2 214.823)"/>
</clipPath>
</defs>
</svg>
