<svg width="44" height="44" viewBox="0 0 44 44" fill="none" xmlns="http://www.w3.org/2000/svg">
<path d="M20.6235 0.332556C20.5813 0.357013 20.541 0.382744 20.5024 0.409367L0.676366 12.7876C0.0316473 13.2117 -0.17235 13.8328 0.151916 14.3849C0.483813 14.9214 1.24539 15.3029 2.1451 15.3832L11.586 15.3832L11.586 30.7563C11.5844 31.4546 12.4755 32.0216 13.5764 32.0225C13.6123 32.0225 13.6482 32.0219 13.684 32.0207L30.4679 32.0207C31.5672 32.0575 32.5053 31.5218 32.5631 30.8246C32.5649 30.8018 32.5659 30.7791 32.5659 30.7563L32.5659 15.3832L42.0068 15.3832C42.9063 15.3029 43.6681 14.9214 44 14.3849L44 13.7859C43.9974 13.4146 43.7723 13.0577 43.3705 12.7876L23.4397 0.409366C22.6954 -0.105254 21.4344 -0.139646 20.6235 0.332556ZM36.8665 12.7211L30.4677 12.7211C29.3138 12.7211 28.3697 12.9874 28.3697 13.7194L28.3697 29.3587L15.7818 29.3587L15.7818 13.7193C15.7818 12.9872 14.8377 12.721 13.6838 12.721L7.28498 12.721L22.0758 3.53709L36.8665 12.7211Z" fill="url(#paint0_linear)"/>
<path d="M11.5857 34.6827C11.5857 35.4178 12.525 36.0137 13.6837 36.0137L30.4677 36.0137C31.6264 36.0137 32.5657 35.4178 32.5657 34.6827C32.5657 33.9475 31.6264 33.3517 30.4677 33.3517L13.6837 33.3517C12.525 33.3517 11.5857 33.9475 11.5857 34.6827Z" fill="url(#paint1_linear)"/>
<path d="M11.5857 38.6758C11.5857 39.4109 12.525 40.0068 13.6837 40.0068L30.4677 40.0068C31.6264 40.0068 32.5657 39.4109 32.5657 38.6758C32.5657 37.9407 31.6264 37.3448 30.4677 37.3448L13.6837 37.3448C12.525 37.3448 11.5857 37.9407 11.5857 38.6758Z" fill="url(#paint2_linear)"/>
<path d="M11.5857 42.669C11.5857 43.4041 12.525 44 13.6837 44L30.4677 44C31.6264 44 32.5657 43.4041 32.5657 42.669C32.5657 41.9339 31.6264 41.338 30.4677 41.338L13.6837 41.338C12.525 41.338 11.5857 41.9339 11.5857 42.669Z" fill="url(#paint3_linear)"/>
<defs>
<linearGradient id="paint0_linear" x1="6.67598" y1="51.5434" x2="28.4768" y2="-5.91095" gradientUnits="userSpaceOnUse">
<stop offset="0.245434" stop-color="#0095FF"/>
<stop offset="1" stop-color="#FF0000"/>
</linearGradient>
<linearGradient id="paint1_linear" x1="14.7689" y1="37.6364" x2="15.1288" y2="32.1965" gradientUnits="userSpaceOnUse">
<stop offset="0.245434" stop-color="#0095FF"/>
<stop offset="1" stop-color="#FF0000"/>
</linearGradient>
<linearGradient id="paint2_linear" x1="14.7689" y1="41.6296" x2="15.1288" y2="36.1896" gradientUnits="userSpaceOnUse">
<stop offset="0.245434" stop-color="#0095FF"/>
<stop offset="1" stop-color="#FF0000"/>
</linearGradient>
<linearGradient id="paint3_linear" x1="14.7689" y1="45.6228" x2="15.1288" y2="40.1828" gradientUnits="userSpaceOnUse">
<stop offset="0.245434" stop-color="#0095FF"/>
<stop offset="1" stop-color="#FF0000"/>
</linearGradient>
</defs>
</svg>
