<svg width="45" height="45" viewBox="0 0 45 45" fill="none" xmlns="http://www.w3.org/2000/svg">
<path fill-rule="evenodd" clip-rule="evenodd" d="M21.0603 3.50364C21.6827 3.15439 22.449 3.15439 23.0705 3.50364C26.1459 5.22972 35.4006 10.4254 38.4769 12.1515C39.0993 12.4998 39.4825 13.1451 39.4825 13.8436C39.4825 17.2958 39.4825 27.6862 39.4825 31.1384C39.4825 31.8369 39.0993 32.4822 38.4769 32.8315C35.4015 34.5576 26.1468 39.7532 23.0705 41.4793C22.4481 41.8286 21.6818 41.8286 21.0603 41.4793C17.9848 39.7532 8.73017 34.5576 5.65384 32.8315C5.03234 32.4822 4.64917 31.8378 4.64917 31.1393C4.64917 27.6871 4.64917 17.2967 4.64917 13.8446C4.64917 13.1461 5.03234 12.5007 5.65475 12.1515C8.72925 10.4254 17.9858 5.22972 21.0603 3.50364Z" fill="#00549D"/>
<path fill-rule="evenodd" clip-rule="evenodd" d="M4.92784 32.0285C4.684 31.7021 4.64917 31.3923 4.64917 30.9752C4.64917 27.5432 4.64917 17.2124 4.64917 13.7795C4.64917 13.0846 5.03142 12.443 5.652 12.0965C8.71642 10.3805 17.9399 5.21505 21.0043 3.49814C21.6249 3.15072 22.4655 3.15805 23.0861 3.50547C26.1505 5.22147 35.3428 10.3429 38.4073 12.0589C38.6548 12.1982 38.8436 12.366 39.0123 12.5869L4.92784 32.0285Z" fill="#0086D4"/>
<path fill-rule="evenodd" clip-rule="evenodd" d="M22.0659 9.6582C29.149 9.6582 34.8992 15.4085 34.8992 22.4915C34.8992 29.5746 29.149 35.3249 22.0659 35.3249C14.9828 35.3249 9.23254 29.5746 9.23254 22.4915C9.23254 15.4085 14.9828 9.6582 22.0659 9.6582ZM22.0659 16.0749C25.607 16.0749 28.4825 18.9495 28.4825 22.4915C28.4825 26.0326 25.607 28.9082 22.0659 28.9082C18.5248 28.9082 15.6492 26.0326 15.6492 22.4915C15.6492 18.9495 18.5239 16.0749 22.0659 16.0749Z" fill="white"/>
<path fill-rule="evenodd" clip-rule="evenodd" d="M39.0104 12.5962C39.4834 13.0389 39.4742 13.7063 39.4742 14.2315C39.4742 17.7103 39.4449 27.6048 39.4825 31.0835C39.4862 31.4465 39.3661 31.8288 39.1864 32.1166L21.6927 22.4916L39.0104 12.5962Z" fill="#0075C0"/>
<path fill-rule="evenodd" clip-rule="evenodd" d="M28.4825 19.7417H30.3159V25.2417H28.4825V19.7417ZM34.8992 19.7417H36.7325V25.2417H34.8992V19.7417Z" fill="white"/>
<path fill-rule="evenodd" clip-rule="evenodd" d="M26.6493 21.5747H32.1493V23.408H26.6493V21.5747ZM33.066 21.5747H38.566V23.408H33.066V21.5747Z" fill="white"/>
</svg>
