<svg width="45" height="45" viewBox="0 0 45 45" fill="none" xmlns="http://www.w3.org/2000/svg">
<path d="M34.451 16.8267C33.0514 7.35471 28.1775 0.32666 22.3276 0.32666C16.4793 0.32666 11.6039 7.35471 10.2028 16.8267H0.327637V27.8267H10.2028C11.6039 37.3013 16.4793 44.3267 22.3276 44.3267C28.1775 44.3267 33.0514 37.3013 34.451 27.8267H44.3276V16.8267H34.451ZM22.3276 33.3267C18.8579 33.3267 16.0419 28.396 16.0419 22.3267C16.0419 16.2547 18.8579 11.3267 22.3276 11.3267C25.7958 11.3267 28.6134 16.2547 28.6134 22.3267C28.6134 28.396 25.7958 33.3267 22.3276 33.3267Z" fill="url(#paint0_linear)"/>
<defs>
<linearGradient id="paint0_linear" x1="-26.4946" y1="7.00264" x2="44.5136" y2="44.024" gradientUnits="userSpaceOnUse">
<stop offset="0.245434" stop-color="#0095FF"/>
<stop offset="1" stop-color="#FF0000"/>
</linearGradient>
</defs>
</svg>
