<svg width="44" height="44" viewBox="0 0 44 44" fill="none" xmlns="http://www.w3.org/2000/svg">
<path fill-rule="evenodd" clip-rule="evenodd" d="M22 44C9.84973 44 0 34.1503 0 22C0 9.84973 9.84973 0 22 0C34.1503 0 44 9.84973 44 22C44 34.1503 34.1503 44 22 44ZM31.3888 15.9301C31.4381 15.6568 31.486 15.2706 31.5324 14.773C31.5783 14.2747 31.5605 13.6988 31.48 13.0463C31.4001 12.3936 31.2491 11.7279 31.0276 11.0484L30.8557 11.0093C30.7416 10.9825 30.554 10.9912 30.2942 11.0353C30.0351 11.0791 29.7314 11.1586 29.3843 11.2734C29.0361 11.3882 28.5881 11.6154 28.0376 11.9552C27.4875 12.2938 26.9075 12.7242 26.2964 13.2443C25.2569 12.8826 23.8257 12.5046 22.0001 12.5046C20.1749 12.5046 18.739 12.8826 17.6921 13.2443C17.0815 12.7242 16.4996 12.296 15.9448 11.9614C15.3919 11.6266 14.9489 11.397 14.6159 11.2734C14.284 11.1501 13.9769 11.0707 13.6935 11.0353C13.4117 11 13.2304 10.989 13.1498 11.0023C13.0693 11.0154 13.0102 11.0304 12.9726 11.0484C12.7511 11.7279 12.5978 12.3936 12.5141 13.0463C12.4303 13.6988 12.4108 14.272 12.4571 14.7661C12.503 15.2598 12.5524 15.6478 12.6061 15.9301C12.6591 16.2126 12.7202 16.4545 12.789 16.6576C11.5979 18.2361 11.0017 20.128 11.0017 22.3324C11.0017 23.5581 11.093 24.6699 11.2766 25.6661C11.4595 26.6631 11.7173 27.5269 12.05 28.259C12.3819 28.9911 12.8021 29.6325 13.3099 30.1838C13.8187 30.7348 14.3699 31.1893 14.966 31.5471C15.561 31.9041 16.2431 32.1924 17.0111 32.4136C17.7781 32.6335 18.5591 32.7878 19.3536 32.8765C20.1484 32.9644 21.0227 33.0086 21.9773 33.0086C22.9316 33.0086 23.8086 32.9644 24.6061 32.8765C25.4048 32.7878 26.1876 32.6335 26.9549 32.4136C27.7221 32.1924 28.4058 31.9041 29.0053 31.5471C29.6055 31.1893 30.161 30.7348 30.6732 30.1846C31.1843 29.6333 31.6065 28.9911 31.9385 28.259C32.2704 27.5269 32.5303 26.6631 32.7179 25.6669C32.9042 24.6699 32.9985 23.5581 32.9985 22.3324C32.9985 20.1364 32.4024 18.245 31.2111 16.6576C31.28 16.446 31.339 16.203 31.3888 15.9301ZM29.2467 29.0099C29.0137 29.4525 28.6877 29.8261 28.2673 30.1312C27.847 30.4361 27.4403 30.671 27.0469 30.8388C26.6538 31.0062 26.1457 31.136 25.523 31.2293C24.9007 31.3222 24.3429 31.3797 23.8498 31.3992C23.3578 31.4188 22.7368 31.4285 21.9883 31.4285C21.2405 31.4285 20.6212 31.4188 20.1326 31.3992C19.6435 31.3797 19.0884 31.3222 18.4655 31.2293C17.8435 31.136 17.3353 31.0062 16.9423 30.8388C16.5482 30.671 16.1428 30.4361 15.7223 30.1312C15.302 29.8261 14.9755 29.4525 14.7418 29.0099C14.5102 28.568 14.3162 28.0191 14.1639 27.366C14.0111 26.7119 13.9349 25.9671 13.9349 25.1313C13.9349 23.706 14.3934 22.4126 15.3098 21.2532C15.5846 20.8992 15.9035 20.6313 16.266 20.4493C16.6287 20.267 17.0412 20.1641 17.5038 20.1399C17.9657 20.1154 18.4064 20.1199 18.8262 20.1537C19.2465 20.1883 19.7661 20.2355 20.3846 20.2947C21.0039 20.3534 21.5383 20.3826 21.9883 20.3826C22.4395 20.3826 22.9742 20.3534 23.5921 20.2947C24.2113 20.2355 24.7312 20.1883 25.1512 20.1537C25.571 20.1199 26.0116 20.1154 26.4736 20.1399C26.9364 20.1641 27.3503 20.267 27.7165 20.4493C28.0837 20.6313 28.4038 20.8992 28.6794 21.2532C29.5964 22.4126 30.0542 23.706 30.0542 25.1313C30.0542 25.9671 29.9773 26.7119 29.8246 27.366C29.6722 28.0191 29.4796 28.568 29.2467 29.0099ZM17.8757 22.0015C17.1169 22.0015 16.5009 23.0575 16.5009 24.3602C16.5009 25.6631 17.1169 26.7188 17.8757 26.7188C18.6346 26.7188 19.2505 25.6631 19.2505 24.3602C19.2505 23.0575 18.6346 22.0015 17.8757 22.0015ZM23.2483 28.4352C23.0806 28.2433 22.8096 28.2433 22.6422 28.4352C22.3794 28.7347 22.1693 28.8809 22.0001 28.8809C21.831 28.8809 21.6208 28.7347 21.358 28.4352C21.1902 28.2425 20.9193 28.2425 20.7518 28.4352C20.5834 28.6272 20.5834 28.9385 20.7518 29.1293C21.1771 29.6176 21.5883 29.8606 22.0001 29.8606C22.4119 29.8606 22.8228 29.6176 23.2483 29.1301C23.4169 28.9385 23.4169 28.6272 23.2483 28.4352ZM26.1245 22.0015C25.3656 22.0015 24.7497 23.0575 24.7497 24.3602C24.7497 25.6631 25.3656 26.7188 26.1245 26.7188C26.8834 26.7188 27.4993 25.6631 27.4993 24.3602C27.4993 23.0575 26.8834 22.0015 26.1245 22.0015Z" fill="url(#paint0_linear)"/>
<defs>
<linearGradient id="paint0_linear" x1="-26.8222" y1="6.67598" x2="44.1859" y2="43.6973" gradientUnits="userSpaceOnUse">
<stop offset="0.245434" stop-color="#0095FF"/>
<stop offset="1" stop-color="#FF0000"/>
</linearGradient>
</defs>
</svg>
