<svg width="44" height="44" viewBox="0 0 44 44" fill="none" xmlns="http://www.w3.org/2000/svg">
<path d="M30.7241 19.3695L22.4159 27.6777H19.1613V26.2584H19.1428C20.5111 25.2343 21.5032 23.7341 21.8566 22.0003H22C23.5655 22.0003 24.8387 20.7272 24.8387 19.1616C24.8387 18.4477 24.5655 17.8026 24.129 17.3037V14.9035C24.129 9.81657 19.9902 5.67773 14.9032 5.67773C9.81626 5.67773 5.67742 9.81657 5.67742 14.9035V17.3037C5.24097 17.8026 4.96774 18.4477 4.96774 19.1616C4.96774 20.7272 6.2409 22.0003 7.80645 22.0003H7.94981C8.30323 23.7341 9.29535 25.2343 10.6636 26.2584H10.6452V27.6777H7.09677C3.18361 27.6777 0 30.8613 0 34.7745V43.2906C0 43.6831 0.317226 44.0003 0.709677 44.0003H29.0968C29.4892 44.0003 29.8064 43.6831 29.8064 43.2906V34.7745C29.8064 31.3908 27.4241 28.557 24.2497 27.8509L31.5196 20.581H44V19.1616H31.2258C31.037 19.1616 30.8568 19.2361 30.7241 19.3695ZM11.022 29.0971L13.7841 32.4113L11.0596 33.7732L9.50045 29.0971H11.022ZM14.7755 36.9035H15.0317L16.1672 42.581H13.64L14.7755 36.9035ZM15.1743 35.4842H14.6321L13.8685 33.9563L14.9032 33.4389L15.9379 33.9563L15.1743 35.4842ZM16.0224 32.4113L18.7845 29.0971H20.306L18.7468 33.7739L16.0224 32.4113ZM22 20.581V17.7423C22.7828 17.7423 23.4194 18.3788 23.4194 19.1616C23.4194 19.9444 22.7828 20.581 22 20.581ZM6.3871 19.1616C6.3871 18.3788 7.02368 17.7423 7.80645 17.7423V20.581C7.02368 20.581 6.3871 19.9444 6.3871 19.1616ZM7.80645 16.3229C7.56019 16.3229 7.32529 16.3641 7.09677 16.4237V14.9035C7.09677 10.5993 10.599 7.09709 14.9032 7.09709C19.2074 7.09709 22.7097 10.5993 22.7097 14.9035V16.4237C22.4812 16.3641 22.2463 16.3229 22 16.3229C22 15.9304 21.6828 15.6132 21.2903 15.6132C20.1797 15.6132 19.118 15.0824 18.4516 14.1932L17.6 13.0577C17.3325 12.7014 16.7321 12.7014 16.4645 13.0577L15.6129 14.1939C14.9465 15.0824 13.8848 15.6132 12.7742 15.6132H8.51613C8.12368 15.6132 7.80645 15.9304 7.80645 16.3229ZM9.22581 20.581V17.0326H12.7742C14.3291 17.0326 15.8152 16.2895 16.7484 15.0455L17.0323 14.6665L17.3161 15.0448C18.106 16.0979 19.2912 16.7927 20.5806 16.9808V20.581C20.5806 23.7113 18.0336 26.2584 14.9032 26.2584C11.7728 26.2584 9.22581 23.7113 9.22581 20.581ZM14.9032 27.6777C15.9124 27.6777 16.8719 27.4627 17.7419 27.0809V28.1305L14.9032 31.537L12.0645 28.1305V27.0809C12.9346 27.4627 13.8941 27.6777 14.9032 27.6777ZM1.41935 34.7745C1.41935 31.6441 3.96639 29.0971 7.09677 29.0971H8.00516L9.97239 34.9988C10.037 35.1932 10.1839 35.3508 10.3734 35.4295C10.4606 35.4664 10.5529 35.4842 10.6452 35.4842C10.7537 35.4842 10.863 35.4593 10.9624 35.4097L12.5982 34.5914L13.4491 36.2939L12.1923 42.581H5.67742V38.3229H4.25806V42.581H1.41935V34.7745ZM28.3871 34.7745V42.581H25.5484V38.3229H24.129V42.581H17.6142L16.3566 36.2939L17.2075 34.5914L18.8434 35.4097C18.9434 35.4593 19.0527 35.4842 19.1613 35.4842C19.2535 35.4842 19.3458 35.4664 19.4331 35.4303C19.6233 35.3515 19.7702 35.1939 19.8341 34.9995L21.8013 29.0971H22.7097C25.8401 29.0971 28.3871 31.6441 28.3871 34.7745Z" fill="url(#paint0_linear)"/>
<path d="M42.5806 16.3229V6.38741C42.5806 5.99496 42.2634 5.67773 41.8709 5.67773H39.0322C38.6398 5.67773 38.3225 5.99496 38.3225 6.38741V16.3229H36.9032V10.6455C36.9032 10.253 36.586 9.9358 36.1935 9.9358H33.3548C32.9623 9.9358 32.6451 10.253 32.6451 10.6455V16.3229H31.2258V12.7745C31.2258 12.3821 30.9085 12.0648 30.5161 12.0648H27.6774C27.2849 12.0648 26.9677 12.3821 26.9677 12.7745V16.3229H25.5483V17.7423H44V16.3229H42.5806ZM39.7419 7.09709H41.1612V16.3229H39.7419V7.09709ZM34.0645 11.3552H35.4838V16.3229H34.0645V11.3552ZM28.387 13.4842H29.8064V16.3229H28.387V13.4842Z" fill="url(#paint1_linear)"/>
<path d="M32.2293 4.25806H36.1935C36.3823 4.25806 36.5626 4.18355 36.6953 4.05013L38.3226 2.42284V4.25806H39.7419V0.709677C39.7419 0.317226 39.4247 0 39.0322 0H35.4839V1.41935H37.3191L35.8997 2.83871H31.9355C31.7467 2.83871 31.5664 2.91323 31.4337 3.04665L27.1757 7.30471L28.1791 8.30819L32.2293 4.25806Z" fill="url(#paint2_linear)"/>
<defs>
<linearGradient id="paint0_linear" x1="-26.8222" y1="11.4923" x2="39.6637" y2="51.2913" gradientUnits="userSpaceOnUse">
<stop offset="0.245434" stop-color="#0095FF"/>
<stop offset="1" stop-color="#FF0000"/>
</linearGradient>
<linearGradient id="paint1_linear" x1="14.3003" y1="7.50825" x2="37.4519" y2="25.969" gradientUnits="userSpaceOnUse">
<stop offset="0.245434" stop-color="#0095FF"/>
<stop offset="1" stop-color="#FF0000"/>
</linearGradient>
<linearGradient id="paint2_linear" x1="19.5153" y1="1.26058" x2="35.4183" y2="13.8012" gradientUnits="userSpaceOnUse">
<stop offset="0.245434" stop-color="#0095FF"/>
<stop offset="1" stop-color="#FF0000"/>
</linearGradient>
</defs>
</svg>
