<svg width="44" height="44" viewBox="0 0 44 44" fill="none" xmlns="http://www.w3.org/2000/svg">
<path d="M5.58594 30.5719V18.0005C5.58594 17.2563 5.77019 16.711 5.74561 16.7837C5.63423 16.7933 5.52372 16.8066 5.41406 16.8233V7.52427C5.41406 6.73532 4.83691 6.0957 4.125 6.0957C3.41309 6.0957 2.83594 6.73532 2.83594 7.52427V17.9667C1.13128 19.3081 0 21.6387 0 24.2862C0 28.254 2.53945 31.512 5.74561 31.7886C5.75945 31.8295 5.58594 31.288 5.58594 30.5719Z" fill="url(#paint0_linear)"/>
<path d="M24.75 35.0472H19.25C17.4736 35.0472 15.9625 36.3253 15.4231 38.0948H15.125C13.2527 38.0948 11.663 36.7331 11.1172 34.8567C9.32344 34.8567 9.06855 34.8966 8.43579 34.7051C8.98485 38.2474 11.7744 40.9519 15.125 40.9519H15.4231C15.9625 42.7215 17.4736 43.9996 19.25 43.9996H24.75C26.9771 43.9996 28.7891 41.9916 28.7891 39.5234C28.7891 37.0552 26.9771 35.0472 24.75 35.0472Z" fill="url(#paint1_linear)"/>
<path d="M11.07 13.7143C11.9563 7.51771 16.5322 2.85714 22 2.85714C27.4677 2.85714 32.0437 7.51771 32.9299 13.7143C34.678 13.7143 34.9292 13.676 35.5519 13.862C34.6886 5.99695 28.9257 0 22 0C15.0743 0 9.3113 5.99695 8.44806 13.862C9.06896 13.6766 9.32222 13.7143 11.07 13.7143Z" fill="url(#paint2_linear)"/>
<path d="M34.5468 16.5713H31.627C30.9162 16.5713 30.3379 17.2121 30.3379 17.9999V30.5713C30.3379 31.359 30.9162 31.9999 31.627 31.9999H34.5468C35.2576 31.9999 35.8358 31.359 35.8358 30.5713V17.9999C35.8358 17.2121 35.2576 16.5713 34.5468 16.5713Z" fill="url(#paint3_linear)"/>
<path d="M9.45312 31.9999H12.375C13.0858 31.9999 13.6641 31.359 13.6641 30.5713V17.9999C13.6641 17.2121 13.0858 16.5713 12.375 16.5713H9.45312C8.74234 16.5713 8.16406 17.2121 8.16406 17.9999V30.5713C8.16406 31.359 8.74234 31.9999 9.45312 31.9999Z" fill="url(#paint4_linear)"/>
<path d="M38.2544 16.7833C38.2522 16.7735 38.4141 17.308 38.4141 18.0001V30.5715C38.4141 31.3171 38.235 31.8312 38.2544 31.7883C41.4606 31.5116 44 28.2536 44 24.2858C44 20.318 41.4606 17.06 38.2544 16.7833Z" fill="url(#paint5_linear)"/>
<defs>
<linearGradient id="paint0_linear" x1="-3.50388" y1="9.99434" x2="8.13529" y2="11.3518" gradientUnits="userSpaceOnUse">
<stop offset="0.245434" stop-color="#0095FF"/>
<stop offset="1" stop-color="#FF0000"/>
</linearGradient>
<linearGradient id="paint1_linear" x1="-3.97148" y1="36.1153" x2="14.1641" y2="56.8207" gradientUnits="userSpaceOnUse">
<stop offset="0.245434" stop-color="#0095FF"/>
<stop offset="1" stop-color="#FF0000"/>
</linearGradient>
<linearGradient id="paint2_linear" x1="-8.07433" y1="2.10324" x2="19.2063" y2="29.9134" gradientUnits="userSpaceOnUse">
<stop offset="0.245434" stop-color="#0095FF"/>
<stop offset="1" stop-color="#FF0000"/>
</linearGradient>
<linearGradient id="paint3_linear" x1="26.9864" y1="18.9122" x2="37.8944" y2="20.9388" gradientUnits="userSpaceOnUse">
<stop offset="0.245434" stop-color="#0095FF"/>
<stop offset="1" stop-color="#FF0000"/>
</linearGradient>
<linearGradient id="paint4_linear" x1="4.81128" y1="18.9122" x2="15.7231" y2="20.9403" gradientUnits="userSpaceOnUse">
<stop offset="0.245434" stop-color="#0095FF"/>
<stop offset="1" stop-color="#FF0000"/>
</linearGradient>
<linearGradient id="paint5_linear" x1="34.7495" y1="19.0603" x2="46.0932" y2="21.3251" gradientUnits="userSpaceOnUse">
<stop offset="0.245434" stop-color="#0095FF"/>
<stop offset="1" stop-color="#FF0000"/>
</linearGradient>
</defs>
</svg>
