<svg width="35" height="53" viewBox="0 0 35 53" fill="none" xmlns="http://www.w3.org/2000/svg">
<path d="M8.82263 53.0001C13.6208 53.0001 17.5149 49.0484 17.5149 44.1795V35.3589H8.82263C4.0245 35.3589 0.130371 39.3105 0.130371 44.1795C0.130371 49.0484 4.0245 53.0001 8.82263 53.0001Z" fill="#0ACF83"/>
<path d="M0.130371 26.5384C0.130371 21.6694 4.0245 17.7178 8.82263 17.7178H17.5149V35.359H8.82263C4.0245 35.359 0.130371 31.4074 0.130371 26.5384Z" fill="#A259FF"/>
<path d="M0.130371 8.89872C0.130371 4.02975 4.0245 0.078125 8.82263 0.078125H17.5149V17.7193H8.82263C4.0245 17.7193 0.130371 13.7677 0.130371 8.89872Z" fill="#F24E1E"/>
<path d="M17.515 0.0766602H26.2073C31.0055 0.0766602 34.8997 4.0283 34.8997 8.89729C34.8997 13.7663 31.0055 17.7179 26.2073 17.7179H17.515V0.0766602Z" fill="#FF7262"/>
<path d="M34.8997 26.5384C34.8997 31.4074 31.0055 35.359 26.2073 35.359C21.4092 35.359 17.515 31.4074 17.515 26.5384C17.515 21.6694 21.4092 17.7178 26.2073 17.7178C31.0055 17.7178 34.8997 21.6694 34.8997 26.5384Z" fill="#1ABCFE"/>
</svg>
