<svg width="49" height="49" viewBox="0 0 49 49" fill="none" xmlns="http://www.w3.org/2000/svg">
<path d="M32.6882 27.9283C32.8239 29.8526 32.9555 31.6906 33.083 33.4238C33.1734 34.6389 33.2611 35.8005 33.3461 36.9086C33.958 36.4539 34.5346 35.9535 35.0711 35.4119C37.1184 33.3489 38.5532 30.7582 39.2158 27.9283H32.6882ZM10.9734 19.207C10.9446 18.3229 10.9268 17.4402 10.9199 16.5589C10.6835 16.9434 10.4635 17.3395 10.26 17.7473C9.99663 18.2705 9.76257 18.8079 9.5589 19.3571L11.0371 20.8353C11.0104 20.2925 10.9891 19.7498 10.9734 19.207ZM32.6882 27.9283C32.8239 29.8526 32.9555 31.6906 33.083 33.4238C33.1734 34.6389 33.2611 35.8005 33.3461 36.9086C33.958 36.4539 34.5346 35.9535 35.0711 35.4119C37.1184 33.3489 38.5532 30.7582 39.2158 27.9283H32.6882ZM32.6882 27.9283C32.8239 29.8526 32.9555 31.6906 33.083 33.4238C33.1734 34.6389 33.2611 35.8005 33.3461 36.9086C33.958 36.4539 34.5346 35.9535 35.0711 35.4119C37.1184 33.3489 38.5532 30.7582 39.2158 27.9283H32.6882ZM10.9199 16.5589C10.6835 16.9434 10.4635 17.3395 10.26 17.7473C9.99663 18.2705 9.76257 18.8079 9.5589 19.3571L11.0371 20.8353C11.0104 20.2925 10.9891 19.7498 10.9734 19.207C10.9446 18.3229 10.9268 17.4402 10.9199 16.5589ZM46.3684 15.5042C45.0166 12.2 42.9506 9.23572 40.3186 6.8237C37.6865 4.41168 34.5536 2.61167 31.1442 1.55264C27.8626 0.544363 24.402 0.255866 20.9987 0.706825C17.5954 1.15778 14.3294 2.33759 11.4236 4.16574C9.41124 5.43064 7.59564 6.98439 6.03502 8.77721C3.91175 11.2072 2.30235 14.0418 1.30381 17.1104C0.305274 20.1789 -0.0617481 23.4179 0.224862 26.632C0.511471 29.8462 1.44578 32.9691 2.9715 35.8126C4.49721 38.656 6.58276 41.1612 9.10248 43.1772L9.10454 43.1792C11.0223 44.7288 13.1671 45.9742 15.4636 46.8717C18.2255 47.9496 21.1645 48.5018 24.1293 48.5C24.8572 48.5 25.5767 48.4671 26.2881 48.4013C26.8905 48.3479 27.486 48.2711 28.0747 48.171C30.1583 47.826 32.186 47.2015 34.1027 46.3145C36.9904 44.9819 39.5873 43.0935 41.7451 40.7572C43.903 38.4208 45.5795 35.6823 46.6789 32.6981C47.2457 31.1545 47.6495 29.5559 47.8837 27.9283C48.4926 23.7259 47.9695 19.4371 46.3684 15.5042ZM13.6708 40.2269C12.6206 39.5456 11.6449 38.7559 10.7596 37.8708C7.28775 34.4189 5.3162 29.7379 5.27227 24.8423L12.0425 31.5508L23.0027 42.4103L23.9587 43.3581C23.8086 43.3519 23.6565 43.3458 23.5064 43.3375C20.0131 43.174 16.6229 42.1018 13.6708 40.2269ZM42.6677 27.9283C41.9601 31.6647 40.1356 35.0985 37.4354 37.7762C36.6289 38.5798 35.7523 39.3098 34.8161 39.9576C34.4358 40.2207 34.0431 40.4716 33.6422 40.7059C32.1858 41.5653 30.6191 42.2224 28.9855 42.6591C28.7408 42.7249 28.4941 42.7865 28.2453 42.842L5.78831 20.385C6.29484 18.1341 7.21204 15.9958 8.49393 14.0774C9.22104 12.9879 10.0581 11.9758 10.9919 11.0572C14.4888 7.59539 19.2087 5.65054 24.1293 5.64396C28.0662 5.6309 31.9072 6.8573 35.1081 9.14934C36.7456 10.3197 38.1893 11.7398 39.3865 13.3578L36.8165 15.5865C35.4331 13.7115 33.6635 12.1551 31.6274 11.0223C30.7406 10.5296 29.8075 10.1253 28.8416 9.81546C27.3195 9.3221 25.7294 9.07096 24.1293 9.07121C23.6606 9.07121 23.1959 9.09177 22.7395 9.13494C20.3263 9.36267 18 10.1529 15.9474 11.4422C13.8947 12.7314 12.1729 14.4839 10.9199 16.5589C10.6835 16.9434 10.4635 17.3395 10.26 17.7473C9.99663 18.2705 9.76257 18.8079 9.5589 19.3571L11.0371 20.8353L12.5092 22.3073L29.2733 39.0715C30.3757 38.6907 31.4294 38.1814 32.4127 37.5542C32.7334 37.3527 33.0446 37.1375 33.3461 36.9086C33.958 36.4539 34.5346 35.9535 35.0711 35.4119C37.1184 33.3489 38.5532 30.7582 39.2158 27.9283H30.988V24.501H42.9864C42.987 25.6509 42.8803 26.7983 42.6677 27.9283ZM32.6882 27.9283C32.8239 29.8526 32.9555 31.6906 33.083 33.4238C33.1734 34.6389 33.2611 35.8005 33.3461 36.9086C33.958 36.4539 34.5346 35.9535 35.0711 35.4119C37.1184 33.3489 38.5532 30.7582 39.2158 27.9283H32.6882ZM32.6882 27.9283C32.8239 29.8526 32.9555 31.6906 33.083 33.4238C33.1734 34.6389 33.2611 35.8005 33.3461 36.9086C33.958 36.4539 34.5346 35.9535 35.0711 35.4119C37.1184 33.3489 38.5532 30.7582 39.2158 27.9283H32.6882Z" fill="#663399"/>
</svg>
