<svg width="54" height="54" viewBox="0 0 54 54" fill="none" xmlns="http://www.w3.org/2000/svg">
<circle cx="26.9607" cy="26.8792" r="24" transform="rotate(-7.27007 26.9607 26.8792)" fill="black"/>
<path d="M11.1529 27.053C11.2067 33.8324 15.7288 39.5414 21.8201 41.539C22.5671 41.6431 22.8835 41.2186 22.8801 40.7948C22.8776 40.4771 22.8692 39.4178 22.8591 38.1466C18.6032 39.1106 17.6204 36.1469 17.6204 36.1469C16.86 34.348 15.8973 33.9267 15.8973 33.9267C14.5042 32.9768 15.9964 32.9731 15.9964 32.9731C17.4894 33.0753 18.3539 34.5562 18.3539 34.5562C19.758 36.8832 21.9912 36.242 22.8406 35.8162C22.9396 34.8626 23.36 34.12 23.7839 33.8012C20.3697 33.3859 16.7357 32.1238 16.6895 26.2977C16.676 24.6029 17.3046 23.2242 18.2554 22.1626C18.1455 21.7391 17.5999 20.1515 18.4358 18.0308C18.4358 18.0308 19.7115 17.604 22.7119 19.6092C23.9884 19.2882 25.2657 19.0732 26.5447 19.07C27.8238 19.0669 29.2111 19.2753 30.386 19.5902C33.3545 17.5701 34.6369 17.9907 34.6369 17.9907C35.5064 20.1071 34.9861 21.6974 34.7754 22.0157C35.7431 23.0726 36.3935 24.4481 36.407 26.1429C36.4533 31.969 32.8403 33.355 29.4321 33.6813C29.9684 34.1037 30.5089 35.0557 30.5206 36.5387C30.5366 38.5513 30.5501 40.2462 30.5543 40.7758C30.5577 41.1995 30.8808 41.6225 31.626 41.5147C37.792 39.4867 42.1166 33.7558 42.0628 26.9763C41.9955 18.5021 35.0136 11.7399 26.4867 11.761C17.959 11.6762 11.0856 18.5787 11.1529 27.053Z" fill="white"/>
</svg>
