<svg width="45" height="45" viewBox="0 0 45 45" fill="none" xmlns="http://www.w3.org/2000/svg">
<path d="M0.529541 22.596C0.433981 32.6109 6.72505 41.1566 15.344 44.2596C16.4044 44.432 16.8655 43.8129 16.8715 43.187C16.876 42.7175 16.8909 41.1527 16.9088 39.2749C10.8271 40.5922 9.50356 36.1901 9.50356 36.1901C8.46699 33.514 7.1076 32.8676 7.1076 32.8676C5.14885 31.4296 7.27274 31.4615 7.27274 31.4615C9.39515 31.6498 10.5879 33.8588 10.5879 33.8588C12.5272 37.3311 15.7221 36.44 16.9417 35.8322C17.1068 34.4262 17.7241 33.3399 18.3354 32.8795C13.4868 32.1807 8.34664 30.2255 8.42876 21.619C8.45265 19.1152 9.3823 17.0946 10.7626 15.5502C10.6169 14.922 9.88072 12.5634 11.1242 9.45193C11.1242 9.45193 12.9507 8.85331 17.1701 11.8902C18.9951 11.4481 20.8186 11.1624 22.639 11.1898C24.4595 11.2171 26.4287 11.5596 28.093 12.0541C32.3692 9.14468 34.1837 9.79793 34.1837 9.79793C35.3675 12.9458 34.5866 15.2817 34.2787 15.7466C35.6291 17.3319 36.52 19.3799 36.4961 21.8836C36.4139 30.4902 31.2365 32.4471 26.3774 32.8437C27.1299 33.481 27.875 34.9007 27.8541 37.0915C27.8258 40.0647 27.8019 42.5684 27.7944 43.3509C27.7884 43.9768 28.2376 44.6096 29.301 44.469C38.1284 41.6278 44.429 33.2711 44.5246 23.2561C44.644 10.7374 34.8786 0.574502 22.7421 0.392396C10.607 0.0538062 0.648991 10.0773 0.529541 22.596Z" fill="url(#paint0_linear)"/>
<defs>
<linearGradient id="paint0_linear" x1="-26.1383" y1="6.33381" x2="44.627" y2="44.1975" gradientUnits="userSpaceOnUse">
<stop offset="0.245434" stop-color="#0095FF"/>
<stop offset="1" stop-color="#FF0000"/>
</linearGradient>
</defs>
</svg>
