<svg width="45" height="45" viewBox="0 0 45 45" fill="none" xmlns="http://www.w3.org/2000/svg">
<ellipse cx="22.9457" cy="22.5933" rx="22" ry="22" fill="#1F1D1D"/>
<path d="M8.03889 23.0918C8.07619 29.9204 12.4525 35.6821 18.3601 37.7093C19.0848 37.816 19.3928 37.3892 19.3905 36.9624C19.3888 36.6423 19.3829 35.5754 19.3759 34.295C15.2433 35.2553 14.2959 32.2678 14.2959 32.2678C13.5619 30.4539 12.6285 30.0271 12.6285 30.0271C11.2784 29.0669 12.7267 29.0669 12.7267 29.0669C14.1756 29.1736 15.0113 30.6673 15.0113 30.6673C16.3689 33.0146 18.5379 32.3745 19.3631 31.9477C19.4613 30.9874 19.871 30.2405 20.2831 29.9204C16.9704 29.4936 13.4462 28.2133 13.4141 22.345C13.4048 20.6378 14.0179 19.2508 14.9431 18.1838C14.8373 17.757 14.3113 16.1566 15.1273 14.0226C15.1273 14.0226 16.3663 13.5958 19.274 15.6231C20.5136 15.303 21.7538 15.0896 22.9952 15.0896C24.2366 15.0896 25.5825 15.303 26.7222 15.6231C29.6077 13.5958 30.8514 14.0226 30.8514 14.0226C31.6907 16.1566 31.1822 17.757 30.977 18.0771C31.9139 19.1441 32.5421 20.5311 32.5515 22.2383C32.5835 28.1066 29.0739 29.4936 25.7653 29.8137C26.2848 30.2405 26.8073 31.2008 26.8155 32.6945C26.8265 34.7218 26.8359 36.4289 26.8388 36.9624C26.8411 37.3892 27.1538 37.816 27.8773 37.7093C33.8663 35.6821 38.0762 29.9204 38.0389 23.0918C37.9923 14.5561 31.2308 7.72753 22.955 7.72753C14.6785 7.62084 7.99226 14.5561 8.03889 23.0918Z" fill="white"/>
</svg>
