<svg width="41" height="41" viewBox="0 0 41 41" fill="none" xmlns="http://www.w3.org/2000/svg">
<ellipse cx="20.1991" cy="20.1991" rx="20.1991" ry="20.1991" fill="#15171A"/>
<path d="M29.8906 8H10.1094C8.94772 8 8 9.24283 8 10.7692V29.2308C8 30.752 8.9435 32 10.1094 32H29.8906C31.0494 32 32 30.7614 32 29.2308V10.7692C32 9.248 31.0565 8 29.8906 8ZM29.5993 9.84615L20.0447 22.3897L10.4075 9.84615H29.5993ZM9.40625 28.8485V11.1427L16.1787 19.9575L9.40625 28.8485ZM10.4006 30.1538L17.1773 21.2572L19.5519 24.3478C19.8268 24.7056 20.2703 24.7044 20.5441 24.345L22.8594 21.3054L29.5994 30.1538H10.4006ZM30.5938 28.8484L23.8537 20L30.5938 11.1515V28.8484Z" fill="url(#paint0_linear)"/>
<defs>
<linearGradient id="paint0_linear" x1="-6.63031" y1="11.6414" x2="32.1014" y2="31.8349" gradientUnits="userSpaceOnUse">
<stop offset="0.245434" stop-color="#0095FF"/>
<stop offset="1" stop-color="#FF0000"/>
</linearGradient>
</defs>
</svg>
