<svg width="54" height="53" viewBox="0 0 54 53" fill="none" xmlns="http://www.w3.org/2000/svg">
<g clip-path="url(#clip0)">
<path d="M8.00911 12.9784L6.11534 14.0717L27.2121 50.6113L29.1059 49.518L8.00911 12.9784Z" fill="#E10098"/>
<path d="M5.68147 16.9907H47.875V14.804H5.68147V16.9907Z" fill="#E10098"/>
<path d="M27.6211 3.57705L6.51645 15.7622L7.60982 17.656L28.7145 5.47083L27.6211 3.57705ZM45.9547 35.3347L24.85 47.5198L25.9434 49.4136L47.048 37.2284L45.9547 35.3347Z" fill="#E10098"/>
<path d="M7.61578 35.3431L6.52242 37.2367L27.6271 49.4219L28.7204 47.5281L7.61578 35.3431Z" fill="#E10098"/>
<path d="M45.566 12.9784L24.4692 49.518L26.363 50.6113L47.4598 14.0717L45.566 12.9784ZM7.355 38.6874H9.54173V14.3172H7.355V38.6874ZM44.0289 38.6874H46.2157V14.3172H44.0289V38.6874Z" fill="#E10098"/>
<path d="M27.249 4.50183L26.2939 6.15612L44.6493 16.7539L45.6044 15.0998L27.249 4.50183Z" fill="#E10098"/>
<path d="M49.1134 13.606C47.8488 11.4061 45.0297 10.6552 42.8298 11.9198C40.6299 13.1844 39.879 16.0035 41.1437 18.2034C42.4083 20.4033 45.2273 21.1542 47.4272 19.8895C49.6403 18.6118 50.3912 15.8059 49.1134 13.606ZM12.4131 34.8015C11.1485 32.6016 8.32943 31.8507 6.12952 33.1154C3.92961 34.38 3.17874 37.199 4.44336 39.3989C5.70798 41.5988 8.52702 42.3497 10.7269 41.0851C12.9268 39.8073 13.6777 37.0014 12.4131 34.8015ZM4.45653 13.606C3.19191 15.8059 3.94278 18.6118 6.14269 19.8895C8.3426 21.1542 11.1485 20.4033 12.4263 18.2034C13.6909 16.0035 12.94 13.1976 10.7401 11.9198C8.52702 10.6552 5.72115 11.4061 4.45653 13.606ZM41.1568 34.8015C39.8922 37.0014 40.6431 39.8073 42.843 41.0851C45.0429 42.3497 47.8488 41.5988 49.1266 39.3989C50.3912 37.199 49.6403 34.3931 47.4404 33.1154C45.2405 31.8507 42.4215 32.6016 41.1568 34.8015ZM26.785 0.709488C24.2426 0.709488 22.1875 2.76449 22.1875 5.30691C22.1875 7.84932 24.2426 9.90432 26.785 9.90432C29.3274 9.90432 31.3824 7.84932 31.3824 5.30691C31.3824 2.77767 29.3274 0.709488 26.785 0.709488ZM26.785 43.1006C24.2426 43.1006 22.1875 45.1556 22.1875 47.698C22.1875 50.2404 24.2426 52.2954 26.785 52.2954C29.3274 52.2954 31.3824 50.2404 31.3824 47.698C31.3824 45.1556 29.3274 43.1006 26.785 43.1006Z" fill="#E10098"/>
</g>
<defs>
<clipPath id="clip0">
<rect width="52.6925" height="52.6925" fill="white" transform="matrix(1 0 0 -1 0.438965 52.8472)"/>
</clipPath>
</defs>
</svg>
