<svg width="54" height="53" viewBox="0 0 54 53" fill="none" xmlns="http://www.w3.org/2000/svg">
<g clip-path="url(#clip0)">
<path d="M8.00815 12.9774L6.11438 14.0708L27.2111 50.6104L29.1049 49.517L8.00815 12.9774Z" fill="#E10098"/>
<path d="M5.68054 16.9897H47.874V14.803H5.68054V16.9897Z" fill="#E10098"/>
<path d="M27.6202 3.57608L6.5155 15.7612L7.60887 17.655L28.7135 5.46985L27.6202 3.57608ZM45.9537 35.3337L24.8491 47.5188L25.9424 49.4126L47.0471 37.2275L45.9537 35.3337Z" fill="#E10098"/>
<path d="M7.61485 35.3421L6.52148 37.2358L27.6261 49.4209L28.7195 47.5271L7.61485 35.3421Z" fill="#E10098"/>
<path d="M45.565 12.9774L24.4683 49.517L26.362 50.6104L47.4588 14.0708L45.565 12.9774ZM7.354 38.6864H9.54074V14.3162H7.354V38.6864ZM44.028 38.6864H46.2147V14.3162H44.028V38.6864Z" fill="#E10098"/>
<path d="M27.248 4.50086L26.293 6.15514L44.6484 16.7529L45.6034 15.0988L27.248 4.50086Z" fill="#E10098"/>
<path d="M49.1124 13.605C47.8478 11.4051 45.0287 10.6542 42.8288 11.9188C40.6289 13.1835 39.878 16.0025 41.1427 18.2024C42.4073 20.4023 45.2263 21.1532 47.4262 19.8886C49.6393 18.6108 50.3902 15.8049 49.1124 13.605ZM12.4121 34.8005C11.1475 32.6006 8.32844 31.8498 6.12853 33.1144C3.92862 34.379 3.17775 37.198 4.44237 39.398C5.70699 41.5979 8.52603 42.3487 10.7259 41.0841C12.9259 39.8063 13.6767 37.0004 12.4121 34.8005ZM4.45554 13.605C3.19092 15.8049 3.94179 18.6108 6.1417 19.8886C8.34161 21.1532 11.1475 20.4023 12.4253 18.2024C13.6899 16.0025 12.939 13.1966 10.7391 11.9188C8.52603 10.6542 5.72016 11.4051 4.45554 13.605ZM41.1558 34.8005C39.8912 37.0004 40.6421 39.8063 42.842 41.0841C45.0419 42.3487 47.8478 41.5979 49.1256 39.398C50.3902 37.198 49.6393 34.3922 47.4394 33.1144C45.2395 31.8498 42.4205 32.6006 41.1558 34.8005ZM26.784 0.708512C24.2416 0.708512 22.1866 2.76352 22.1866 5.30593C22.1866 7.84834 24.2416 9.90335 26.784 9.90335C29.3264 9.90335 31.3814 7.84834 31.3814 5.30593C31.3814 2.77669 29.3264 0.708512 26.784 0.708512ZM26.784 43.0996C24.2416 43.0996 22.1866 45.1546 22.1866 47.697C22.1866 50.2394 24.2416 52.2944 26.784 52.2944C29.3264 52.2944 31.3814 50.2394 31.3814 47.697C31.3814 45.1546 29.3264 43.0996 26.784 43.0996Z" fill="#E10098"/>
</g>
<defs>
<clipPath id="clip0">
<rect width="52.6925" height="52.6925" fill="white" transform="matrix(1 0 0 -1 0.437988 52.8462)"/>
</clipPath>
</defs>
</svg>
