<svg width="44" height="45" viewBox="0 0 44 45" fill="none" xmlns="http://www.w3.org/2000/svg">
<path d="M22.0001 8.32373C29.8683 8.32373 36.2354 14.6908 36.2354 22.559C36.2354 30.4273 29.8683 36.7943 22.0001 36.7943C14.1318 36.7943 7.76477 30.4273 7.76477 22.559C7.76477 14.6908 14.1318 8.32373 22.0001 8.32373Z" fill="#FFD200"/>
<path d="M6.44471 38.1144L3.70118 35.3708L5.40941 32.6014C4.74941 31.5144 4.19294 30.3626 3.76588 29.1461C3.53294 28.512 3.32588 27.852 3.17059 27.192L0 26.4414V18.6767L3.17059 17.9261C3.63647 15.9979 4.4 14.1732 5.40941 12.5167L3.70118 9.74732L9.18823 4.26026L11.9576 5.96849C13.6141 4.95908 15.4388 4.19555 17.3671 3.72967L18.1176 0.559082H25.8824L26.6329 3.72967C28.5612 4.19555 30.3859 4.95908 32.0424 5.96849L34.8118 4.26026L40.2988 9.74732L38.5906 12.5167C39.6 14.1732 40.3635 15.9979 40.8294 17.9261L44 18.6767V26.4414L40.8294 27.192C40.3635 29.1203 39.6 30.945 38.5906 32.6014L40.2988 35.3708L34.8118 40.8579L32.0424 39.1497C30.3859 40.1591 28.5612 40.9226 26.6329 41.3885L25.8824 44.5591H18.1176L17.3671 41.3885C16.7071 41.2332 16.0471 41.0261 15.4129 40.7932C14.1965 40.3661 13.0447 39.8097 11.9576 39.1497L9.18823 40.8579L6.44471 38.1144Z" fill="url(#paint0_linear)"/>
<path d="M22.0001 36.7943C29.862 36.7943 36.2354 30.421 36.2354 22.559C36.2354 14.6971 29.862 8.32373 22.0001 8.32373C14.1381 8.32373 7.76477 14.6971 7.76477 22.559C7.76477 30.421 14.1381 36.7943 22.0001 36.7943Z" fill="#15171A"/>
<path d="M22.0001 32.9123C23.4295 32.9123 24.5883 31.7535 24.5883 30.3241C24.5883 28.8946 23.4295 27.7358 22.0001 27.7358C20.5707 27.7358 19.4119 28.8946 19.4119 30.3241C19.4119 31.7535 20.5707 32.9123 22.0001 32.9123Z" fill="url(#paint1_linear)"/>
<path d="M24.5883 14.639C24.5883 14.7425 24.5883 14.8461 24.5754 14.9496L23.4495 21.2778C23.3589 22.0025 22.7377 22.559 22.0001 22.559C21.2625 22.559 20.6413 22.0025 20.5507 21.2778L19.4248 14.9496C19.4119 14.8461 19.4119 14.7425 19.4119 14.639C19.4119 13.2931 20.4989 12.2061 21.8448 12.2061H22.1554C23.5013 12.2061 24.5883 13.2931 24.5883 14.639V14.639Z" fill="url(#paint2_linear)"/>
<path d="M22 7.0293C13.4368 7.0293 6.47058 13.9955 6.47058 22.5587C6.47058 31.1219 13.4368 38.0881 22 38.0881C30.5632 38.0881 37.5294 31.1219 37.5294 22.5587C37.5294 13.9955 30.5632 7.0293 22 7.0293ZM22 35.4999C14.8642 35.4999 9.05882 29.6945 9.05882 22.5587C9.05882 15.4229 14.8642 9.61753 22 9.61753C29.1358 9.61753 34.9412 15.4229 34.9412 22.5587C34.9412 29.6945 29.1358 35.4999 22 35.4999Z" fill="url(#paint3_linear)"/>
<path d="M22.1513 10.9121H21.8485C19.7908 10.9121 18.1176 12.5854 18.1176 14.6431C18.1176 14.7983 18.1266 14.9536 18.1564 15.1698L19.2616 21.4359C19.4337 22.8141 20.6113 23.8533 21.9999 23.8533C23.3885 23.8533 24.5661 22.8141 24.7292 21.5006L25.8538 15.1089C25.8732 14.9536 25.8823 14.7983 25.8823 14.6431C25.8823 12.5854 24.209 10.9121 22.1513 10.9121V10.9121ZM22.1707 21.1149C22.1487 21.2871 21.8601 21.3518 21.82 21.0502L20.7148 14.7815C20.7084 14.7362 20.7058 14.6896 20.7058 14.6431C20.7058 14.0128 21.2183 13.5003 21.8485 13.5003H22.1513C22.7816 13.5003 23.294 14.0128 23.294 14.6431C23.294 14.7039 23.2927 14.7259 23.294 14.7207L22.1707 21.1149Z" fill="url(#paint4_linear)"/>
<path d="M21.9999 26.4414C19.8594 26.4414 18.1176 28.1833 18.1176 30.3238C18.1176 32.4642 19.8594 34.2061 21.9999 34.2061C24.1404 34.2061 25.8823 32.4642 25.8823 30.3238C25.8823 28.1833 24.1404 26.4414 21.9999 26.4414ZM21.9999 31.6179C21.2868 31.6179 20.7058 31.0381 20.7058 30.3238C20.7058 29.6094 21.2868 29.0296 21.9999 29.0296C22.713 29.0296 23.294 29.6094 23.294 30.3238C23.294 31.0381 22.713 31.6179 21.9999 31.6179Z" fill="url(#paint5_linear)"/>
<defs>
<linearGradient id="paint0_linear" x1="-26.8222" y1="7.23506" x2="44.1859" y2="44.2564" gradientUnits="userSpaceOnUse">
<stop offset="0.245434" stop-color="#0095FF"/>
<stop offset="1" stop-color="#FF0000"/>
</linearGradient>
<linearGradient id="paint1_linear" x1="16.2563" y1="28.5212" x2="24.6102" y2="32.8767" gradientUnits="userSpaceOnUse">
<stop offset="0.245434" stop-color="#0095FF"/>
<stop offset="1" stop-color="#FF0000"/>
</linearGradient>
<linearGradient id="paint2_linear" x1="16.2563" y1="13.7769" x2="26.2049" y2="16.3703" gradientUnits="userSpaceOnUse">
<stop offset="0.245434" stop-color="#0095FF"/>
<stop offset="1" stop-color="#FF0000"/>
</linearGradient>
<linearGradient id="paint3_linear" x1="-12.4628" y1="11.7418" x2="37.6606" y2="37.8745" gradientUnits="userSpaceOnUse">
<stop offset="0.245434" stop-color="#0095FF"/>
<stop offset="1" stop-color="#FF0000"/>
</linearGradient>
<linearGradient id="paint4_linear" x1="13.3842" y1="12.8756" x2="27.9007" y2="17.4167" gradientUnits="userSpaceOnUse">
<stop offset="0.245434" stop-color="#0095FF"/>
<stop offset="1" stop-color="#FF0000"/>
</linearGradient>
<linearGradient id="paint5_linear" x1="13.3842" y1="27.6195" x2="25.9151" y2="34.1527" gradientUnits="userSpaceOnUse">
<stop offset="0.245434" stop-color="#0095FF"/>
<stop offset="1" stop-color="#FF0000"/>
</linearGradient>
</defs>
</svg>
