<svg width="53" height="53" viewBox="0 0 53 53" fill="none" xmlns="http://www.w3.org/2000/svg">
<path d="M6.58655 44.0643V4.54492H46.1059V44.0643H6.58655Z" fill="#FFD600"/>
<path d="M6.58655 44.0643V4.54492H46.1059V44.0643H6.58655Z" fill="#FFD600"/>
<path d="M32.4256 36.3219C33.1852 37.5557 34.0108 38.738 35.7595 38.738C37.2283 38.738 37.9989 38.008 37.9989 36.9981C37.9989 35.7894 37.2019 35.3602 35.586 34.6566L34.7001 34.2789C32.1435 33.1943 30.443 31.8353 30.443 28.9647C30.443 26.3191 32.4684 24.3058 35.6332 24.3058C37.8869 24.3058 39.5061 25.0863 40.6742 27.1303L37.9144 28.8944C37.3073 27.8098 36.6509 27.3828 35.6332 27.3828C34.5948 27.3828 33.9372 28.0382 33.9372 28.8944C33.9372 29.9527 34.5959 30.3808 36.1163 31.0362L37.0021 31.4138C40.0155 32.6971 41.7148 34.0078 41.7148 36.9542C41.7148 40.1289 39.2075 41.8688 35.8418 41.8688C32.5496 41.8688 30.6801 40.2167 29.6395 38.1716L32.4256 36.3219ZM19.7069 36.4119C20.2624 37.4064 21.1066 38.1716 22.3207 38.1716C23.4821 38.1716 24.1507 37.7127 24.1507 35.9289V24.3047H27.8095V36.4909C27.8095 40.1871 25.6656 41.8688 22.5348 41.8688C19.7058 41.8688 17.664 39.9522 16.8319 38.1716L19.7069 36.4119Z" fill="#000001"/>
</svg>
