<svg width="53" height="53" viewBox="0 0 53 53" fill="none" xmlns="http://www.w3.org/2000/svg">
<path d="M6.58752 44.0652V4.5459H46.1069V44.0652H6.58752Z" fill="#FFD600"/>
<path d="M6.58752 44.0652V4.5459H46.1069V44.0652H6.58752Z" fill="#FFD600"/>
<path d="M32.4266 36.3228C33.1862 37.5567 34.0117 38.739 35.7605 38.739C37.2293 38.739 37.9999 38.009 37.9999 36.9991C37.9999 35.7904 37.2029 35.3612 35.587 34.6575L34.7011 34.2799C32.1445 33.1953 30.444 31.8363 30.444 28.9657C30.444 26.3201 32.4694 24.3068 35.6342 24.3068C37.8879 24.3068 39.5071 25.0873 40.6751 27.1313L37.9154 28.8954C37.3083 27.8108 36.6519 27.3838 35.6342 27.3838C34.5958 27.3838 33.9382 28.0391 33.9382 28.8954C33.9382 29.9536 34.5968 30.3818 36.1172 31.0371L37.0031 31.4148C40.0165 32.698 41.7158 34.0088 41.7158 36.9551C41.7158 40.1299 39.2085 41.8698 35.8428 41.8698C32.5506 41.8698 30.6811 40.2177 29.6405 38.1726L32.4266 36.3228ZM19.7079 36.4129C20.2634 37.4074 21.1076 38.1726 22.3217 38.1726C23.4831 38.1726 24.1517 37.7137 24.1517 35.9298V24.3057H27.8105V36.4919C27.8105 40.1881 25.6666 41.8698 22.5358 41.8698C19.7068 41.8698 17.665 39.9531 16.8329 38.1726L19.7079 36.4129Z" fill="#000001"/>
</svg>
