<svg width="44" height="44" viewBox="0 0 44 44" fill="none" xmlns="http://www.w3.org/2000/svg">
<ellipse cx="22" cy="22" rx="22" ry="22" fill="#1F1D1D"/>
<path d="M32.9945 31.9992L32.9945 31.9983H33L33 23.93C33 19.9829 32.1503 16.9424 27.5357 16.9424C25.3174 16.9424 23.8287 18.1597 23.2209 19.3137H23.1568L23.1568 17.3109H18.7815L18.7815 31.9983H23.3374L23.3374 24.7256C23.3374 22.8108 23.7004 20.9591 26.0718 20.9591C28.4084 20.9591 28.4432 23.1444 28.4432 24.8485L28.4432 31.9992H32.9945Z" fill="#0077B5"/>
<path d="M11.363 17.3125H15.9244L15.9244 31.9999H11.363L11.363 17.3125Z" fill="#0077B5"/>
<path d="M13.6418 10C12.1834 10 11 11.1834 11 12.6418C11 14.1002 12.1834 15.3083 13.6418 15.3083C15.1003 15.3083 16.2837 14.1002 16.2837 12.6418C16.2828 11.1834 15.0994 10 13.6418 10V10Z" fill="#0077B5"/>
</svg>
