<svg width="62" height="62" viewBox="0 0 62 62" fill="none" xmlns="http://www.w3.org/2000/svg">
<circle cx="31.3402" cy="30.6824" r="25" transform="rotate(-12.6901 31.3402 30.6824)" fill="black"/>
<path d="M42.2775 16.9402C42.1626 16.5752 41.8416 16.3231 41.4753 16.31C37.8662 16.1818 34.5834 16.6041 31.7183 17.5651C28.0697 18.7887 25.0428 20.9007 22.7212 23.843C19.1012 28.4363 19.7514 35.2896 24.1711 39.1205C24.5974 39.4894 25.046 39.8191 25.5125 40.1094L26.2324 47.6973C26.2798 48.1966 26.7049 48.5648 27.1819 48.5195C27.659 48.4742 28.0073 48.0327 27.9599 47.5334L27.3409 41.009C28.7434 41.5313 30.2475 41.7344 31.7701 41.59C34.5286 41.3282 37.013 39.9593 38.7655 37.7357C41.5057 34.2626 40.4593 29.9347 40.0184 27.492C39.3452 23.7628 38.7637 20.5422 41.9876 17.9376C42.2763 17.7043 42.3924 17.3052 42.2775 16.9402ZM24.0642 25.0055C26.8042 21.533 30.5868 19.3605 35.3518 18.5113C33.3917 19.7572 31.5467 21.4779 29.991 23.563C26.9409 27.6513 25.3396 32.649 25.3864 37.8233C21.6134 34.665 21.011 28.8796 24.0642 25.0055ZM38.3126 27.8141C38.8892 31.0076 39.4337 34.024 37.4223 36.5733C35.9635 38.4244 33.8952 39.5638 31.5984 39.7817C30.0554 39.9281 28.5352 39.646 27.1629 38.9778C26.8507 33.8032 28.3278 28.756 31.3631 24.6876C32.7577 22.8184 34.4477 21.2236 36.2504 20.0757C37.1294 19.5161 38.0272 19.0673 38.9189 18.7383C38.3264 19.7129 37.9651 20.7975 37.8269 22.0091C37.6092 23.9179 37.9668 25.8986 38.3126 27.8141Z" fill="url(#paint0_linear)"/>
<defs>
<linearGradient id="paint0_linear" x1="30.6718" y1="17.0492" x2="33.5999" y2="47.9106" gradientUnits="userSpaceOnUse">
<stop offset="0.15625" stop-color="#3CC2AF"/>
<stop offset="0.75" stop-color="#EDFF62"/>
</linearGradient>
</defs>
</svg>
