<svg width="107" height="55" viewBox="0 0 107 55" fill="none" xmlns="http://www.w3.org/2000/svg">
<g clip-path="url(#clip0)">
<path d="M38.4643 16.7904L27.6909 22.7512C27.2869 22.973 27.0388 23.3857 27.0388 23.8314V35.7597C27.0388 36.2054 27.2869 36.6159 27.6909 36.8399L38.4665 42.8051C38.8683 43.0269 39.3667 43.0269 39.7684 42.8051L50.5419 36.8399C50.9414 36.6159 51.1895 36.2054 51.1895 35.7597V23.8314C51.1895 23.3857 50.9414 22.9752 50.5375 22.7512L39.7662 16.7904C39.5643 16.6784 39.3381 16.6235 39.1142 16.6235C38.888 16.6235 38.6641 16.6784 38.4621 16.7904H38.4643ZM93.8946 27.5287L92.0986 28.5211C92.0306 28.5584 91.9911 28.6264 91.9911 28.7011V30.6902C91.9911 30.7649 92.0328 30.8329 92.0986 30.8703L93.8946 31.8648C93.9626 31.9022 94.0439 31.9022 94.1119 31.8648L95.9079 30.8703C95.9737 30.8329 96.0155 30.7649 96.0155 30.6902V28.7011C96.0155 28.6264 95.9737 28.5584 95.9057 28.5211L94.1097 27.5287C94.0768 27.5089 94.0395 27.5001 94.0022 27.5001C93.9648 27.5001 93.9275 27.5089 93.8946 27.5287Z" fill="#388E3C"/>
<path d="M79.1846 4.14847L73.9395 1.22185C73.7748 1.12964 73.5728 1.13183 73.4104 1.22843C73.2479 1.32504 73.1469 1.49848 73.1469 1.6873L73.1447 19.3656L68.308 16.6893C68.106 16.5773 67.8799 16.5224 67.6559 16.5224C67.432 16.5224 67.2058 16.5773 67.0039 16.6893H67.0061L56.2326 22.6501C55.8287 22.8719 55.5806 23.2846 55.5806 23.7281V35.6564C55.5806 36.1021 55.8287 36.5126 56.2326 36.7366L67.0082 42.7018C67.41 42.9235 67.9084 42.9235 68.3102 42.7018L79.0836 36.7366C79.4832 36.5148 79.7313 36.1021 79.7313 35.6564V5.07937C79.7313 4.69296 79.5205 4.33729 79.1846 4.14847ZM72.8505 32.8966L67.9545 35.6081C67.7723 35.7091 67.5461 35.7091 67.3639 35.6081L62.4657 32.8966C62.2791 32.7956 62.1671 32.6068 62.1671 32.4048V26.9819C62.1671 26.7799 62.2791 26.5933 62.4635 26.4901L67.3617 23.7808H67.3595C67.4517 23.7303 67.5527 23.7062 67.6559 23.7062C67.7591 23.7062 67.8601 23.7325 67.9523 23.7808L72.8483 26.4901C73.0328 26.5933 73.1447 26.7821 73.1447 26.9841V32.407C73.1447 32.6068 73.0328 32.7956 72.8505 32.8966Z" fill="#37474F"/>
<path d="M38.4643 16.7904L27.0388 35.7597C27.0388 36.2054 27.2869 36.6159 27.6909 36.8399L38.4665 42.8051C38.8683 43.0269 39.3667 43.0269 39.7684 42.8051L51.1895 23.8314C51.1895 23.3857 50.9414 22.9752 50.5375 22.7512L39.7662 16.7904C39.5643 16.6784 39.3381 16.6235 39.1142 16.6235C38.888 16.6235 38.6641 16.6784 38.4621 16.7904" fill="#2E7D32"/>
<path d="M38.4643 16.7904L27.6909 22.7512C27.2869 22.973 27.0388 23.3857 27.0388 23.8314L38.4643 42.8051C38.8661 43.0269 39.3645 43.0269 39.7662 42.8051L50.5397 36.8399C50.9414 36.6159 51.1895 36.2054 51.1895 35.7597L39.7662 16.7904C39.5643 16.6784 39.3381 16.6235 39.1142 16.6235C38.888 16.6235 38.6641 16.6784 38.4621 16.7904" fill="#4CAF50"/>
<path d="M105.425 22.6502L94.6541 16.6893C94.4522 16.5773 94.226 16.5225 94.0021 16.5225C93.7781 16.5225 93.552 16.5773 93.35 16.6893H93.3522L82.5788 22.6502C82.177 22.8719 81.9267 23.2934 81.9267 23.7545V35.6345C81.9267 36.0933 82.177 36.5171 82.5788 36.7388L93.3544 42.704C93.7584 42.928 94.2524 42.928 94.6563 42.704L99.6248 39.953C100.079 39.7006 100.077 39.0485 99.6204 38.7982L88.8097 32.8988C88.6274 32.7957 88.5133 32.6046 88.5133 32.3983V26.9841C88.5133 26.7821 88.6231 26.5955 88.7987 26.4989L93.7057 23.7852H93.7035C93.7957 23.7347 93.8967 23.7106 93.9999 23.7106C94.1031 23.7106 94.2041 23.7369 94.2963 23.7852L99.2033 26.5011C99.3789 26.5977 99.4887 26.7843 99.4887 26.9863V31.4037C99.4887 31.5925 99.5897 31.7681 99.7543 31.8626C99.919 31.9548 100.121 31.9548 100.286 31.8604L105.55 28.802C105.875 28.6132 106.077 28.2641 106.077 27.8865V23.7589C106.077 23.2956 105.827 22.8719 105.425 22.6502ZM24.1911 22.6502L13.4199 16.6893C13.2179 16.5773 12.9918 16.5225 12.7679 16.5225C12.5439 16.5225 12.3178 16.5773 12.1158 16.6893H12.118L1.34457 22.6502C0.942794 22.8719 0.692505 23.2934 0.692505 23.7545V40.1441C0.692505 40.3329 0.793499 40.5085 0.958163 40.6029C1.12283 40.6951 1.32481 40.6951 1.48948 40.6007L6.75433 37.5424C7.07927 37.3535 7.27906 37.0045 7.27906 36.6268V26.9819C7.27906 26.7799 7.38884 26.5933 7.56448 26.4967L12.4715 23.783C12.5637 23.7325 12.6647 23.7084 12.7679 23.7084C12.871 23.7084 12.972 23.7347 13.0643 23.783L17.9712 26.4989C18.1469 26.5955 18.2567 26.7821 18.2567 26.9841V36.629C18.2567 37.0067 18.4565 37.3557 18.7836 37.5446L24.0484 40.6029C24.2131 40.6973 24.4151 40.6973 24.5798 40.6051C24.7422 40.5085 24.8432 40.3329 24.8432 40.1441V23.7567C24.8432 23.2956 24.5929 22.8719 24.1911 22.6502Z" fill="#37474F"/>
</g>
<defs>
<clipPath id="clip0">
<rect width="105.385" height="105.385" fill="white" transform="translate(0.692505 -25.1924)"/>
</clipPath>
</defs>
</svg>
