<svg width="107" height="55" viewBox="0 0 107 55" fill="none" xmlns="http://www.w3.org/2000/svg">
<g clip-path="url(#clip0)">
<path d="M38.4653 16.7914L27.6918 22.7522C27.2879 22.974 27.0398 23.3867 27.0398 23.8324V35.7607C27.0398 36.2063 27.2879 36.6169 27.6918 36.8409L38.4675 42.8061C38.8692 43.0278 39.3676 43.0278 39.7694 42.8061L50.5428 36.8409C50.9424 36.6169 51.1905 36.2063 51.1905 35.7607V23.8324C51.1905 23.3867 50.9424 22.9761 50.5384 22.7522L39.7672 16.7914C39.5652 16.6794 39.3391 16.6245 39.1151 16.6245C38.889 16.6245 38.6651 16.6794 38.4631 16.7914H38.4653ZM93.8955 27.5297L92.0996 28.522C92.0315 28.5594 91.992 28.6274 91.992 28.7021V30.6912C91.992 30.7659 92.0337 30.8339 92.0996 30.8712L93.8955 31.8658C93.9636 31.9031 94.0448 31.9031 94.1129 31.8658L95.9088 30.8712C95.9747 30.8339 96.0164 30.7659 96.0164 30.6912V28.7021C96.0164 28.6274 95.9747 28.5594 95.9066 28.522L94.1107 27.5297C94.0778 27.5099 94.0404 27.5011 94.0031 27.5011C93.9658 27.5011 93.9285 27.5099 93.8955 27.5297Z" fill="#388E3C"/>
<path d="M79.1855 4.14945L73.9404 1.22282C73.7757 1.13061 73.5737 1.13281 73.4113 1.22941C73.2488 1.32601 73.1478 1.49946 73.1478 1.68827L73.1456 19.3666L68.3089 16.6903C68.1069 16.5783 67.8808 16.5234 67.6568 16.5234C67.4329 16.5234 67.2067 16.5783 67.0048 16.6903H67.007L56.2335 22.6511C55.8296 22.8728 55.5815 23.2856 55.5815 23.7291V35.6573C55.5815 36.103 55.8296 36.5136 56.2335 36.7375L67.0091 42.7028C67.4109 42.9245 67.9093 42.9245 68.3111 42.7028L79.0845 36.7375C79.4841 36.5158 79.7322 36.103 79.7322 35.6573V5.08035C79.7322 4.69394 79.5214 4.33827 79.1855 4.14945ZM72.8514 32.8976L67.9554 35.609C67.7732 35.71 67.547 35.71 67.3648 35.609L62.4666 32.8976C62.28 32.7966 62.168 32.6078 62.168 32.4058V26.9829C62.168 26.7809 62.28 26.5942 62.4644 26.4911L67.3626 23.7818H67.3604C67.4526 23.7313 67.5536 23.7071 67.6568 23.7071C67.76 23.7071 67.861 23.7335 67.9532 23.7818L72.8492 26.4911C73.0337 26.5942 73.1456 26.7831 73.1456 26.985V32.408C73.1456 32.6078 73.0337 32.7966 72.8514 32.8976Z" fill="#37474F"/>
<path d="M38.4653 16.7914L27.0398 35.7607C27.0398 36.2063 27.2879 36.6169 27.6918 36.8409L38.4675 42.8061C38.8692 43.0278 39.3676 43.0278 39.7694 42.8061L51.1905 23.8324C51.1905 23.3867 50.9424 22.9761 50.5384 22.7522L39.7672 16.7914C39.5652 16.6794 39.3391 16.6245 39.1151 16.6245C38.889 16.6245 38.6651 16.6794 38.4631 16.7914" fill="#2E7D32"/>
<path d="M38.4653 16.7914L27.6918 22.7522C27.2879 22.974 27.0398 23.3867 27.0398 23.8324L38.4653 42.8061C38.867 43.0278 39.3654 43.0278 39.7672 42.8061L50.5406 36.8409C50.9424 36.6169 51.1905 36.2063 51.1905 35.7607L39.7672 16.7914C39.5652 16.6794 39.3391 16.6245 39.1151 16.6245C38.889 16.6245 38.6651 16.6794 38.4631 16.7914" fill="#4CAF50"/>
<path d="M105.426 22.6511L94.6551 16.6903C94.4531 16.5783 94.227 16.5234 94.003 16.5234C93.7791 16.5234 93.5529 16.5783 93.351 16.6903H93.3532L82.5798 22.6511C82.178 22.8729 81.9277 23.2944 81.9277 23.7555V35.6354C81.9277 36.0943 82.178 36.518 82.5798 36.7398L93.3554 42.705C93.7593 42.9289 94.2533 42.9289 94.6573 42.705L99.6258 39.954C100.08 39.7015 100.078 39.0495 99.6214 38.7992L88.8106 32.8998C88.6284 32.7966 88.5142 32.6056 88.5142 32.3992V26.9851C88.5142 26.7831 88.624 26.5965 88.7997 26.4999L93.7066 23.7862H93.7044C93.7967 23.7357 93.8977 23.7116 94.0008 23.7116C94.104 23.7116 94.205 23.7379 94.2972 23.7862L99.2042 26.5021C99.3799 26.5987 99.4896 26.7853 99.4896 26.9873V31.4047C99.4896 31.5935 99.5906 31.7691 99.7553 31.8635C99.92 31.9557 100.122 31.9557 100.287 31.8613L105.551 28.803C105.876 28.6142 106.078 28.2651 106.078 27.8874V23.7599C106.078 23.2966 105.828 22.8729 105.426 22.6511ZM24.1921 22.6511L13.4209 16.6903C13.2189 16.5783 12.9928 16.5234 12.7688 16.5234C12.5449 16.5234 12.3187 16.5783 12.1168 16.6903H12.1189L1.34554 22.6511C0.943755 22.8729 0.693466 23.2944 0.693466 23.7555V40.145C0.693466 40.3338 0.79446 40.5095 0.959124 40.6039C1.12379 40.6961 1.32578 40.6961 1.49044 40.6017L6.75529 37.5433C7.08023 37.3545 7.28002 37.0054 7.28002 36.6278V26.9829C7.28002 26.7809 7.3898 26.5943 7.56544 26.4977L12.4724 23.784C12.5646 23.7335 12.6656 23.7094 12.7688 23.7094C12.872 23.7094 12.973 23.7357 13.0652 23.784L17.9722 26.4999C18.1478 26.5965 18.2576 26.7831 18.2576 26.9851V36.63C18.2576 37.0076 18.4574 37.3567 18.7845 37.5455L24.0494 40.6039C24.2141 40.6983 24.4161 40.6983 24.5807 40.6061C24.7432 40.5095 24.8442 40.3338 24.8442 40.145V23.7577C24.8442 23.2966 24.5939 22.8729 24.1921 22.6511Z" fill="#37474F"/>
</g>
<defs>
<clipPath id="clip0">
<rect width="105.385" height="105.385" fill="white" transform="translate(0.693436 -25.1914)"/>
</clipPath>
</defs>
</svg>
