<svg width="44" height="45" viewBox="0 0 44 45" fill="none" xmlns="http://www.w3.org/2000/svg">
<path d="M7.33333 2.94847C3.28533 2.94847 0 5.57674 0 8.81514C0 10.9793 1.4842 12.8513 3.66667 13.8697V33.0953C1.4842 34.1123 0 35.9828 0 38.1485C0 41.3855 3.28533 44.0151 7.33333 44.0151C11.3813 44.0151 14.6667 41.3855 14.6667 38.1485C14.6667 35.9828 13.186 34.1123 11 33.0953V13.8697C13.186 12.8513 14.6667 10.9793 14.6667 8.81514C14.6667 5.57674 11.3813 2.94847 7.33333 2.94847ZM7.33333 41.0818C5.31025 41.0818 3.66667 39.7698 3.66667 38.1485C3.66667 36.53 5.31025 35.2151 7.33333 35.2151C9.3618 35.2151 11 36.53 11 38.1485C11 39.7698 9.3618 41.0818 7.33333 41.0818ZM7.33333 11.7485C5.31025 11.7485 3.66667 10.4379 3.66667 8.81514C3.66667 7.19236 5.31025 5.8818 7.33333 5.8818C9.3618 5.8818 11 7.19236 11 8.81514C11 10.4379 9.3618 11.7485 7.33333 11.7485ZM40.3333 33.0953V14.6818C40.3333 5.85889 29.3333 5.8818 29.3333 5.8818H25.6667V0.0151367L14.6667 8.81514L25.6667 17.6151V11.7485C25.6667 11.7485 27.1957 11.7485 29.3333 11.7485C32.5668 11.7485 33 14.6818 33 14.6818V33.0953C30.8158 34.1123 29.3333 35.98 29.3333 38.1485C29.3333 41.3855 32.6204 44.0151 36.6667 44.0151C40.7129 44.0151 44 41.3855 44 38.1485C44 35.9828 42.5176 34.1123 40.3333 33.0953ZM36.6667 41.0818C34.6436 41.0818 33 39.7698 33 38.1485C33 36.53 34.6436 35.2151 36.6667 35.2151C38.6934 35.2151 40.3333 36.53 40.3333 38.1485C40.3333 39.7698 38.6934 41.0818 36.6667 41.0818Z" fill="url(#paint0_linear)"/>
<defs>
<linearGradient id="paint0_linear" x1="-26.8222" y1="6.69112" x2="44.1859" y2="43.7125" gradientUnits="userSpaceOnUse">
<stop offset="0.245434" stop-color="#0095FF"/>
<stop offset="1" stop-color="#FF0000"/>
</linearGradient>
</defs>
</svg>
