<svg width="45" height="45" viewBox="0 0 45 45" fill="none" xmlns="http://www.w3.org/2000/svg">
<g clip-path="url(#clip0)">
<path fill-rule="evenodd" clip-rule="evenodd" d="M17.261 4.5432C16.3443 4.5432 15.336 5.27653 15.336 6.37653C15.336 7.5682 16.2527 8.20986 17.1693 8.20986C18.086 8.20986 19.0943 7.5682 19.0943 6.28486C19.0943 5.00153 18.086 4.5432 17.261 4.5432ZM12.861 10.7765C12.861 10.7765 12.861 7.38486 12.861 5.55153C12.861 0.234863 32.2943 -0.865136 33.211 6.28486C33.211 9.2182 33.211 12.8849 33.211 16.2765C33.211 19.6682 30.2777 21.5932 27.8943 21.5932C25.4193 21.5932 24.7777 21.5932 22.486 21.5932C13.5027 21.5932 11.0277 21.3182 11.486 32.5932C9.65266 32.5932 9.92766 32.5932 8.18599 32.5932C0.0276571 32.5932 -0.61401 12.5182 8.18599 12.1515C15.7943 12.1515 23.036 12.1515 23.036 12.1515V10.6849H12.861V10.7765Z" fill="#347AB4"/>
<path fill-rule="evenodd" clip-rule="evenodd" d="M28.7175 40.1086C29.6341 40.1086 30.6425 39.3753 30.6425 38.2753C30.6425 37.0836 29.7258 36.4419 28.8091 36.4419C27.8925 36.4419 26.8841 37.0836 26.8841 38.3669C26.8841 39.4669 27.8008 40.1086 28.7175 40.1086ZM33.1175 33.8753C33.1175 33.8753 33.1175 37.2669 33.1175 39.1003C33.1175 44.4169 13.6841 45.5169 12.7675 38.3669C12.7675 35.4336 12.7675 32.3169 12.7675 28.3753C12.7675 24.4336 15.3341 23.0586 18.0841 23.0586C20.8341 23.0586 21.2008 23.0586 23.4925 23.0586C31.6508 23.0586 34.9508 23.0586 34.4925 12.0586C36.4175 12.0586 36.0508 12.0586 37.7925 12.0586C45.9508 12.0586 46.5925 32.1336 37.7925 32.5003C30.1841 32.5003 22.9425 32.5003 22.9425 32.5003V33.9669H33.1175V33.8753Z" fill="#FFCA1D"/>
</g>
<defs>
<clipPath id="clip0">
<rect width="44" height="44" fill="white" transform="translate(0.942383 0.32666)"/>
</clipPath>
</defs>
</svg>
