<svg width="54" height="53" viewBox="0 0 54 53" fill="none" xmlns="http://www.w3.org/2000/svg">
<path fill-rule="evenodd" clip-rule="evenodd" d="M31.8029 26.4078C31.8029 29.3412 29.6967 31.7193 27.0987 31.7193C24.5007 31.7193 22.3945 29.3412 22.3945 26.4078C22.3945 23.4743 24.5007 21.0962 27.0987 21.0962C29.6967 21.0962 31.8029 23.4743 31.8029 26.4078Z" fill="#00D8FF"/>
<path fill-rule="evenodd" clip-rule="evenodd" d="M19.7471 21.6749C16.7172 27.6072 14.4814 33.9711 13.613 39.135C12.8628 43.5964 13.0079 48.6856 15.0233 49.9981C16.5351 50.9825 20.1816 50.0488 24.6154 45.6727C27.8706 42.4598 31.2714 37.4721 34.4499 31.2486C37.4296 25.4144 39.5548 19.5475 40.4341 14.7287C40.9966 11.6457 41.1212 8.84954 40.7944 6.64251C40.5132 4.74296 39.9087 3.40413 39.0924 2.87262C38.3248 2.37287 37.077 2.44 35.5787 3.06203C33.8434 3.78232 31.884 5.18722 29.9121 7.1249C26.3733 10.6022 22.7633 15.7696 19.7471 21.6749ZM16.4123 52.8963C15.4592 52.8963 14.6126 52.664 13.899 52.1993C11.205 50.4449 10.2716 45.3838 11.402 38.661C12.3291 33.1487 14.6003 26.6653 17.7975 20.4054H17.7976C20.935 14.2627 24.7127 8.86543 28.4346 5.20797C30.6108 3.06966 32.8127 1.50287 34.8022 0.677025C36.9687 -0.22241 38.841 -0.224422 40.2167 0.671307C43.0173 2.49495 43.9454 8.0779 42.6383 15.2415C41.7118 20.3191 39.4961 26.4547 36.3995 32.5182C33.0987 38.9809 29.536 44.1912 26.0964 47.5859C23.8633 49.79 21.5711 51.3982 19.4676 52.2371C18.3656 52.6766 17.3386 52.8962 16.4123 52.8963Z" fill="#00D8FF"/>
<path fill-rule="evenodd" clip-rule="evenodd" d="M27.0988 16.8799C21.0339 16.8799 15.0345 17.8723 10.6388 19.6026C6.8412 21.0976 3.00919 23.7819 3.00919 26.409C3.00919 27.4629 3.7075 28.7185 4.97546 29.9446C6.45553 31.3757 8.58008 32.6502 11.1196 33.6302C15.2107 35.2092 20.7363 36.0439 27.0988 36.0439C33.0635 36.0439 38.6263 35.1917 42.7625 33.6444C48.5517 31.4785 51.1885 28.3754 51.1885 26.409C51.1885 25.4084 50.5135 24.2214 49.2878 23.0667C47.8683 21.7293 45.8115 20.5145 43.3399 19.5538C38.9042 17.8296 33.1364 16.8799 27.0988 16.8799ZM27.0988 38.5849C20.4917 38.5849 14.7144 37.7031 10.3917 36.0348C7.58518 34.9516 5.20604 33.5131 3.51162 31.8746C1.71067 30.1331 0.758713 28.2431 0.758713 26.409C0.758713 22.8974 4.17532 19.4561 9.89792 17.2032C14.5903 15.3561 20.699 14.3389 27.0988 14.3389C33.3792 14.3389 39.4072 15.3376 44.0724 17.1511C46.8001 18.2114 49.1022 19.5823 50.7297 21.1157C52.5022 22.7855 53.4389 24.6159 53.4389 26.409C53.4389 30.0594 49.6192 33.7562 43.4703 36.0565C39.1118 37.6871 33.2977 38.5849 27.0988 38.5849Z" fill="#00D8FF"/>
<path fill-rule="evenodd" clip-rule="evenodd" d="M19.7546 31.2617C22.7934 37.1886 26.5599 42.5538 30.0882 45.9821C33.1367 48.9442 37.1142 51.3436 39.1276 50.0277C40.638 49.0405 41.7426 45.007 40.5993 38.4844C39.7597 33.6952 37.631 27.8776 34.4433 21.6603C31.4547 15.8316 28.0145 10.8226 24.7563 7.55614C22.6716 5.46611 20.5885 3.94771 18.7318 3.16527C17.1339 2.49178 15.8047 2.41428 14.9891 2.94748C14.2221 3.44881 13.6506 4.70304 13.3795 6.47925C13.0656 8.53657 13.165 11.155 13.667 14.0516C14.5677 19.2498 16.7297 25.3619 19.7546 31.2618V31.2617ZM37.7793 52.9246C35.2301 52.9246 31.991 51.1833 28.6203 47.9082C24.8538 44.2486 21.0136 38.789 17.8069 32.5349V32.5348C14.6604 26.3978 12.4057 20.0069 11.4583 14.5395C10.9044 11.3429 10.8018 8.40645 11.1617 6.0478C11.5536 3.4792 12.4873 1.64666 13.8616 0.748283C16.6598 -1.08066 21.4069 0.799846 26.2505 5.65595C29.6838 9.09794 33.2851 14.3296 36.3908 20.3872C39.7012 26.8435 41.9198 32.9309 42.8069 37.991C43.3827 41.2762 43.4722 44.3218 43.0652 46.7984C42.6327 49.4308 41.661 51.3078 40.2551 52.2269C39.5385 52.6953 38.7043 52.9246 37.7793 52.9246Z" fill="#00D8FF"/>
</svg>
