<svg width="54" height="53" viewBox="0 0 54 53" fill="none" xmlns="http://www.w3.org/2000/svg">
<path fill-rule="evenodd" clip-rule="evenodd" d="M31.8019 26.4068C31.8019 29.3402 29.6957 31.7184 27.0977 31.7184C24.4997 31.7184 22.3936 29.3402 22.3936 26.4068C22.3936 23.4733 24.4997 21.0952 27.0977 21.0952C29.6957 21.0952 31.8019 23.4733 31.8019 26.4068Z" fill="#00D8FF"/>
<path fill-rule="evenodd" clip-rule="evenodd" d="M19.7462 21.6739C16.7163 27.6062 14.4805 33.9702 13.6121 39.134C12.8618 43.5954 13.007 48.6847 15.0224 49.9971C16.5342 50.9815 20.1807 50.0479 24.6144 45.6717C27.8697 42.4588 31.2704 37.4711 34.449 31.2476C37.4287 25.4134 39.5539 19.5465 40.4332 14.7278C40.9956 11.6447 41.1202 8.84857 40.7934 6.64154C40.5122 4.74198 39.9078 3.40315 39.0914 2.87164C38.3238 2.3719 37.076 2.43902 35.5778 3.06106C33.8425 3.78135 31.883 5.18624 29.9111 7.12392C26.3723 10.6013 22.7624 15.7687 19.7462 21.6739ZM16.4113 52.8953C15.4582 52.8953 14.6117 52.663 13.8981 52.1983C11.2041 50.4439 10.2707 45.3829 11.4011 38.66C12.3282 33.1477 14.5994 26.6644 17.7966 20.4044H17.7967C20.934 14.2617 24.7118 8.86445 28.4337 5.207C30.6098 3.06868 32.8117 1.5019 34.8013 0.676048C36.9677 -0.223386 38.84 -0.225398 40.2157 0.670331C43.0164 2.49397 43.9444 8.07693 42.6373 15.2405C41.7109 20.3181 39.4952 26.4538 36.3985 32.5172C33.0977 38.9799 29.535 44.1903 26.0954 47.5849C23.8624 49.789 21.5702 51.3973 19.4666 52.2361C18.3646 52.6756 17.3377 52.8952 16.4113 52.8953Z" fill="#00D8FF"/>
<path fill-rule="evenodd" clip-rule="evenodd" d="M27.0979 16.879C21.033 16.879 15.0336 17.8714 10.6379 19.6016C6.8403 21.0966 3.00829 23.7809 3.00829 26.408C3.00829 27.4619 3.7066 28.7175 4.97456 29.9436C6.45463 31.3747 8.57918 32.6492 11.1187 33.6292C15.2098 35.2083 20.7354 36.0429 27.0979 36.0429C33.0626 36.0429 38.6254 35.1907 42.7616 33.6434C48.5508 31.4775 51.1876 28.3745 51.1876 26.408C51.1876 25.4074 50.5126 24.2204 49.2869 23.0657C47.8674 21.7283 45.8106 20.5135 43.339 19.5528C38.9033 17.8286 33.1355 16.879 27.0979 16.879ZM27.0979 38.584C20.4908 38.584 14.7135 37.7021 10.3908 36.0338C7.58428 34.9507 5.20514 33.5121 3.51071 31.8736C1.70977 30.1321 0.757812 28.2421 0.757812 26.408C0.757812 22.8964 4.17442 19.4551 9.89702 17.2022C14.5894 15.3552 20.6981 14.3379 27.0979 14.3379C33.3783 14.3379 39.4063 15.3366 44.0715 17.1501C46.7992 18.2104 49.1013 19.5813 50.7288 21.1147C52.5013 22.7845 53.438 24.6149 53.438 26.408C53.438 30.0585 49.6183 33.7552 43.4694 36.0555C39.1109 37.6861 33.2968 38.584 27.0979 38.584Z" fill="#00D8FF"/>
<path fill-rule="evenodd" clip-rule="evenodd" d="M19.7536 31.2607C22.7924 37.1876 26.5589 42.5529 30.0872 45.9811C33.1358 48.9432 37.1133 51.3427 39.1267 50.0267C40.6371 49.0395 41.7417 45.0061 40.5983 38.4834C39.7588 33.6943 37.63 27.8767 34.4424 21.6593C31.4537 15.8306 28.0136 10.8216 24.7553 7.55516C22.6706 5.46513 20.5875 3.94673 18.7309 3.16429C17.1329 2.4908 15.8037 2.4133 14.9881 2.9465C14.2212 3.44783 13.6496 4.70207 13.3785 6.47828C13.0647 8.5356 13.1641 11.1541 13.666 14.0506C14.5668 19.2489 16.7288 25.3609 19.7536 31.2609V31.2607ZM37.7784 52.9236C35.2291 52.9236 31.9901 51.1824 28.6193 47.9072C24.8529 44.2477 21.0127 38.788 17.8059 32.5339V32.5338C14.6595 26.3968 12.4047 20.0059 11.4574 14.5386C10.9035 11.3419 10.8009 8.40547 11.1608 6.04682C11.5526 3.47822 12.4863 1.64568 13.8606 0.747306C16.6588 -1.08163 21.406 0.798869 26.2496 5.65497C29.6829 9.09696 33.2841 14.3286 36.3899 20.3862C39.7003 26.8426 41.9189 32.9299 42.806 37.99C43.3818 41.2752 43.4713 44.3208 43.0643 46.7974C42.6317 49.4299 41.6601 51.3069 40.2542 52.2259C39.5376 52.6943 38.7033 52.9236 37.7784 52.9236Z" fill="#00D8FF"/>
</svg>
