<svg width="53" height="53" viewBox="0 0 53 53" fill="none" xmlns="http://www.w3.org/2000/svg">
<path d="M36.5793 37.0006C38.5234 36.7878 39.9982 35.0142 39.9312 32.8858C39.8641 30.7575 38.1882 29.0548 36.177 29.0548H36.043C33.9648 29.1258 32.3559 30.9703 32.4229 33.1696C32.49 34.2338 32.8922 35.1561 33.4955 35.7946C31.2162 40.5478 27.7303 44.0241 22.5013 46.9329C18.9483 48.9193 15.2612 49.6288 11.5741 49.1321C8.55743 48.7065 6.21111 47.2876 4.73627 44.9464C2.59106 41.4701 2.38995 37.7101 4.19997 33.95C5.47369 31.2541 7.48483 29.2676 8.75854 28.2744C8.49039 27.3521 8.08817 25.7914 7.88705 24.6562C-1.83344 32.1054 -0.827871 42.1796 2.1218 46.9329C4.33404 50.4801 8.82558 52.6794 13.7864 52.6794C15.1271 52.6794 16.4679 52.5375 17.8087 52.1828C26.3895 50.4092 32.8922 45.0174 36.5793 37.0006V37.0006Z" fill="#764ABC"/>
<path d="M48.3779 28.2024C43.2831 21.8883 35.7748 18.412 27.1939 18.412H26.1213C25.518 17.135 24.2443 16.2837 22.8365 16.2837H22.7024C20.6242 16.3546 19.0153 18.1992 19.0823 20.3985C19.1494 22.5268 20.8253 24.2295 22.8365 24.2295H22.9705C24.4454 24.1585 25.7191 23.1653 26.2554 21.8174H27.4621C32.557 21.8174 37.3837 23.3782 41.7412 26.4288C45.0931 28.7699 47.5065 31.8206 48.8472 35.5097C49.9869 38.4894 49.9198 41.3981 48.7131 43.8811C46.8361 47.6412 43.6853 49.6986 39.5289 49.6986C36.8474 49.6986 34.3 48.8473 32.9592 48.2088C32.2218 48.9182 30.881 50.0533 29.9425 50.7628C32.8251 52.1817 35.7748 52.9621 38.5904 52.9621C45.026 52.9621 49.7857 49.202 51.5958 45.4419C53.5399 41.3271 53.4058 34.2327 48.3779 28.2024Z" fill="#764ABC"/>
<path d="M14.3226 38.2067C14.3896 40.3351 16.0656 42.0378 18.0767 42.0378H18.2108C20.289 41.9668 21.8979 40.1223 21.8308 37.923C21.7638 35.7946 20.0878 34.092 18.0767 34.092H17.9426C17.8086 34.092 17.6075 34.092 17.4734 34.1629C14.7248 29.3387 13.5852 24.0888 13.9874 18.4132C14.2556 14.1565 15.5963 10.4674 17.9426 7.41681C19.8867 4.79186 23.6408 3.51486 26.1883 3.44391C33.2943 3.30202 36.311 12.6667 36.5121 16.4268C37.3836 16.6396 38.8584 17.1362 39.864 17.4909C39.0595 5.99792 32.3558 0.0385742 25.9201 0.0385742C19.8867 0.0385742 14.3226 4.64997 12.1104 11.4606C9.02662 20.5416 11.0378 29.2677 14.7919 36.1494C14.4567 36.646 14.2556 37.4264 14.3226 38.2067V38.2067Z" fill="#764ABC"/>
</svg>
