<svg width="54" height="53" viewBox="0 0 54 53" fill="none" xmlns="http://www.w3.org/2000/svg">
<path d="M37.2605 37.0016C39.2046 36.7888 40.6794 35.0151 40.6124 32.8868C40.5453 30.7585 38.8694 29.0558 36.8583 29.0558H36.7242C34.646 29.1267 33.0371 30.9713 33.1041 33.1706C33.1712 34.2348 33.5734 35.157 34.1767 35.7955C31.8975 40.5488 28.4115 44.0251 23.1825 46.9338C19.6295 48.9203 15.9424 49.6297 12.2554 49.1331C9.23866 48.7075 6.89233 47.2886 5.4175 44.9474C3.27229 41.4711 3.07117 37.711 4.88119 33.951C6.15491 31.2551 8.16605 29.2686 9.43977 28.2754C9.17162 27.3531 8.76939 25.7923 8.56828 24.6572C-1.15221 32.1064 -0.146646 42.1806 2.80302 46.9338C5.01527 50.4811 9.50681 52.6804 14.4676 52.6804C15.8084 52.6804 17.1491 52.5385 18.4899 52.1837C27.0707 50.4101 33.5734 45.0183 37.2605 37.0016Z" fill="#764ABC"/>
<path d="M49.0592 28.2034C43.9643 21.8893 36.4561 18.413 27.8752 18.413H26.8026C26.1993 17.136 24.9255 16.2847 23.5177 16.2847H23.3837C21.3055 16.3556 19.6966 18.2002 19.7636 20.3995C19.8307 22.5278 21.5066 24.2305 23.5177 24.2305H23.6518C25.1267 24.1595 26.4004 23.1663 26.9367 21.8183H28.1434C33.2383 21.8183 38.065 23.3791 42.4225 26.4297C45.7744 28.7709 48.1877 31.8215 49.5285 35.5107C50.6681 38.4903 50.6011 41.3991 49.3944 43.8821C47.5173 47.6422 44.3666 49.6996 40.2102 49.6996C37.5287 49.6996 34.9812 48.8482 33.6405 48.2097C32.9031 48.9192 31.5623 50.0543 30.6238 50.7637C33.5064 52.1826 36.4561 52.963 39.2717 52.963C45.7073 52.963 50.467 49.203 52.277 45.4429C54.2211 41.3281 54.0871 34.2337 49.0592 28.2034Z" fill="#764ABC"/>
<path d="M15.0038 38.2077C15.0708 40.3361 16.7468 42.0387 18.7579 42.0387H18.892C20.9702 41.9678 22.5791 40.1232 22.512 37.9239C22.445 35.7956 20.7691 34.0929 18.7579 34.0929H18.6238C18.4898 34.0929 18.2887 34.0929 18.1546 34.1639C15.406 29.3397 14.2664 24.0898 14.6686 18.4142C14.9368 14.1575 16.2775 10.4684 18.6238 7.41779C20.5679 4.79284 24.3221 3.51583 26.8695 3.44489C33.9755 3.303 36.9922 12.6677 37.1933 16.4277C38.0648 16.6406 39.5396 17.1372 40.5452 17.4919C39.7407 5.9989 33.037 0.0395508 26.6013 0.0395508C20.5679 0.0395508 15.0038 4.65095 12.7916 11.4616C9.70783 20.5425 11.719 29.2687 15.4731 36.1503C15.1379 36.6469 14.9368 37.4273 15.0038 38.2077Z" fill="#764ABC"/>
</svg>
