<svg width="44" height="44" viewBox="0 0 44 44" fill="none" xmlns="http://www.w3.org/2000/svg">
<path d="M31.5389 22.1604C34.9774 19.6207 37.7645 16.3475 39.6834 12.5952C41.6023 8.84294 42.6013 4.71277 42.6028 0.52586C42.6028 0.386394 42.5455 0.252639 42.4437 0.154021C42.3418 0.0554035 42.2036 5.91922e-07 42.0595 5.91922e-07C35.8068 -0.00126301 29.7331 2.02062 24.8035 5.74432C22.9005 7.17912 21.1938 8.84245 19.7245 10.6942C19.2077 11.0012 18.5995 11.1311 17.9973 11.0633C17.3951 10.9955 16.8339 10.7339 16.4037 10.3204C15.695 9.63427 14.7339 9.24862 13.7316 9.24813C12.7293 9.24764 11.7678 9.63234 11.0583 10.3177L5.67792 15.45C5.62671 15.4989 5.58604 15.5572 5.55828 15.6215C5.53053 15.6857 5.51624 15.7547 5.51624 15.8244C5.51624 15.894 5.53053 15.963 5.55828 16.0272C5.58604 16.0915 5.62671 16.1498 5.67792 16.1987L8.79089 19.175C9.57662 19.9221 10.5814 20.4163 11.668 20.5901C12.7546 20.7639 13.8701 20.6089 14.8624 20.1462C14.8606 20.1527 14.8586 20.159 14.8568 20.1654C14.8319 20.2547 14.8317 20.3488 14.8563 20.4381C14.881 20.5275 14.9295 20.609 14.9971 20.6744L16.5638 22.1913L12.7307 22.9777C12.635 22.9973 12.5466 23.0416 12.4748 23.1058C12.4029 23.17 12.3503 23.2518 12.3225 23.3426C12.2947 23.4334 12.2927 23.5297 12.3167 23.6215C12.3408 23.7132 12.39 23.797 12.4591 23.864L14.3875 25.7308C13.9523 25.4787 13.4787 25.2947 12.9842 25.1855C12.8269 25.1511 12.6692 25.1242 12.5168 25.1058C12.3261 25.0823 12.1342 25.0699 11.942 25.0685C11.3062 25.0633 10.6758 25.1811 10.0877 25.4152C9.49969 25.6492 8.96593 25.9947 8.51784 26.4314C8.05512 26.8719 7.68779 27.3974 7.43732 27.977C7.18686 28.5566 7.05829 29.1787 7.05913 29.807C7.05908 29.9442 7.11442 30.0759 7.21334 30.1742C7.31225 30.2724 7.44691 30.3293 7.58858 30.3328L7.99825 30.3429C7.20543 31.4054 6.87243 32.7255 7.07018 34.0221C7.09478 34.1413 7.16141 34.2486 7.25868 34.3255C7.35596 34.4024 7.47782 34.4443 7.60343 34.4438H9.08748C9.23155 34.4438 9.36972 34.3884 9.47159 34.2898C9.57347 34.1912 9.6307 34.0574 9.6307 33.918C9.6307 33.7785 9.57347 33.6447 9.47159 33.5461C9.36972 33.4475 9.23155 33.3921 9.08748 33.3921H8.09793C8.08254 32.691 8.24152 31.3625 9.55691 30.2388C9.63871 30.169 9.69687 30.0769 9.7238 29.9746C9.75073 29.8723 9.74518 29.7645 9.70786 29.6653C9.67055 29.5661 9.60321 29.4801 9.51464 29.4185C9.42606 29.3569 9.32036 29.3226 9.21134 29.32L8.18286 29.295C8.2991 28.4913 8.68598 27.7473 9.28349 27.1782C9.62712 26.8434 10.0357 26.5776 10.4857 26.3961C10.9356 26.2145 11.4182 26.1208 11.9058 26.1202H11.9341C12.0206 26.1208 12.1073 26.1252 12.1939 26.1316C11.8622 26.3209 11.58 26.5817 11.3692 26.8937C11.1585 27.2057 11.0249 27.5605 10.9788 27.9306L10.6672 30.3671C10.6578 30.441 10.6647 30.5161 10.6874 30.5872C10.7102 30.6584 10.7483 30.7241 10.7993 30.7799C10.8503 30.8357 10.9129 30.8805 10.9831 30.9111C11.0532 30.9417 11.1293 30.9575 11.2063 30.9575C11.2286 30.9575 11.2509 30.9562 11.273 30.9536L13.7899 30.6519C14.1725 30.6063 14.5391 30.4762 14.8614 30.2715C15.1837 30.0669 15.4531 29.7932 15.6488 29.4717C15.6565 29.5665 15.6619 29.662 15.6621 29.7582C15.6634 30.2362 15.5667 30.7096 15.3778 31.1511C15.1889 31.5927 14.9114 31.9936 14.5614 32.3307C14.5099 32.3792 14.4688 32.4372 14.4406 32.5013C14.4123 32.5654 14.3976 32.6343 14.3971 32.7039C14.3966 32.7736 14.4104 32.8426 14.4377 32.9071C14.465 32.9715 14.5053 33.0301 14.5561 33.0793C14.607 33.1286 14.6675 33.1676 14.7341 33.194C14.8006 33.2205 14.872 33.2338 14.9439 33.2334C15.0159 33.2329 15.087 33.2186 15.1532 33.1913C15.2194 33.164 15.2793 33.1242 15.3295 33.0743C15.8515 32.5695 16.2472 31.9559 16.4866 31.2803C16.7259 30.6047 16.8026 29.8851 16.7106 29.1765C16.6925 29.0298 16.666 28.8808 16.6322 28.7332C16.5201 28.247 16.3283 27.7813 16.0642 27.3537L17.9516 29.1807C18.0197 29.2465 18.1046 29.2937 18.1976 29.3174C18.2907 29.341 18.3886 29.3404 18.4813 29.3154C18.574 29.2904 18.6581 29.2421 18.7252 29.1753C18.7923 29.1085 18.8398 29.0257 18.8629 28.9353L19.7884 25.3129L21.1973 26.6769C21.2646 26.7419 21.3483 26.7887 21.44 26.8127C21.5318 26.8367 21.6285 26.8369 21.7204 26.8134C21.7529 26.8047 21.7851 26.7959 21.8176 26.7871C21.3209 27.7519 21.1476 28.8426 21.3218 29.9073C21.496 30.9719 22.0091 31.9574 22.7895 32.7264L25.8638 35.7585C25.9639 35.8637 26.1027 35.9267 26.2503 35.9338C26.3979 35.9267 26.5368 35.8638 26.6369 35.7585L31.9359 30.5437C32.6441 29.8557 33.0417 28.924 33.0417 27.9527C33.0417 26.9814 32.6441 26.0497 31.9359 25.3617C31.5113 24.9468 31.2418 24.4068 31.1699 23.827C31.098 23.2472 31.2278 22.6608 31.5389 22.1604ZM41.5108 1.05707C41.4778 2.65641 41.2931 4.24945 40.9591 5.8161C39.1224 4.83072 37.606 3.36896 36.5803 1.59511C38.2032 1.26923 39.8537 1.08912 41.5108 1.05707ZM9.55401 18.4267L6.8327 15.825L11.8233 11.0641C12.3287 10.5748 13.0143 10.3 13.729 10.3C14.4438 10.3 15.1294 10.5748 15.6348 11.0641C16.0294 11.4439 16.5054 11.735 17.0292 11.9168C17.5529 12.0987 18.1116 12.1668 18.6656 12.1163C17.2716 14.1184 16.1585 16.2909 15.3556 18.5768C14.5482 19.2666 13.5008 19.6347 12.4243 19.6069C11.3478 19.579 10.3222 19.1573 9.55401 18.4267ZM14.8594 28.6089C14.7828 28.8717 14.6277 29.1067 14.4136 29.2845C14.1995 29.4622 13.936 29.5748 13.656 29.608L11.831 29.8271L12.0573 28.0608C12.094 27.7845 12.2151 27.525 12.4051 27.3158C12.5951 27.1065 12.8454 26.957 13.1238 26.8864C13.368 26.8261 13.6243 26.8291 13.867 26.8951C14.1096 26.9611 14.33 27.0878 14.506 27.2625C14.6819 27.4371 14.8073 27.6536 14.8694 27.89C14.9315 28.1265 14.9282 28.3746 14.8598 28.6094L14.8594 28.6089ZM18.0393 27.7783L13.9354 23.8056L17.4801 23.0781L18.891 24.4437L18.0393 27.7783ZM21.743 25.7177L15.9888 20.1474C16.0854 19.8166 16.189 19.488 16.2996 19.1615C16.3029 19.1584 16.3062 19.1556 16.3095 19.1528L16.3043 19.1478C17.6124 15.3138 19.8109 11.8211 22.7311 8.93799C25.6512 6.05492 29.2152 3.85823 33.1492 2.51668C33.9172 2.25591 34.6944 2.03014 35.4809 1.83937C36.6533 3.99471 38.4766 5.75285 40.7077 6.87939C38.384 15.8556 31.2393 23.1716 21.743 25.7177ZM31.1651 29.7931L26.2498 34.6217L23.5622 31.9874C22.7964 31.2329 22.3595 30.2222 22.3421 29.1646C22.3248 28.1069 22.7281 27.0833 23.4688 26.3055C25.8062 25.5467 28.0295 24.4914 30.0807 23.1674C30.0288 23.7036 30.0992 24.2442 30.2871 24.7511C30.4749 25.258 30.7756 25.7188 31.1678 26.1007C31.6728 26.591 31.9561 27.2552 31.9556 27.9475C31.9551 28.6399 31.6708 29.3037 31.1651 29.7933V29.7931Z" fill="url(#paint0_linear)"/>
<path d="M12.7829 33.2938C12.4949 33.3598 12.1998 33.3928 11.9038 33.3921H11.0481C10.904 33.3921 10.7659 33.4475 10.664 33.5461C10.5621 33.6447 10.5049 33.7785 10.5049 33.918C10.5049 34.0574 10.5621 34.1912 10.664 34.2898C10.7659 34.3884 10.904 34.4438 11.0481 34.4438H11.9038C12.2849 34.4445 12.6648 34.4018 13.0355 34.3166C13.1756 34.2841 13.2967 34.199 13.372 34.0802C13.4474 33.9613 13.4708 33.8183 13.4373 33.6827C13.4037 33.547 13.3159 33.4299 13.1931 33.3569C13.0703 33.284 12.9226 33.2613 12.7825 33.2938H12.7829Z" fill="url(#paint1_linear)"/>
<path d="M34.6425 22.4293C34.7689 22.4295 34.8914 22.3867 34.9887 22.3085C35.3758 21.9982 35.7597 21.6732 36.1294 21.3427C36.1827 21.296 36.2258 21.2397 36.2565 21.1768C36.2871 21.1139 36.3045 21.0458 36.3077 20.9764C36.311 20.907 36.3 20.8376 36.2754 20.7723C36.2507 20.707 36.213 20.6471 36.1643 20.596C36.1156 20.5449 36.057 20.5037 35.9917 20.4747C35.9265 20.4457 35.8559 20.4295 35.7842 20.4271C35.7124 20.4246 35.6409 20.436 35.5737 20.4605C35.5065 20.485 35.445 20.5221 35.3927 20.5697C35.0368 20.8876 34.6676 21.2001 34.2954 21.4987C34.2093 21.5678 34.1473 21.6608 34.1178 21.7653C34.0884 21.8697 34.0929 21.9803 34.1308 22.0821C34.1688 22.1839 34.2382 22.2719 34.3297 22.3341C34.4212 22.3963 34.5303 22.4297 34.6421 22.4296L34.6425 22.4293Z" fill="url(#paint2_linear)"/>
<path d="M43.6143 8.57866C43.546 8.55867 43.4744 8.5519 43.4034 8.55873C43.3324 8.56556 43.2635 8.58586 43.2006 8.61847C43.1377 8.65108 43.0821 8.69537 43.0369 8.74879C42.9917 8.80222 42.9578 8.86374 42.9371 8.92985C42.4798 10.3931 41.8902 11.8145 41.1751 13.1776C40.9147 13.6739 40.6338 14.1691 40.3403 14.6493C39.9795 15.2392 39.5898 15.823 39.1814 16.3846C38.5337 17.2748 37.8297 18.1253 37.0732 18.9311C36.9763 19.0343 36.9258 19.1706 36.9326 19.3099C36.9395 19.4492 37.0033 19.5802 37.1099 19.674C37.2165 19.7678 37.3573 19.8167 37.5012 19.8101C37.6451 19.8034 37.7804 19.7417 37.8773 19.6385C38.6638 18.8002 39.396 17.9156 40.0695 16.9897C40.4941 16.4058 40.8996 15.7986 41.2749 15.1849C41.5803 14.6853 41.8724 14.1702 42.1435 13.6538C42.8874 12.2356 43.5009 10.7566 43.9767 9.23415C44.0184 9.1007 44.0037 8.95669 43.9357 8.83377C43.8678 8.71086 43.7522 8.61909 43.6143 8.57866Z" fill="url(#paint3_linear)"/>
<path d="M0.722016 21.5172C0.793352 21.5173 0.864003 21.5037 0.92991 21.4773C0.995818 21.4509 1.05568 21.4121 1.10607 21.3632L1.52208 20.9605C1.62167 20.8615 1.67697 20.7284 1.67601 20.5902C1.67505 20.452 1.61791 20.3197 1.51694 20.2219C1.41598 20.1242 1.27932 20.0688 1.13653 20.0679C0.993742 20.0669 0.856311 20.1205 0.753975 20.2169L0.337512 20.6196C0.261566 20.6931 0.209849 20.7868 0.188898 20.8888C0.167948 20.9908 0.178705 21.0965 0.21981 21.1926C0.260915 21.2887 0.330522 21.3708 0.419831 21.4286C0.509141 21.4863 0.614143 21.5172 0.721563 21.5172H0.722016Z" fill="url(#paint4_linear)"/>
<path d="M2.702 19.8182L4.56078 18.0188C4.61122 17.97 4.65124 17.912 4.67855 17.8482C4.70585 17.7844 4.7199 17.7161 4.71991 17.647C4.71991 17.5779 4.70587 17.5096 4.67857 17.4458C4.65127 17.3819 4.61126 17.324 4.56082 17.2751C4.51038 17.2263 4.4505 17.1876 4.3846 17.1611C4.31869 17.1347 4.24805 17.1211 4.17671 17.1211C4.10538 17.1211 4.03474 17.1347 3.96883 17.1611C3.90292 17.1875 3.84303 17.2263 3.79259 17.2751L1.9339 19.0744C1.88277 19.1231 1.84211 19.1811 1.81426 19.2451C1.78641 19.309 1.77191 19.3777 1.77161 19.4471C1.77131 19.5165 1.78521 19.5853 1.81251 19.6495C1.83981 19.7137 1.87997 19.772 1.93066 19.8211C1.98136 19.8702 2.0416 19.9091 2.1079 19.9355C2.1742 19.962 2.24526 19.9754 2.31697 19.9752C2.38867 19.9749 2.45961 19.9609 2.5257 19.9339C2.59178 19.907 2.6517 19.8676 2.702 19.8182Z" fill="url(#paint5_linear)"/>
<path d="M1.15625 23.329C1.25812 23.4277 1.39628 23.4831 1.54035 23.4831C1.68441 23.4831 1.82257 23.4277 1.92444 23.329L4.10933 21.2139C4.15977 21.165 4.19978 21.1071 4.22708 21.0433C4.25437 20.9794 4.26842 20.9111 4.26842 20.842C4.26841 20.7729 4.25436 20.7046 4.22705 20.6408C4.19975 20.577 4.15973 20.519 4.10929 20.4702C4.05884 20.4213 3.99895 20.3826 3.93305 20.3562C3.86714 20.3298 3.7965 20.3162 3.72516 20.3162C3.65382 20.3162 3.58318 20.3298 3.51728 20.3562C3.45137 20.3826 3.39149 20.4214 3.34105 20.4702L1.15616 22.5853C1.10571 22.6341 1.0657 22.6921 1.0384 22.7559C1.01111 22.8197 0.997062 22.8881 0.99707 22.9572C0.997079 23.0263 1.01114 23.0946 1.03845 23.1584C1.06577 23.2223 1.10579 23.2802 1.15625 23.329Z" fill="url(#paint6_linear)"/>
<path d="M4.79322 20.3334C4.86455 20.3335 4.93521 20.32 5.00111 20.2935C5.06702 20.2671 5.12689 20.2283 5.17727 20.1794L5.98503 19.3976C6.03615 19.3489 6.07681 19.2909 6.10466 19.2269C6.13251 19.163 6.14701 19.0943 6.14731 19.0249C6.14761 18.9555 6.13371 18.8867 6.10641 18.8225C6.07911 18.7583 6.03896 18.7 5.98826 18.6509C5.93756 18.6018 5.87732 18.5629 5.81102 18.5365C5.74472 18.51 5.67366 18.4966 5.60195 18.4968C5.53025 18.4971 5.45931 18.5111 5.39322 18.5381C5.32714 18.565 5.26722 18.6044 5.21692 18.6538L4.40917 19.4358C4.33322 19.5093 4.2815 19.603 4.26055 19.705C4.2396 19.807 4.25036 19.9127 4.29147 20.0088C4.33257 20.1049 4.40218 20.187 4.49149 20.2448C4.5808 20.3026 4.6858 20.3334 4.79322 20.3334Z" fill="url(#paint7_linear)"/>
<path d="M2.56966 23.9744L0.155988 26.3108C0.0554862 26.4097 -0.000579 26.5431 4.50949e-06 26.6818C0.000588019 26.8205 0.057773 26.9534 0.159103 27.0515C0.260433 27.1496 0.397699 27.2049 0.541 27.2055C0.684301 27.2061 0.822028 27.1518 0.92418 27.0545L3.33767 24.7181C3.38879 24.6694 3.42944 24.6114 3.45729 24.5474C3.48513 24.4835 3.49962 24.4148 3.49991 24.3454C3.5002 24.276 3.48629 24.2072 3.45899 24.143C3.43168 24.0788 3.39152 24.0205 3.34081 23.9714C3.29011 23.9223 3.22986 23.8834 3.16356 23.857C3.09725 23.8306 3.0262 23.8171 2.95449 23.8174C2.88278 23.8177 2.81184 23.8317 2.74576 23.8586C2.67968 23.8856 2.61977 23.925 2.56948 23.9744H2.56966Z" fill="url(#paint8_linear)"/>
<path d="M7.40951 20.0326C7.30764 19.934 7.1695 19.8787 7.02546 19.8787C6.88142 19.8787 6.74328 19.934 6.64141 20.0326L3.8139 22.7695C3.76278 22.8181 3.72212 22.8761 3.69426 22.9401C3.66641 23.0041 3.65192 23.0727 3.65162 23.1422C3.65132 23.2116 3.66522 23.2804 3.69251 23.3446C3.71981 23.4087 3.75997 23.4671 3.81067 23.5162C3.86137 23.5652 3.92161 23.6041 3.98791 23.6306C4.05421 23.657 4.12526 23.6705 4.19697 23.6702C4.26868 23.6699 4.33962 23.6559 4.4057 23.629C4.47179 23.602 4.53171 23.5627 4.582 23.5132L7.40951 20.7759C7.51126 20.6773 7.56842 20.5437 7.56842 20.4043C7.56842 20.2649 7.51126 20.1312 7.40951 20.0326Z" fill="url(#paint9_linear)"/>
<path d="M18.0965 37.0052L17.6801 37.4079C17.5782 37.5065 17.521 37.6403 17.521 37.7797C17.521 37.9192 17.5782 38.053 17.6801 38.1516C17.782 38.2502 17.9202 38.3056 18.0643 38.3056C18.2083 38.3056 18.3465 38.2502 18.4484 38.1515L18.8643 37.7484C18.9648 37.6495 19.0208 37.5161 19.0202 37.3774C19.0196 37.2387 18.9624 37.1058 18.8611 37.0077C18.7597 36.9097 18.6225 36.8543 18.4792 36.8538C18.3359 36.8532 18.1981 36.9075 18.096 37.0048L18.0965 37.0052Z" fill="url(#paint10_linear)"/>
<path d="M21.1349 34.0635L19.2762 35.8629C19.2246 35.9114 19.1835 35.9694 19.1553 36.0335C19.1271 36.0976 19.1123 36.1665 19.1118 36.2361C19.1113 36.3058 19.1251 36.3748 19.1525 36.4393C19.1798 36.5037 19.22 36.5623 19.2709 36.6115C19.3218 36.6608 19.3823 36.6998 19.4488 36.7262C19.5154 36.7527 19.5867 36.766 19.6587 36.7656C19.7306 36.7651 19.8018 36.7508 19.868 36.7235C19.9342 36.6962 19.9941 36.6564 20.0443 36.6065L21.903 34.8072C22.0026 34.7081 22.0579 34.5751 22.0569 34.4369C22.0559 34.2986 21.9988 34.1663 21.8978 34.0686C21.7969 33.9708 21.6602 33.9155 21.5174 33.9146C21.3746 33.9136 21.2372 33.9671 21.1349 34.0635Z" fill="url(#paint11_linear)"/>
<path d="M18.4982 40.1171C18.6001 40.2157 18.7383 40.2711 18.8823 40.2711C19.0264 40.2711 19.1646 40.2157 19.2664 40.1171L21.4514 38.0021C21.503 37.9535 21.5441 37.8955 21.5723 37.8314C21.6005 37.7673 21.6153 37.6985 21.6158 37.6288C21.6163 37.5592 21.6025 37.4901 21.5751 37.4257C21.5478 37.3612 21.5076 37.3027 21.4567 37.2534C21.4058 37.2041 21.3453 37.1652 21.2788 37.1387C21.2122 37.1123 21.1409 37.0989 21.0689 37.0994C20.997 37.0998 20.9258 37.1141 20.8596 37.1415C20.7934 37.1688 20.7335 37.2085 20.6833 37.2584L18.4983 39.3735C18.3965 39.4721 18.3393 39.6059 18.3392 39.7453C18.3392 39.8847 18.3964 40.0185 18.4982 40.1171Z" fill="url(#paint12_linear)"/>
<path d="M21.7514 36.9678C21.8019 37.0166 21.8618 37.0554 21.9277 37.0818C21.9936 37.1082 22.0642 37.1218 22.1356 37.1218C22.2069 37.1218 22.2776 37.1082 22.3435 37.0818C22.4094 37.0554 22.4693 37.0166 22.5197 36.9678L23.3274 36.1858C23.4292 36.0872 23.4865 35.9534 23.4864 35.8139C23.4864 35.6745 23.4292 35.5407 23.3273 35.4421C23.2254 35.3435 23.0872 35.2881 22.9431 35.2881C22.799 35.2881 22.6609 35.3435 22.559 35.4422L21.7514 36.224C21.701 36.2729 21.6609 36.3308 21.6336 36.3946C21.6063 36.4584 21.5923 36.5268 21.5923 36.5959C21.5923 36.665 21.6063 36.7334 21.6336 36.7972C21.6609 36.861 21.701 36.9189 21.7514 36.9678Z" fill="url(#paint13_linear)"/>
<path d="M19.9118 40.763L17.4983 43.0993C17.4472 43.148 17.4066 43.206 17.3787 43.27C17.3509 43.3339 17.3364 43.4026 17.3361 43.472C17.3358 43.5414 17.3497 43.6102 17.377 43.6744C17.4043 43.7386 17.4444 43.7969 17.4951 43.846C17.5458 43.8951 17.6061 43.934 17.6724 43.9604C17.7387 43.9869 17.8097 44.0004 17.8814 44.0001C17.9531 43.9998 18.0241 43.9858 18.0902 43.9588C18.1562 43.9319 18.2162 43.8925 18.2664 43.8431L20.68 41.5067C20.7311 41.458 20.7718 41.4 20.7996 41.336C20.8275 41.272 20.842 41.2034 20.8423 41.134C20.8426 41.0645 20.8286 40.9958 20.8013 40.9316C20.774 40.8674 20.7339 40.8091 20.6832 40.76C20.6325 40.7109 20.5722 40.672 20.5059 40.6456C20.4396 40.6191 20.3686 40.6057 20.2968 40.606C20.2251 40.6062 20.1542 40.6203 20.0881 40.6472C20.022 40.6742 19.9621 40.7135 19.9118 40.763Z" fill="url(#paint14_linear)"/>
<path d="M23.9835 36.8211L21.1559 39.5584C21.1048 39.607 21.0641 39.665 21.0363 39.729C21.0084 39.793 20.9939 39.8617 20.9937 39.9311C20.9934 40.0005 21.0073 40.0693 21.0346 40.1335C21.0619 40.1976 21.1021 40.256 21.1528 40.305C21.2035 40.3541 21.2637 40.393 21.33 40.4194C21.3963 40.4459 21.4674 40.4593 21.5391 40.4591C21.6108 40.4588 21.6817 40.4448 21.7478 40.4178C21.8139 40.3908 21.8738 40.3515 21.9241 40.302L24.7516 37.5648C24.8027 37.5161 24.8434 37.4581 24.8712 37.3942C24.8991 37.3302 24.9136 37.2615 24.9139 37.1921C24.9142 37.1227 24.9003 37.0539 24.873 36.9897C24.8457 36.9255 24.8055 36.8672 24.7548 36.8181C24.7041 36.769 24.6439 36.7301 24.5776 36.7037C24.5113 36.6773 24.4402 36.6638 24.3685 36.6641C24.2968 36.6643 24.2259 36.6784 24.1598 36.7053C24.0937 36.7323 24.0338 36.7716 23.9835 36.8211Z" fill="url(#paint15_linear)"/>
<path d="M39.3657 30.4393C38.9202 30.2936 38.5156 30.0501 38.1837 29.7277C37.8517 29.4054 37.6013 29.0129 37.4522 28.5812C37.4162 28.4765 37.3471 28.3853 37.2546 28.3208C37.162 28.2562 37.0509 28.2214 36.9368 28.2214C36.8228 28.2214 36.7116 28.2562 36.6191 28.3208C36.5266 28.3853 36.4574 28.4765 36.4214 28.5812C36.2723 29.0129 36.022 29.4054 35.69 29.7277C35.358 30.0501 34.9534 30.2936 34.5079 30.4393C34.3999 30.4743 34.306 30.5412 34.2394 30.6307C34.1729 30.7202 34.1371 30.8277 34.1371 30.938C34.1371 31.0482 34.1729 31.1557 34.2394 31.2452C34.306 31.3347 34.3999 31.4017 34.5079 31.4367C34.9534 31.5823 35.358 31.8259 35.69 32.1482C36.022 32.4706 36.2723 32.863 36.4214 33.2947C36.4574 33.3995 36.5266 33.4906 36.6191 33.5552C36.7116 33.6198 36.8228 33.6545 36.9368 33.6545C37.0509 33.6545 37.162 33.6198 37.2546 33.5552C37.3471 33.4906 37.4162 33.3995 37.4522 33.2947C37.6013 32.863 37.8517 32.4706 38.1837 32.1482C38.5156 31.8259 38.9202 31.5823 39.3657 31.4367C39.4737 31.4017 39.5677 31.3347 39.6342 31.2452C39.7008 31.1557 39.7366 31.0482 39.7366 30.938C39.7366 30.8277 39.7008 30.7202 39.6342 30.6307C39.5677 30.5412 39.4737 30.4743 39.3657 30.4393ZM36.9368 31.9626C36.6516 31.5621 36.2937 31.2149 35.8805 30.938C36.2937 30.661 36.6516 30.3139 36.9368 29.9133C37.2221 30.3139 37.58 30.661 37.9932 30.938C37.58 31.2149 37.2221 31.5621 36.9368 31.9626Z" fill="url(#paint16_linear)"/>
<path d="M0.828872 10.3146C1.27436 10.4602 1.67895 10.7038 2.01092 11.0262C2.3429 11.3485 2.59325 11.7409 2.74234 12.1726C2.77835 12.2774 2.84752 12.3685 2.94003 12.4331C3.03254 12.4977 3.1437 12.5324 3.25775 12.5324C3.37181 12.5324 3.48297 12.4977 3.57548 12.4331C3.66799 12.3685 3.73716 12.2774 3.77317 12.1726C3.92226 11.7409 4.17261 11.3485 4.50458 11.0262C4.83656 10.7038 5.24115 10.4602 5.68664 10.3146C5.79466 10.2796 5.88859 10.2126 5.95514 10.1231C6.02169 10.0337 6.0575 9.92617 6.0575 9.8159C6.0575 9.70563 6.02169 9.59816 5.95514 9.50866C5.88859 9.41917 5.79466 9.3522 5.68664 9.31721C5.24115 9.17156 4.83656 8.92801 4.50458 8.60565C4.17261 8.28328 3.92226 7.89087 3.77317 7.45917C3.73716 7.35441 3.66799 7.26328 3.57548 7.1987C3.48297 7.13412 3.37181 7.09937 3.25775 7.09937C3.1437 7.09937 3.03254 7.13412 2.94003 7.1987C2.84752 7.26328 2.77835 7.35441 2.74234 7.45917C2.59325 7.89087 2.3429 8.28328 2.01092 8.60565C1.67895 8.92801 1.27436 9.17156 0.828872 9.31721C0.720849 9.3522 0.62692 9.41917 0.560368 9.50866C0.493816 9.59816 0.458008 9.70563 0.458008 9.8159C0.458008 9.92617 0.493816 10.0337 0.560368 10.1231C0.62692 10.2126 0.720849 10.2796 0.828872 10.3146ZM3.25775 8.79126C3.54303 9.1918 3.90093 9.53896 4.31412 9.8159C3.90093 10.0929 3.54303 10.44 3.25775 10.8405C2.97248 10.44 2.61458 10.0929 2.20139 9.8159C2.61458 9.53896 2.97248 9.1918 3.25775 8.79126Z" fill="url(#paint17_linear)"/>
<path d="M10.323 5.25872C10.8723 5.25872 11.3175 4.82709 11.3175 4.29464C11.3175 3.7622 10.8723 3.33057 10.323 3.33057C9.77376 3.33057 9.32849 3.7622 9.32849 4.29464C9.32849 4.82709 9.77376 5.25872 10.323 5.25872Z" fill="url(#paint18_linear)"/>
<path d="M35.2202 39.527C35.7695 39.527 36.2148 39.0954 36.2148 38.563C36.2148 38.0305 35.7695 37.5989 35.2202 37.5989C34.671 37.5989 34.2257 38.0305 34.2257 38.563C34.2257 39.0954 34.671 39.527 35.2202 39.527Z" fill="url(#paint19_linear)"/>
<path d="M29.3087 9.02441C28.6559 9.02477 28.0132 9.18093 27.4376 9.47908C26.862 9.77722 26.3712 10.2082 26.0087 10.7337C25.6461 11.2593 25.4231 11.8633 25.3592 12.4922C25.2953 13.1211 25.3925 13.7556 25.6424 14.3395C25.8922 14.9234 26.2869 15.4386 26.7914 15.8396C27.296 16.2406 27.895 16.5149 28.5352 16.6384C29.1754 16.7619 29.8373 16.7306 30.4621 16.5474C31.0869 16.3642 31.6554 16.0347 32.1172 15.5881C32.6727 15.0504 33.051 14.3653 33.2042 13.6194C33.3575 12.8736 33.2788 12.1005 32.9782 11.3979C32.6776 10.6953 32.1685 10.0948 31.5153 9.67235C30.8621 9.24987 30.0942 9.02439 29.3086 9.02441H29.3087ZM31.349 14.8445C30.9455 15.2351 30.4314 15.5012 29.8716 15.609C29.3119 15.7168 28.7317 15.6615 28.2045 15.45C27.6772 15.2386 27.2266 14.8806 26.9095 14.4213C26.5924 13.9619 26.4232 13.4218 26.4232 12.8694C26.4232 12.3169 26.5924 11.7768 26.9095 11.3175C27.2266 10.8581 27.6772 10.5001 28.2045 10.2887C28.7317 10.0773 29.3119 10.022 29.8716 10.1298C30.4314 10.2376 30.9455 10.5036 31.349 10.8943C31.8893 11.4185 32.1928 12.1288 32.1928 12.8694C32.1928 13.6099 31.8893 14.3202 31.349 14.8445Z" fill="url(#paint20_linear)"/>
<defs>
<linearGradient id="paint0_linear" x1="-17.0916" y1="5.45211" x2="41.937" y2="37.215" gradientUnits="userSpaceOnUse">
<stop offset="0.245434" stop-color="#0095FF"/>
<stop offset="1" stop-color="#FF0000"/>
</linearGradient>
<linearGradient id="paint1_linear" x1="8.7082" y1="33.456" x2="10.915" y2="36.368" gradientUnits="userSpaceOnUse">
<stop offset="0.245434" stop-color="#0095FF"/>
<stop offset="1" stop-color="#FF0000"/>
</linearGradient>
<linearGradient id="paint2_linear" x1="32.7516" y1="20.7306" x2="36.1594" y2="22.6908" gradientUnits="userSpaceOnUse">
<stop offset="0.245434" stop-color="#0095FF"/>
<stop offset="1" stop-color="#FF0000"/>
</linearGradient>
<linearGradient id="paint3_linear" x1="32.6234" y1="10.2638" x2="45.7257" y2="14.5538" gradientUnits="userSpaceOnUse">
<stop offset="0.245434" stop-color="#0095FF"/>
<stop offset="1" stop-color="#FF0000"/>
</linearGradient>
<linearGradient id="paint4_linear" x1="-0.734439" y1="20.2878" x2="1.64792" y2="21.5712" gradientUnits="userSpaceOnUse">
<stop offset="0.245434" stop-color="#0095FF"/>
<stop offset="1" stop-color="#FF0000"/>
</linearGradient>
<linearGradient id="paint5_linear" x1="-0.0256673" y1="17.5541" x2="4.66508" y2="20.0805" gradientUnits="userSpaceOnUse">
<stop offset="0.245434" stop-color="#0095FF"/>
<stop offset="1" stop-color="#FF0000"/>
</linearGradient>
<linearGradient id="paint6_linear" x1="-0.997131" y1="20.7967" x2="4.20765" y2="23.5998" gradientUnits="userSpaceOnUse">
<stop offset="0.245434" stop-color="#0095FF"/>
<stop offset="1" stop-color="#FF0000"/>
</linearGradient>
<linearGradient id="paint7_linear" x1="3.0936" y1="18.7755" x2="6.11207" y2="20.4011" gradientUnits="userSpaceOnUse">
<stop offset="0.245434" stop-color="#0095FF"/>
<stop offset="1" stop-color="#FF0000"/>
</linearGradient>
<linearGradient id="paint8_linear" x1="-2.13353" y1="24.3315" x2="3.43486" y2="27.3304" gradientUnits="userSpaceOnUse">
<stop offset="0.245434" stop-color="#0095FF"/>
<stop offset="1" stop-color="#FF0000"/>
</linearGradient>
<linearGradient id="paint9_linear" x1="1.26394" y1="20.4539" x2="7.49552" y2="23.8102" gradientUnits="userSpaceOnUse">
<stop offset="0.245434" stop-color="#0095FF"/>
<stop offset="1" stop-color="#FF0000"/>
</linearGradient>
<linearGradient id="paint10_linear" x1="16.6071" y1="37.074" x2="18.9927" y2="38.3585" gradientUnits="userSpaceOnUse">
<stop offset="0.245434" stop-color="#0095FF"/>
<stop offset="1" stop-color="#FF0000"/>
</linearGradient>
<linearGradient id="paint11_linear" x1="17.3165" y1="34.3471" x2="22.0022" y2="36.8707" gradientUnits="userSpaceOnUse">
<stop offset="0.245434" stop-color="#0095FF"/>
<stop offset="1" stop-color="#FF0000"/>
</linearGradient>
<linearGradient id="paint12_linear" x1="16.3419" y1="37.5806" x2="21.5548" y2="40.3883" gradientUnits="userSpaceOnUse">
<stop offset="0.245434" stop-color="#0095FF"/>
<stop offset="1" stop-color="#FF0000"/>
</linearGradient>
<linearGradient id="paint13_linear" x1="20.4376" y1="35.5663" x2="23.4513" y2="37.1893" gradientUnits="userSpaceOnUse">
<stop offset="0.245434" stop-color="#0095FF"/>
<stop offset="1" stop-color="#FF0000"/>
</linearGradient>
<linearGradient id="paint14_linear" x1="15.1987" y1="41.1209" x2="20.777" y2="44.1254" gradientUnits="userSpaceOnUse">
<stop offset="0.245434" stop-color="#0095FF"/>
<stop offset="1" stop-color="#FF0000"/>
</linearGradient>
<linearGradient id="paint15_linear" x1="18.6039" y1="37.2399" x2="24.841" y2="40.599" gradientUnits="userSpaceOnUse">
<stop offset="0.245434" stop-color="#0095FF"/>
<stop offset="1" stop-color="#FF0000"/>
</linearGradient>
<linearGradient id="paint16_linear" x1="30.7237" y1="29.0458" x2="39.6417" y2="33.8378" gradientUnits="userSpaceOnUse">
<stop offset="0.245434" stop-color="#0095FF"/>
<stop offset="1" stop-color="#FF0000"/>
</linearGradient>
<linearGradient id="paint17_linear" x1="-2.95542" y1="7.92371" x2="5.96261" y2="12.7157" gradientUnits="userSpaceOnUse">
<stop offset="0.245434" stop-color="#0095FF"/>
<stop offset="1" stop-color="#FF0000"/>
</linearGradient>
<linearGradient id="paint18_linear" x1="8.11597" y1="3.62312" x2="11.2825" y2="5.3262" gradientUnits="userSpaceOnUse">
<stop offset="0.245434" stop-color="#0095FF"/>
<stop offset="1" stop-color="#FF0000"/>
</linearGradient>
<linearGradient id="paint19_linear" x1="33.0132" y1="37.8914" x2="36.1797" y2="39.5945" gradientUnits="userSpaceOnUse">
<stop offset="0.245434" stop-color="#0095FF"/>
<stop offset="1" stop-color="#FF0000"/>
</linearGradient>
<linearGradient id="paint20_linear" x1="20.4996" y1="10.1909" x2="33.1339" y2="16.9943" gradientUnits="userSpaceOnUse">
<stop offset="0.245434" stop-color="#0095FF"/>
<stop offset="1" stop-color="#FF0000"/>
</linearGradient>
</defs>
</svg>
