<svg width="45" height="45" viewBox="0 0 45 45" fill="none" xmlns="http://www.w3.org/2000/svg">
<path d="M39.9057 23.6256L28.5509 22.176L23.4413 13.0366C23.0997 12.41 22.2507 12.1481 21.5452 12.4516C21.2578 12.5753 21.0256 12.7813 20.8865 13.0366L15.7769 22.176L4.42209 23.6256C3.88432 23.702 3.44312 24.0447 3.28664 24.508C3.14863 24.9544 3.28311 25.4324 3.64144 25.7686L11.8737 32.8911L9.95755 42.9128C9.8713 43.3938 10.0893 43.878 10.5253 44.1734C10.9547 44.4636 11.5323 44.5124 12.0156 44.2995L22.1639 39.5092L32.3122 44.2995L32.9509 44.4256C33.2617 44.449 33.5697 44.3578 33.8025 44.1734C34.2384 43.878 34.4565 43.3938 34.3703 42.9128L32.4542 32.8911L40.6864 25.7686C41.0447 25.4324 41.1793 24.9544 41.0412 24.508C40.8847 24.0449 40.4435 23.702 39.9057 23.6256ZM29.8994 31.5675C29.609 31.8606 29.4791 32.2529 29.5446 32.639L31.1059 40.8329L22.8026 36.9881C22.3984 36.8178 21.9295 36.8178 21.5252 36.9881L13.222 40.8329L14.7833 32.639C14.8487 32.2529 14.7189 31.8608 14.4285 31.5675L7.68651 25.7687L16.9833 24.5711C17.4402 24.4998 17.8339 24.2434 18.0478 23.8778L22.1639 16.4402L26.28 23.8778C26.494 24.2434 26.8875 24.4998 27.3446 24.5711L36.6413 25.7687L29.8994 31.5675Z" fill="url(#paint0_linear)"/>
<path d="M22.1638 9.25492C22.9478 9.25492 23.5832 8.69054 23.5832 7.99431V1.69127C23.5832 0.995036 22.9476 0.430664 22.1638 0.430664C21.3801 0.430664 20.7445 0.995036 20.7445 1.69127V7.99431C20.7445 8.69054 21.3799 9.25492 22.1638 9.25492Z" fill="url(#paint1_linear)"/>
<path d="M43.5959 7.11209C42.9688 6.6943 42.0792 6.80722 41.6088 7.36423L37.3507 12.4067C36.8804 12.9637 37.0074 13.7538 37.6346 14.1716C37.8777 14.3395 38.1782 14.4285 38.4862 14.4237C38.9303 14.4144 39.3467 14.2295 39.6216 13.9194L43.8797 8.87699C44.3502 8.31997 44.2231 7.52976 43.5959 7.11209Z" fill="url(#paint2_linear)"/>
<path d="M5.84126 14.4237C6.1492 14.4285 6.44981 14.3395 6.69282 14.1715C7.31997 13.7537 7.44698 12.9636 6.97671 12.4066L2.71879 7.36418C2.24839 6.80717 1.3588 6.69437 0.731645 7.11204C0.104489 7.52971 -0.0225175 8.31992 0.447747 8.87694L4.7058 13.9194C4.98074 14.2294 5.39707 14.4143 5.84126 14.4237Z" fill="url(#paint3_linear)"/>
<defs>
<linearGradient id="paint0_linear" x1="-19.8466" y1="17.1965" x2="36.5459" y2="51.8683" gradientUnits="userSpaceOnUse">
<stop offset="0.245434" stop-color="#0095FF"/>
<stop offset="1" stop-color="#FF0000"/>
</linearGradient>
<linearGradient id="paint1_linear" x1="19.0141" y1="1.76954" x2="24.681" y2="2.72" gradientUnits="userSpaceOnUse">
<stop offset="0.245434" stop-color="#0095FF"/>
<stop offset="1" stop-color="#FF0000"/>
</linearGradient>
<linearGradient id="paint2_linear" x1="32.7405" y1="8.00753" x2="44.4944" y2="13.7573" gradientUnits="userSpaceOnUse">
<stop offset="0.245434" stop-color="#0095FF"/>
<stop offset="1" stop-color="#FF0000"/>
</linearGradient>
<linearGradient id="paint3_linear" x1="-4.16238" y1="8.00752" x2="7.59135" y2="13.7571" gradientUnits="userSpaceOnUse">
<stop offset="0.245434" stop-color="#0095FF"/>
<stop offset="1" stop-color="#FF0000"/>
</linearGradient>
</defs>
</svg>
