<svg width="44" height="44" viewBox="0 0 44 44" fill="none" xmlns="http://www.w3.org/2000/svg">
<path d="M37.1562 13.7651C37.3108 13.7651 37.459 13.7062 37.5683 13.6013C37.6776 13.4964 37.739 13.3541 37.739 13.2058V12.9914C38.5499 12.9277 39.365 12.9305 40.1754 12.9997C40.2927 13.4398 40.5734 13.8237 40.9647 14.0792C41.3561 14.3347 41.8311 14.4443 42.3007 14.3874C42.7703 14.3305 43.2021 14.111 43.515 13.7702C43.8279 13.4293 44.0003 12.9906 44 12.5363V7.34397C44.0003 6.88972 43.8278 6.45099 43.5149 6.11017C43.202 5.76935 42.7702 5.54989 42.3007 5.49301C41.8311 5.43613 41.356 5.54573 40.9647 5.80124C40.5734 6.05675 40.2927 6.44059 40.1754 6.88066C39.365 6.95001 38.5499 6.95313 37.739 6.88998V6.67455C37.739 6.52621 37.6776 6.38394 37.5683 6.27905C37.459 6.17416 37.3108 6.11523 37.1562 6.11523H31.7117C31.5571 6.11523 31.4089 6.17416 31.2996 6.27905C31.1903 6.38394 31.1289 6.52621 31.1289 6.67455V6.88896C30.318 6.95274 29.5029 6.94994 28.6925 6.88057C28.5752 6.44041 28.2946 6.05647 27.9032 5.80089C27.5119 5.54531 27.0367 5.43566 26.5671 5.49255C26.0975 5.54944 25.6656 5.76895 25.3527 6.10985C25.0398 6.45074 24.8674 6.88956 24.8678 7.34387V12.5362C24.8676 12.9904 25.0402 13.4289 25.3531 13.7696C25.666 14.1103 26.0976 14.3296 26.5671 14.3865C27.0365 14.4433 27.5115 14.3338 27.9027 14.0785C28.294 13.8231 28.5747 13.4395 28.6922 12.9996C29.5026 12.9301 30.3176 12.927 31.1286 12.9902V13.2056C31.1286 13.3539 31.19 13.4962 31.2993 13.6011C31.4086 13.706 31.5568 13.7649 31.7114 13.7649H31.8643C31.868 14.0581 31.8711 14.3966 31.8735 14.687C31.7618 14.7266 31.6654 14.798 31.5973 14.8917C31.5291 14.9855 31.4926 15.0969 31.4924 15.2112V16.8654C31.4925 16.978 31.528 17.088 31.5943 17.1809C31.6606 17.2738 31.7546 17.3454 31.864 17.3862C31.8348 18.8197 31.7701 20.035 31.6872 21.3674H29.6897L28.8483 19.7432C28.5491 18.9238 27.9921 18.2138 27.2542 17.7116C26.5162 17.2093 25.6339 16.9395 24.7292 16.9396H19.2715C18.5602 16.9396 17.8597 17.1063 17.231 17.4255C16.6022 17.7446 16.0643 18.2064 15.664 18.7706C15.7483 18.5385 15.7734 18.2903 15.7371 18.0469C15.7009 17.8035 15.6044 17.572 15.4558 17.3718C15.3071 17.1716 15.1106 17.0085 14.8827 16.8962C14.6548 16.7839 14.4022 16.7256 14.146 16.7263H13.77L14.5843 1.80845C14.589 1.72241 14.5729 1.6365 14.5373 1.55741C14.5017 1.47832 14.4475 1.4082 14.379 1.3525L12.8785 0.132529C12.7732 0.0469606 12.6397 0 12.5018 0C12.3639 0 12.2304 0.0469606 12.1251 0.132529L10.6246 1.35222C10.5564 1.40764 10.5024 1.47735 10.4668 1.55597C10.4312 1.63459 10.4149 1.72001 10.4191 1.80565L11.1617 16.7263H10.8581C10.5352 16.7259 10.2198 16.8189 9.95291 16.9932C9.68603 17.1675 9.48013 17.415 9.3621 17.7034C9.24408 17.9918 9.21941 18.3076 9.29134 18.6097C9.36326 18.9117 9.52843 19.1859 9.76526 19.3964C9.69124 19.8235 9.61237 20.2219 9.53545 20.6103C9.48445 20.8679 9.4354 21.1169 9.38878 21.3674H8.40971C8.5688 20.7993 8.72052 20.2076 8.86088 19.6006C9.66198 16.1091 10.0686 12.5449 10.0736 8.96982C10.0736 8.82148 10.0122 8.67922 9.90295 8.57432C9.79366 8.46943 9.64543 8.4105 9.49086 8.4105H0.954954C0.80039 8.4105 0.652158 8.46943 0.542865 8.57432C0.433572 8.67922 0.372172 8.82148 0.372172 8.96982C0.372172 14.4477 1.34066 19.4074 2.41113 22.7154C1.75141 23.3993 1.34917 24.2755 1.26849 25.2043L0.0155095 39.4577C-0.0353804 40.0356 0.0392854 40.6173 0.23478 41.166C0.430275 41.7147 0.74234 42.2185 1.15122 42.6455C1.5601 43.0725 2.05689 43.4133 2.61014 43.6465C3.1634 43.8796 3.76106 44 4.3653 44H39.6345C40.2387 44 40.8363 43.8797 41.3895 43.6465C41.9428 43.4134 42.4395 43.0726 42.8484 42.6456C43.2573 42.2187 43.5693 41.715 43.7649 41.1663C43.9604 40.6176 44.0351 40.0359 43.9843 39.4581L42.7313 25.2047C42.6334 24.1604 42.1335 23.1887 41.3291 22.4791C40.5248 21.7696 39.4739 21.3732 38.3814 21.3674H37.1828C37.1749 21.2648 37.1672 21.1628 37.1594 21.0621C37.0623 19.7963 36.9771 18.6812 36.9307 17.4079C37.0573 17.3781 37.17 17.3085 37.2506 17.2101C37.3312 17.1117 37.375 16.9902 37.3751 16.865V15.2114C37.3751 15.0807 37.3275 14.9542 37.2404 14.8537C37.1534 14.7533 37.0325 14.6852 36.8986 14.6614C36.9012 14.3651 36.9047 14.0421 36.9092 13.7647L37.1562 13.7651ZM41.2778 7.39356C41.2809 7.36426 41.2816 7.33477 41.2798 7.30537C41.2899 7.11078 41.3789 6.9277 41.5278 6.79523C41.6767 6.66276 41.8736 6.5914 42.0765 6.59639C42.2795 6.60138 42.4723 6.68232 42.614 6.82193C42.7556 6.96154 42.8347 7.14876 42.8344 7.34359V12.536C42.8344 12.7341 42.7524 12.9241 42.6065 13.0642C42.4605 13.2042 42.2626 13.2829 42.0561 13.2829C41.8497 13.2829 41.6517 13.2042 41.5058 13.0642C41.3598 12.9241 41.2778 12.7341 41.2778 12.536V7.39356ZM37.739 8.0062C38.0924 8.03948 38.5088 8.05617 38.9255 8.05617C39.3422 8.05617 39.7587 8.03939 40.1123 8.0062V11.8738C39.3227 11.8073 38.5286 11.8073 37.739 11.8738V8.0062ZM27.59 12.4862C27.5869 12.5155 27.5862 12.545 27.588 12.5744C27.5779 12.769 27.4888 12.9521 27.34 13.0845C27.1911 13.217 26.9942 13.2883 26.7912 13.2834C26.5883 13.2784 26.3954 13.1974 26.2538 13.0578C26.1122 12.9182 26.0331 12.731 26.0333 12.5362V7.34378C26.0356 7.1471 26.1186 6.95923 26.2643 6.82093C26.4101 6.68262 26.6067 6.60506 26.8117 6.60506C27.0166 6.60506 27.2133 6.68262 27.359 6.82093C27.5047 6.95923 27.5877 7.1471 27.59 7.34378V12.4862ZM31.1289 11.8736C30.3393 11.8071 29.5452 11.8071 28.7556 11.8736V8.0062C29.109 8.03948 29.5255 8.05617 29.9423 8.05617C30.3591 8.05617 30.7754 8.03948 31.1289 8.0062V11.8736ZM32.2944 12.5505V7.38377C32.2966 7.35631 32.2966 7.32873 32.2944 7.30127V7.23387H36.5734V7.3297C36.5734 7.33042 36.5734 7.33113 36.5734 7.33185V12.4963C36.5712 12.5238 36.5712 12.5514 36.5734 12.5789V12.6467H32.2944V12.5505ZM32.6583 16.3061V15.7707H36.21V16.3061H32.6583ZM36.0141 21.3674H32.8551C32.9344 20.0846 33.0002 18.8469 33.0292 17.4247H35.765C35.8119 18.7272 35.8986 19.8586 35.997 21.1442C36.0027 21.2177 36.0084 21.2929 36.0141 21.3674ZM33.0302 13.7651H35.7438C35.7393 14.056 35.7358 14.3827 35.7334 14.6521H33.039C33.0368 14.3715 33.0339 14.0491 33.0302 13.7651ZM16.2119 20.2089C16.2235 20.1867 16.2335 20.1637 16.2418 20.1401C16.4569 19.5329 16.8647 19.0056 17.408 18.6322C17.9513 18.2588 18.6028 18.0581 19.271 18.0583H24.7292C25.3975 18.0581 26.049 18.2588 26.5923 18.6322C27.1356 19.0056 27.5434 19.5329 27.7584 20.1401C27.7668 20.1637 27.7768 20.1867 27.7884 20.2089L28.3884 21.3674H15.6118L16.2119 20.2089ZM15.351 19.2853C15.3169 19.3521 15.2854 19.4203 15.2548 19.4892C15.2493 19.4582 15.2438 19.4276 15.2385 19.396C15.2781 19.3608 15.3156 19.3239 15.351 19.2853ZM12.5018 1.29219L13.4051 2.02658L12.6028 16.7263H12.3284L11.5972 2.02761L12.5018 1.29219ZM10.8581 17.845H14.1455C14.2626 17.845 14.375 17.8896 14.4578 17.9691C14.5406 18.0486 14.5871 18.1564 14.5871 18.2687C14.5871 18.3811 14.5406 18.4889 14.4578 18.5684C14.375 18.6479 14.2626 18.6925 14.1455 18.6925H10.8581C10.741 18.6925 10.6286 18.6479 10.5458 18.5684C10.463 18.4889 10.4165 18.3811 10.4165 18.2687C10.4165 18.1564 10.463 18.0486 10.5458 17.9691C10.6286 17.8896 10.741 17.845 10.8581 17.845ZM14.3984 21.197L14.3101 21.3674H10.5732C10.6078 21.187 10.6436 21.0056 10.68 20.8193C10.7444 20.4943 10.8101 20.1623 10.8736 19.8112H14.1292C14.193 20.163 14.259 20.4948 14.3235 20.8196C14.3493 20.9466 14.3738 21.0716 14.3984 21.197ZM1.54133 9.52915H8.90458C8.84514 14.2618 8.04168 18.5948 7.11166 21.6971C7.08954 21.7442 7.0744 21.794 7.06668 21.8451C6.60901 23.346 6.12345 24.5478 5.68229 25.353H4.75081C4.39589 24.7453 4.01407 23.8579 3.64226 22.7528C3.63411 22.7168 3.62227 22.6817 3.6069 22.6479C2.56411 19.511 1.60689 14.6799 1.54133 9.52915ZM6.22923 27.0266V27.4937H4.21669V26.4717H6.22923V27.0262V27.0266ZM6.03419 31.0091H4.37637C4.48671 30.1783 4.57782 29.3713 4.61006 28.6123H5.82351C5.85003 29.3527 5.92637 30.1336 6.03419 31.0087V31.0091ZM2.42988 25.2989C2.47004 24.8395 2.61769 24.3948 2.86182 23.9979C3.06307 24.5233 3.26355 24.986 3.458 25.379C3.33994 25.4149 3.23686 25.4859 3.1637 25.5818C3.09054 25.6777 3.05111 25.7935 3.05112 25.9124V26.9814C2.75721 27.1356 2.48275 27.3217 2.23319 27.5362L2.42988 25.2989ZM2.01397 30.0305C2.16128 29.3478 2.54659 28.7336 3.10639 28.2892C3.13965 28.3574 3.18689 28.4185 3.2453 28.4688C3.30371 28.5191 3.37209 28.5575 3.44635 28.5819C3.41721 29.2686 3.33329 30.0249 3.20099 31.0087H1.92791L2.01397 30.0305ZM21.4171 42.8814H4.3653C3.92243 42.8814 3.48439 42.7931 3.07889 42.6222C2.6734 42.4513 2.30928 42.2015 2.00958 41.8886C1.70988 41.5757 1.48112 41.2065 1.33779 40.8043C1.19446 40.4021 1.13967 39.9758 1.1769 39.5523L1.82961 32.1274H14.6083V39.0098C14.6083 39.1582 14.6697 39.3004 14.779 39.4053C14.8883 39.5102 15.0365 39.5691 15.1911 39.5691H21.4171V42.8814ZM6.98879 28.5855C7.10662 28.5495 7.20947 28.4785 7.28246 28.3827C7.35544 28.2869 7.39478 28.1713 7.39479 28.0526V27.5846H14.6083V31.0087H7.20791C7.09543 30.1128 7.01579 29.3237 6.98879 28.5855ZM15.7738 38.4505V27.5846H28.2259V38.4505H15.7738ZM42.8227 39.5522C42.8599 39.9757 42.8051 40.402 42.6618 40.8042C42.5185 41.2064 42.2898 41.5756 41.9901 41.8885C41.6904 42.2014 41.3263 42.4513 40.9208 42.6222C40.5154 42.7931 40.0773 42.8813 39.6345 42.8814H22.5827V39.5691H28.8087C28.9633 39.5691 29.1115 39.5102 29.2208 39.4053C29.3301 39.3004 29.3915 39.1582 29.3915 39.0098V32.1274H42.1702L42.8227 39.5522ZM42.0717 31.0087H29.3915V27.5846H38.8544C39.5888 27.5889 40.2996 27.8337 40.8691 28.2787C41.4386 28.7236 41.8327 29.3419 41.9861 30.0311L42.0717 31.0087ZM38.3807 22.486C39.1815 22.4903 39.9519 22.7809 40.5414 23.301C41.131 23.8211 41.4974 24.5334 41.5692 25.2989L41.767 27.5488C40.9689 26.8543 39.9308 26.4685 38.8535 26.466H7.39479V25.9124C7.39469 25.7903 7.353 25.6717 7.27608 25.5745C7.19917 25.4773 7.09125 25.4069 6.96878 25.3741C7.40483 24.4362 7.77498 23.4714 8.07674 22.486H38.3814H38.3807Z" fill="url(#paint0_linear)"/>
<defs>
<linearGradient id="paint0_linear" x1="-26.8222" y1="6.67598" x2="44.1859" y2="43.6973" gradientUnits="userSpaceOnUse">
<stop offset="0.245434" stop-color="#0095FF"/>
<stop offset="1" stop-color="#FF0000"/>
</linearGradient>
</defs>
</svg>
