<svg width="47" height="47" viewBox="0 0 47 47" fill="none" xmlns="http://www.w3.org/2000/svg">
<ellipse cx="23.1346" cy="23.1344" rx="20.1991" ry="20.1991" transform="rotate(9.08338 23.1346 23.1344)" fill="black"/>
<path d="M34.0758 15.5229C33.3027 15.9481 32.4713 16.2315 31.594 16.3658C32.4857 15.7086 33.1721 14.6602 33.4941 13.4213C32.6597 14.0284 31.735 14.4746 30.7516 14.7098C29.966 13.6763 28.8455 13.0352 27.6044 13.0352C25.2202 13.0352 23.2872 15.4134 23.2872 18.3461C23.2872 18.7613 23.3266 19.1654 23.3999 19.5578C19.813 19.3344 16.6314 17.2173 14.503 14.0043C14.1291 14.7896 13.9188 15.7086 13.9188 16.6789C13.9188 18.5225 14.6789 20.1457 15.8383 21.1018C15.1305 21.0752 14.4646 20.8308 13.8814 20.4384C13.8814 20.4545 13.8814 20.478 13.8814 20.5009C13.8814 23.0772 15.3698 25.2227 17.3427 25.711C16.9823 25.8335 16.601 25.9016 16.2082 25.9016C15.9296 25.9016 15.6579 25.8626 15.3947 25.8038C15.944 27.9091 17.5376 29.4482 19.4257 29.494C17.9483 30.9161 16.0876 31.7676 14.0643 31.7676C13.7149 31.7676 13.373 31.7428 13.035 31.6921C14.9476 33.1953 17.2171 34.0759 19.6535 34.0759C27.5924 34.0759 31.9359 25.982 31.9359 18.96C31.9359 18.7298 31.9299 18.5008 31.9215 18.2743C32.7688 17.5311 33.4991 16.5941 34.0758 15.5229Z" fill="url(#paint0_linear)"/>
<defs>
<linearGradient id="paint0_linear" x1="16.2491" y1="13.8471" x2="34.6646" y2="28.68" gradientUnits="userSpaceOnUse">
<stop stop-color="#2AA4F4"/>
<stop offset="1" stop-color="#007AD9"/>
</linearGradient>
</defs>
</svg>
