<svg width="47" height="47" viewBox="0 0 47 47" fill="none" xmlns="http://www.w3.org/2000/svg">
<ellipse cx="23.1347" cy="23.1346" rx="20.1991" ry="20.1991" transform="rotate(-9.08338 23.1347 23.1346)" fill="black"/>
<path d="M32.7369 13.8912C32.0406 14.433 31.2644 14.8442 30.4193 15.1153C31.1961 14.3255 31.7083 13.182 31.8307 11.9078C31.1026 12.639 30.26 13.2255 29.326 13.613C28.3871 12.7165 27.1795 12.2603 25.9539 12.4563C23.5997 12.8326 22.0664 15.4862 22.5293 18.3821C22.5949 18.7922 22.6976 19.185 22.8319 19.5609C19.2547 19.9065 15.7788 18.3183 13.1698 15.4816C12.9246 16.316 12.862 17.2567 13.0152 18.2149C13.3062 20.0353 14.3131 21.5182 15.6089 22.2793C14.9058 22.3647 14.2096 22.2285 13.5718 21.9331C13.5743 21.949 13.578 21.9722 13.5817 21.9949C13.9884 24.5388 15.7968 26.4225 17.822 26.5931C17.4855 26.771 17.1197 26.8985 16.7319 26.9605C16.4567 27.0044 16.1823 27.0088 15.9132 26.9923C16.7879 28.9845 18.6045 30.2527 20.4762 29.9999C19.2418 31.6374 17.5388 32.772 15.541 33.0914C15.1959 33.1465 14.8544 33.1761 14.5127 33.1793C16.6386 34.3617 19.0186 34.873 21.4245 34.4884C29.2638 33.235 32.2751 24.5569 31.1665 17.623C31.1301 17.3956 31.0881 17.1705 31.044 16.9482C31.7634 16.0805 32.3365 15.04 32.7369 13.8912Z" fill="url(#paint0_linear)"/>
<defs>
<linearGradient id="paint0_linear" x1="14.8692" y1="15.0507" x2="35.3955" y2="26.7903" gradientUnits="userSpaceOnUse">
<stop stop-color="#2AA4F4"/>
<stop offset="1" stop-color="#007AD9"/>
</linearGradient>
</defs>
</svg>
