<svg width="88" height="88" viewBox="0 0 88 88" fill="none" xmlns="http://www.w3.org/2000/svg">
<path d="M38.8547 55.6246C37.6502 54.4298 36.9702 53.0503 36.0503 51.0873C34.7108 48.2285 31.8954 44.7782 27.9044 43.9442L33.9264 56.2281L38.8547 55.6246Z" fill="#DBD9DC"/>
<path d="M45.7203 77.0001C40.1718 73.8173 37.9512 70.3597 37.9512 70.3597L48.4141 70.7509L47.8276 76.29C47.7445 77.1807 46.6462 77.5314 45.7203 77.0001Z" fill="url(#paint0_linear)"/>
<path d="M58.4437 67.7392C52.0396 73.6318 40.6705 73.5962 32.1654 67.6642C29.0014 65.4574 25.66 61.5512 24.7583 58.6274C23.3853 54.1753 24.4556 51.9891 25.22 51.0788C25.5696 50.6625 25.6411 50.0882 25.4523 49.5279C24.235 45.9163 24.7167 44.133 25.4172 43.2565C25.9254 42.6207 27.1012 42.7696 27.7098 43.5016C31.3311 47.8572 33.0088 52.2578 33.6877 54.4966C33.9129 55.2393 34.7823 55.7701 35.5631 55.6104C40.7241 54.5547 46.0113 56.8685 48.9469 58.5154L49.0158 58.4638C50.1942 58.2763 51.3116 57.8834 52.3072 57.277C57.6995 53.9924 57.0796 46.8591 51.7024 42.7087C50.6279 41.8794 49.2806 40.9148 48.0915 40.1362L40.9954 38.3866C40.6639 38.3049 40.5581 37.9093 40.8377 37.7892C41.8455 37.3562 43.7308 36.719 45.7889 36.8977C46.2124 36.9345 46.526 36.6447 46.4559 36.2671C46.0998 34.3478 46.3148 32.7125 46.52 31.7725C46.5834 31.4824 47.0469 31.4996 47.1961 31.7955L50.6039 38.5526C52.1842 39.6369 53.893 40.8843 54.6558 41.473C64.1045 48.766 65.9715 60.8127 58.4437 67.7392Z" fill="#E10098"/>
<path d="M25.4171 43.2575C25.9253 42.6217 27.1011 42.7707 27.7097 43.5026C31.331 47.8583 33.0088 52.2588 33.6876 54.4977C33.9128 55.2404 34.7822 55.7712 35.563 55.6115C40.724 54.5558 46.0112 56.8696 48.9468 58.5164L49.0156 58.4649C50.1941 58.2773 51.3115 57.8844 52.3071 57.2781C57.6994 53.9935 57.0795 46.8601 51.7023 42.7098C50.6278 41.8804 49.2805 40.9158 48.0914 40.1373L40.9953 38.3877C40.6638 38.3059 40.5581 37.9104 40.8376 37.7902C41.8455 37.3573 43.7306 36.72 45.7888 36.8988C46.2123 36.9356 46.5259 36.6458 46.4558 36.2682C46.0996 34.3489 46.3146 32.7137 46.5199 31.7736C46.5832 31.4836 47.0468 31.5007 47.196 31.7967L50.6038 38.5538C52.1841 39.638 53.8929 40.8854 54.6557 41.4742C56.936 43.2342 58.77 45.2726 60.1417 47.4476C66.5394 61.7899 52.6192 68.7935 44.1182 67.2428C33.1079 65.2344 26.9978 55.4815 25.4523 49.529C24.2348 45.9174 24.7164 44.1341 25.4171 43.2575Z" fill="url(#paint1_linear)"/>
<path d="M49.4322 64.2821C47.0414 64.759 44.4611 64.7142 41.9185 64.0258C41.4345 63.8948 40.961 63.7164 40.5041 63.4997C40.1427 63.3283 40.0548 62.8947 40.3444 62.7118C43.8284 60.5112 48.964 63.5684 51.1339 60.2195C51.2186 60.0887 51.1589 59.9004 51.001 59.7956C50.6109 59.5367 49.8355 59.0351 48.8594 58.4712C50.0378 58.2836 51.3115 57.8838 52.3071 57.2775C57.6994 53.9928 57.0795 46.8595 51.7023 42.7092C50.6278 41.8798 49.2805 40.9152 48.0914 40.1367C64.8209 48.0601 60.8103 62.0124 49.4322 64.2821Z" fill="#DBD9DC"/>
<path d="M32.3993 56.2592C31.7549 55.7617 30.8583 55.7637 30.397 56.2635L29.9793 56.716C29.518 57.2159 29.6664 58.0244 30.3109 58.5218C30.9553 59.0192 31.8519 59.0173 32.3132 58.5174L32.7309 58.0649C33.1922 57.5651 33.0438 56.7566 32.3993 56.2592Z" fill="#4B3F4E"/>
<path d="M31.5641 57.1643C31.8864 57.4131 31.9607 57.8174 31.7299 58.0674C31.4992 58.3174 31.0509 58.3184 30.7285 58.0696C30.4062 57.8208 30.3319 57.4165 30.5627 57.1665C30.7934 56.9165 31.2418 56.9155 31.5641 57.1643Z" fill="white"/>
<path d="M58.96 68.1887C56.3343 70.6046 52.8123 72.1239 48.8555 72.5842L48.4956 76.4338C48.4382 77.0467 48.0317 77.5386 47.4081 77.7496C46.7829 77.9611 46.0342 77.8589 45.4051 77.4764C40.3836 74.4234 38.1359 71.6393 37.8157 71.2233C35.7002 70.4575 33.6705 69.4118 31.8059 68.1113C28.3263 65.6842 25.0183 61.6365 24.1113 58.6955C22.665 54.0055 23.833 51.657 24.658 50.6746C24.8894 50.3989 24.9449 50.0114 24.8101 49.6113C23.7672 46.5171 23.7689 44.2602 24.8149 42.9033C25.1654 42.4487 25.7551 42.2189 26.4327 42.2729C27.1183 42.3275 27.7891 42.6749 28.2273 43.202C28.3337 43.33 28.4381 43.4581 28.5412 43.5861C29.997 43.9567 31.3124 44.6613 32.462 45.5486C34.3672 47.0191 35.8175 48.9889 36.6992 50.7617C37.6041 52.5814 38.2336 53.7689 39.2595 54.7902C41.5534 54.9477 44.0096 55.5816 46.526 56.677C47.4224 57.0671 48.2314 57.4734 48.928 57.8534C50.0027 57.6667 50.9916 57.3015 51.8691 56.767C54.2285 55.3299 55.5062 52.9749 55.3746 50.3058C55.2431 47.6388 53.7618 45.0242 51.3105 43.1322C50.2515 42.3148 48.9761 41.4039 47.8725 40.6761L39.9913 38.7329C39.7235 38.6669 39.5006 38.4692 39.4253 38.2312C39.3499 37.993 39.4369 37.7606 39.646 37.641C39.7618 37.5749 42.5199 36.0227 45.7466 36.3037C45.7675 36.3055 45.7796 36.2984 45.7862 36.292C45.7953 36.2832 45.794 36.276 45.7931 36.2713C45.2111 33.1372 46.0743 30.7526 46.1113 30.6526C46.1929 30.4323 46.428 30.3018 46.7038 30.3235C46.8638 30.3362 47.0185 30.3988 47.1435 30.4952C47.2337 30.5648 47.3084 30.6523 47.3584 30.7514L51.1237 38.2177C52.6061 39.2396 54.2611 40.4446 55.0454 41.0499C57.4375 42.8962 59.4007 45.06 60.8804 47.4811C62.3095 49.8197 63.2199 52.2818 63.5858 54.7991C63.951 57.3119 63.7526 59.7368 62.9961 62.0067C62.2086 64.3692 60.8507 66.4491 58.96 68.1887ZM46.0331 76.5244C46.2654 76.6656 46.5313 76.7017 46.7626 76.6234C46.9926 76.5456 47.1365 76.372 47.1575 76.1468L47.4798 72.7003C47.0561 72.7228 46.6286 72.7344 46.1971 72.7331C44.128 72.727 42.0451 72.4449 40.0136 71.909C41.1193 73.0154 43.0646 74.7196 46.0331 76.5244ZM35.4844 51.0892C34.4088 48.9266 32.4149 46.443 29.7847 45.2338C32.4247 48.9715 33.7458 52.4945 34.3327 54.4295C34.3921 54.6253 34.5388 54.8031 34.7353 54.9168C34.9232 55.0258 35.1324 55.0642 35.3246 55.0251C36.0728 54.8727 36.8506 54.7848 37.6527 54.7595C36.8457 53.7678 36.2561 52.641 35.4844 51.0892ZM61.7031 61.5044C62.4108 59.3811 62.5963 57.1122 62.2546 54.7609C61.9122 52.4049 61.0605 50.101 59.7233 47.913C58.3393 45.6485 56.5025 43.6242 54.264 41.8965C53.4681 41.2821 51.7491 40.0322 50.2499 39.0036C50.1398 38.9284 50.0525 38.83 49.9971 38.7199L47.0312 32.8391C46.9138 33.7361 46.8696 34.9332 47.1172 36.2664C47.1812 36.6113 47.0794 36.9425 46.838 37.1752C46.5934 37.4111 46.2269 37.5267 45.8324 37.4923C44.3676 37.3647 42.9764 37.6935 41.9815 38.0367L48.1686 39.5622C48.2501 39.5822 48.3285 39.6156 48.4009 39.6593L48.4014 39.6586C49.8356 40.523 51.138 41.4072 52.3071 42.3096C54.8224 44.2511 56.7186 46.2753 57.966 48.3554C59.5728 51.0352 60.0685 53.8108 59.3994 56.3823C58.6919 59.101 56.7207 61.5199 53.8489 63.1933C51.0862 64.8031 47.7202 65.5469 44.6139 65.2339C44.2437 65.1966 43.9289 64.9008 43.911 64.573C43.893 64.2453 44.1787 64.0099 44.5489 64.0472C47.3718 64.3316 50.4497 63.6445 52.9936 62.1622C55.6356 60.6228 57.445 58.4133 58.0884 55.941C58.773 53.3101 58.1214 50.5821 56.2271 47.8958C56.5069 48.7297 56.6733 49.5856 56.7157 50.4465C56.8655 53.4823 55.4172 56.158 52.7426 57.7873C52.0512 58.2084 51.2991 58.5374 50.4955 58.771C51.2037 59.216 51.617 59.5211 51.6543 59.5489C51.9246 59.7511 52.0215 60.0707 51.887 60.3122C50.571 62.6733 48.1074 62.567 45.725 62.4642C43.9913 62.3893 42.3395 62.318 40.9625 63.0911C41.2345 63.216 41.5132 63.33 41.7969 63.432C42.1569 63.5617 42.3766 63.9125 42.2879 64.2158C42.1991 64.5192 41.8353 64.66 41.4754 64.5305C40.7752 64.2785 40.0998 63.9637 39.4682 63.5948C39.2825 63.4861 39.1501 63.3142 39.1105 63.1292C39.0709 62.9442 39.1281 62.767 39.2655 62.6496C41.1046 61.0785 43.4786 61.1809 45.5731 61.2712C47.6653 61.3615 49.3548 61.4344 50.394 60.0663C48.563 58.8496 42.0395 54.9246 35.8181 56.1921C35.2754 56.3026 34.663 56.1913 34.1376 55.8867C33.6012 55.5755 33.2009 55.0921 33.0396 54.5604C32.3757 52.3716 30.7335 48.0641 27.1938 43.806C27.0295 43.6081 26.7874 43.483 26.5298 43.4625C26.2904 43.4433 26.0832 43.523 25.9613 43.6811C25.3862 44.4271 24.9421 46.0326 26.0922 49.4449C26.3468 50.2006 26.2329 50.9436 25.7795 51.4833C25.0807 52.3156 24.1024 54.3416 25.403 58.5595C26.2164 61.1972 29.3435 64.9995 32.5226 67.2173C36.4985 69.9903 41.2796 71.5251 45.9855 71.539C50.6919 71.5529 54.9322 70.0439 57.9251 67.2901C59.6954 65.661 60.9665 63.7143 61.7031 61.5044Z" fill="black"/>
<path d="M29.919 58.9431C28.9746 58.2141 28.7564 57.0252 29.4324 56.2928L29.8501 55.8402C30.5261 55.1078 31.8445 55.1049 32.7889 55.8338C33.7333 56.5628 33.9516 57.7517 33.2756 58.4841L32.8579 58.9367C32.1818 59.6691 30.8635 59.672 29.919 58.9431ZM32.1839 57.6417C32.4291 57.376 32.35 56.9449 32.0074 56.6805C31.6649 56.4161 31.1868 56.4171 30.9416 56.6828L30.5239 57.1353C30.2787 57.401 30.3579 57.8321 30.7004 58.0965C31.0429 58.3609 31.521 58.3599 31.7662 58.0942L32.1839 57.6417Z" fill="black"/>
<path d="M49.1306 25.4915C50.378 26.6501 51.1093 28.0101 52.1026 29.9471C53.5489 32.7678 56.4899 36.1342 60.5022 36.8432L54.022 24.7312L49.1306 25.4915Z" fill="#DBD9DC"/>
<path d="M41.4583 4.30056C47.1146 7.31268 49.4627 10.7052 49.4627 10.7052L39.0133 10.6445L39.3842 5.07843C39.4327 4.18376 40.5144 3.79783 41.4583 4.30056Z" fill="url(#paint2_linear)"/>
<path d="M29.1279 13.9789C35.2868 7.87474 46.6261 7.55062 55.3372 13.2226C58.5778 15.3325 62.0609 19.139 63.0731 22.0387C64.6143 26.4541 63.6314 28.6774 62.9043 29.6133C62.5718 30.0413 62.5226 30.6188 62.7325 31.174C64.086 34.7525 63.6746 36.5538 63.0099 37.4538C62.5276 38.1066 61.3492 37.9947 60.7141 37.2809C56.9344 33.0332 55.0912 28.6791 54.3277 26.4583C54.0744 25.7216 53.1869 25.2175 52.4144 25.4021C47.3084 26.6228 41.9462 24.4727 38.9551 22.9163L38.8884 22.9701C37.7204 23.1952 36.6212 23.6241 35.6518 24.2629C30.4012 27.7231 31.2949 34.8476 36.8178 38.8341C37.9214 39.6308 39.3022 40.5542 40.5182 41.2963L47.6625 42.8241C47.9962 42.8954 48.1169 43.2883 47.8428 43.4174C46.8545 43.8829 44.999 44.5807 42.9396 44.4668C42.5158 44.4434 42.2143 44.7435 42.2987 45.1195C42.728 47.0305 42.5768 48.675 42.4085 49.623C42.3565 49.9155 41.8936 49.913 41.7333 49.6213L38.0738 42.9618C36.456 41.9259 34.7037 40.7307 33.9202 40.1652C24.2156 33.1601 21.8883 21.1542 29.1279 13.9789Z" fill="#E10098"/>
<path d="M63.0096 37.4537C62.5273 38.1065 61.349 37.9945 60.7138 37.2807C56.9341 33.0331 55.0909 28.679 54.3274 26.4581C54.0741 25.7214 53.1866 25.2173 52.4141 25.402C47.3081 26.6226 41.9459 24.4726 38.9548 22.9161L38.8881 22.9699C37.7201 23.1951 36.6209 23.6239 35.6515 24.2627C30.4009 27.7229 31.2946 34.8475 36.8175 38.834C37.9211 39.6306 39.3019 40.554 40.5179 41.2961L47.6621 42.8239C47.9958 42.8953 48.1166 43.2881 47.8425 43.4172C46.8541 43.8827 44.9987 44.5806 42.9393 44.4667C42.5155 44.4432 42.214 44.7434 42.2985 45.1193C42.7278 47.0303 42.5766 48.6748 42.4082 49.6228C42.3563 49.9152 41.8933 49.9128 41.733 49.6211L38.0735 42.9615C36.4557 41.9256 34.7033 40.7304 33.9199 40.1649C31.5779 38.4744 29.6701 36.4909 28.2181 34.3561C21.2839 20.1944 34.8954 12.7397 43.433 14.0237C54.4907 15.6867 60.9609 25.2611 62.7322 31.1737C64.0859 34.7523 63.6744 36.5536 63.0096 37.4537Z" fill="url(#paint3_linear)"/>
<path d="M38.248 17.1546C40.6138 16.6013 43.1887 16.5645 45.7509 17.1734C46.2387 17.2893 46.7178 17.4531 47.1818 17.6556C47.5489 17.8158 47.6533 18.2473 47.3715 18.4397C43.9821 20.7538 38.7424 17.8545 36.7079 21.2771C36.6284 21.4108 36.6952 21.5975 36.8567 21.6974C37.2558 21.9445 38.0485 22.4222 39.0437 22.9562C37.8757 23.1813 36.6209 23.622 35.6515 24.2608C30.4009 27.721 31.2946 34.8456 36.8175 38.8321C37.9211 39.6287 39.302 40.5521 40.5179 41.2942C23.5281 33.8881 26.9887 19.7877 38.248 17.1546Z" fill="#DBD9DC"/>
<path d="M55.5449 24.6526C56.2068 25.1303 57.1008 25.1 57.5416 24.5848L57.9406 24.1184C58.3814 23.6032 58.2021 22.7982 57.5402 22.3204C56.8783 21.8426 55.9843 21.8729 55.5435 22.3881L55.1445 22.8545C54.7037 23.3697 54.883 24.1748 55.5449 24.6526Z" fill="#4B3F4E"/>
<path d="M56.3424 23.7182C56.0113 23.4792 55.9216 23.0766 56.1421 22.819C56.3625 22.5613 56.8096 22.5461 57.1407 22.7851C57.4717 23.0241 57.5614 23.4267 57.341 23.6843C57.1205 23.942 56.6734 23.9571 56.3424 23.7182Z" fill="white"/>
<path d="M28.595 13.5445C31.1202 11.0418 34.5739 9.40875 38.5021 8.82252L38.7123 4.95571C38.7458 4.34002 39.1322 3.83453 39.746 3.60354C40.3612 3.37193 41.1119 3.45052 41.7541 3.81374C46.8797 6.71247 49.2288 9.42972 49.5642 9.83622C51.7035 10.5362 53.768 11.5192 55.6778 12.7627C59.2417 15.0834 62.697 19.0326 63.7152 21.9493C65.3387 26.6008 64.2646 28.9898 63.4798 29.9997C63.2596 30.2832 63.2193 30.673 63.3692 31.0695C64.5288 34.1354 64.6143 36.3958 63.6235 37.7878C63.2916 38.2543 62.7124 38.5031 62.0345 38.4703C61.3487 38.4373 60.6664 38.1107 60.2089 37.5966C60.0979 37.4718 59.9888 37.3469 59.881 37.2219C58.415 36.8968 57.0759 36.2328 55.8952 35.3805C53.9384 33.968 52.416 32.0411 51.4682 30.2936C50.4954 28.4997 49.8218 27.3303 48.7592 26.34C46.4655 26.2548 43.9916 25.6976 41.4398 24.6802C40.5308 24.3178 39.7083 23.9366 38.9989 23.578C37.9344 23.799 36.9623 24.196 36.1078 24.7591C33.8104 26.2731 32.6272 28.6721 32.8615 31.3411C33.0958 34.008 34.674 36.5797 37.1917 38.397C38.2794 39.1821 39.5865 40.054 40.7152 40.748L48.6498 42.4448C48.9194 42.5024 49.1493 42.6934 49.2337 42.9294C49.318 43.1656 49.2403 43.401 49.0364 43.5274C48.9235 43.5973 46.2328 45.2391 43.0042 45.0598C42.9833 45.0587 42.9714 45.0662 42.9651 45.0728C42.9564 45.0819 42.958 45.0891 42.959 45.0937C43.6605 48.2142 42.8918 50.6297 42.8588 50.731C42.7859 50.9542 42.5564 51.0924 42.2806 51.0794C42.1206 51.0717 41.9638 51.014 41.8355 50.9213C41.7428 50.8544 41.6649 50.7692 41.6112 50.6716L37.5678 43.3131C36.05 42.3365 34.3529 41.1821 33.5474 40.6007C31.0905 38.8272 29.0492 36.7222 27.48 34.3443C25.9644 32.0474 24.9614 29.6103 24.4992 27.1008C24.0379 24.5957 24.1421 22.1608 24.8088 19.8636C25.5029 17.4726 26.7767 15.3465 28.595 13.5445ZM41.1645 4.78703C40.9275 4.65301 40.6608 4.62523 40.4332 4.71095C40.2069 4.79618 40.07 4.97463 40.0578 5.20081L39.8695 8.66278C40.2912 8.62679 40.7171 8.60167 41.1474 8.58928C43.2111 8.52991 45.2992 8.74661 47.3458 9.219C46.2004 8.14588 44.1946 6.50066 41.1645 4.78703ZM52.667 29.9271C53.8232 32.059 55.9076 34.4832 58.5773 35.6111C55.8001 31.9512 54.3465 28.4647 53.6865 26.5453C53.6197 26.351 53.4665 26.1777 53.2662 26.07C53.0746 25.9668 52.8645 25.9349 52.6743 25.9802C51.9341 26.1565 51.1618 26.2691 50.3629 26.3199C51.206 27.2875 51.8375 28.3974 52.667 29.9271ZM26.1177 20.3257C25.494 22.4747 25.3967 24.7529 25.8283 27.0969C26.2608 29.4457 27.1991 31.7261 28.6172 33.8752C30.0849 36.0993 31.9949 38.0685 34.294 39.7281C35.1115 40.3181 36.8741 41.5156 38.4089 42.4983C38.5216 42.5702 38.6124 42.6659 38.672 42.7744L41.8569 48.5703C41.9393 47.6682 41.9371 46.4679 41.6387 45.1405C41.5616 44.7971 41.6503 44.4622 41.882 44.2215C42.1169 43.9775 42.4779 43.8501 42.8727 43.8721C44.3384 43.9535 45.713 43.5802 46.6919 43.205L40.4628 41.873C40.3808 41.8555 40.3014 41.8246 40.2274 41.7831L40.227 41.7838C38.7634 40.9635 37.4303 40.1192 36.2296 39.2523C33.6461 37.3875 31.6769 35.4202 30.3526 33.3764C28.6466 30.7434 28.0451 27.9793 28.613 25.3827C29.2136 22.6375 31.0859 20.1525 33.8852 18.3857C36.5781 16.686 39.9062 15.8346 43.0161 16.0498C43.3867 16.0754 43.712 16.3618 43.7426 16.6895C43.7732 17.0171 43.4973 17.2619 43.1267 17.2362C40.3006 17.0408 37.2576 17.8263 34.778 19.3913C32.2027 21.0167 30.4835 23.2868 29.9375 25.7832C29.3564 28.4398 30.1116 31.1513 32.1045 33.7817C31.7932 32.9554 31.5943 32.1034 31.5186 31.2426C31.252 28.2069 32.593 25.4814 35.1973 23.765C35.8705 23.3213 36.6078 22.968 37.4003 22.7086C36.6768 22.2854 36.2529 21.9928 36.2146 21.9662C35.9372 21.7722 35.8282 21.4552 35.953 21.2092C37.1742 18.8028 39.6352 18.8313 42.015 18.8589C43.7469 18.879 45.3968 18.8982 46.7403 18.0803C46.4642 17.9638 46.1818 17.8585 45.895 17.7653C45.5309 17.6468 45.2983 17.3024 45.3751 16.9959C45.4518 16.6892 45.8092 16.5366 46.1731 16.6549C46.8812 16.8852 47.5668 17.1791 48.211 17.5286C48.4004 17.6316 48.539 17.7995 48.5857 17.9836C48.6323 18.1676 48.5821 18.3469 48.4496 18.4688C46.6763 20.1005 44.3049 20.073 42.2126 20.0489C40.1226 20.0246 38.4349 20.0051 37.4514 21.4082C39.3245 22.5688 45.9817 26.2933 52.1371 24.827C52.674 24.6991 53.2891 24.7912 53.8248 25.0797C54.3717 25.3744 54.7897 25.8459 54.971 26.3732C55.7177 28.5444 57.5218 32.8065 61.2163 36.959C61.3878 37.152 61.6341 37.2697 61.8918 37.2821C62.1313 37.2936 62.3348 37.2073 62.4502 37.0451C62.995 36.2798 63.3758 34.6578 62.097 31.2767C61.8139 30.528 61.8989 29.7802 62.3301 29.2253C62.9949 28.3696 63.8922 26.3095 62.4322 22.1265C61.5191 19.5104 58.2537 15.8013 54.9977 13.6808C50.9255 11.0294 46.0981 9.6435 41.4046 9.77849C36.7105 9.91351 32.5402 11.559 29.6619 14.4116C27.9594 16.0993 26.7669 18.0891 26.1177 20.3257Z" fill="black"/>
<path d="M57.9141 21.8845C58.8841 22.5847 59.1477 23.7685 58.5018 24.5235L58.1028 24.9899C57.4568 25.7449 56.1422 25.7894 55.1722 25.0893C54.2022 24.3891 53.9386 23.2052 54.5845 22.4503L54.9836 21.9839C55.6295 21.2289 56.9441 21.1844 57.9141 21.8845ZM55.7057 23.2595C55.4714 23.5334 55.567 23.9627 55.9188 24.2166C56.2706 24.4706 56.7474 24.4544 56.9817 24.1806L57.3807 23.7141C57.615 23.4403 57.5194 23.011 57.1676 22.7571C56.8158 22.5031 56.339 22.5193 56.1047 22.7931L55.7057 23.2595Z" fill="black"/>
<path d="M75.9369 59.3506C72.0588 59.3506 72.0588 64.557 68.1811 64.557C64.3034 64.557 64.3034 59.3506 60.4253 59.3506C56.5481 59.3506 56.5481 64.557 52.6699 64.557C48.7927 64.557 48.7927 59.3506 44.915 59.3506C41.0373 59.3506 41.0373 64.557 37.1601 64.557C33.2824 64.557 33.2824 59.3506 29.4052 59.3506C25.5276 59.3506 25.5276 64.557 21.6499 64.557C17.7727 64.557 17.7727 59.3506 13.895 59.3506H13.7515C17.4386 75.8509 29.9941 88.0006 44.916 88.0006C59.7908 88.0006 72.314 75.9278 76.0453 59.5072L75.9369 59.3506Z" fill="#56B8FF"/>
<path d="M75.9371 59.3496C72.0589 59.3496 72.0589 64.556 68.1812 64.556C68.0101 64.556 67.849 64.5427 67.6927 64.5228C63.1957 77.1202 53.2855 86.2759 41.469 87.7815C42.6015 87.9254 43.7517 87.9996 44.9161 87.9996C59.7909 87.9996 72.3141 75.9268 76.0454 59.5063L75.9371 59.3496Z" fill="#60B6FF"/>
<path d="M65.8254 78.7245C65.6833 78.5418 65.5445 78.3547 65.4052 78.1682C64.4162 76.8403 63.1853 75.1875 60.8175 75.1875C58.4497 75.1875 57.2188 76.8403 56.2298 78.1682C55.3035 79.4119 54.5721 80.3939 53.0621 80.3939C52.5427 80.3939 52.1221 80.8843 52.1221 81.4887C52.1221 82.0932 52.5427 82.5836 53.0621 82.5836C55.4299 82.5836 56.6608 80.9308 57.6499 79.6029C58.5762 78.3591 59.3081 77.3772 60.8175 77.3772C62.3274 77.3772 63.0589 78.3597 63.9851 79.6029C64.1211 79.7856 64.2575 79.9677 64.3977 80.1487C64.8919 79.6992 65.3748 79.2326 65.8463 78.7505L65.8254 78.7245Z" fill="#0181FB"/>
<path d="M26.3631 72.889C27.2894 71.6453 28.0209 70.6633 29.5308 70.6633C31.0402 70.6633 31.7716 71.6453 32.6979 72.889C33.687 74.2169 34.9179 75.8697 37.2857 75.8697C37.8051 75.8697 38.2257 75.3793 38.2257 74.7749C38.2257 74.1699 37.8051 73.68 37.2857 73.68C35.7762 73.68 35.0448 72.6975 34.1185 71.4538C33.1295 70.1259 31.8985 68.4736 29.5308 68.4736C27.1625 68.4736 25.9321 70.1264 24.943 71.4538C24.0168 72.6975 23.2853 73.68 21.7754 73.68C21.4418 73.68 21.1424 73.6335 20.8605 73.5389C20.8116 73.5222 20.7688 73.5117 20.7184 73.5045C20.7113 73.5034 20.2075 73.4187 19.4271 73.0269C20.064 74.0093 20.7389 74.9542 21.4498 75.8575C21.5573 75.8647 21.6656 75.8697 21.7754 75.8697C24.1432 75.8697 25.3741 74.2169 26.3631 72.889Z" fill="#0181FB"/>
<defs>
<linearGradient id="paint0_linear" x1="38.9834" y1="71.8288" x2="49.0166" y2="69.3384" gradientUnits="userSpaceOnUse">
<stop stop-color="#2AA4F4"/>
<stop offset="1" stop-color="#007AD9"/>
</linearGradient>
<linearGradient id="paint1_linear" x1="23.9951" y1="53.2167" x2="65.3487" y2="51.4017" gradientUnits="userSpaceOnUse">
<stop stop-color="#2AA4F4"/>
<stop offset="1" stop-color="#007AD9"/>
</linearGradient>
<linearGradient id="paint2_linear" x1="48.3765" y1="9.26655" x2="38.4782" y2="12.1172" gradientUnits="userSpaceOnUse">
<stop stop-color="#2AA4F4"/>
<stop offset="1" stop-color="#007AD9"/>
</linearGradient>
<linearGradient id="paint3_linear" x1="64.0429" y1="27.4344" x2="22.8943" y2="30.8247" gradientUnits="userSpaceOnUse">
<stop stop-color="#2AA4F4"/>
<stop offset="1" stop-color="#007AD9"/>
</linearGradient>
</defs>
</svg>
