<svg width="88" height="89" viewBox="0 0 88 89" fill="none" xmlns="http://www.w3.org/2000/svg">
<path d="M38.8547 56.6227C37.6502 55.4278 36.9702 54.0483 36.0503 52.0853C34.7108 49.2265 31.8954 45.7763 27.9044 44.9423L33.9264 57.2261L38.8547 56.6227Z" fill="#DBD9DC"/>
<path d="M45.7203 77.9982C40.1718 74.8153 37.9512 71.3578 37.9512 71.3578L48.4141 71.749L47.8276 77.2881C47.7445 78.1788 46.6462 78.5294 45.7203 77.9982Z" fill="url(#paint0_linear)"/>
<path d="M58.4437 68.7373C52.0396 74.6298 40.6705 74.5943 32.1654 68.6622C29.0014 66.4555 25.66 62.5492 24.7583 59.6255C23.3853 55.1734 24.4556 52.9872 25.22 52.0769C25.5696 51.6605 25.6411 51.0862 25.4523 50.526C24.235 46.9143 24.7167 45.131 25.4172 44.2545C25.9254 43.6187 27.1012 43.7676 27.7098 44.4996C31.3311 48.8552 33.0088 53.2558 33.6877 55.4947C33.9129 56.2374 34.7823 56.7682 35.5631 56.6085C40.7241 55.5528 46.0113 57.8666 48.9469 59.5134L49.0158 59.4619C50.1942 59.2743 51.3116 58.8814 52.3072 58.2751C57.6995 54.9904 57.0796 47.8571 51.7024 43.7068C50.6279 42.8774 49.2806 41.9128 48.0915 41.1343L40.9954 39.3846C40.6639 39.3029 40.5581 38.9073 40.8377 38.7872C41.8455 38.3542 43.7308 37.717 45.7889 37.8958C46.2124 37.9326 46.526 37.6428 46.4559 37.2652C46.0998 35.3458 46.3148 33.7106 46.52 32.7705C46.5834 32.4805 47.0469 32.4977 47.1961 32.7935L50.6039 39.5507C52.1842 40.6349 53.893 41.8823 54.6558 42.4711C64.1045 49.764 65.9715 61.8107 58.4437 68.7373Z" fill="#15171A"/>
<path d="M25.4171 44.2556C25.9253 43.6198 27.1011 43.7687 27.7097 44.5007C31.331 48.8563 33.0088 53.2568 33.6876 55.4958C33.9128 56.2384 34.7822 56.7692 35.563 56.6095C40.724 55.5538 46.0112 57.8676 48.9468 59.5145L49.0156 59.463C50.1941 59.2754 51.3115 58.8825 52.3071 58.2761C57.6994 54.9915 57.0795 47.8582 51.7023 43.7078C50.6278 42.8785 49.2805 41.9139 48.0914 41.1353L40.9953 39.3857C40.6638 39.3039 40.5581 38.9084 40.8376 38.7883C41.8455 38.3553 43.7306 37.7181 45.7888 37.8968C46.2123 37.9336 46.5259 37.6438 46.4558 37.2663C46.0996 35.347 46.3146 33.7117 46.5199 32.7716C46.5832 32.4816 47.0468 32.4988 47.196 32.7947L50.6038 39.5519C52.1841 40.6361 53.8929 41.8835 54.6557 42.4722C56.936 44.2322 58.77 46.2706 60.1417 48.4456C66.5394 62.7879 52.6192 69.7915 44.1182 68.2409C33.1079 66.2325 26.9978 56.4796 25.4523 50.5271C24.2348 46.9155 24.7164 45.1321 25.4171 44.2556Z" fill="url(#paint1_linear)"/>
<path d="M49.4322 65.2801C47.0414 65.757 44.4611 65.7122 41.9185 65.0239C41.4345 64.8929 40.961 64.7144 40.5041 64.4978C40.1427 64.3263 40.0548 63.8928 40.3444 63.7098C43.8284 61.5093 48.964 64.5665 51.1339 61.2176C51.2186 61.0868 51.1589 60.8984 51.001 60.7937C50.6109 60.5347 49.8355 60.0332 48.8594 59.4692C50.0378 59.2816 51.3115 58.8818 52.3071 58.2755C57.6994 54.9909 57.0795 47.8576 51.7023 43.7072C50.6278 42.8779 49.2805 41.9133 48.0914 41.1347C64.8209 49.0582 60.8103 63.0104 49.4322 65.2801Z" fill="#DBD9DC"/>
<path d="M32.3993 57.2572C31.7549 56.7598 30.8583 56.7617 30.397 57.2616L29.9793 57.7141C29.518 58.2139 29.6664 59.0224 30.3109 59.5198C30.9553 60.0173 31.8519 60.0153 32.3132 59.5155L32.7309 59.063C33.1922 58.5631 33.0438 57.7546 32.3993 57.2572Z" fill="#4B3F4E"/>
<path d="M31.5641 58.1624C31.8864 58.4112 31.9607 58.8155 31.7299 59.0655C31.4992 59.3155 31.0509 59.3164 30.7285 59.0677C30.4062 58.8189 30.3319 58.4145 30.5627 58.1645C30.7934 57.9146 31.2418 57.9136 31.5641 58.1624Z" fill="white"/>
<path d="M58.96 69.1868C56.3343 71.6027 52.8123 73.122 48.8555 73.5823L48.4956 77.4318C48.4382 78.0448 48.0317 78.5367 47.4081 78.7476C46.7829 78.9591 46.0342 78.857 45.4051 78.4744C40.3836 75.4215 38.1359 72.6373 37.8157 72.2213C35.7002 71.4555 33.6705 70.4099 31.8059 69.1094C28.3263 66.6823 25.0183 62.6346 24.1113 59.6936C22.665 55.0035 23.833 52.655 24.658 51.6726C24.8894 51.3969 24.9449 51.0095 24.8101 50.6093C23.7672 47.5151 23.7689 45.2582 24.8149 43.9013C25.1654 43.4467 25.7551 43.2169 26.4327 43.271C27.1183 43.3256 27.7891 43.673 28.2273 44.2001C28.3337 44.3281 28.4381 44.4561 28.5412 44.5841C29.997 44.9547 31.3124 45.6593 32.462 46.5466C34.3672 48.0171 35.8175 49.987 36.6992 51.7597C37.6041 53.5795 38.2336 54.767 39.2595 55.7882C41.5534 55.9458 44.0096 56.5797 46.526 57.675C47.4224 58.0652 48.2314 58.4715 48.928 58.8515C50.0027 58.6647 50.9916 58.2996 51.8691 57.7651C54.2285 56.328 55.5062 53.9729 55.3746 51.3039C55.2431 48.6369 53.7618 46.0222 51.3105 44.1302C50.2515 43.3128 48.9761 42.402 47.8725 41.6742L39.9913 39.731C39.7235 39.665 39.5006 39.4673 39.4253 39.2292C39.3499 38.991 39.4369 38.7586 39.646 38.6391C39.7618 38.5729 42.5199 37.0208 45.7466 37.3017C45.7675 37.3035 45.7796 37.2964 45.7862 37.29C45.7953 37.2812 45.794 37.274 45.7931 37.2694C45.2111 34.1352 46.0743 31.7506 46.1113 31.6507C46.1929 31.4304 46.428 31.2998 46.7038 31.3216C46.8638 31.3343 47.0185 31.3968 47.1435 31.4932C47.2337 31.5629 47.3084 31.6503 47.3584 31.7494L51.1237 39.2157C52.6061 40.2377 54.2611 41.4426 55.0454 42.0479C57.4375 43.8943 59.4007 46.0581 60.8804 48.4792C62.3095 50.8177 63.2199 53.2799 63.5858 55.7972C63.951 58.31 63.7526 60.7349 62.9961 63.0048C62.2086 65.3672 60.8507 67.4471 58.96 69.1868ZM46.0331 77.5225C46.2654 77.6636 46.5313 77.6998 46.7626 77.6215C46.9926 77.5436 47.1365 77.37 47.1575 77.1448L47.4798 73.6983C47.0561 73.7209 46.6286 73.7324 46.1971 73.7312C44.128 73.7251 42.0451 73.4429 40.0136 72.907C41.1193 74.0135 43.0646 75.7177 46.0331 77.5225ZM35.4844 52.0873C34.4088 49.9246 32.4149 47.4411 29.7847 46.2318C32.4247 49.9695 33.7458 53.4925 34.3327 55.4275C34.3921 55.6234 34.5388 55.8011 34.7353 55.9148C34.9232 56.0238 35.1324 56.0623 35.3246 56.0231C36.0728 55.8707 36.8506 55.7828 37.6527 55.7575C36.8457 54.7659 36.2561 53.639 35.4844 52.0873ZM61.7031 62.5024C62.4108 60.3791 62.5963 58.1102 62.2546 55.7589C61.9122 53.403 61.0605 51.0991 59.7233 48.911C58.3393 46.6465 56.5025 44.6223 54.264 42.8945C53.4681 42.2802 51.7491 41.0302 50.2499 40.0017C50.1398 39.9264 50.0525 39.828 49.9971 39.718L47.0312 33.8371C46.9138 34.7342 46.8696 35.9312 47.1172 37.2644C47.1812 37.6093 47.0794 37.9406 46.838 38.1732C46.5934 38.4092 46.2269 38.5247 45.8324 38.4904C44.3676 38.3628 42.9764 38.6916 41.9815 39.0348L48.1686 40.5602C48.2501 40.5803 48.3285 40.6136 48.4009 40.6573L48.4014 40.6567C49.8356 41.521 51.138 42.4052 52.3071 43.3077C54.8224 45.2492 56.7186 47.2734 57.966 49.3535C59.5728 52.0332 60.0685 54.8088 59.3994 57.3804C58.6919 60.099 56.7207 62.518 53.8489 64.1913C51.0862 65.8012 47.7202 66.545 44.6139 66.232C44.2437 66.1946 43.9289 65.8988 43.911 65.5711C43.893 65.2434 44.1787 65.0079 44.5489 65.0453C47.3718 65.3296 50.4497 64.6425 52.9936 63.1602C55.6356 61.6208 57.445 59.4113 58.0884 56.939C58.773 54.3081 58.1214 51.5801 56.2271 48.8939C56.5069 49.7277 56.6733 50.5837 56.7157 51.4445C56.8655 54.4804 55.4172 57.156 52.7426 58.7853C52.0512 59.2064 51.2991 59.5355 50.4955 59.7691C51.2037 60.214 51.617 60.5192 51.6543 60.5469C51.9246 60.7492 52.0215 61.0688 51.887 61.3102C50.571 63.6713 48.1074 63.5651 45.725 63.4622C43.9913 63.3874 42.3395 63.316 40.9625 64.0892C41.2345 64.2141 41.5132 64.328 41.7969 64.4301C42.1569 64.5597 42.3766 64.9106 42.2879 65.2138C42.1991 65.5172 41.8353 65.6581 41.4754 65.5286C40.7752 65.2766 40.0998 64.9618 39.4682 64.5928C39.2825 64.4841 39.1501 64.3123 39.1105 64.1272C39.0709 63.9422 39.1281 63.765 39.2655 63.6476C41.1046 62.0765 43.4786 62.1789 45.5731 62.2692C47.6653 62.3595 49.3548 62.4325 50.394 61.0643C48.563 59.8476 42.0395 55.9226 35.8181 57.1901C35.2754 57.3007 34.663 57.1894 34.1376 56.8848C33.6012 56.5735 33.2009 56.0901 33.0396 55.5585C32.3757 53.3697 30.7335 49.0621 27.1938 44.8041C27.0295 44.6062 26.7874 44.481 26.5298 44.4605C26.2904 44.4414 26.0832 44.5211 25.9613 44.6792C25.3862 45.4252 24.9421 47.0307 26.0922 50.443C26.3468 51.1986 26.2329 51.9416 25.7795 52.4814C25.0807 53.3137 24.1024 55.3397 25.403 59.5575C26.2164 62.1953 29.3435 65.9976 32.5226 68.2153C36.4985 70.9883 41.2796 72.5232 45.9855 72.5371C50.6919 72.551 54.9322 71.042 57.9251 68.2882C59.6954 66.659 60.9665 64.7124 61.7031 62.5024Z" fill="black"/>
<path d="M29.919 59.9411C28.9746 59.2122 28.7564 58.0232 29.4324 57.2908L29.8501 56.8383C30.5261 56.1058 31.8445 56.1029 32.7889 56.8319C33.7333 57.5608 33.9516 58.7498 33.2756 59.4822L32.8579 59.9347C32.1818 60.6672 30.8635 60.67 29.919 59.9411ZM32.1839 58.6397C32.4291 58.3741 32.35 57.9429 32.0074 57.6785C31.6649 57.4141 31.1868 57.4152 30.9416 57.6808L30.5239 58.1334C30.2787 58.399 30.3579 58.8302 30.7004 59.0946C31.0429 59.359 31.521 59.3579 31.7662 59.0923L32.1839 58.6397Z" fill="black"/>
<path d="M49.1306 26.4896C50.378 27.6482 51.1093 29.0082 52.1026 30.9451C53.5489 33.7658 56.4899 37.1322 60.5022 37.8412L54.022 25.7293L49.1306 26.4896Z" fill="#DBD9DC"/>
<path d="M41.4583 5.29861C47.1146 8.31073 49.4627 11.7033 49.4627 11.7033L39.0133 11.6426L39.3842 6.07648C39.4327 5.18181 40.5144 4.79587 41.4583 5.29861Z" fill="url(#paint2_linear)"/>
<path d="M29.1279 14.9769C35.2868 8.87279 46.6261 8.54867 55.3372 14.2206C58.5778 16.3306 62.0609 20.137 63.0731 23.0367C64.6143 27.4521 63.6314 29.6755 62.9043 30.6114C62.5718 31.0394 62.5226 31.6169 62.7325 32.172C64.086 35.7506 63.6746 37.5518 63.0099 38.4519C62.5276 39.1047 61.3492 38.9928 60.7141 38.2789C56.9344 34.0313 55.0912 29.6771 54.3277 27.4563C54.0744 26.7196 53.1869 26.2155 52.4144 26.4002C47.3084 27.6208 41.9462 25.4708 38.9551 23.9143L38.8884 23.9681C37.7204 24.1933 36.6212 24.6221 35.6518 25.2609C30.4012 28.7211 31.2949 35.8457 36.8178 39.8322C37.9214 40.6288 39.3022 41.5522 40.5182 42.2943L47.6625 43.8221C47.9962 43.8934 48.1169 44.2863 47.8428 44.4154C46.8545 44.881 44.999 45.5788 42.9396 45.4649C42.5158 45.4414 42.2143 45.7416 42.2987 46.1176C42.728 48.0285 42.5768 49.6731 42.4085 50.6211C42.3565 50.9136 41.8936 50.911 41.7333 50.6194L38.0738 43.9598C36.456 42.924 34.7037 41.7287 33.9202 41.1632C24.2156 34.1582 21.8883 22.1522 29.1279 14.9769Z" fill="#15171A"/>
<path d="M63.0096 38.4517C62.5273 39.1045 61.349 38.9926 60.7138 38.2788C56.9341 34.0311 55.0909 29.677 54.3274 27.4562C54.0741 26.7195 53.1866 26.2154 52.4141 26.4C47.3081 27.6207 41.9459 25.4706 38.9548 23.9142L38.8881 23.968C37.7201 24.1931 36.6209 24.622 35.6515 25.2607C30.4009 28.721 31.2946 35.8455 36.8175 39.832C37.9211 40.6287 39.3019 41.5521 40.5179 42.2942L47.6621 43.8219C47.9958 43.8933 48.1166 44.2861 47.8425 44.4153C46.8541 44.8808 44.9987 45.5786 42.9393 45.4647C42.5155 45.4413 42.214 45.7414 42.2985 46.1174C42.7278 48.0283 42.5766 49.6729 42.4082 50.6209C42.3563 50.9133 41.8933 50.9108 41.733 50.6191L38.0735 43.9596C36.4557 42.9237 34.7033 41.7285 33.9199 41.163C31.5779 39.4724 29.6701 37.489 28.2181 35.3541C21.2839 21.1924 34.8954 13.7377 43.433 15.0218C54.4907 16.6848 60.9609 26.2591 62.7322 32.1718C64.0859 35.7504 63.6744 37.5517 63.0096 38.4517Z" fill="url(#paint3_linear)"/>
<path d="M38.248 18.1526C40.6138 17.5993 43.1887 17.5625 45.7509 18.1715C46.2387 18.2874 46.7178 18.4511 47.1818 18.6536C47.5489 18.8139 47.6533 19.2453 47.3715 19.4377C43.9821 21.7519 38.7424 18.8525 36.7079 22.2752C36.6284 22.4088 36.6952 22.5956 36.8567 22.6955C37.2558 22.9425 38.0485 23.4203 39.0437 23.9542C37.8757 24.1794 36.6209 24.6201 35.6515 25.2588C30.4009 28.7191 31.2946 35.8436 36.8175 39.8301C37.9211 40.6267 39.302 41.5501 40.5179 42.2922C23.5281 34.8861 26.9887 20.7858 38.248 18.1526Z" fill="#DBD9DC"/>
<path d="M55.5449 25.6506C56.2068 26.1284 57.1008 26.0981 57.5416 25.5829L57.9406 25.1165C58.3814 24.6013 58.2021 23.7962 57.5402 23.3184C56.8783 22.8407 55.9843 22.871 55.5435 23.3862L55.1445 23.8526C54.7037 24.3678 54.883 25.1728 55.5449 25.6506Z" fill="#4B3F4E"/>
<path d="M56.3424 24.7162C56.0113 24.4773 55.9216 24.0747 56.1421 23.817C56.3625 23.5593 56.8096 23.5442 57.1407 23.7831C57.4717 24.0221 57.5614 24.4247 57.341 24.6824C57.1205 24.94 56.6734 24.9552 56.3424 24.7162Z" fill="white"/>
<path d="M28.595 14.5425C31.1202 12.0398 34.5739 10.4068 38.5021 9.82057L38.7123 5.95376C38.7458 5.33807 39.1322 4.83258 39.746 4.60159C40.3612 4.36997 41.1119 4.44856 41.7541 4.81179C46.8797 7.71052 49.2288 10.4278 49.5642 10.8343C51.7035 11.5343 53.768 12.5173 55.6778 13.7608C59.2417 16.0814 62.697 20.0306 63.7152 22.9474C65.3387 27.5988 64.2646 29.9878 63.4798 30.9978C63.2596 31.2812 63.2193 31.6711 63.3692 32.0675C64.5288 35.1335 64.6143 37.3938 63.6235 38.7859C63.2916 39.2523 62.7124 39.5011 62.0345 39.4684C61.3487 39.4354 60.6664 39.1087 60.2089 38.5947C60.0979 38.4698 59.9888 38.3449 59.881 38.22C58.415 37.8948 57.0759 37.2308 55.8952 36.3786C53.9384 34.9661 52.416 33.0391 51.4682 31.2916C50.4954 29.4977 49.8218 28.3283 48.7592 27.338C46.4655 27.2528 43.9916 26.6957 41.4398 25.6783C40.5308 25.3159 39.7083 24.9346 38.9989 24.576C37.9344 24.7971 36.9623 25.1941 36.1078 25.7572C33.8104 27.2711 32.6272 29.6702 32.8615 32.3391C33.0958 35.006 34.674 37.5777 37.1917 39.3951C38.2794 40.1802 39.5865 41.0521 40.7152 41.746L48.6498 43.4428C48.9194 43.5004 49.1493 43.6914 49.2337 43.9274C49.318 44.1636 49.2403 44.3991 49.0364 44.5254C48.9235 44.5954 46.2328 46.2371 43.0042 46.0579C42.9833 46.0567 42.9714 46.0642 42.9651 46.0708C42.9564 46.0799 42.958 46.0871 42.959 46.0917C43.6605 49.2122 42.8918 51.6278 42.8588 51.729C42.7859 51.9523 42.5564 52.0905 42.2806 52.0774C42.1206 52.0697 41.9638 52.012 41.8355 51.9194C41.7428 51.8525 41.6649 51.7673 41.6112 51.6696L37.5678 44.3111C36.05 43.3345 34.3529 42.1801 33.5474 41.5987C31.0905 39.8253 29.0492 37.7203 27.48 35.3423C25.9644 33.0455 24.9614 30.6084 24.4992 28.0988C24.0379 25.5938 24.1421 23.1589 24.8088 20.8616C25.5029 18.4706 26.7767 16.3446 28.595 14.5425ZM41.1645 5.78508C40.9275 5.65106 40.6608 5.62327 40.4332 5.709C40.2069 5.79423 40.07 5.97267 40.0578 6.19886L39.8695 9.66083C40.2912 9.62484 40.7171 9.59972 41.1474 9.58733C43.2111 9.52796 45.2992 9.74465 47.3458 10.217C46.2004 9.14393 44.1946 7.49871 41.1645 5.78508ZM52.667 30.9251C53.8232 33.057 55.9076 35.4813 58.5773 36.6091C55.8001 32.9493 54.3465 29.4627 53.6865 27.5433C53.6197 27.3491 53.4665 27.1757 53.2662 27.068C53.0746 26.9648 52.8645 26.9329 52.6743 26.9782C51.9341 27.1546 51.1618 27.2672 50.3629 27.3179C51.206 28.2855 51.8375 29.3954 52.667 30.9251ZM26.1177 21.3238C25.494 23.4727 25.3967 25.7509 25.8283 28.095C26.2608 30.4437 27.1991 32.7241 28.6172 34.8732C30.0849 37.0974 31.9949 39.0665 34.294 40.7261C35.1115 41.3162 36.8741 42.5136 38.4089 43.4963C38.5216 43.5682 38.6124 43.664 38.672 43.7724L41.8569 49.5684C41.9393 48.6663 41.9371 47.466 41.6387 46.1386C41.5616 45.7952 41.6503 45.4602 41.882 45.2196C42.1169 44.9755 42.4779 44.8482 42.8727 44.8701C44.3384 44.9516 45.713 44.5782 46.6919 44.2031L40.4628 42.871C40.3808 42.8535 40.3014 42.8226 40.2274 42.7812L40.227 42.7818C38.7634 41.9615 37.4303 41.1172 36.2296 40.2504C33.6461 38.3855 31.6769 36.4182 30.3526 34.3745C28.6466 31.7415 28.0451 28.9774 28.613 26.3807C29.2136 23.6356 31.0859 21.1506 33.8852 19.3838C36.5781 17.6841 39.9062 16.8326 43.0161 17.0478C43.3867 17.0735 43.712 17.3598 43.7426 17.6875C43.7732 18.0151 43.4973 18.2599 43.1267 18.2343C40.3006 18.0388 37.2576 18.8244 34.778 20.3894C32.2027 22.0147 30.4835 24.2848 29.9375 26.7813C29.3564 29.4378 30.1116 32.1494 32.1045 34.7797C31.7932 33.9535 31.5943 33.1015 31.5186 32.2407C31.252 29.2049 32.593 26.4794 35.1973 24.763C35.8705 24.3194 36.6078 23.966 37.4003 23.7067C36.6768 23.2834 36.2529 22.9909 36.2146 22.9643C35.9372 22.7703 35.8282 22.4533 35.953 22.2072C37.1742 19.8009 39.6352 19.8293 42.015 19.8569C43.7469 19.8771 45.3968 19.8962 46.7403 19.0783C46.4642 18.9619 46.1818 18.8565 45.895 18.7633C45.5309 18.6449 45.2983 18.3004 45.3751 17.9939C45.4518 17.6873 45.8092 17.5347 46.1731 17.653C46.8812 17.8832 47.5668 18.1771 48.211 18.5267C48.4004 18.6296 48.539 18.7976 48.5857 18.9816C48.6323 19.1657 48.5821 19.3449 48.4496 19.4668C46.6763 21.0986 44.3049 21.0711 42.2126 21.0469C40.1226 21.0227 38.4349 21.0031 37.4514 22.4062C39.3245 23.5668 45.9817 27.2914 52.1371 25.8251C52.674 25.6972 53.2891 25.7893 53.8248 26.0777C54.3717 26.3725 54.7897 26.8439 54.971 27.3713C55.7177 29.5424 57.5218 33.8045 61.2163 37.957C61.3878 38.15 61.6341 38.2677 61.8918 38.2801C62.1313 38.2917 62.3348 38.2053 62.4502 38.0431C62.995 37.2778 63.3758 35.6558 62.097 32.2747C61.8139 31.526 61.8989 30.7782 62.3301 30.2233C62.9949 29.3676 63.8922 27.3076 62.4322 23.1245C61.5191 20.5085 58.2537 16.7994 54.9977 14.6789C50.9255 12.0274 46.0981 10.6415 41.4046 10.7765C36.7105 10.9116 32.5402 12.557 29.6619 15.4097C27.9594 17.0974 26.7669 19.0872 26.1177 21.3238Z" fill="black"/>
<path d="M57.9141 22.8826C58.8841 23.5827 59.1477 24.7666 58.5018 25.5215L58.1028 25.9879C57.4568 26.7429 56.1422 26.7875 55.1722 26.0873C54.2022 25.3872 53.9386 24.2033 54.5845 23.4484L54.9836 22.982C55.6295 22.227 56.9441 22.1824 57.9141 22.8826ZM55.7057 24.2576C55.4714 24.5314 55.567 24.9607 55.9188 25.2147C56.2706 25.4686 56.7474 25.4524 56.9817 25.1786L57.3807 24.7122C57.615 24.4384 57.5194 24.0091 57.1676 23.7551C56.8158 23.5012 56.339 23.5173 56.1047 23.7912L55.7057 24.2576Z" fill="black"/>
<path d="M75.9368 60.3506C72.0587 60.3506 72.0587 65.557 68.181 65.557C64.3033 65.557 64.3033 60.3506 60.4251 60.3506C56.5479 60.3506 56.5479 65.557 52.6698 65.557C48.7926 65.557 48.7926 60.3506 44.9149 60.3506C41.0372 60.3506 41.0372 65.557 37.16 65.557C33.2823 65.557 33.2823 60.3506 29.4051 60.3506C25.5274 60.3506 25.5274 65.557 21.6498 65.557C17.7726 65.557 17.7726 60.3506 13.8949 60.3506H13.7513C17.4384 76.8509 29.994 89.0006 44.9158 89.0006C59.7907 89.0006 72.3139 76.9278 76.0452 60.5072L75.9368 60.3506Z" fill="#56B8FF"/>
<path d="M75.9369 60.3496C72.0588 60.3496 72.0588 65.556 68.1811 65.556C68.01 65.556 67.8489 65.5427 67.6925 65.5228C63.1956 78.1202 53.2854 87.2759 41.4689 88.7815C42.6014 88.9254 43.7516 88.9996 44.916 88.9996C59.7908 88.9996 72.314 76.9268 76.0453 60.5063L75.9369 60.3496Z" fill="#60B6FF"/>
<path d="M65.8252 79.7245C65.6831 79.5418 65.5444 79.3547 65.4051 79.1682C64.4161 77.8403 63.1852 76.1875 60.8174 76.1875C58.4496 76.1875 57.2187 77.8403 56.2297 79.1682C55.3034 80.4119 54.5719 81.3939 53.062 81.3939C52.5426 81.3939 52.1219 81.8843 52.1219 82.4887C52.1219 83.0932 52.5426 83.5836 53.062 83.5836C55.4298 83.5836 56.6607 81.9308 57.6497 80.6029C58.576 79.3591 59.3079 78.3772 60.8174 78.3772C62.3273 78.3772 63.0587 79.3597 63.985 80.6029C64.1209 80.7856 64.2573 80.9677 64.3975 81.1487C64.8918 80.6992 65.3747 80.2326 65.8462 79.7505L65.8252 79.7245Z" fill="#15171A"/>
<path d="M26.363 73.889C27.2893 72.6453 28.0207 71.6633 29.5306 71.6633C31.0401 71.6633 31.7715 72.6453 32.6978 73.889C33.6868 75.2169 34.9178 76.8697 37.2855 76.8697C37.805 76.8697 38.2256 76.3793 38.2256 75.7749C38.2256 75.1699 37.805 74.68 37.2855 74.68C35.7761 74.68 35.0447 73.6975 34.1184 72.4538C33.1293 71.1259 31.8984 69.4736 29.5306 69.4736C27.1624 69.4736 25.9319 71.1264 24.9429 72.4538C24.0166 73.6975 23.2852 74.68 21.7753 74.68C21.4416 74.68 21.1422 74.6335 20.8604 74.5389C20.8114 74.5222 20.7687 74.5117 20.7183 74.5045C20.7112 74.5034 20.2074 74.4187 19.427 74.0269C20.0639 75.0093 20.7387 75.9542 21.4497 76.8575C21.5571 76.8647 21.6655 76.8697 21.7753 76.8697C24.143 76.8697 25.374 75.2169 26.363 73.889Z" fill="#15171A"/>
<defs>
<linearGradient id="paint0_linear" x1="38.9834" y1="72.8269" x2="49.0166" y2="70.3364" gradientUnits="userSpaceOnUse">
<stop stop-color="#2AA4F4"/>
<stop offset="1" stop-color="#007AD9"/>
</linearGradient>
<linearGradient id="paint1_linear" x1="23.9951" y1="54.2147" x2="65.3487" y2="52.3997" gradientUnits="userSpaceOnUse">
<stop stop-color="#2AA4F4"/>
<stop offset="1" stop-color="#007AD9"/>
</linearGradient>
<linearGradient id="paint2_linear" x1="48.3765" y1="10.2646" x2="38.4782" y2="13.1153" gradientUnits="userSpaceOnUse">
<stop stop-color="#2AA4F4"/>
<stop offset="1" stop-color="#007AD9"/>
</linearGradient>
<linearGradient id="paint3_linear" x1="64.0429" y1="28.4324" x2="22.8943" y2="31.8228" gradientUnits="userSpaceOnUse">
<stop stop-color="#2AA4F4"/>
<stop offset="1" stop-color="#007AD9"/>
</linearGradient>
</defs>
</svg>
