<svg width="88" height="88" viewBox="0 0 88 88" fill="none" xmlns="http://www.w3.org/2000/svg">
<path d="M38.8547 55.6236C37.6502 54.4288 36.9702 53.0493 36.0503 51.0863C34.7108 48.2275 31.8954 44.7773 27.9044 43.9432L33.9264 56.2271L38.8547 55.6236Z" fill="#DBD9DC"/>
<path d="M45.7203 76.9992C40.1718 73.8163 37.9512 70.3587 37.9512 70.3587L48.4141 70.75L47.8276 76.2891C47.7445 77.1798 46.6462 77.5304 45.7203 76.9992Z" fill="url(#paint0_linear)"/>
<path d="M58.4437 67.7383C52.0396 73.6308 40.6705 73.5952 32.1654 67.6632C29.0014 65.4565 25.66 61.5502 24.7583 58.6264C23.3853 54.1743 24.4556 51.9882 25.22 51.0779C25.5696 50.6615 25.6411 50.0872 25.4523 49.5269C24.235 45.9153 24.7167 44.132 25.4172 43.2555C25.9254 42.6197 27.1012 42.7686 27.7098 43.5006C31.3311 47.8562 33.0088 52.2568 33.6877 54.4957C33.9129 55.2383 34.7823 55.7691 35.5631 55.6094C40.7241 54.5537 46.0113 56.8675 48.9469 58.5144L49.0158 58.4629C50.1942 58.2753 51.3116 57.8824 52.3072 57.276C57.6995 53.9914 57.0796 46.8581 51.7024 42.7078C50.6279 41.8784 49.2806 40.9138 48.0915 40.1353L40.9954 38.3856C40.6639 38.3039 40.5581 37.9083 40.8377 37.7882C41.8455 37.3552 43.7308 36.718 45.7889 36.8967C46.2124 36.9336 46.526 36.6438 46.4559 36.2661C46.0998 34.3468 46.3148 32.7116 46.52 31.7715C46.5834 31.4814 47.0469 31.4986 47.1961 31.7945L50.6039 38.5517C52.1842 39.6359 53.893 40.8833 54.6558 41.472C64.1045 48.765 65.9715 60.8117 58.4437 67.7383Z" fill="url(#paint1_linear)"/>
<path d="M25.4171 43.2565C25.9253 42.6208 27.1011 42.7697 27.7097 43.5017C31.331 47.8573 33.0088 52.2578 33.6876 54.4967C33.9128 55.2394 34.7822 55.7702 35.563 55.6105C40.724 54.5548 46.0112 56.8686 48.9468 58.5154L49.0156 58.4639C50.1941 58.2763 51.3115 57.8835 52.3071 57.2771C57.6994 53.9925 57.0795 46.8592 51.7023 42.7088C50.6278 41.8794 49.2805 40.9149 48.0914 40.1363L40.9953 38.3867C40.6638 38.3049 40.5581 37.9094 40.8376 37.7893C41.8455 37.3563 43.7306 36.719 45.7888 36.8978C46.2123 36.9346 46.5259 36.6448 46.4558 36.2673C46.0996 34.3479 46.3146 32.7127 46.5199 31.7726C46.5832 31.4826 47.0468 31.4997 47.196 31.7957L50.6038 38.5528C52.1841 39.6371 53.8929 40.8845 54.6557 41.4732C56.936 43.2332 58.77 45.2716 60.1417 47.4466C66.5394 61.7889 52.6192 68.7925 44.1182 67.2418C33.1079 65.2334 26.9978 55.4806 25.4523 49.5281C24.2348 45.9164 24.7164 44.1331 25.4171 43.2565Z" fill="url(#paint2_linear)"/>
<path d="M49.4322 64.2811C47.0414 64.758 44.4611 64.7132 41.9185 64.0248C41.4345 63.8939 40.961 63.7154 40.5041 63.4987C40.1427 63.3273 40.0548 62.8938 40.3444 62.7108C43.8284 60.5102 48.964 63.5674 51.1339 60.2186C51.2186 60.0878 51.1589 59.8994 51.001 59.7947C50.6109 59.5357 49.8355 59.0341 48.8594 58.4702C50.0378 58.2826 51.3115 57.8828 52.3071 57.2765C57.6994 53.9919 57.0795 46.8585 51.7023 42.7082C50.6278 41.8788 49.2805 40.9143 48.0914 40.1357C64.8209 48.0592 60.8103 62.0114 49.4322 64.2811Z" fill="#DBD9DC"/>
<path d="M32.3993 56.2582C31.7549 55.7608 30.8583 55.7627 30.397 56.2625L29.9793 56.7151C29.518 57.2149 29.6664 58.0234 30.3109 58.5208C30.9553 59.0182 31.8519 59.0163 32.3132 58.5165L32.7309 58.0639C33.1922 57.5641 33.0438 56.7556 32.3993 56.2582Z" fill="#4B3F4E"/>
<path d="M31.5641 57.1634C31.8864 57.4121 31.9607 57.8165 31.7299 58.0665C31.4992 58.3164 31.0509 58.3174 30.7285 58.0686C30.4062 57.8198 30.3319 57.4155 30.5627 57.1655C30.7934 56.9155 31.2418 56.9146 31.5641 57.1634Z" fill="white"/>
<path d="M58.96 68.1877C56.3343 70.6037 52.8123 72.1229 48.8555 72.5833L48.4956 76.4328C48.4382 77.0458 48.0317 77.5376 47.4081 77.7486C46.7829 77.9601 46.0342 77.858 45.4051 77.4754C40.3836 74.4224 38.1359 71.6383 37.8157 71.2223C35.7002 70.4565 33.6705 69.4108 31.8059 68.1103C28.3263 65.6833 25.0183 61.6356 24.1113 58.6946C22.665 54.0045 23.833 51.656 24.658 50.6736C24.8894 50.3979 24.9449 50.0104 24.8101 49.6103C23.7672 46.5161 23.7689 44.2592 24.8149 42.9023C25.1654 42.4477 25.7551 42.2179 26.4327 42.2719C27.1183 42.3266 27.7891 42.6739 28.2273 43.201C28.3337 43.3291 28.4381 43.4571 28.5412 43.5851C29.997 43.9557 31.3124 44.6603 32.462 45.5476C34.3672 47.0181 35.8175 48.988 36.6992 50.7607C37.6041 52.5805 38.2336 53.768 39.2595 54.7892C41.5534 54.9468 44.0096 55.5807 46.526 56.676C47.4224 57.0662 48.2314 57.4724 48.928 57.8525C50.0027 57.6657 50.9916 57.3006 51.8691 56.766C54.2285 55.3289 55.5062 52.9739 55.3746 50.3049C55.2431 47.6378 53.7618 45.0232 51.3105 43.1312C50.2515 42.3138 48.9761 41.403 47.8725 40.6751L39.9913 38.732C39.7235 38.666 39.5006 38.4682 39.4253 38.2302C39.3499 37.992 39.4369 37.7596 39.646 37.64C39.7618 37.5739 42.5199 36.0218 45.7466 36.3027C45.7675 36.3045 45.7796 36.2974 45.7862 36.291C45.7953 36.2822 45.794 36.275 45.7931 36.2704C45.2111 33.1362 46.0743 30.7516 46.1113 30.6516C46.1929 30.4313 46.428 30.3008 46.7038 30.3225C46.8638 30.3353 47.0185 30.3978 47.1435 30.4942C47.2337 30.5639 47.3084 30.6513 47.3584 30.7504L51.1237 38.2167C52.6061 39.2386 54.2611 40.4436 55.0454 41.0489C57.4375 42.8952 59.4007 45.0591 60.8804 47.4802C62.3095 49.8187 63.2199 52.2808 63.5858 54.7981C63.951 57.3109 63.7526 59.7359 62.9961 62.0057C62.2086 64.3682 60.8507 66.4481 58.96 68.1877ZM46.0331 76.5234C46.2654 76.6646 46.5313 76.7007 46.7626 76.6225C46.9926 76.5446 47.1365 76.371 47.1575 76.1458L47.4798 72.6993C47.0561 72.7218 46.6286 72.7334 46.1971 72.7321C44.128 72.7261 42.0451 72.4439 40.0136 71.908C41.1193 73.0144 43.0646 74.7186 46.0331 76.5234ZM35.4844 51.0883C34.4088 48.9256 32.4149 46.442 29.7847 45.2328C32.4247 48.9705 33.7458 52.4935 34.3327 54.4285C34.3921 54.6243 34.5388 54.8021 34.7353 54.9158C34.9232 55.0248 35.1324 55.0633 35.3246 55.0241C36.0728 54.8717 36.8506 54.7838 37.6527 54.7585C36.8457 53.7669 36.2561 52.64 35.4844 51.0883ZM61.7031 61.5034C62.4108 59.3801 62.5963 57.1112 62.2546 54.7599C61.9122 52.4039 61.0605 50.1 59.7233 47.912C58.3393 45.6475 56.5025 43.6232 54.264 41.8955C53.4681 41.2812 51.7491 40.0312 50.2499 39.0026C50.1398 38.9274 50.0525 38.829 49.9971 38.719L47.0312 32.8381C46.9138 33.7351 46.8696 34.9322 47.1172 36.2654C47.1812 36.6103 47.0794 36.9416 46.838 37.1742C46.5934 37.4101 46.2269 37.5257 45.8324 37.4914C44.3676 37.3638 42.9764 37.6926 41.9815 38.0357L48.1686 39.5612C48.2501 39.5813 48.3285 39.6146 48.4009 39.6583L48.4014 39.6577C49.8356 40.522 51.138 41.4062 52.3071 42.3086C54.8224 44.2501 56.7186 46.2744 57.966 48.3545C59.5728 51.0342 60.0685 53.8098 59.3994 56.3814C58.6919 59.1 56.7207 61.519 53.8489 63.1923C51.0862 64.8021 47.7202 65.546 44.6139 65.2329C44.2437 65.1956 43.9289 64.8998 43.911 64.572C43.893 64.2444 44.1787 64.0089 44.5489 64.0463C47.3718 64.3306 50.4497 63.6435 52.9936 62.1612C55.6356 60.6218 57.445 58.4123 58.0884 55.94C58.773 53.3091 58.1214 50.5811 56.2271 47.8949C56.5069 48.7287 56.6733 49.5847 56.7157 50.4455C56.8655 53.4814 55.4172 56.157 52.7426 57.7863C52.0512 58.2074 51.2991 58.5365 50.4955 58.77C51.2037 59.215 51.617 59.5202 51.6543 59.5479C51.9246 59.7502 52.0215 60.0698 51.887 60.3112C50.571 62.6723 48.1074 62.5661 45.725 62.4632C43.9913 62.3883 42.3395 62.317 40.9625 63.0901C41.2345 63.215 41.5132 63.329 41.7969 63.4311C42.1569 63.5607 42.3766 63.9116 42.2879 64.2148C42.1991 64.5182 41.8353 64.6591 41.4754 64.5296C40.7752 64.2776 40.0998 63.9627 39.4682 63.5938C39.2825 63.4851 39.1501 63.3132 39.1105 63.1282C39.0709 62.9432 39.1281 62.766 39.2655 62.6486C41.1046 61.0775 43.4786 61.1799 45.5731 61.2702C47.6653 61.3605 49.3548 61.4335 50.394 60.0653C48.563 58.8486 42.0395 54.9236 35.8181 56.1911C35.2754 56.3017 34.663 56.1903 34.1376 55.8858C33.6012 55.5745 33.2009 55.0911 33.0396 54.5595C32.3757 52.3706 30.7335 48.0631 27.1938 43.8051C27.0295 43.6071 26.7874 43.482 26.5298 43.4615C26.2904 43.4424 26.0832 43.5221 25.9613 43.6802C25.3862 44.4261 24.9421 46.0317 26.0922 49.444C26.3468 50.1996 26.2329 50.9426 25.7795 51.4823C25.0807 52.3147 24.1024 54.3407 25.403 58.5585C26.2164 61.1963 29.3435 64.9986 32.5226 67.2163C36.4985 69.9893 41.2796 71.5242 45.9855 71.5381C50.6919 71.5519 54.9322 70.0429 57.9251 67.2892C59.6954 65.66 60.9665 63.7134 61.7031 61.5034Z" fill="black"/>
<path d="M29.919 58.9421C28.9746 58.2131 28.7564 57.0242 29.4324 56.2918L29.8501 55.8392C30.5261 55.1068 31.8445 55.1039 32.7889 55.8329C33.7333 56.5618 33.9516 57.7508 33.2756 58.4832L32.8579 58.9357C32.1818 59.6682 30.8635 59.671 29.919 58.9421ZM32.1839 57.6407C32.4291 57.3751 32.35 56.9439 32.0074 56.6795C31.6649 56.4151 31.1868 56.4162 30.9416 56.6818L30.5239 57.1343C30.2787 57.4 30.3579 57.8312 30.7004 58.0956C31.0429 58.3599 31.521 58.3589 31.7662 58.0932L32.1839 57.6407Z" fill="black"/>
<path d="M49.1306 25.4906C50.378 26.6491 51.1093 28.0092 52.1026 29.9461C53.5489 32.7668 56.4899 36.1332 60.5022 36.8422L54.022 24.7302L49.1306 25.4906Z" fill="#DBD9DC"/>
<path d="M41.4583 4.29958C47.1146 7.3117 49.4627 10.7043 49.4627 10.7043L39.0133 10.6435L39.3842 5.07746C39.4327 4.18278 40.5144 3.79685 41.4583 4.29958Z" fill="url(#paint3_linear)"/>
<path d="M29.1279 13.9779C35.2868 7.87376 46.6261 7.54964 55.3372 13.2216C58.5778 15.3315 62.0609 19.138 63.0731 22.0377C64.6143 26.4531 63.6314 28.6765 62.9043 29.6123C62.5718 30.0404 62.5226 30.6178 62.7325 31.173C64.086 34.7516 63.6746 36.5528 63.0099 37.4528C62.5276 38.1057 61.3492 37.9937 60.7141 37.2799C56.9344 33.0323 55.0912 28.6781 54.3277 26.4573C54.0744 25.7206 53.1869 25.2165 52.4144 25.4012C47.3084 26.6218 41.9462 24.4718 38.9551 22.9153L38.8884 22.9691C37.7204 23.1943 36.6212 23.6231 35.6518 24.2619C30.4012 27.7221 31.2949 34.8467 36.8178 38.8332C37.9214 39.6298 39.3022 40.5532 40.5182 41.2953L47.6625 42.8231C47.9962 42.8944 48.1169 43.2873 47.8428 43.4164C46.8545 43.882 44.999 44.5798 42.9396 44.4659C42.5158 44.4424 42.2143 44.7426 42.2987 45.1185C42.728 47.0295 42.5768 48.6741 42.4085 49.622C42.3565 49.9145 41.8936 49.912 41.7333 49.6204L38.0738 42.9608C36.456 41.9249 34.7037 40.7297 33.9202 40.1642C24.2156 33.1591 21.8883 21.1532 29.1279 13.9779Z" fill="url(#paint4_linear)"/>
<path d="M63.0096 37.4527C62.5273 38.1055 61.349 37.9935 60.7138 37.2798C56.9341 33.0321 55.0909 28.678 54.3274 26.4571C54.0741 25.7205 53.1866 25.2164 52.4141 25.401C47.3081 26.6216 41.9459 24.4716 38.9548 22.9152L38.8881 22.9689C37.7201 23.1941 36.6209 23.6229 35.6515 24.2617C30.4009 27.722 31.2946 34.8465 36.8175 38.833C37.9211 39.6296 39.3019 40.553 40.5179 41.2951L47.6621 42.8229C47.9958 42.8943 48.1166 43.2871 47.8425 43.4162C46.8541 43.8818 44.9987 44.5796 42.9393 44.4657C42.5155 44.4422 42.214 44.7424 42.2985 45.1183C42.7278 47.0293 42.5766 48.6738 42.4082 49.6218C42.3563 49.9143 41.8933 49.9118 41.733 49.6201L38.0735 42.9605C36.4557 41.9247 34.7033 40.7295 33.9199 40.1639C31.5779 38.4734 29.6701 36.49 28.2181 34.3551C21.2839 20.1934 34.8954 12.7387 43.433 14.0227C54.4907 15.6858 60.9609 25.2601 62.7322 31.1728C64.0859 34.7513 63.6744 36.5526 63.0096 37.4527Z" fill="url(#paint5_linear)"/>
<path d="M38.248 17.1536C40.6138 16.6003 43.1887 16.5635 45.7509 17.1725C46.2387 17.2883 46.7178 17.4521 47.1818 17.6546C47.5489 17.8148 47.6533 18.2463 47.3715 18.4387C43.9821 20.7528 38.7424 17.8535 36.7079 21.2761C36.6284 21.4098 36.6952 21.5965 36.8567 21.6965C37.2558 21.9435 38.0485 22.4213 39.0437 22.9552C37.8757 23.1803 36.6209 23.6211 35.6515 24.2598C30.4009 27.72 31.2946 34.8446 36.8175 38.8311C37.9211 39.6277 39.302 40.5511 40.5179 41.2932C23.5281 33.8871 26.9887 19.7868 38.248 17.1536Z" fill="#DBD9DC"/>
<path d="M55.5449 24.6516C56.2068 25.1294 57.1008 25.099 57.5416 24.5839L57.9406 24.1174C58.3814 23.6023 58.2021 22.7972 57.5402 22.3194C56.8783 21.8416 55.9843 21.872 55.5435 22.3871L55.1445 22.8536C54.7037 23.3687 54.883 24.1738 55.5449 24.6516Z" fill="#4B3F4E"/>
<path d="M56.3424 23.7172C56.0113 23.4782 55.9216 23.0756 56.1421 22.818C56.3625 22.5603 56.8096 22.5452 57.1407 22.7841C57.4717 23.0231 57.5614 23.4257 57.341 23.6833C57.1205 23.941 56.6734 23.9562 56.3424 23.7172Z" fill="white"/>
<path d="M28.595 13.5435C31.1202 11.0408 34.5739 9.40778 38.5021 8.82155L38.7123 4.95474C38.7458 4.33904 39.1322 3.83356 39.746 3.60256C40.3612 3.37095 41.1119 3.44954 41.7541 3.81276C46.8797 6.71149 49.2288 9.42874 49.5642 9.83524C51.7035 10.5352 53.768 11.5183 55.6778 12.7618C59.2417 15.0824 62.697 19.0316 63.7152 21.9483C65.3387 26.5998 64.2646 28.9888 63.4798 29.9988C63.2596 30.2822 63.2193 30.672 63.3692 31.0685C64.5288 34.1345 64.6143 36.3948 63.6235 37.7869C63.2916 38.2533 62.7124 38.5021 62.0345 38.4694C61.3487 38.4364 60.6664 38.1097 60.2089 37.5957C60.0979 37.4708 59.9888 37.3459 59.881 37.2209C58.415 36.8958 57.0759 36.2318 55.8952 35.3795C53.9384 33.9671 52.416 32.0401 51.4682 30.2926C50.4954 28.4987 49.8218 27.3293 48.7592 26.339C46.4655 26.2538 43.9916 25.6966 41.4398 24.6792C40.5308 24.3169 39.7083 23.9356 38.9989 23.577C37.9344 23.798 36.9623 24.1951 36.1078 24.7582C33.8104 26.2721 32.6272 28.6711 32.8615 31.3401C33.0958 34.007 34.674 36.5787 37.1917 38.396C38.2794 39.1812 39.5865 40.053 40.7152 40.747L48.6498 42.4438C48.9194 42.5014 49.1493 42.6924 49.2337 42.9284C49.318 43.1646 49.2403 43.4 49.0364 43.5264C48.9235 43.5963 46.2328 45.2381 43.0042 45.0589C42.9833 45.0577 42.9714 45.0652 42.9651 45.0718C42.9564 45.0809 42.958 45.0881 42.959 45.0927C43.6605 48.2132 42.8918 50.6288 42.8588 50.73C42.7859 50.9532 42.5564 51.0914 42.2806 51.0784C42.1206 51.0707 41.9638 51.013 41.8355 50.9203C41.7428 50.8534 41.6649 50.7683 41.6112 50.6706L37.5678 43.3121C36.05 42.3355 34.3529 41.1811 33.5474 40.5997C31.0905 38.8262 29.0492 36.7212 27.48 34.3433C25.9644 32.0464 24.9614 29.6093 24.4992 27.0998C24.0379 24.5947 24.1421 22.1599 24.8088 19.8626C25.5029 17.4716 26.7767 15.3456 28.595 13.5435ZM41.1645 4.78606C40.9275 4.65203 40.6608 4.62425 40.4332 4.70998C40.2069 4.79521 40.07 4.97365 40.0578 5.19984L39.8695 8.66181C40.2912 8.62582 40.7171 8.6007 41.1474 8.5883C43.2111 8.52894 45.2992 8.74563 47.3458 9.21803C46.2004 8.14491 44.1946 6.49968 41.1645 4.78606ZM52.667 29.9261C53.8232 32.058 55.9076 34.4822 58.5773 35.6101C55.8001 31.9503 54.3465 28.4637 53.6865 26.5443C53.6197 26.3501 53.4665 26.1767 53.2662 26.069C53.0746 25.9658 52.8645 25.9339 52.6743 25.9792C51.9341 26.1555 51.1618 26.2681 50.3629 26.3189C51.206 27.2865 51.8375 28.3964 52.667 29.9261ZM26.1177 20.3248C25.494 22.4737 25.3967 24.7519 25.8283 27.096C26.2608 29.4447 27.1991 31.7251 28.6172 33.8742C30.0849 36.0983 31.9949 38.0675 34.294 39.7271C35.1115 40.3171 36.8741 41.5146 38.4089 42.4973C38.5216 42.5692 38.6124 42.6649 38.672 42.7734L41.8569 48.5693C41.9393 47.6672 41.9371 46.4669 41.6387 45.1396C41.5616 44.7961 41.6503 44.4612 41.882 44.2205C42.1169 43.9765 42.4779 43.8492 42.8727 43.8711C44.3384 43.9525 45.713 43.5792 46.6919 43.204L40.4628 41.872C40.3808 41.8545 40.3014 41.8236 40.2274 41.7822L40.227 41.7828C38.7634 40.9625 37.4303 40.1182 36.2296 39.2514C33.6461 37.3865 31.6769 35.4192 30.3526 33.3754C28.6466 30.7424 28.0451 27.9784 28.613 25.3817C29.2136 22.6365 31.0859 20.1515 33.8852 18.3847C36.5781 16.6851 39.9062 15.8336 43.0161 16.0488C43.3867 16.0745 43.712 16.3608 43.7426 16.6885C43.7732 17.0161 43.4973 17.2609 43.1267 17.2352C40.3006 17.0398 37.2576 17.8253 34.778 19.3904C32.2027 21.0157 30.4835 23.2858 29.9375 25.7823C29.3564 28.4388 30.1116 31.1504 32.1045 33.7807C31.7932 32.9544 31.5943 32.1025 31.5186 31.2416C31.252 28.2059 32.593 25.4804 35.1973 23.764C35.8705 23.3204 36.6078 22.967 37.4003 22.7076C36.6768 22.2844 36.2529 21.9919 36.2146 21.9652C35.9372 21.7713 35.8282 21.4542 35.953 21.2082C37.1742 18.8019 39.6352 18.8303 42.015 18.8579C43.7469 18.878 45.3968 18.8972 46.7403 18.0793C46.4642 17.9628 46.1818 17.8575 45.895 17.7643C45.5309 17.6459 45.2983 17.3014 45.3751 16.9949C45.4518 16.6882 45.8092 16.5356 46.1731 16.654C46.8812 16.8842 47.5668 17.1781 48.211 17.5276C48.4004 17.6306 48.539 17.7985 48.5857 17.9826C48.6323 18.1666 48.5821 18.3459 48.4496 18.4678C46.6763 20.0995 44.3049 20.0721 42.2126 20.0479C40.1226 20.0237 38.4349 20.0041 37.4514 21.4072C39.3245 22.5678 45.9817 26.2923 52.1371 24.8261C52.674 24.6981 53.2891 24.7903 53.8248 25.0787C54.3717 25.3735 54.7897 25.8449 54.971 26.3722C55.7177 28.5434 57.5218 32.8055 61.2163 36.958C61.3878 37.151 61.6341 37.2687 61.8918 37.2811C62.1313 37.2927 62.3348 37.2063 62.4502 37.0441C62.995 36.2788 63.3758 34.6568 62.097 31.2757C61.8139 30.527 61.8989 29.7792 62.3301 29.2243C62.9949 28.3686 63.8922 26.3086 62.4322 22.1255C61.5191 19.5095 58.2537 15.8003 54.9977 13.6798C50.9255 11.0284 46.0981 9.64252 41.4046 9.77752C36.7105 9.91254 32.5402 11.558 29.6619 14.4107C27.9594 16.0983 26.7669 18.0881 26.1177 20.3248Z" fill="black"/>
<path d="M57.9141 21.8835C58.8841 22.5837 59.1477 23.7676 58.5018 24.5225L58.1028 24.9889C57.4568 25.7439 56.1422 25.7885 55.1722 25.0883C54.2022 24.3881 53.9386 23.2043 54.5845 22.4494L54.9836 21.9829C55.6295 21.228 56.9441 21.1834 57.9141 21.8835ZM55.7057 23.2586C55.4714 23.5324 55.567 23.9617 55.9188 24.2156C56.2706 24.4696 56.7474 24.4534 56.9817 24.1796L57.3807 23.7132C57.615 23.4393 57.5194 23.01 57.1676 22.7561C56.8158 22.5021 56.339 22.5183 56.1047 22.7921L55.7057 23.2586Z" fill="black"/>
<path d="M75.9368 59.3506C72.0587 59.3506 72.0587 64.557 68.181 64.557C64.3033 64.557 64.3033 59.3506 60.4251 59.3506C56.5479 59.3506 56.5479 64.557 52.6698 64.557C48.7926 64.557 48.7926 59.3506 44.9149 59.3506C41.0372 59.3506 41.0372 64.557 37.16 64.557C33.2823 64.557 33.2823 59.3506 29.4051 59.3506C25.5274 59.3506 25.5274 64.557 21.6498 64.557C17.7726 64.557 17.7726 59.3506 13.8949 59.3506H13.7513C17.4384 75.8509 29.994 88.0006 44.9158 88.0006C59.7907 88.0006 72.3139 75.9278 76.0452 59.5072L75.9368 59.3506Z" fill="#56B8FF"/>
<path d="M75.9369 59.3496C72.0588 59.3496 72.0588 64.556 68.1811 64.556C68.01 64.556 67.8489 64.5427 67.6925 64.5228C63.1956 77.1202 53.2854 86.2759 41.4689 87.7815C42.6014 87.9254 43.7516 87.9996 44.916 87.9996C59.7908 87.9996 72.314 75.9268 76.0453 59.5063L75.9369 59.3496Z" fill="#60B6FF"/>
<path d="M65.8252 78.7245C65.6831 78.5418 65.5444 78.3547 65.4051 78.1682C64.4161 76.8403 63.1852 75.1875 60.8174 75.1875C58.4496 75.1875 57.2187 76.8403 56.2297 78.1682C55.3034 79.4119 54.5719 80.3939 53.062 80.3939C52.5426 80.3939 52.1219 80.8843 52.1219 81.4887C52.1219 82.0932 52.5426 82.5836 53.062 82.5836C55.4298 82.5836 56.6607 80.9308 57.6497 79.6029C58.576 78.3591 59.3079 77.3772 60.8174 77.3772C62.3273 77.3772 63.0587 78.3597 63.985 79.6029C64.1209 79.7856 64.2573 79.9677 64.3975 80.1487C64.8918 79.6992 65.3747 79.2326 65.8462 78.7505L65.8252 78.7245Z" fill="#0181FB"/>
<path d="M26.363 72.889C27.2893 71.6453 28.0207 70.6633 29.5306 70.6633C31.0401 70.6633 31.7715 71.6453 32.6978 72.889C33.6868 74.2169 34.9178 75.8697 37.2855 75.8697C37.805 75.8697 38.2256 75.3793 38.2256 74.7749C38.2256 74.1699 37.805 73.68 37.2855 73.68C35.7761 73.68 35.0447 72.6975 34.1184 71.4538C33.1293 70.1259 31.8984 68.4736 29.5306 68.4736C27.1624 68.4736 25.9319 70.1264 24.9429 71.4538C24.0166 72.6975 23.2852 73.68 21.7753 73.68C21.4416 73.68 21.1422 73.6335 20.8604 73.5389C20.8114 73.5222 20.7687 73.5117 20.7183 73.5045C20.7112 73.5034 20.2074 73.4187 19.427 73.0269C20.0639 74.0093 20.7387 74.9542 21.4497 75.8575C21.5571 75.8647 21.6655 75.8697 21.7753 75.8697C24.143 75.8697 25.374 74.2169 26.363 72.889Z" fill="#0181FB"/>
<defs>
<linearGradient id="paint0_linear" x1="38.9834" y1="71.8279" x2="49.0166" y2="69.3374" gradientUnits="userSpaceOnUse">
<stop stop-color="#2AA4F4"/>
<stop offset="1" stop-color="#007AD9"/>
</linearGradient>
<linearGradient id="paint1_linear" x1="31.3148" y1="67.0336" x2="54.3127" y2="37.2372" gradientUnits="userSpaceOnUse">
<stop stop-color="#00CFFD"/>
<stop offset="1" stop-color="#E9FA66"/>
</linearGradient>
<linearGradient id="paint2_linear" x1="23.9951" y1="53.2157" x2="65.3487" y2="51.4007" gradientUnits="userSpaceOnUse">
<stop stop-color="#2AA4F4"/>
<stop offset="1" stop-color="#007AD9"/>
</linearGradient>
<linearGradient id="paint3_linear" x1="48.3765" y1="9.26557" x2="38.4782" y2="12.1163" gradientUnits="userSpaceOnUse">
<stop stop-color="#2AA4F4"/>
<stop offset="1" stop-color="#007AD9"/>
</linearGradient>
<linearGradient id="paint4_linear" x1="56.2097" y1="13.8252" x2="34.2407" y2="44.2609" gradientUnits="userSpaceOnUse">
<stop stop-color="#00CFFD"/>
<stop offset="1" stop-color="#E9FA66"/>
</linearGradient>
<linearGradient id="paint5_linear" x1="64.0429" y1="27.4334" x2="22.8943" y2="30.8238" gradientUnits="userSpaceOnUse">
<stop stop-color="#2AA4F4"/>
<stop offset="1" stop-color="#007AD9"/>
</linearGradient>
</defs>
</svg>
