<svg width="44" height="44" viewBox="0 0 44 44" fill="none" xmlns="http://www.w3.org/2000/svg">
<path d="M44 2.27586C44 1.01894 42.9811 0 41.7241 0H2.27586C1.01894 0 0 1.01894 0 2.27586V9.10345L7.58621 18.2069L0 35.6552V41.7241C0 42.9811 1.01894 44 2.27586 44H41.7241C42.9811 44 44 42.9811 44 41.7241V35.6552L36.4138 18.2069L44 9.10345V2.27586Z" fill="url(#paint0_linear)"/>
<path d="M44 35.6553H0L7.58621 18.207H36.4138L44 35.6553Z" fill="#15171A"/>
<path d="M44 9.10352H0L7.58621 18.207H36.4138L44 9.10352Z" fill="#232529" fill-opacity="0.51"/>
<path d="M16.6897 4.55176H27.3104V9.10348H16.6897V4.55176Z" fill="#15171A"/>
<path d="M16.6897 4.55176V9.10348H13.6552C12.8183 9.10098 12.1404 8.42315 12.1379 7.58624V6.069C12.1404 5.23209 12.8183 4.55426 13.6552 4.55176H16.6897Z" fill="#FFD200"/>
<path d="M31.862 6.069V7.58624C31.8595 8.42315 31.1817 9.10098 30.3448 9.10348H27.3103V4.55176H30.3448C31.1817 4.55426 31.8595 5.23209 31.862 6.069Z" fill="#FFD200"/>
<path d="M3.79297 35.6553H8.34469V37.9311C8.34469 38.7691 7.6654 39.4484 6.82745 39.4484H5.31021C4.47226 39.4484 3.79297 38.7691 3.79297 37.9311V35.6553Z" fill="#E10098"/>
<path d="M35.655 35.6553H40.2067V37.9311C40.2067 38.7691 39.5275 39.4484 38.6895 39.4484H37.1723C36.3343 39.4484 35.655 38.7691 35.655 37.9311V35.6553Z" fill="#E10098"/>
<path d="M5.31021 5.31104H6.82745C7.6654 5.31104 8.34469 5.99033 8.34469 6.82828V9.10414H3.79297V6.82828C3.79297 5.99033 4.47226 5.31104 5.31021 5.31104Z" fill="#E10098"/>
<path d="M37.1723 5.31055H38.6895C39.5275 5.31055 40.2067 5.98984 40.2067 6.82779V9.10365H35.655V6.82779C35.655 5.98984 36.3343 5.31055 37.1723 5.31055Z" fill="#E10098"/>
<path d="M19.7916 20.0727C18.6844 18.9663 16.8017 18.0441 15.5562 17.4336C15.3452 17.3307 15.1547 17.2379 14.993 17.1552C14.523 16.9159 13.8804 16.2533 14.1572 15.492C14.3435 14.9772 14.8163 14.7176 15.5644 14.7176C15.8042 14.7176 16.0673 14.7466 16.3482 14.8017C17.3238 14.9946 18.0637 15.3803 18.483 15.5993C18.5351 15.6268 18.5954 15.6297 18.6502 15.6094C18.6758 15.599 19.0511 15.3936 19.4348 15.1825C19.9211 14.915 20.1405 14.3337 19.9533 13.8112L19.7327 13.1951C19.7752 13.095 19.7423 12.9761 19.6546 12.9152C19.6546 12.9152 17.2882 11.7334 15.4109 11.7334C15.1396 11.7334 14.6066 11.7769 14.6066 11.7769C14.6066 11.7769 11.6113 12.3613 10.7809 14.3348C10.263 15.563 10.2643 16.9464 10.7823 17.944C11.3359 19.033 12.2429 19.5203 13.3912 20.1351L13.5392 20.2148C14.3682 20.6528 15.3616 21.14 16.0152 21.4605C16.9812 21.9535 17.3389 22.8293 17.1169 23.3571C16.7593 24.2083 15.9686 24.3954 14.6011 23.985C13.394 23.6385 12.2799 22.6597 11.9689 22.3682C11.9223 22.3247 11.8607 22.3044 11.7976 22.3131C11.7894 22.3142 11.7558 22.3284 11.7034 22.3523C10.6914 22.8142 10.1785 23.7153 10.1588 24.8275V24.8275C10.1026 24.9189 10.115 25.0392 10.189 25.1146C10.9604 25.902 11.5893 26.3602 12.6787 26.9272C13.4118 27.3086 14.4847 27.5377 15.5493 27.5377C16.662 27.5377 19.3792 27.2651 20.5713 24.7449C21.3317 23.1324 21.0481 21.4329 19.7916 20.0727Z" fill="url(#paint1_linear)"/>
<path d="M26.9154 28.8725C25.8082 27.7661 23.9255 26.8439 22.68 26.2334C22.4689 26.1305 22.2785 26.0377 22.1168 25.955C21.6468 25.7157 21.0042 25.0531 21.281 24.2918C21.4673 23.777 21.94 23.5174 22.6882 23.5174C22.928 23.5174 23.1911 23.5464 23.472 23.6015C24.4476 23.7944 25.1875 24.1801 25.6068 24.3991C25.6589 24.4266 25.7192 24.4295 25.774 24.4092C25.7996 24.3988 26.1748 24.1934 26.5586 23.9823C27.0449 23.7148 27.2643 23.1335 27.0771 22.611L26.8565 21.9949C26.8989 21.8948 26.866 21.7759 26.7784 21.715C26.7784 21.715 24.4119 20.5332 22.5347 20.5332C22.2634 20.5332 21.7304 20.5767 21.7304 20.5767C21.7304 20.5767 18.735 21.1611 17.9047 23.1346C17.3867 24.3628 17.3881 25.7462 17.9061 26.7438C18.4596 27.8328 19.3667 28.3201 20.515 28.9349L20.663 29.0146C21.492 29.4526 22.4854 29.9398 23.139 30.2603C24.105 30.7533 24.4626 31.6291 24.2407 32.1569C23.883 33.0081 23.0924 33.1952 21.7249 32.7848C20.5177 32.4383 19.4037 31.4595 19.0927 31.168C19.0461 31.1245 18.9844 31.1042 18.9214 31.1129C18.9132 31.1141 18.8796 31.1282 18.8272 31.1521C17.8152 31.614 17.3023 32.5151 17.2826 33.6273V33.6273C17.2264 33.7187 17.2387 33.839 17.3127 33.9144C18.0842 34.7018 18.7131 35.16 19.8025 35.727C20.5355 36.1084 21.6084 36.3375 22.6731 36.3375C23.7857 36.3375 26.5029 36.0649 27.695 33.5447C28.4555 31.9322 28.1719 30.2327 26.9154 28.8725Z" fill="#E9FA66"/>
<path d="M33.6202 19.584C32.5131 18.4776 30.6303 17.5553 29.3848 16.9448C29.1738 16.8419 28.9833 16.7491 28.8216 16.6664C28.3516 16.4272 27.709 15.7645 27.9858 15.0032C28.1721 14.4884 28.6449 14.2289 29.393 14.2289C29.6328 14.2289 29.8959 14.2579 30.1768 14.313C31.1524 14.5058 31.8923 14.8916 32.3116 15.1105C32.3637 15.1381 32.424 15.141 32.4788 15.1207C32.5044 15.1102 32.8797 14.9048 33.2634 14.6938C33.7497 14.4263 33.9691 13.845 33.782 13.3224L33.5613 12.7063C33.6038 12.6062 33.5709 12.4873 33.4832 12.4264C33.4832 12.4264 31.1168 11.2446 29.2396 11.2446C28.9682 11.2446 28.4352 11.2881 28.4352 11.2881C28.4352 11.2881 25.4399 11.8725 24.6095 13.8461C24.0916 15.0743 24.0929 16.4576 24.6109 17.4553C25.1645 18.5443 26.0716 19.0315 27.2198 19.6463L27.3678 19.7261C28.1968 20.164 29.1902 20.6512 29.8438 20.9717C30.8098 21.4647 31.1675 22.3406 30.9455 22.8684C30.5879 23.7196 29.7972 23.9066 28.4297 23.4963C27.2226 23.1497 26.1086 22.1709 25.7975 21.8794C25.7509 21.8359 25.6893 21.8156 25.6262 21.8243C25.6181 21.8255 25.5844 21.8397 25.5321 21.8636C24.52 22.3254 24.0071 23.2265 23.9874 24.3387V24.3387C23.9313 24.4301 23.9436 24.5505 24.0176 24.6259C24.789 25.4132 25.418 25.8715 26.5073 26.4384C27.2404 26.8198 28.3133 27.0489 29.3779 27.0489C30.4906 27.0489 33.2078 26.7763 34.3999 24.2561C35.1604 22.6436 34.8767 20.9441 33.6202 19.584Z" fill="#E10098"/>
<defs>
<linearGradient id="paint0_linear" x1="6.72112" y1="1.69788" x2="45.2313" y2="32.7162" gradientUnits="userSpaceOnUse">
<stop stop-color="#2AA4F4"/>
<stop offset="1" stop-color="#007AD9"/>
</linearGradient>
<linearGradient id="paint1_linear" x1="6079.85" y1="-524189" x2="12690.1" y2="-524189" gradientUnits="userSpaceOnUse">
<stop stop-color="#2D6DD0"/>
<stop offset="0.99" stop-color="#6C139C"/>
</linearGradient>
</defs>
</svg>
