<svg width="88" height="88" viewBox="0 0 88 88" fill="none" xmlns="http://www.w3.org/2000/svg">
<path d="M38.8549 55.6246C37.6504 54.4298 36.9705 53.0503 36.0506 51.0873C34.7111 48.2285 31.8956 44.7782 27.9046 43.9442L33.9267 56.2281L38.8549 55.6246Z" fill="#DBD9DC"/>
<path d="M45.7205 77.0001C40.1721 73.8173 37.9514 70.3597 37.9514 70.3597L48.4144 70.7509L47.8278 76.29C47.7447 77.1807 46.6464 77.5314 45.7205 77.0001Z" fill="url(#paint0_linear)"/>
<path d="M58.444 67.7392C52.0398 73.6318 40.6708 73.5962 32.1656 67.6642C29.0016 65.4574 25.6602 61.5512 24.7585 58.6274C23.3856 54.1753 24.4559 51.9891 25.2202 51.0788C25.5698 50.6625 25.6414 50.0882 25.4525 49.5279C24.2353 45.9163 24.7169 44.133 25.4174 43.2565C25.9256 42.6207 27.1015 42.7696 27.71 43.5016C31.3314 47.8572 33.0091 52.2578 33.688 54.4966C33.9132 55.2393 34.7825 55.7701 35.5633 55.6104C40.7243 54.5547 46.0116 56.8685 48.9471 58.5154L49.016 58.4638C50.1944 58.2763 51.3118 57.8834 52.3074 57.277C57.6997 53.9924 57.0799 46.8591 51.7027 42.7087C50.6281 41.8794 49.2808 40.9148 48.0917 40.1362L40.9956 38.3866C40.6641 38.3049 40.5584 37.9093 40.8379 37.7892C41.8457 37.3562 43.731 36.719 45.7891 36.8977C46.2126 36.9345 46.5262 36.6447 46.4562 36.2671C46.1 34.3478 46.315 32.7125 46.5203 31.7725C46.5836 31.4824 47.0472 31.4996 47.1964 31.7955L50.6041 38.5526C52.1844 39.6369 53.8932 40.8843 54.656 41.473C64.1047 48.766 65.9717 60.8127 58.444 67.7392Z" fill="#E9FA66"/>
<path d="M25.4173 43.2575C25.9255 42.6217 27.1013 42.7707 27.7099 43.5026C31.3312 47.8583 33.009 52.2588 33.6878 54.4977C33.913 55.2404 34.7824 55.7712 35.5632 55.6115C40.7242 54.5558 46.0115 56.8696 48.947 58.5164L49.0159 58.4649C50.1943 58.2773 51.3117 57.8844 52.3073 57.2781C57.6996 53.9935 57.0798 46.8601 51.7025 42.7098C50.628 41.8804 49.2807 40.9158 48.0916 40.1373L40.9956 38.3877C40.6641 38.3059 40.5583 37.9104 40.8378 37.7902C41.8457 37.3573 43.7309 36.72 45.789 36.8988C46.2125 36.9356 46.5261 36.6458 46.456 36.2682C46.0999 34.3489 46.3149 32.7137 46.5201 31.7736C46.5834 31.4836 47.047 31.5007 47.1963 31.7967L50.604 38.5538C52.1843 39.638 53.8931 40.8854 54.6559 41.4742C56.9362 43.2342 58.7703 45.2726 60.1419 47.4476C66.5396 61.7899 52.6194 68.7935 44.1184 67.2428C33.1082 65.2344 26.998 55.4815 25.4525 49.529C24.235 45.9174 24.7167 44.1341 25.4173 43.2575Z" fill="url(#paint1_linear)"/>
<path d="M49.4324 64.2821C47.0416 64.759 44.4613 64.7142 41.9188 64.0258C41.4348 63.8948 40.9612 63.7164 40.5044 63.4997C40.1429 63.3283 40.055 62.8947 40.3446 62.7118C43.8286 60.5112 48.9642 63.5684 51.1341 60.2195C51.2188 60.0887 51.1591 59.9004 51.0012 59.7956C50.6111 59.5367 49.8357 59.0351 48.8596 58.4712C50.0381 58.2836 51.3118 57.8838 52.3073 57.2775C57.6996 53.9928 57.0798 46.8595 51.7025 42.7092C50.628 41.8798 49.2807 40.9152 48.0916 40.1367C64.8211 48.0601 60.8105 62.0124 49.4324 64.2821Z" fill="#DBD9DC"/>
<path d="M32.3996 56.2592C31.7551 55.7617 30.8586 55.7637 30.3972 56.2635L29.9795 56.716C29.5182 57.2159 29.6667 58.0244 30.3111 58.5218C30.9556 59.0192 31.8521 59.0173 32.3135 58.5174L32.7311 58.0649C33.1925 57.5651 33.044 56.7566 32.3996 56.2592Z" fill="#4B3F4E"/>
<path d="M31.5643 57.1643C31.8867 57.4131 31.9609 57.8174 31.7302 58.0674C31.4994 58.3174 31.0511 58.3184 30.7288 58.0696C30.4064 57.8208 30.3322 57.4165 30.5629 57.1665C30.7937 56.9165 31.242 56.9155 31.5643 57.1643Z" fill="white"/>
<path d="M58.9603 68.1887C56.3346 70.6046 52.8126 72.1239 48.8557 72.5842L48.4958 76.4338C48.4385 77.0467 48.032 77.5386 47.4083 77.7496C46.7832 77.9611 46.0344 77.8589 45.4053 77.4764C40.3839 74.4234 38.1362 71.6393 37.8159 71.2233C35.7005 70.4575 33.6708 69.4118 31.8061 68.1113C28.3265 65.6842 25.0185 61.6365 24.1115 58.6955C22.6652 54.0055 23.8333 51.657 24.6582 50.6746C24.8897 50.3989 24.9451 50.0114 24.8104 49.6113C23.7674 46.5171 23.7691 44.2602 24.8152 42.9033C25.1657 42.4487 25.7553 42.2189 26.4329 42.2729C27.1185 42.3275 27.7893 42.6749 28.2276 43.202C28.334 43.33 28.4383 43.4581 28.5415 43.5861C29.9972 43.9567 31.3127 44.6613 32.4622 45.5486C34.3675 47.0191 35.8177 48.9889 36.6994 50.7617C37.6044 52.5814 38.2338 53.7689 39.2598 54.7902C41.5537 54.9477 44.0098 55.5816 46.5262 56.677C47.4226 57.0671 48.2316 57.4734 48.9282 57.8534C50.0029 57.6667 50.9918 57.3015 51.8694 56.767C54.2288 55.3299 55.5064 52.9749 55.3748 50.3058C55.2433 47.6388 53.762 45.0242 51.3107 43.1322C50.2517 42.3148 48.9763 41.4039 47.8727 40.6761L39.9916 38.7329C39.7238 38.6669 39.5009 38.4692 39.4255 38.2312C39.3502 37.993 39.4372 37.7606 39.6462 37.641C39.762 37.5749 42.5202 36.0227 45.7468 36.3037C45.7677 36.3055 45.7799 36.2984 45.7864 36.292C45.7955 36.2832 45.7942 36.276 45.7934 36.2713C45.2113 33.1372 46.0745 30.7526 46.1115 30.6526C46.1931 30.4323 46.4283 30.3018 46.704 30.3235C46.864 30.3362 47.0188 30.3988 47.1437 30.4952C47.234 30.5648 47.3087 30.6523 47.3587 30.7514L51.124 38.2177C52.6063 39.2396 54.2614 40.4446 55.0456 41.0499C57.4378 42.8962 59.4009 45.06 60.8806 47.4811C62.3098 49.8197 63.2201 52.2818 63.586 54.7991C63.9513 57.3119 63.7529 59.7368 62.9964 62.0067C62.2088 64.3692 60.851 66.4491 58.9603 68.1887ZM46.0334 76.5244C46.2656 76.6656 46.5316 76.7017 46.7628 76.6234C46.9928 76.5456 47.1367 76.372 47.1578 76.1468L47.4801 72.7003C47.0564 72.7228 46.6289 72.7344 46.1974 72.7331C44.1283 72.727 42.0453 72.4449 40.0139 71.909C41.1196 73.0154 43.0648 74.7196 46.0334 76.5244ZM35.4846 51.0892C34.409 48.9266 32.4151 46.443 29.785 45.2338C32.425 48.9715 33.7461 52.4945 34.3329 54.4295C34.3923 54.6253 34.5391 54.8031 34.7355 54.9168C34.9234 55.0258 35.1327 55.0642 35.3248 55.0251C36.073 54.8727 36.8508 54.7848 37.6529 54.7595C36.8459 53.7678 36.2563 52.641 35.4846 51.0892ZM61.7033 61.5044C62.411 59.3811 62.5965 57.1122 62.2548 54.7609C61.9124 52.4049 61.0608 50.101 59.7235 47.913C58.3395 45.6485 56.5027 43.6242 54.2642 41.8965C53.4683 41.2821 51.7493 40.0322 50.2501 39.0036C50.14 38.9284 50.0527 38.83 49.9973 38.7199L47.0314 32.8391C46.914 33.7361 46.8699 34.9332 47.1175 36.2664C47.1814 36.6113 47.0797 36.9425 46.8383 37.1752C46.5936 37.4111 46.2271 37.5267 45.8326 37.4923C44.3678 37.3647 42.9767 37.6935 41.9818 38.0367L48.1689 39.5622C48.2503 39.5822 48.3287 39.6156 48.4012 39.6593L48.4016 39.6586C49.8358 40.523 51.1383 41.4072 52.3074 42.3096C54.8226 44.2511 56.7189 46.2753 57.9663 48.3554C59.5731 51.0352 60.0688 53.8108 59.3996 56.3823C58.6921 59.101 56.721 61.5199 53.8492 63.1933C51.0865 64.8031 47.7204 65.5469 44.6141 65.2339C44.2439 65.1966 43.9292 64.9008 43.9112 64.573C43.8933 64.2453 44.179 64.0099 44.5492 64.0472C47.372 64.3316 50.4499 63.6445 52.9938 62.1622C55.6358 60.6228 57.4453 58.4133 58.0886 55.941C58.7732 53.3101 58.1216 50.5821 56.2273 47.8958C56.5071 48.7297 56.6735 49.5856 56.716 50.4465C56.8657 53.4823 55.4174 56.158 52.7428 57.7873C52.0514 58.2084 51.2994 58.5374 50.4957 58.771C51.2039 59.216 51.6172 59.5211 51.6545 59.5489C51.9248 59.7511 52.0217 60.0707 51.8873 60.3122C50.5713 62.6733 48.1076 62.567 45.7252 62.4642C43.9915 62.3893 42.3398 62.318 40.9627 63.0911C41.2347 63.216 41.5135 63.33 41.7971 63.432C42.1571 63.5617 42.3768 63.9125 42.2881 64.2158C42.1994 64.5192 41.8355 64.66 41.4757 64.5305C40.7754 64.2785 40.1001 63.9637 39.4684 63.5948C39.2828 63.4861 39.1504 63.3142 39.1107 63.1292C39.0711 62.9442 39.1284 62.767 39.2657 62.6496C41.1049 61.0785 43.4788 61.1809 45.5733 61.2712C47.6655 61.3615 49.355 61.4344 50.3943 60.0663C48.5632 58.8496 42.0397 54.9246 35.8183 56.1921C35.2756 56.3026 34.6632 56.1913 34.1378 55.8867C33.6015 55.5755 33.2011 55.0921 33.0398 54.5604C32.3759 52.3716 30.7337 48.0641 27.194 43.806C27.0298 43.6081 26.7876 43.483 26.53 43.4625C26.2906 43.4433 26.0835 43.523 25.9616 43.6811C25.3864 44.4271 24.9423 46.0326 26.0924 49.4449C26.347 50.2006 26.2331 50.9436 25.7798 51.4833C25.0809 52.3156 24.1027 54.3416 25.4032 58.5595C26.2166 61.1972 29.3437 64.9995 32.5228 67.2173C36.4987 69.9903 41.2799 71.5251 45.9857 71.539C50.6922 71.5529 54.9324 70.0439 57.9253 67.2901C59.6956 65.661 60.9667 63.7143 61.7033 61.5044Z" fill="black"/>
<path d="M29.9193 58.9431C28.9749 58.2141 28.7566 57.0252 29.4326 56.2928L29.8503 55.8402C30.5264 55.1078 31.8447 55.1049 32.7891 55.8338C33.7336 56.5628 33.9518 57.7517 33.2758 58.4841L32.8581 58.9367C32.182 59.6691 30.8637 59.672 29.9193 58.9431ZM32.1842 57.6417C32.4294 57.376 32.3502 56.9449 32.0077 56.6805C31.6651 56.4161 31.187 56.4171 30.9418 56.6828L30.5241 57.1353C30.2789 57.401 30.3581 57.8321 30.7006 58.0965C31.0432 58.3609 31.5213 58.3599 31.7665 58.0942L32.1842 57.6417Z" fill="black"/>
<path d="M49.1308 25.4915C50.3782 26.6501 51.1096 28.0101 52.1028 29.9471C53.5491 32.7678 56.4902 36.1342 60.5024 36.8432L54.0223 24.7312L49.1308 25.4915Z" fill="#DBD9DC"/>
<path d="M41.4586 4.30056C47.1148 7.31268 49.4629 10.7052 49.4629 10.7052L39.0135 10.6445L39.3844 5.07843C39.433 4.18376 40.5147 3.79783 41.4586 4.30056Z" fill="url(#paint2_linear)"/>
<path d="M29.1281 13.9789C35.2871 7.87474 46.6264 7.55062 55.3374 13.2226C58.578 15.3325 62.0612 19.139 63.0733 22.0387C64.6146 26.4541 63.6317 28.6774 62.9046 29.6133C62.572 30.0413 62.5228 30.6188 62.7328 31.174C64.0862 34.7525 63.6749 36.5538 63.0101 37.4538C62.5279 38.1066 61.3495 37.9947 60.7143 37.2809C56.9346 33.0332 55.0915 28.6791 54.328 26.4583C54.0747 25.7216 53.1872 25.2175 52.4147 25.4021C47.3086 26.6228 41.9464 24.4727 38.9553 22.9163L38.8886 22.9701C37.7207 23.1952 36.6215 23.6241 35.6521 24.2629C30.4014 27.7231 31.2951 34.8476 36.818 38.8341C37.9216 39.6308 39.3025 40.5542 40.5184 41.2963L47.6627 42.8241C47.9964 42.8954 48.1172 43.2883 47.843 43.4174C46.8547 43.8829 44.9992 44.5807 42.9398 44.4668C42.5161 44.4434 42.2146 44.7435 42.299 45.1195C42.7283 47.0305 42.5771 48.675 42.4087 49.623C42.3567 49.9155 41.8938 49.913 41.7336 49.6213L38.0741 42.9618C36.4562 41.9259 34.7039 40.7307 33.9205 40.1652C24.2158 33.1601 21.8885 21.1542 29.1281 13.9789Z" fill="#E9FA66"/>
<path d="M63.0098 37.4537C62.5276 38.1065 61.3492 37.9945 60.714 37.2807C56.9343 33.0331 55.0911 28.679 54.3277 26.4581C54.0744 25.7214 53.1869 25.2173 52.4144 25.402C47.3083 26.6226 41.9461 24.4726 38.955 22.9161L38.8883 22.9699C37.7204 23.1951 36.6212 23.6239 35.6518 24.2627C30.4011 27.7229 31.2948 34.8475 36.8177 38.834C37.9213 39.6306 39.3022 40.554 40.5181 41.2961L47.6623 42.8239C47.9961 42.8953 48.1168 43.2881 47.8427 43.4172C46.8543 43.8827 44.9989 44.5806 42.9395 44.4667C42.5158 44.4432 42.2142 44.7434 42.2987 45.1193C42.728 47.0303 42.5768 48.6748 42.4084 49.6228C42.3565 49.9152 41.8935 49.9128 41.7332 49.6211L38.0737 42.9615C36.4559 41.9256 34.7036 40.7304 33.9201 40.1649C31.5781 38.4744 29.6703 36.4909 28.2184 34.3561C21.2841 20.1944 34.8956 12.7397 43.4333 14.0237C54.491 15.6867 60.9612 25.2611 62.7324 31.1737C64.0861 34.7523 63.6747 36.5536 63.0098 37.4537Z" fill="url(#paint3_linear)"/>
<path d="M38.2482 17.1546C40.614 16.6013 43.189 16.5645 45.7512 17.1734C46.2389 17.2893 46.718 17.4531 47.182 17.6556C47.5491 17.8158 47.6535 18.2473 47.3718 18.4397C43.9823 20.7538 38.7427 17.8545 36.7081 21.2771C36.6287 21.4108 36.6955 21.5975 36.857 21.6974C37.2561 21.9445 38.0487 22.4222 39.0439 22.9562C37.876 23.1813 36.6212 23.622 35.6518 24.2608C30.4011 27.721 31.2949 34.8456 36.8177 38.8321C37.9214 39.6287 39.3022 40.5521 40.5182 41.2942C23.5283 33.8881 26.9889 19.7877 38.2482 17.1546Z" fill="#DBD9DC"/>
<path d="M55.5451 24.6526C56.2071 25.1303 57.1011 25.1 57.5418 24.5848L57.9409 24.1184C58.3817 23.6032 58.2024 22.7982 57.5404 22.3204C56.8785 21.8426 55.9845 21.8729 55.5438 22.3881L55.1447 22.8545C54.7039 23.3697 54.8832 24.1748 55.5451 24.6526Z" fill="#4B3F4E"/>
<path d="M56.3426 23.7182C56.0115 23.4792 55.9219 23.0766 56.1423 22.819C56.3628 22.5613 56.8099 22.5461 57.1409 22.7851C57.472 23.0241 57.5616 23.4267 57.3412 23.6843C57.1207 23.942 56.6737 23.9571 56.3426 23.7182Z" fill="white"/>
<path d="M28.5953 13.5445C31.1205 11.0418 34.5741 9.40875 38.5023 8.82252L38.7126 4.95571C38.746 4.34002 39.1325 3.83453 39.7462 3.60354C40.3615 3.37193 41.1121 3.45052 41.7543 3.81374C46.88 6.71247 49.2291 9.42972 49.5645 9.83622C51.7037 10.5362 53.7683 11.5192 55.6781 12.7627C59.2419 15.0834 62.6973 19.0326 63.7154 21.9493C65.3389 26.6008 64.2648 28.9898 63.48 29.9997C63.2599 30.2832 63.2196 30.673 63.3694 31.0695C64.529 34.1354 64.6146 36.3958 63.6238 37.7878C63.2918 38.2543 62.7126 38.5031 62.0348 38.4703C61.349 38.4373 60.6666 38.1107 60.2092 37.5966C60.0981 37.4718 59.9891 37.3469 59.8813 37.2219C58.4152 36.8968 57.0761 36.2328 55.8954 35.3805C53.9386 33.968 52.4163 32.0411 51.4685 30.2936C50.4957 28.4997 49.8221 27.3303 48.7595 26.34C46.4658 26.2548 43.9919 25.6976 41.44 24.6802C40.531 24.3178 39.7085 23.9366 38.9992 23.578C37.9346 23.799 36.9625 24.196 36.108 24.7591C33.8106 26.2731 32.6275 28.6721 32.8618 31.3411C33.096 34.008 34.6742 36.5797 37.1919 38.397C38.2796 39.1821 39.5867 40.054 40.7154 40.748L48.65 42.4448C48.9197 42.5024 49.1496 42.6934 49.2339 42.9294C49.3183 43.1656 49.2405 43.401 49.0366 43.5274C48.9237 43.5973 46.2331 45.2391 43.0044 45.0598C42.9835 45.0587 42.9716 45.0662 42.9654 45.0728C42.9566 45.0819 42.9582 45.0891 42.9592 45.0937C43.6608 48.2142 42.8921 50.6297 42.859 50.731C42.7861 50.9542 42.5567 51.0924 42.2808 51.0794C42.1208 51.0717 41.9641 51.014 41.8357 50.9213C41.743 50.8544 41.6652 50.7692 41.6115 50.6716L37.568 43.3131C36.0502 42.3365 34.3532 41.1821 33.5477 40.6007C31.0908 38.8272 29.0494 36.7222 27.4802 34.3443C25.9646 32.0474 24.9617 29.6103 24.4995 27.1008C24.0382 24.5957 24.1423 22.1608 24.8091 19.8636C25.5032 17.4726 26.777 15.3465 28.5953 13.5445ZM41.1647 4.78703C40.9277 4.65301 40.6611 4.62523 40.4335 4.71095C40.2071 4.79618 40.0703 4.97463 40.058 5.20081L39.8698 8.66278C40.2914 8.62679 40.7173 8.60167 41.1477 8.58928C43.2113 8.52991 45.2995 8.74661 47.3461 9.219C46.2007 8.14588 44.1949 6.50066 41.1647 4.78703ZM52.6673 29.9271C53.8235 32.059 55.9079 34.4832 58.5775 35.6111C55.8004 31.9512 54.3468 28.4647 53.6868 26.5453C53.62 26.351 53.4668 26.1777 53.2665 26.07C53.0749 25.9668 52.8647 25.9349 52.6746 25.9802C51.9343 26.1565 51.162 26.2691 50.3631 26.3199C51.2062 27.2875 51.8378 28.3974 52.6673 29.9271ZM26.118 20.3257C25.4942 22.4747 25.3969 24.7529 25.8285 27.0969C26.261 29.4457 27.1993 31.7261 28.6175 33.8752C30.0852 36.0993 31.9951 38.0685 34.2943 39.7281C35.1117 40.3181 36.8743 41.5156 38.4091 42.4983C38.5218 42.5702 38.6127 42.6659 38.6722 42.7744L41.8571 48.5703C41.9396 47.6682 41.9374 46.4679 41.6389 45.1405C41.5618 44.7971 41.6505 44.4622 41.8823 44.2215C42.1171 43.9775 42.4782 43.8501 42.8729 43.8721C44.3387 43.9535 45.7133 43.5802 46.6922 43.205L40.4631 41.873C40.3811 41.8555 40.3016 41.8246 40.2277 41.7831L40.2272 41.7838C38.7636 40.9635 37.4306 40.1192 36.2298 39.2523C33.6464 37.3875 31.6771 35.4202 30.3528 33.3764C28.6469 30.7434 28.0453 27.9793 28.6133 25.3827C29.2138 22.6375 31.0861 20.1525 33.8854 18.3857C36.5783 16.686 39.9064 15.8346 43.0163 16.0498C43.3869 16.0754 43.7123 16.3618 43.7428 16.6895C43.7734 17.0171 43.4975 17.2619 43.1269 17.2362C40.3008 17.0408 37.2579 17.8263 34.7782 19.3913C32.2029 21.0167 30.4838 23.2868 29.9377 25.7832C29.3567 28.4398 30.1119 31.1513 32.1048 33.7817C31.7935 32.9554 31.5945 32.1034 31.5189 31.2426C31.2523 28.2069 32.5932 25.4814 35.1976 23.765C35.8708 23.3213 36.6081 22.968 37.4005 22.7086C36.6771 22.2854 36.2531 21.9928 36.2148 21.9662C35.9374 21.7722 35.8285 21.4552 35.9532 21.2092C37.1744 18.8028 39.6354 18.8313 42.0153 18.8589C43.7471 18.879 45.3971 18.8982 46.7405 18.0803C46.4644 17.9638 46.182 17.8585 45.8952 17.7653C45.5312 17.6468 45.2985 17.3024 45.3753 16.9959C45.4521 16.6892 45.8094 16.5366 46.1733 16.6549C46.8814 16.8852 47.5671 17.1791 48.2113 17.5286C48.4006 17.6316 48.5393 17.7995 48.586 17.9836C48.6326 18.1676 48.5824 18.3469 48.4499 18.4688C46.6765 20.1005 44.3051 20.073 42.2128 20.0489C40.1229 20.0246 38.4352 20.0051 37.4516 21.4082C39.3247 22.5688 45.9819 26.2933 52.1374 24.827C52.6743 24.6991 53.2893 24.7912 53.825 25.0797C54.372 25.3744 54.7899 25.8459 54.9713 26.3732C55.7179 28.5444 57.5221 32.8065 61.2166 36.959C61.388 37.152 61.6343 37.2697 61.892 37.2821C62.1315 37.2936 62.335 37.2073 62.4504 37.0451C62.9952 36.2798 63.3761 34.6578 62.0973 31.2767C61.8142 30.528 61.8991 29.7802 62.3303 29.2253C62.9951 28.3696 63.8924 26.3095 62.4325 22.1265C61.5194 19.5104 58.254 15.8013 54.9979 13.6808C50.9257 11.0294 46.0984 9.6435 41.4049 9.77849C36.7108 9.91351 32.5404 11.559 29.6621 14.4116C27.9596 16.0993 26.7672 18.0891 26.118 20.3257Z" fill="black"/>
<path d="M57.9143 21.8845C58.8843 22.5847 59.1479 23.7685 58.5021 24.5235L58.103 24.9899C57.4571 25.7449 56.1425 25.7894 55.1725 25.0893C54.2025 24.3891 53.9389 23.2052 54.5847 22.4503L54.9838 21.9839C55.6297 21.2289 56.9443 21.1844 57.9143 21.8845ZM55.7059 23.2595C55.4717 23.5334 55.5673 23.9627 55.9191 24.2166C56.2709 24.4706 56.7477 24.4544 56.9819 24.1806L57.381 23.7141C57.6152 23.4403 57.5196 23.011 57.1678 22.7571C56.816 22.5031 56.3392 22.5193 56.105 22.7931L55.7059 23.2595Z" fill="black"/>
<path d="M75.9372 59.3506C72.059 59.3506 72.059 64.557 68.1813 64.557C64.3037 64.557 64.3037 59.3506 60.4255 59.3506C56.5483 59.3506 56.5483 64.557 52.6701 64.557C48.7929 64.557 48.7929 59.3506 44.9153 59.3506C41.0376 59.3506 41.0376 64.557 37.1604 64.557C33.2827 64.557 33.2827 59.3506 29.4055 59.3506C25.5278 59.3506 25.5278 64.557 21.6501 64.557C17.7729 64.557 17.7729 59.3506 13.8952 59.3506H13.7517C17.4388 75.8509 29.9943 88.0006 44.9162 88.0006C59.791 88.0006 72.3142 75.9278 76.0455 59.5072L75.9372 59.3506Z" fill="#56B8FF"/>
<path d="M75.9373 59.3496C72.0591 59.3496 72.0591 64.556 68.1815 64.556C68.0104 64.556 67.8493 64.5427 67.6929 64.5228C63.1959 77.1202 53.2857 86.2759 41.4692 87.7815C42.6018 87.9254 43.7519 87.9996 44.9163 87.9996C59.7912 87.9996 72.3144 75.9268 76.0457 59.5063L75.9373 59.3496Z" fill="#60B6FF"/>
<path d="M65.8256 78.7245C65.6835 78.5418 65.5447 78.3547 65.4055 78.1682C64.4165 76.8403 63.1855 75.1875 60.8178 75.1875C58.45 75.1875 57.219 76.8403 56.23 78.1682C55.3037 79.4119 54.5723 80.3939 53.0624 80.3939C52.5429 80.3939 52.1223 80.8843 52.1223 81.4887C52.1223 82.0932 52.5429 82.5836 53.0624 82.5836C55.4302 82.5836 56.6611 80.9308 57.6501 79.6029C58.5764 78.3591 59.3083 77.3772 60.8178 77.3772C62.3277 77.3772 63.0591 78.3597 63.9854 79.6029C64.1213 79.7856 64.2577 79.9677 64.3979 80.1487C64.8922 79.6992 65.3751 79.2326 65.8465 78.7505L65.8256 78.7245Z" fill="#0181FB"/>
<path d="M26.3634 72.889C27.2897 71.6453 28.0211 70.6633 29.531 70.6633C31.0405 70.6633 31.7719 71.6453 32.6982 72.889C33.6872 74.2169 34.9181 75.8697 37.2859 75.8697C37.8054 75.8697 38.226 75.3793 38.226 74.7749C38.226 74.1699 37.8054 73.68 37.2859 73.68C35.7765 73.68 35.045 72.6975 34.1187 71.4538C33.1297 70.1259 31.8988 68.4736 29.531 68.4736C27.1628 68.4736 25.9323 70.1264 24.9433 71.4538C24.017 72.6975 23.2856 73.68 21.7756 73.68C21.442 73.68 21.1426 73.6335 20.8608 73.5389C20.8118 73.5222 20.769 73.5117 20.7187 73.5045C20.7115 73.5034 20.2078 73.4187 19.4274 73.0269C20.0642 74.0093 20.7391 74.9542 21.4501 75.8575C21.5575 75.8647 21.6659 75.8697 21.7756 75.8697C24.1434 75.8697 25.3743 74.2169 26.3634 72.889Z" fill="#0181FB"/>
<defs>
<linearGradient id="paint0_linear" x1="38.9837" y1="71.8288" x2="49.0169" y2="69.3384" gradientUnits="userSpaceOnUse">
<stop stop-color="#2AA4F4"/>
<stop offset="1" stop-color="#007AD9"/>
</linearGradient>
<linearGradient id="paint1_linear" x1="23.9953" y1="53.2167" x2="65.349" y2="51.4017" gradientUnits="userSpaceOnUse">
<stop stop-color="#2AA4F4"/>
<stop offset="1" stop-color="#007AD9"/>
</linearGradient>
<linearGradient id="paint2_linear" x1="48.3767" y1="9.26655" x2="38.4785" y2="12.1172" gradientUnits="userSpaceOnUse">
<stop stop-color="#2AA4F4"/>
<stop offset="1" stop-color="#007AD9"/>
</linearGradient>
<linearGradient id="paint3_linear" x1="64.0431" y1="27.4344" x2="22.8946" y2="30.8247" gradientUnits="userSpaceOnUse">
<stop stop-color="#2AA4F4"/>
<stop offset="1" stop-color="#007AD9"/>
</linearGradient>
</defs>
</svg>
