<svg width="44" height="44" viewBox="0 0 44 44" fill="none" xmlns="http://www.w3.org/2000/svg">
<rect x="0.5" y="0.5" width="43" height="43" fill="black" fill-opacity="0.2"/>
<path d="M12.7318 35.8938C12.7284 35.8803 12.7261 35.8665 12.725 35.8525C11.1955 37.8964 9.8366 40.0624 8.66184 42.3288C8.59829 42.4906 8.5984 42.6705 8.66214 42.8322C8.72588 42.9939 8.84852 43.1255 9.00538 43.2005C9.16223 43.2754 9.34165 43.2881 9.50752 43.2361C9.67339 43.1841 9.81339 43.0711 9.89934 42.92C11.0664 40.6754 12.4188 38.5321 13.9425 36.5125C13.7363 36.4919 13.5232 36.4575 13.3093 36.43C13.1697 36.4106 13.0394 36.3488 12.9361 36.2529C12.8328 36.157 12.7615 36.0316 12.7318 35.8938V35.8938Z" fill="#C4A2FC"/>
<path d="M42.9495 9.79051C42.9745 9.68916 42.9762 9.58344 42.9543 9.48136C42.9324 9.37928 42.8876 9.28353 42.8232 9.20137C42.7588 9.11921 42.6765 9.05279 42.5826 9.00716C42.4887 8.96153 42.3856 8.93788 42.2812 8.93801C37.7113 8.86666 33.1925 9.90765 29.1144 11.9713C25.0362 14.0349 21.5211 17.0592 18.8719 20.7836C18.4598 19.8684 18.2376 18.8791 18.2187 17.8755C18.2187 17.7312 18.1733 17.5906 18.089 17.4735C18.0046 17.3565 17.8855 17.2689 17.7486 17.2233C17.6118 17.1777 17.464 17.1763 17.3262 17.2193C17.1885 17.2623 17.0678 17.3476 16.9812 17.463C10.8205 25.6718 12.5668 35.0561 12.7249 35.8536C17.7012 29.0794 23.8596 23.2592 30.9038 18.673C31.057 18.5727 31.2437 18.5374 31.4229 18.5748C31.6021 18.6122 31.7591 18.7192 31.8594 18.8724C31.9597 19.0255 31.995 19.2123 31.9577 19.3915C31.9203 19.5707 31.8132 19.7277 31.6601 19.828C24.8048 24.2867 18.8041 29.9379 13.9425 36.5136C15.3879 36.7009 16.8438 36.795 18.3012 36.7955C29.4188 36.7955 34.3344 30.9655 34.5613 30.6836C34.6493 30.5758 34.7024 30.4438 34.7138 30.3051C34.7251 30.1664 34.6941 30.0275 34.6248 29.9068C34.5555 29.7861 34.4512 29.6892 34.3257 29.6291C34.2002 29.5689 34.0594 29.5483 33.9219 29.5699C32.7017 29.8177 31.4443 29.8201 30.2232 29.5768C39.0301 25.0874 42.7845 10.4436 42.9495 9.79051V9.79051Z" fill="url(#paint0_linear)"/>
<g style="mix-blend-mode:darken">
<path d="M29.9062 0.6875H7.90625C6.63034 0.688956 5.40711 1.19645 4.50491 2.09866C3.6027 3.00086 3.09521 4.22409 3.09375 5.5V26.8125H1.71875C1.53641 26.8125 1.36155 26.8849 1.23261 27.0139C1.10368 27.1428 1.03125 27.3177 1.03125 27.5C1.03271 28.7759 1.5402 29.9991 2.44241 30.9013C3.34461 31.8035 4.56784 32.311 5.84375 32.3125H21.6562C22.9322 32.311 24.1554 31.8035 25.0576 30.9013C25.9598 29.9991 26.4673 28.7759 26.4687 27.5V6.1875H34.0312C34.2136 6.1875 34.3885 6.11507 34.5174 5.98614C34.6463 5.8572 34.7187 5.68234 34.7187 5.5C34.7173 4.22409 34.2098 3.00086 33.3076 2.09866C32.4054 1.19645 31.1822 0.688956 29.9062 0.6875ZM5.84375 30.9375C5.05164 30.9364 4.28413 30.6623 3.67052 30.1614C3.0569 29.6604 2.63469 28.9633 2.475 28.1875H16.8926C17.0438 29.2329 17.5353 30.1994 18.2909 30.9375H5.84375ZM25.0937 27.5C25.0937 28.4117 24.7316 29.286 24.0869 29.9307C23.4423 30.5753 22.5679 30.9375 21.6562 30.9375C20.7446 30.9375 19.8702 30.5753 19.2256 29.9307C18.5809 29.286 18.2187 28.4117 18.2187 27.5C18.2187 27.3177 18.1463 27.1428 18.0174 27.0139C17.8885 26.8849 17.7136 26.8125 17.5312 26.8125H4.46875V5.5C4.46984 4.58865 4.83236 3.71495 5.47678 3.07053C6.1212 2.42611 6.9949 2.06359 7.90625 2.0625H26.5444C26.0852 2.50952 25.7203 3.04402 25.4711 3.63443C25.222 4.22483 25.0937 4.85918 25.0937 5.5V27.5ZM26.5375 4.8125C26.6953 4.03543 27.1169 3.3368 27.7308 2.83499C28.3448 2.33318 29.1133 2.05905 29.9062 2.05905C30.6992 2.05905 31.4677 2.33318 32.0817 2.83499C32.6956 3.3368 33.1172 4.03543 33.275 4.8125H26.5375Z" fill="url(#paint1_linear)"/>
</g>
<path d="M16.0786 11.2099C14.9803 10.2359 13.1126 9.42414 11.877 8.88677C11.6676 8.79614 11.4787 8.71445 11.3183 8.64169C10.852 8.43108 10.2145 7.84776 10.4891 7.17763C10.674 6.7245 11.1429 6.49602 11.8851 6.49602C12.123 6.49602 12.384 6.52155 12.6626 6.57005C13.6305 6.73982 14.3645 7.07935 14.7805 7.27209C14.8321 7.29634 14.8919 7.29889 14.9463 7.28102C14.9993 7.26188 15.0442 7.22358 15.0673 7.1738L16.0201 5.15578C16.0623 5.0677 16.0297 4.96304 15.9427 4.90943C15.2712 4.49076 13.5951 3.86914 11.7329 3.86914C11.4637 3.86914 11.1959 3.8819 10.935 3.90743C9.45058 4.05039 7.96349 4.42183 7.13974 6.15905C6.62592 7.24018 6.62728 8.45789 7.1411 9.33607C7.69026 10.2947 8.59013 10.7235 9.72924 11.2647L9.87604 11.3349C10.6984 11.7204 11.6839 12.1493 12.3323 12.4314C13.2906 12.8654 13.6454 13.6363 13.4252 14.101C13.0704 14.8502 12.2861 15.0149 10.9295 14.6537C9.73196 14.3486 8.62683 13.487 8.31827 13.2304C8.27205 13.1921 8.21088 13.1743 8.14835 13.1819C8.08718 13.1896 8.03281 13.2228 7.99883 13.27L6.52261 15.3953C6.46688 15.4757 6.47911 15.5816 6.55252 15.648C7.31781 16.3411 7.94174 16.7444 9.02239 17.2435C9.74963 17.5792 10.814 17.7809 11.8702 17.7809C12.9739 17.7809 15.6694 17.5409 16.852 15.3225C17.6065 13.9031 17.3251 12.4071 16.0786 11.2099V11.2099Z" fill="url(#paint2_linear)"/>
<rect x="0.5" y="0.5" width="43" height="43" stroke="url(#paint3_linear)"/>
<defs>
<linearGradient id="paint0_linear" x1="27.6736" y1="8.93457" x2="27.6736" y2="36.7955" gradientUnits="userSpaceOnUse">
<stop stop-color="#E10098"/>
<stop offset="0.395833" stop-color="#78D2EE"/>
<stop offset="1" stop-color="#6C139C"/>
</linearGradient>
<linearGradient id="paint1_linear" x1="17.875" y1="0.6875" x2="17.875" y2="32.3125" gradientUnits="userSpaceOnUse">
<stop stop-color="#E10098"/>
<stop offset="0.395833" stop-color="#78D2EE"/>
<stop offset="1" stop-color="#6C139C"/>
</linearGradient>
<linearGradient id="paint2_linear" x1="-0.0834618" y1="5.97993" x2="18.9376" y2="13.6643" gradientUnits="userSpaceOnUse">
<stop offset="0.245434" stop-color="#0095FF"/>
<stop offset="1" stop-color="#FF0000"/>
</linearGradient>
<linearGradient id="paint3_linear" x1="22" y1="0" x2="22" y2="44" gradientUnits="userSpaceOnUse">
<stop stop-color="#E10098"/>
<stop offset="0.395833" stop-color="#78D2EE"/>
<stop offset="1" stop-color="#6C139C"/>
</linearGradient>
</defs>
</svg>
