<svg width="45" height="45" viewBox="0 0 45 45" fill="none" xmlns="http://www.w3.org/2000/svg">
<path d="M18.4803 7.91952C18.5148 7.91952 18.5498 7.91382 18.5847 7.90243C19.4023 7.63433 20.2486 7.45288 21.1019 7.36256C21.304 7.341 21.4517 7.14246 21.4323 6.91871C21.4132 6.69535 21.2427 6.53181 21.0314 6.55256C20.1321 6.64816 19.2384 6.83978 18.3756 7.12212C18.1812 7.186 18.0702 7.41219 18.1275 7.62782C18.1753 7.80479 18.3215 7.91952 18.4803 7.91952V7.91952Z" fill="#E10098"/>
<path d="M38.824 22.5512C39.0044 24.0329 40.1514 25.1802 41.5386 25.1802C43.0508 25.1802 44.2811 23.8185 44.2811 22.1444C44.2811 20.4703 43.0508 19.1086 41.5386 19.1086C40.1517 19.1086 39.0044 20.2559 38.824 21.7376H36.5357C36.4494 18.0427 35.1977 14.6583 33.1707 12.02L39.8588 5.61359C40.3237 6.01432 40.9058 6.25516 41.539 6.25516C43.0511 6.25516 44.2815 4.89349 44.2815 3.21938C44.2815 1.54526 43.0511 0.183594 41.539 0.183594C40.0271 0.183594 38.7968 1.54567 38.7968 3.21938C38.7968 3.89879 39.0019 4.5245 39.3436 5.031L32.6797 11.4138C30.1147 8.40324 26.4921 6.50699 22.4792 6.48177C22.4785 6.48177 22.4777 6.48177 22.477 6.48177C22.2749 6.48177 22.1106 6.6624 22.1095 6.88616C22.1084 7.11073 22.272 7.29421 22.4748 7.29543C29.8281 7.34181 35.8099 14.0029 35.8099 22.1444C35.8099 30.3323 29.7928 36.9938 22.3969 36.9938C15.001 36.9938 8.98386 30.3323 8.98386 22.1444C8.98386 16.105 12.2423 10.714 17.2856 8.41097C17.4734 8.32553 17.5627 8.08753 17.4855 7.87964C17.4083 7.67216 17.1926 7.5733 17.0056 7.65873C15.1042 8.52691 13.4491 9.81698 12.0997 11.4L5.45053 5.031C5.79229 4.5245 5.99734 3.89879 5.99734 3.21938C5.99734 1.54526 4.76702 0.183594 3.2552 0.183594C1.74339 0.183594 0.513062 1.54567 0.513062 3.21938C0.513062 4.89309 1.74339 6.25516 3.2552 6.25516C3.88837 6.25516 4.47046 6.01391 4.93532 5.61359L11.6106 12.0078C9.56117 14.6778 8.34701 18.0826 8.26249 21.7376H5.96978C5.78935 20.2559 4.64244 19.1086 3.2552 19.1086C1.74339 19.1086 0.513062 20.4707 0.513062 22.1444C0.513062 23.8181 1.74339 25.1802 3.2552 25.1802C4.64207 25.1802 5.78935 24.0329 5.96978 22.5512H8.25808C8.34407 26.2526 9.59351 29.6374 11.6183 32.2741L4.93532 38.6756C4.47046 38.2749 3.88837 38.0337 3.2552 38.0337C1.74339 38.0337 0.513062 39.3957 0.513062 41.0694C0.513062 42.7431 1.74339 44.1052 3.2552 44.1052C4.76702 44.1052 5.99734 42.7431 5.99734 41.0694C5.99734 40.39 5.79229 39.7643 5.45053 39.2578L12.1093 32.8799C14.6908 35.9104 18.3465 37.8075 22.3969 37.8075C26.4476 37.8075 30.1033 35.91 32.6849 32.8799L39.3433 39.2582C39.0015 39.7647 38.7965 40.3904 38.7965 41.0698C38.7965 42.744 40.0268 44.1056 41.5386 44.1056C43.0508 44.1056 44.2811 42.7435 44.2811 41.0698C44.2811 39.3961 43.0508 38.0341 41.5386 38.0341C40.9054 38.0341 40.3233 38.2753 39.8585 38.676L33.1755 32.2737C35.2003 29.637 36.4497 26.2526 36.5353 22.5512H38.824ZM41.5386 0.997259C42.6458 0.997259 43.5461 1.994 43.5461 3.21938C43.5461 4.44476 42.6458 5.4415 41.5386 5.4415C40.4317 5.4415 39.5314 4.44476 39.5314 3.21938C39.5314 1.994 40.4317 0.997259 41.5386 0.997259ZM1.24802 3.21938C1.24802 1.994 2.14835 0.997259 3.2552 0.997259C4.36205 0.997259 5.26238 1.994 5.26238 3.21938C5.26238 4.44476 4.36205 5.4415 3.2552 5.4415C2.14835 5.4415 1.24802 4.44476 1.24802 3.21938ZM3.2552 24.3665C2.14835 24.3665 1.24802 23.3698 1.24802 22.1444C1.24802 20.919 2.14835 19.9223 3.2552 19.9223C4.36205 19.9223 5.26238 20.919 5.26238 22.1444C5.26238 23.3698 4.36205 24.3665 3.2552 24.3665ZM3.2552 43.2916C2.14835 43.2916 1.24802 42.2948 1.24802 41.0694C1.24802 39.8441 2.14835 38.8473 3.2552 38.8473C4.36205 38.8473 5.26238 39.8441 5.26238 41.0694C5.26238 42.2948 4.36205 43.2916 3.2552 43.2916ZM43.5461 41.0694C43.5461 42.2948 42.6458 43.2916 41.5386 43.2916C40.4317 43.2916 39.5314 42.2948 39.5314 41.0694C39.5314 39.8441 40.4317 38.8473 41.5386 38.8473C42.6454 38.8473 43.5461 39.8441 43.5461 41.0694ZM41.5386 19.9223C42.6458 19.9223 43.5461 20.919 43.5461 22.1444C43.5461 23.3698 42.6458 24.3665 41.5386 24.3665C40.4317 24.3665 39.5314 23.3698 39.5314 22.1444C39.5314 20.919 40.4317 19.9223 41.5386 19.9223V19.9223Z" fill="#E10098"/>
<path d="M27.8764 18.4484C30.8464 20.309 30.7537 24.8715 28.1656 28.0621C27.1141 29.3585 25.8378 30.312 24.3603 30.7979C22.5569 31.3901 20.7447 31.9294 18.9324 32.48C18.2753 32.6761 17.7609 32.51 17.4618 31.9909C17.1626 31.4717 17.2142 30.8638 17.5846 30.2264C17.8195 29.8177 18.151 29.5279 18.5808 29.3957C19.8207 29.0012 21.0597 28.6078 22.3004 28.2139C22.9135 28.0122 23.5275 27.8242 24.126 27.5774C25.4919 27.0198 26.3681 25.9834 26.7276 24.5696C27.1014 23.0835 26.7129 21.9928 25.5942 21.3328C24.979 20.9604 24.2737 20.9157 23.4869 21.1456C22.724 21.3682 21.9507 21.6052 21.1862 21.8039C20.4464 21.9941 19.874 21.6964 19.6674 21.061C19.451 20.4111 19.7141 19.5877 20.322 19.0459C20.4578 18.9233 20.6248 18.8093 20.7896 18.7395C22.0227 18.248 23.2601 17.8177 24.5048 17.6834C25.8001 17.5344 26.935 17.8095 27.8764 18.4484Z" fill="#E10098"/>
<path d="M16.7275 26.0375C13.8281 24.2108 13.9007 19.624 16.4832 16.4412C17.5004 15.1927 18.7215 14.2493 20.1301 13.7664C21.9069 13.1571 23.6969 12.6377 25.4779 12.0898C25.6748 12.0292 25.8671 12.0013 26.0601 11.9854C26.7843 11.9365 27.2296 12.3055 27.3492 13.0234C27.4492 13.6473 27.1035 14.4648 26.5184 14.8813C26.297 15.0433 26.0273 15.1385 25.7768 15.2216C24.224 15.7176 22.6656 16.2101 21.1191 16.7103C20.4988 16.9072 19.8963 17.1612 19.3459 17.6358C17.5332 19.1916 17.1406 22.1249 19.0251 23.1727C19.6514 23.5164 20.3344 23.6054 21.1276 23.3796C21.8905 23.157 22.6518 22.9237 23.4283 22.7213C24.1681 22.5311 24.7187 22.792 24.9421 23.391C25.1782 23.9983 24.9879 24.7741 24.4314 25.3505C24.2557 25.5288 24.0288 25.6987 23.8151 25.7827C22.5875 26.2664 21.3438 26.6925 20.0999 26.8387C18.8072 26.9878 17.7041 26.6534 16.7275 26.0375Z" fill="#E10098"/>
<ellipse cx="41.4513" cy="3.30858" rx="2.83505" ry="3.12499" fill="#E9FA66"/>
<ellipse cx="3.34812" cy="22.3086" rx="2.83505" ry="3.12499" fill="#E9FA66"/>
<ellipse cx="3.12131" cy="41.0586" rx="2.83505" ry="3.12499" fill="#E9FA66"/>
<ellipse cx="41.4511" cy="22.3086" rx="2.83505" ry="3.12499" fill="#E9FA66"/>
<ellipse cx="3.34812" cy="3.30858" rx="2.83505" ry="3.12499" fill="#E9FA66"/>
<ellipse cx="41.4511" cy="41.0586" rx="2.83505" ry="3.12499" fill="#E9FA66"/>
</svg>
