<svg width="313" height="327" viewBox="0 0 313 327" fill="none" xmlns="http://www.w3.org/2000/svg">
<path d="M71.3871 299.036C69.8279 295.969 68.3499 292.442 69.9092 289.375C70.927 287.569 72.6754 286.149 74.8233 285.382C76.9489 284.633 79.1893 284.155 81.4741 283.964C88.6454 283.151 95.902 283.065 103.096 283.708C103.621 287.299 102.513 290.941 101.559 294.41C100.695 297.605 100.2 298.078 96.3865 298.244C93.9183 298.359 71.9709 300.167 71.3871 299.036Z" fill="#FBBEBE"/>
<path d="M137.192 278.347C195.554 278.347 242.865 266.905 242.865 252.79C242.865 238.676 195.554 227.233 137.192 227.233C78.8309 227.233 31.5195 238.676 31.5195 252.79C31.5195 266.905 78.8309 278.347 137.192 278.347Z" fill="url(#paint0_linear)"/>
<path opacity="0.1" d="M137.192 278.347C195.554 278.347 242.865 266.905 242.865 252.79C242.865 238.676 195.554 227.233 137.192 227.233C78.8309 227.233 31.5195 238.676 31.5195 252.79C31.5195 266.905 78.8309 278.347 137.192 278.347Z" fill="url(#paint1_linear)"/>
<path d="M156.14 117.876C152.518 123.928 146.502 128.653 139.188 131.192C134.87 132.552 130.325 133.298 125.731 133.402C120.714 133.6 115.592 133.319 110.878 131.837C104.552 129.856 99.2981 125.805 95.3594 121.084C91.4207 116.362 88.7087 110.97 86.3514 105.533C85.1099 102.702 83.9275 99.6864 84.5113 96.6963C88.317 95.9487 92.4848 94.8498 94.4505 91.9299C96.1279 89.4253 95.6624 86.4224 94.6943 83.5601C94.4209 82.7486 94.1032 81.9436 93.7854 81.1705C93.0464 79.3176 90.497 75.7972 92.3075 74.2127C93.4381 73.2096 98.1749 72.6984 99.808 72.0467C104.84 70.0405 109.481 67.1398 115.009 66.1878C119.79 65.3636 124.726 66.1367 129.5 66.9929C130.133 67.0725 130.741 67.2615 131.288 67.5487C131.912 68.0031 132.373 68.6014 132.618 69.2738C133.978 72.1362 134.776 75.2988 135.87 78.2826C137.008 81.4069 138.471 84.3395 141.213 86.5566C143.348 88.288 146.068 89.3742 148.728 90.4284L155.275 93.0225C156.44 93.3995 157.496 93.9902 158.371 94.7539C159.228 95.7715 159.739 96.9749 159.849 98.2297C161.023 104.953 159.725 111.825 156.14 117.876Z" fill="#FBBEBE"/>
<path opacity="0.1" d="M135.84 78.2826C130.626 82.9759 123.758 86.0404 116.313 86.9955C108.868 87.9506 101.267 86.7423 94.7016 83.5601C94.4282 82.7486 94.1104 81.9436 93.7927 81.1705C93.0537 79.3176 90.5042 75.7972 92.3147 74.2127C93.4453 73.2096 98.1821 72.6984 99.8153 72.0467C104.848 70.0405 109.488 67.1398 115.016 66.1878C119.797 65.3636 124.733 66.1367 129.507 66.9929C130.14 67.0725 130.749 67.2615 131.295 67.5487C131.919 68.0031 132.38 68.6014 132.626 69.2738C133.948 72.1362 134.746 75.2988 135.84 78.2826Z" fill="url(#paint2_linear)"/>
<path d="M111.329 86.0326C130.102 86.0326 145.321 72.8741 145.321 56.6423C145.321 40.4104 130.102 27.252 111.329 27.252C92.555 27.252 77.3359 40.4104 77.3359 56.6423C77.3359 72.8741 92.555 86.0326 111.329 86.0326Z" fill="#FBBEBE"/>
<path d="M214.895 152.026L212.102 137.395C210.69 130.054 209.235 122.572 205.289 115.959C202.695 111.628 198.579 107.5 193.029 106.644C191.936 106.56 190.861 106.345 189.837 106.005C188.211 105.328 187.324 103.807 186.075 102.683C182.853 99.7947 177.607 99.75 173.291 98.2805C169.478 97.0026 166.36 94.5428 162.886 92.6644C159.413 90.786 155.09 89.4698 151.248 90.6709C150.627 96.3893 149.969 102.235 147.161 107.443C145.333 110.833 142.652 113.826 139.314 116.205C135.976 118.584 132.065 120.288 127.868 121.192C123.67 122.096 119.292 122.177 115.053 121.43C110.815 120.683 106.823 119.126 103.37 116.873C96.7855 112.586 92.5659 105.973 90.6003 99.0536C90.1199 97.3668 89.5731 95.4309 87.7774 94.6578C85.8339 93.8144 83.4988 94.8367 81.8656 96.0762C78.9097 98.3699 76.4933 101.654 72.6063 102.427C71.2023 102.708 69.6504 102.651 68.4829 103.385C67.7069 104.005 67.0573 104.733 66.5615 105.539C65.711 106.578 64.5745 107.417 63.2547 107.982C61.9349 108.546 60.4733 108.818 59.0019 108.772C57.6495 108.714 56.046 108.446 55.1223 109.295C54.435 109.934 54.3833 110.931 53.6443 111.525C52.6467 112.362 51.0284 111.953 49.6391 111.909C47.0084 111.813 44.5624 113.27 43.0549 115.103C41.5474 116.937 40.838 119.205 40.099 121.403C48.176 136.954 55.5656 152.525 63.6426 168.076C64.021 168.662 64.2218 169.322 64.2264 169.993C64.0644 170.69 63.7207 171.345 63.2214 171.91C59.2605 177.411 59.3861 184.33 59.8221 190.796C60.2581 197.262 60.7902 204.092 57.45 209.887C56.5411 211.478 55.3587 212.935 54.4942 214.526C52.4694 218.129 51.7378 229.655 52.9201 233.527H219.987C216.802 225.956 218.014 210.762 218.679 202.725C219.144 197.102 217.94 191.486 217.422 185.864C216.292 174.382 217.09 163.489 214.895 152.026Z" fill="#15171A"/>
<path d="M27.3 168.766C27.0044 170.615 26.9746 172.488 27.2114 174.344L29.3322 200.712C29.5317 203.197 29.7313 205.676 29.9973 208.155C30.5072 212.967 31.2683 217.739 32.2142 222.506C32.2355 223.182 32.5665 223.824 33.1345 224.29C33.7025 224.756 34.4612 225.008 35.244 224.991C44.592 226.703 54.2503 226.633 63.7904 226.167C78.3482 225.464 92.8837 223.86 107.464 224.135C111.218 224.205 115.592 224.135 117.868 221.579C120.144 219.023 118.822 214.89 115.851 212.826C112.88 210.762 108.845 210.27 105.032 210.27C99.9852 210.226 94.9381 210.845 89.9057 210.59C85.2871 210.353 80.772 209.389 76.2938 208.424L63.7313 205.721C64.2116 202.431 65.66 199.332 67.0345 196.208C69.5027 190.668 71.8083 184.943 71.8526 179.008C71.8969 173.072 69.3105 166.83 63.687 163.431C59.061 160.639 53.1049 160.121 47.4666 160.236C43.3653 160.339 36.2785 159.489 32.532 160.875C29.5687 162 27.8543 166.255 27.3 168.766Z" fill="#FBBEBE"/>
<path d="M223.445 229.055C225.906 228.243 228.618 228.537 231.256 228.844C239.747 229.847 248.363 230.875 256.233 233.808C259.928 235.175 263.446 237.003 265.943 239.693C268.16 242.114 269.453 245.079 270.68 247.999L273.518 254.72C274.597 257.276 275.69 259.882 275.993 262.598C276.88 270.642 270.518 278.226 262.515 282.404C254.511 286.583 245.09 288.072 235.912 289.631C226.734 291.19 217.519 292.915 208.378 294.742C204.114 295.699 199.788 296.435 195.423 296.946C185.639 297.905 175.412 296.493 166.116 299.291C162.421 300.409 158.793 302.07 154.957 302.843C152.41 303.307 149.834 303.646 147.242 303.859L129.648 305.597C126.07 306.011 122.468 306.25 118.859 306.313C111.173 306.313 103.614 304.741 96.15 303.169C95.3565 303.049 94.6011 302.785 93.9331 302.396C92.7507 301.591 92.4921 300.166 92.3221 298.876C91.5684 293.164 90.9082 287.445 90.3417 281.721C90.1643 279.861 90.0313 277.849 91.2063 276.284C92.6842 274.367 95.5662 273.766 98.197 273.396C109.352 271.818 120.653 271.14 131.953 271.37C136.247 267.658 143.326 267.639 148.949 265.62C151.018 264.799 153.021 263.857 154.943 262.802C165.002 257.728 176.244 254.657 187.849 253.813C190.122 253.753 192.38 253.474 194.581 252.982C198.933 251.813 202.902 248.631 207.373 249.411C207.927 248.088 208.311 246.318 209.589 245.411C210.225 244.945 211.008 244.631 211.592 244.133C212.826 243.053 212.937 241.354 212.752 239.846C212.567 238.338 212.154 236.792 212.604 235.322C212.792 234.766 213.068 234.235 213.425 233.744C215.642 230.435 218.989 228.735 223.445 229.055Z" fill="url(#paint3_linear)"/>
<path opacity="0.05" d="M223.445 229.055C225.906 228.243 228.618 228.537 231.256 228.844C239.747 229.847 248.363 230.875 256.233 233.808C259.928 235.175 263.446 237.003 265.943 239.693C268.16 242.114 269.453 245.079 270.68 247.999L273.518 254.72C274.597 257.276 275.69 259.882 275.993 262.598C276.88 270.642 270.518 278.226 262.515 282.404C254.511 286.583 245.09 288.072 235.912 289.631C226.734 291.19 217.519 292.915 208.378 294.742C204.114 295.699 199.788 296.435 195.423 296.946C185.639 297.905 175.412 296.493 166.116 299.291C162.421 300.409 158.793 302.07 154.957 302.843C152.41 303.307 149.834 303.646 147.242 303.859L129.648 305.597C126.07 306.011 122.468 306.25 118.859 306.313C111.173 306.313 103.614 304.741 96.15 303.169C95.3565 303.049 94.6011 302.785 93.9331 302.396C92.7507 301.591 92.4921 300.166 92.3221 298.876C91.5684 293.164 90.9082 287.445 90.3417 281.721C90.1643 279.861 90.0313 277.849 91.2063 276.284C92.6842 274.367 95.5662 273.766 98.197 273.396C109.352 271.818 120.653 271.14 131.953 271.37C136.247 267.658 143.326 267.639 148.949 265.62C151.018 264.799 153.021 263.857 154.943 262.802C165.002 257.728 176.244 254.657 187.849 253.813C190.122 253.753 192.38 253.474 194.581 252.982C198.933 251.813 202.902 248.631 207.373 249.411C207.927 248.088 208.311 246.318 209.589 245.411C210.225 244.945 211.008 244.631 211.592 244.133C212.826 243.053 212.937 241.354 212.752 239.846C212.567 238.338 212.154 236.792 212.604 235.322C212.792 234.766 213.068 234.235 213.425 233.744C215.642 230.435 218.989 228.735 223.445 229.055Z" fill="url(#paint4_linear)"/>
<path d="M78.1856 302.984C73.6113 307.565 69.5839 309.201 62.4233 309.054C58.019 308.964 53.6197 308.766 49.2253 308.46C46.2217 308.179 43.201 308.057 40.1803 308.095C31.0614 308.402 22.2602 312.012 13.1635 311.379C11.8184 311.288 10.4883 311.074 9.19523 310.741C7.13156 310.249 5.26647 309.271 3.80813 307.917C2.06416 306.211 1.22912 303.949 0.748788 301.713C-1.68243 290.25 4.98309 277.766 16.6514 271.933C18.1739 271.082 19.9045 270.551 21.706 270.38C23.4725 270.374 25.2188 270.705 26.8197 271.351L26.9305 271.389C31.6711 273.076 35.9766 275.561 39.5965 278.699C40.1457 279.243 40.801 279.699 41.5326 280.047C42.2627 280.285 43.0356 280.411 43.816 280.417L53.5261 280.948C55.1712 280.99 56.8063 281.185 58.4033 281.529C60.1639 282.061 61.8778 282.701 63.5318 283.446C68.7563 285.465 74.5498 286.002 80.1956 286.781C80.7396 286.807 81.2588 286.987 81.6735 287.292C81.8988 287.535 82.0557 287.819 82.1317 288.123C82.9251 290.69 82.9803 293.387 82.2926 295.977C81.6048 298.567 80.1948 300.973 78.1856 302.984Z" fill="#FBBEBE"/>
<path opacity="0.1" d="M26.9305 271.396C23.1632 274.506 19.895 278.039 17.2131 281.9C12.9093 288.271 10.2052 295.355 9.27651 302.69C8.92435 305.366 8.89711 308.066 9.19523 310.747C7.13156 310.255 5.26647 309.278 3.80813 307.923C2.06416 306.217 1.22912 303.955 0.748788 301.719C-1.68243 290.257 4.98309 277.772 16.6514 271.939C18.1739 271.089 19.9045 270.557 21.706 270.386C23.4725 270.38 25.2188 270.712 26.8197 271.357L26.9305 271.396Z" fill="url(#paint5_linear)"/>
<path d="M214.991 287.292C220.423 287.165 226.519 286.928 230.509 290.091C234.315 293.081 234.818 298.013 235.069 302.454L235.357 307.61C235.446 309.182 235.52 310.805 234.788 312.261C233.488 314.817 229.918 316.05 226.659 315.903C223.401 315.756 220.408 314.523 217.43 313.411C209.345 310.4 200.926 308.107 192.305 306.569C192.585 303.003 193.054 299.455 193.709 295.924C194.16 293.477 194.233 289.382 196.125 287.35C198.128 285.203 200.736 286.366 203.456 286.762C207.271 287.265 211.135 287.443 214.991 287.292Z" fill="#FBBEBE"/>
<path d="M71.4535 235.482C71.4535 236.121 70.2934 235.482 70.1899 234.798C69.377 229.63 64.6328 225.368 59.1053 223.298C53.5778 221.228 47.2818 221.119 41.2961 221.611C32.2438 222.352 22.0829 225.349 18.7723 232.664C17.989 234.377 17.6343 236.23 16.6736 237.872C15.6095 239.673 13.8729 241.111 12.7201 242.862C10.7323 245.89 10.651 249.602 11.3678 253.027C13.2965 262.163 20.5237 269.977 29.2805 275.389C38.0373 280.801 48.272 284.034 58.4772 286.947C85.4619 294.642 113.148 300.359 141.242 304.038C145.794 304.632 150.39 305.182 154.75 306.447C158.652 307.578 162.303 309.271 166.116 310.6C174.983 313.679 184.523 314.778 193.975 315.858C195.586 316.037 197.433 316.165 198.623 315.219C200.16 313.986 199.65 311.839 199.214 310.07C197.61 303.34 198.956 296.336 202.99 290.416C204.572 288.116 206.626 285.759 206.331 283.094C205.976 279.989 202.399 277.791 198.837 277.293C195.276 276.795 191.655 277.529 188.078 277.932C186.844 278.072 185.499 278.162 184.42 277.619C183.888 277.308 183.406 276.939 182.986 276.52C180.522 274.465 177.369 273.137 173.979 272.727C170.588 272.318 167.134 272.847 164.113 274.239C162.79 274.878 160.788 273.453 159.413 272.916L143.873 266.834C126.019 259.85 108.077 252.835 89.1889 248.414C87.6818 248.158 86.2495 247.643 84.9767 246.9C84.0382 246.261 83.3658 245.392 82.5012 244.683C80.6168 243.143 77.9934 242.529 75.7322 241.437C73.4709 240.344 70.9363 237.674 71.4535 235.482Z" fill="url(#paint6_linear)"/>
<path d="M311.036 318.983C308.553 322.964 303.734 325.443 298.562 326.465C297.264 326.718 295.944 326.881 294.616 326.95C288.076 327.302 281.617 325.736 275.314 324.19L266.756 322.107C265.285 321.707 263.777 321.416 262.249 321.238C260.168 321.118 258.078 321.18 256.012 321.424C245.898 322.237 235.703 321.842 225.714 320.248C224.878 320.17 224.076 319.923 223.371 319.526C222.754 319.003 222.207 318.422 221.738 317.795C219.41 315.373 216.905 313.961 219.662 310.767C221.251 308.914 224.199 307.987 225.433 305.86C226.667 303.732 225.877 300.71 225.145 298.512C224.147 295.477 220.866 294.167 219.691 291.382C218.812 289.28 220.29 286.839 222.514 285.695C224.738 284.552 227.487 284.462 230.052 284.756C232.616 285.05 235.128 285.676 237.707 285.849C245.289 286.373 253.041 282.993 260.32 284.897C261.923 285.318 263.438 285.989 265.064 286.36C268.234 286.973 271.545 286.725 274.545 285.651C275.609 285.306 276.651 284.89 277.686 284.481C279.681 283.583 281.806 282.919 284.004 282.507C291.105 281.453 297.69 285.702 303.047 289.848C304.886 291.168 306.514 292.694 307.888 294.385C309.365 296.378 310.149 298.697 310.843 300.985C312.802 306.895 314.42 313.552 311.036 318.983Z" fill="#FBBEBE"/>
<path opacity="0.1" d="M311.036 318.983C308.553 322.963 303.735 325.442 298.562 326.465C300.574 323.085 301.481 319.294 301.185 315.501C300.742 309.425 297.653 303.7 293.714 298.652C291.291 295.545 288.535 292.642 285.482 289.982C283.132 287.938 280.243 286.315 277.715 284.443C279.711 283.545 281.835 282.881 284.034 282.469C291.135 281.414 297.719 285.663 303.077 289.81C304.916 291.129 306.544 292.655 307.917 294.346C309.395 296.34 310.178 298.659 310.873 300.946C312.802 306.894 314.42 313.552 311.036 318.983Z" fill="url(#paint7_linear)"/>
<path d="M39.6778 121.875C38.958 122.527 38.3997 123.299 38.0373 124.144C32.0639 135.783 28.5357 148.249 27.6178 160.958C27.6339 161.578 27.4687 162.191 27.1375 162.741C26.8109 163.107 26.4474 163.446 26.0512 163.757C25.6914 164.125 25.423 164.554 25.2624 165.016C25.1019 165.478 25.0526 165.963 25.1177 166.442C25.1828 166.921 25.3609 167.384 25.6409 167.801C25.921 168.218 26.297 168.581 26.7458 168.868C27.9651 166.881 30.8841 166.236 33.4779 166.063C45.9 165.213 58.0339 170.21 70.4929 169.833C69.6135 167.207 68.3499 164.683 67.6331 162.025C64.4629 150.224 72.3699 137.376 67.5222 126.009C66.5542 123.735 64.9359 121.498 62.3864 120.502C61.3308 120.133 60.2261 119.88 59.098 119.748C55.95 119.256 49.6835 117.154 46.6389 117.997C45.5157 118.31 45.0723 119.224 44.1412 119.773C42.7298 120.559 40.8528 120.847 39.6778 121.875Z" fill="#15171A"/>
<path d="M224.783 145.133H71.7713C68.5186 145.133 65.8817 147.413 65.8817 150.225V230.767C65.8817 233.58 68.5186 235.859 71.7713 235.859H224.783C228.035 235.859 230.672 233.58 230.672 230.767V150.225C230.672 147.413 228.035 145.133 224.783 145.133Z" fill="#3F3D56"/>
<path d="M147.908 194.329C150.356 194.329 152.341 192.613 152.341 190.496C152.341 188.378 150.356 186.662 147.908 186.662C145.459 186.662 143.474 188.378 143.474 190.496C143.474 192.613 145.459 194.329 147.908 194.329Z" fill="white"/>
<path d="M87.844 8.94057C85.361 10.4931 83.6614 12.723 81.9322 14.8634C78.7472 18.8183 75.1411 22.7668 70.0495 24.9711C68.1208 25.8081 65.9187 26.4406 64.6403 27.8973C63.8815 28.8825 63.389 30.0028 63.1993 31.175C62.2239 35.2968 61.7141 39.4908 61.677 43.6978C61.677 45.7935 61.7805 47.953 62.852 49.857C63.8644 51.646 65.6896 53.1602 66.0665 55.1089C66.3547 56.6295 65.7044 58.1438 65.4753 59.6708C65.2462 61.1978 65.6453 63.006 67.2784 63.7343C68.1584 64.0205 69.0773 64.2074 70.0126 64.2902C74.9268 65.2358 76.5747 70.2194 77.321 74.3404C78.9911 74.2573 79.7448 72.6025 80.0922 71.2544L85.2132 51.5693C85.7675 49.4353 86.6912 46.9627 89.1519 46.2152C90.7998 45.7232 92.6029 46.1832 94.3247 46.311C101.086 46.7902 106.806 42.273 113.42 41.0271C115.537 40.6577 117.701 40.5331 119.856 40.6565C125.073 40.8802 131.14 42.733 132.249 46.9435C132.433 47.6272 132.544 48.445 133.283 48.7836C134.022 49.1222 134.798 48.8347 135.574 48.7836C138.885 48.4961 140.836 51.7163 141.789 54.3486L145.262 63.9324C145.779 65.3828 146.651 67.0887 148.469 67.2739C150.147 67.4528 151.573 66.0792 151.824 64.7183C152.075 63.3574 151.528 61.9454 151.166 60.5781C149.533 54.2847 152.031 47.8444 153.553 41.5383C155.076 35.2321 155.349 27.9868 150.243 23.131C148.388 21.3739 145.949 20.0642 144.22 18.2113C142.609 16.4734 141.7 14.3394 140.03 12.6335C135.412 7.92469 123.566 4.28924 116.302 3.68865C108.003 2.90917 94.5538 4.73009 87.844 8.94057Z" fill="#3F3D56"/>
<defs>
<linearGradient id="paint0_linear" x1="243.56" y1="247.679" x2="233.379" y2="297.86" gradientUnits="userSpaceOnUse">
<stop stop-color="#C85252"/>
<stop offset="1" stop-color="#1C1D1D"/>
</linearGradient>
<linearGradient id="paint1_linear" x1="243.56" y1="247.679" x2="233.379" y2="297.86" gradientUnits="userSpaceOnUse">
<stop stop-color="#C85252"/>
<stop offset="1" stop-color="#1C1D1D"/>
</linearGradient>
<linearGradient id="paint2_linear" x1="135.985" y1="74.4275" x2="128.307" y2="93.2487" gradientUnits="userSpaceOnUse">
<stop stop-color="#C85252"/>
<stop offset="1" stop-color="#1C1D1D"/>
</linearGradient>
<linearGradient id="paint3_linear" x1="276.687" y1="259.643" x2="251.837" y2="330.426" gradientUnits="userSpaceOnUse">
<stop stop-color="#C85252"/>
<stop offset="1" stop-color="#1C1D1D"/>
</linearGradient>
<linearGradient id="paint4_linear" x1="276.687" y1="259.643" x2="251.837" y2="330.426" gradientUnits="userSpaceOnUse">
<stop stop-color="#C85252"/>
<stop offset="1" stop-color="#1C1D1D"/>
</linearGradient>
<linearGradient id="paint5_linear" x1="27.0182" y1="286.531" x2="6.9624" y2="302.336" gradientUnits="userSpaceOnUse">
<stop stop-color="#C85252"/>
<stop offset="1" stop-color="#1C1D1D"/>
</linearGradient>
<linearGradient id="paint6_linear" x1="207.001" y1="259.215" x2="173.282" y2="342.232" gradientUnits="userSpaceOnUse">
<stop stop-color="#C85252"/>
<stop offset="1" stop-color="#1C1D1D"/>
</linearGradient>
<linearGradient id="paint7_linear" x1="313.116" y1="299.97" x2="290.574" y2="321.443" gradientUnits="userSpaceOnUse">
<stop stop-color="#C85252"/>
<stop offset="1" stop-color="#1C1D1D"/>
</linearGradient>
</defs>
</svg>
