<svg width="101" height="482" viewBox="0 0 101 482" fill="none" xmlns="http://www.w3.org/2000/svg">
<path d="M83.2571 90.811C88.2636 90.811 92.3221 84.8999 92.3221 77.6081C92.3221 70.3164 88.2636 64.4053 83.2571 64.4053C78.2507 64.4053 74.1921 70.3164 74.1921 77.6081C74.1921 84.8999 78.2507 90.811 83.2571 90.811Z" fill="#6C63FF"/>
<path d="M85.7828 64.7686C87.3517 64.7689 88.8936 65.3622 90.2578 66.4903C91.6221 67.6184 92.762 69.2427 93.5662 71.2046C94.3704 73.1665 94.8112 75.3987 94.8457 77.6831C94.8801 79.9674 94.507 82.2257 93.7628 84.2371C94.5487 82.805 95.1212 81.1501 95.4437 79.3779C95.7662 77.6057 95.8317 75.7552 95.636 73.9441C95.4403 72.1331 94.9877 70.4012 94.3071 68.859C93.6264 67.3168 92.7327 65.998 91.6827 64.9866C90.6328 63.9753 89.4497 63.2936 88.2089 62.985C86.968 62.6764 85.6967 62.7476 84.4758 63.1942C83.2549 63.6408 82.1113 64.4529 81.1178 65.5787C80.1244 66.7046 79.3028 68.1195 78.7056 69.7334C79.5529 68.1839 80.6294 66.9328 81.8547 66.0733C83.08 65.2137 84.4228 64.7677 85.7828 64.7686Z" fill="#6C63FF"/>
<path d="M66.318 77.5803C81.0245 77.5803 92.9465 60.2169 92.9465 38.798C92.9465 17.3791 81.0245 0.015625 66.318 0.015625C51.6115 0.015625 39.6895 17.3791 39.6895 38.798C39.6895 60.2169 51.6115 77.5803 66.318 77.5803Z" fill="#6C63FF"/>
<path d="M45.4188 14.7351C50.0071 7.21971 56.4208 2.59456 63.3062 1.83586C70.1916 1.07716 77.0101 4.24426 82.3226 10.6687C82.1048 10.3672 81.8894 10.0633 81.6631 9.77038C76.3836 2.94928 69.4608 -0.540378 62.4157 0.0680693C55.3706 0.676517 48.7795 5.33332 44.0905 13.0153C39.4015 20.6974 36.9981 30.7762 37.4085 41.0375C37.8188 51.2988 41.0093 60.9032 46.279 67.7404C46.5052 68.0334 46.7377 68.3094 46.9688 68.589C41.9657 61.6576 39.0074 52.1663 38.7183 42.1184C38.4291 32.0705 40.8316 22.252 45.4188 14.7351Z" fill="#6C63FF"/>
<path d="M91.9957 137.661L96.0919 171.467L100.871 238.085C100.871 238.085 102.236 264.932 96.0919 265.926C89.9476 266.92 91.313 236.097 91.313 236.097L84.486 179.421L81.7552 144.621L91.9957 137.661Z" fill="#FBBEBE"/>
<path d="M66.7358 71.0425C75.7849 71.0425 83.1206 60.3584 83.1206 47.179C83.1206 33.9995 75.7849 23.3154 66.7358 23.3154C57.6868 23.3154 50.3511 33.9995 50.3511 47.179C50.3511 60.3584 57.6868 71.0425 66.7358 71.0425Z" fill="#FBBEBE"/>
<path d="M53.7642 57.1226L51.0333 79.9921L68.7835 85.9575V64.0826L53.7642 57.1226Z" fill="#FBBEBE"/>
<path d="M11.4369 391.208L9.38892 411.093L17.5815 412.088L22.3603 395.185L11.4369 391.208Z" fill="#FBBEBE"/>
<path d="M74.9283 394.191L76.9763 410.1H85.851V395.186L74.9283 394.191Z" fill="#FBBEBE"/>
<path d="M81.0724 171.467L36.0142 181.41L33.2834 228.142L27.8219 295.755L8.02356 394.19L27.8219 397.173L63.3222 264.931L72.1973 398.168H92.6783L94.0437 261.948C94.0437 261.948 94.7264 186.381 83.8033 181.41L81.0724 171.467Z" fill="black"/>
<path d="M19.6295 409.105L8.02365 406.122L3.24476 439.928C3.24476 439.928 -5.63033 485.666 5.97556 481.689C17.5814 477.712 15.5333 439.928 15.5333 439.928L19.6295 409.105Z" fill="#E9FA66"/>
<path d="M74.9281 409.105L86.534 406.122L91.3129 439.928C91.3129 439.928 100.188 485.666 88.5821 481.689C76.9762 477.712 79.0243 439.928 79.0243 439.928L74.9281 409.105Z" fill="#E9FA66"/>
<path d="M18.2641 122.746C18.2641 122.746 12.8025 164.507 15.5333 174.45C18.2641 184.393 33.9662 219.194 33.9662 219.194L38.7451 204.279L25.0911 165.501L29.87 125.729L18.2641 122.746Z" fill="#FBBEBE"/>
<path d="M72.1973 93.9112L70.8319 78.9966C70.8319 78.9966 53.7644 75.0194 51.0336 68.0593L46.2547 79.9909L30.5526 84.9625C30.5526 84.9625 21.6775 84.9624 20.9948 94.9055C20.3121 104.849 16.2159 124.735 16.2159 124.735L28.5045 130.7L38.0623 182.404L79.0243 173.455L76.9762 146.609L79.0243 139.649L81.0724 147.604L94.0437 143.626C94.0437 143.626 94.7264 107.831 81.7551 101.866L72.1973 93.9112Z" fill="black"/>
<path d="M51.4236 21.0493V46.0281H55.3958L60.4505 38.1408L59.7735 46.0281H77.3303L76.247 38.1408L78.4135 46.0281H81.2117V21.0493H51.4236Z" fill="#6C63FF"/>
</svg>
