<svg width="962" height="490" viewBox="0 0 962 490" fill="none" xmlns="http://www.w3.org/2000/svg">
<path d="M224.124 45.1162C223.779 42.3848 223.08 39.7099 222.045 37.1584C221.913 36.6759 221.683 36.2262 221.367 35.8379C221.052 35.4495 220.659 35.1311 220.214 34.9029C219.619 34.7482 218.995 34.7412 218.397 34.8826L209.068 36.3101C208.287 36.3457 207.539 36.6362 206.939 37.1371C205.724 38.415 206.921 40.4726 206.884 42.2355C206.842 44.2179 205.08 45.827 203.17 46.3594C201.221 46.7533 199.21 46.7284 197.27 46.2862L184.225 44.2591C188.067 43.0325 191.487 40.7505 194.094 37.6735C195.811 35.6399 196.724 31.8432 194.243 30.8801C193.506 30.6778 192.737 30.6161 191.977 30.6982C186.067 30.7442 181.416 25.8095 175.883 23.7312C172.342 22.487 168.498 22.3944 164.901 23.4667C161.304 24.539 158.138 26.7212 155.856 29.7014L162.805 30.0364C163.459 30.0003 164.107 30.1732 164.656 30.5301C166.179 31.7813 164.286 34.1848 164.5 36.1441C164.779 38.6897 168.159 39.2332 170.707 39.4906C173.255 39.748 176.487 41.8181 175.261 44.0666C162.455 48.4776 149.424 35.4442 135.975 37.0486C132.571 37.4547 129.357 38.7919 126.034 39.6327C105.733 44.7691 84.7454 31.0646 64.0069 33.967C59.3965 34.7529 54.8652 35.948 50.4668 37.538C47.6443 38.4647 44.7002 39.4663 42.6494 41.6156C40.5985 43.7649 39.818 47.4407 41.7608 49.6881C36.4058 50.1291 31.015 49.6166 25.839 48.1746C27.2387 48.9527 28.4031 50.0932 29.2101 51.4764C30.017 52.8597 30.4366 54.4347 30.425 56.036C22.0638 57.3995 13.9239 59.8814 6.22446 63.4151C7.66148 65.8048 9.33991 68.0406 11.2334 70.0876L0.648285 76.888C4.22444 77.789 6.0734 82.6654 3.99374 85.711C7.7018 84.0613 9.99988 79.7939 13.965 78.9288C16.5628 78.3619 19.206 79.4246 21.6703 80.4229C24.1346 81.4211 26.8431 82.3891 29.3942 81.6399C31.9453 80.8907 33.827 77.5828 32.206 75.4753C43.11 72.2938 54.3791 70.5332 65.7339 70.237C66.6099 70.1271 67.4983 70.2957 68.2732 70.7189C69.7513 71.7444 69.3624 73.9594 69.2828 75.7566C69.2031 77.5539 70.6039 79.916 72.2102 79.1059C70.3204 80.7446 71.9359 83.8296 73.749 85.5529C75.5621 87.2761 77.7474 89.6539 76.6374 91.8955C76.3477 92.4806 75.8563 92.9487 75.5776 93.539C74.7548 95.2816 76.0611 97.3131 77.602 98.4703C79.1429 99.6275 81.0303 100.436 82.1007 102.039C83.1711 103.641 82.685 106.446 80.771 106.67L75.3308 99.7624C73.4721 101.69 72.1978 104.104 71.6558 106.727C77.4247 111.443 78.2924 121.042 73.4627 126.716C70.9946 129.615 67.4848 131.377 64.4215 133.639C61.3582 135.9 58.5236 139.121 58.5313 142.929C58.5447 149.507 58.0071 155.619 60.4723 161.718C65.018 172.964 70.2661 183.914 76.1857 194.501C77.7402 197.281 79.7493 200.329 82.8984 200.807C78.9185 191.119 75.3358 181.279 72.1504 171.289C74.2252 171.297 76.6228 171.462 77.8391 173.143C78.8462 174.535 78.6299 176.427 78.9428 178.116C79.3409 179.753 80.0046 181.313 80.9076 182.735L99.9126 216.589C101.488 219.395 103.295 222.408 106.306 223.544C108.231 224.271 110.459 224.134 112.231 225.18C113.62 226 114.555 227.456 115.971 228.228C119.974 230.412 125.542 226.223 129.283 228.831C130.353 229.577 131.033 230.761 132.019 231.615C135.475 234.607 141.143 232.605 145.132 234.838C147.703 236.276 149.035 239.154 150.406 241.761C153.841 248.292 159.399 254.691 166.76 255.211C169.072 255.374 171.434 254.936 173.694 255.45C175.954 255.965 178.179 257.937 177.817 260.227C177.195 264.152 179.134 268.449 178.613 272.389C177.664 279.565 167.485 282.719 166.611 289.905C166.42 291.478 166.719 293.102 166.345 294.642C165.885 296.53 164.468 298.066 163.964 299.942C163.01 303.498 165.557 307.036 168.355 309.428C171.153 311.82 174.491 313.882 176.021 317.23C177.638 320.769 176.844 324.896 177.369 328.751C178.518 337.168 185.787 343.407 193.268 347.43C195.548 348.656 197.995 349.842 199.47 351.969C201.396 354.744 201.204 358.403 201.847 361.719C203.422 369.84 210.259 376.532 210.453 384.803C210.591 390.681 207.323 396.014 205.371 401.561C203.541 406.875 202.879 412.521 203.43 418.115C203.981 423.708 205.731 429.117 208.563 433.972C210.023 436.438 211.769 438.762 212.802 441.435C214.645 446.205 214.047 451.628 215.747 456.451C217.994 462.827 224.168 468.094 223.577 474.829C226.38 480.65 232.57 483.51 238.794 485.242L249.949 488.347C252.085 488.942 254.317 489.541 256.492 489.111C258.667 488.68 260.743 486.874 260.686 484.658C255.216 483.424 249.57 482.112 245.061 478.779C240.552 475.445 237.463 469.51 239.174 464.169C239.967 461.693 241.655 458.833 240.05 456.787C239.131 455.616 237.451 455.31 236.415 454.241C234.799 452.574 235.354 449.773 236.516 447.763C237.678 445.752 239.358 443.955 239.826 441.681C240.063 440.409 239.905 439.095 239.373 437.915C238.842 436.735 237.962 435.746 236.852 435.08C238.921 434.299 240.802 433.092 242.374 431.537C243.826 429.879 244.496 427.323 243.354 425.438C246.746 425.868 250.75 426.078 252.977 423.484C254.755 421.412 254.633 418.314 253.93 415.676C253.228 413.038 252.04 410.475 252.003 407.745C259.828 408.116 267.669 407.85 275.451 406.95C274.326 403.16 271.769 399.958 268.322 398.022C271.846 397.426 275.057 393.207 276.17 389.81C277.284 386.414 277 382.714 276.311 379.207C276.047 378.304 276.011 377.349 276.206 376.429C276.603 375.164 277.845 374.392 278.995 373.732L296.488 363.686C297.531 363.163 298.478 362.464 299.285 361.621C301.118 359.468 300.846 356.218 299.908 353.551C298.969 350.884 297.466 348.377 297.105 345.573C296.023 337.187 305.001 331.17 308.03 323.276C309.219 320.178 309.461 316.81 309.691 313.5C309.939 309.945 309.957 305.815 307.227 303.524C304.61 301.328 300.522 301.817 297.783 299.775C295.273 297.902 294.407 294.264 291.664 292.751C289.174 291.377 286.051 292.251 283.281 291.605C278.403 290.467 275.334 284.846 270.353 284.326C267.543 284.032 264.362 285.406 262.058 283.769C260.029 282.327 259.947 279.428 259.561 276.969C258.884 273.146 257.052 269.622 254.311 266.873C251.57 264.123 248.053 262.28 244.232 261.59C241.334 261.126 238.18 261.302 235.715 259.71C233.219 258.097 232.075 255.078 230.114 252.845C226.954 249.246 221.977 247.968 217.314 246.872L198.35 242.413C194.984 241.622 190.644 241.202 188.838 244.151C188.303 245.274 187.924 246.465 187.712 247.69C187.035 249.907 185.673 251.852 183.821 253.246C181.969 254.64 179.723 255.411 177.406 255.448C175.816 252.737 173.241 250.745 170.218 249.887C168.295 249.351 166.237 249.291 164.403 248.503C163.404 248.015 162.515 247.329 161.791 246.486C161.066 245.643 160.521 244.661 160.19 243.6C159.858 242.54 159.746 241.422 159.861 240.317C159.976 239.211 160.315 238.141 160.858 237.171C161.952 235.224 162.374 232.972 162.06 230.761C161.746 228.551 160.713 226.505 159.121 224.94C155.896 222.044 151.23 221.345 146.906 221.635C145.773 219.163 147.667 216.375 149.708 214.579C151.749 212.783 154.227 211.018 154.671 208.336C155.37 204.117 149.987 200.913 145.9 202.171C141.813 203.429 139.205 207.398 137.481 211.311C136.491 213.557 135.65 215.921 134.089 217.814C132.529 219.707 130.016 221.063 127.639 220.455C124.273 219.595 122.974 215.597 122.229 212.204C121.23 207.652 120.224 203.037 120.434 198.382C120.643 193.726 122.213 188.946 125.646 185.794C131.24 180.659 139.822 181.162 147.371 181.981C145.588 179.972 146.028 176.585 147.937 174.693C148.944 173.798 150.155 173.162 151.464 172.841C152.772 172.519 154.14 172.522 155.447 172.848C157.722 173.322 159.772 174.547 161.266 176.327C163.411 178.942 164.021 182.474 165.643 185.443C167.265 188.412 170.911 190.945 173.896 189.352C176.473 187.976 176.883 184.401 176.241 181.551C175.599 178.7 174.237 175.928 174.469 173.015C174.913 167.457 180.674 164.112 185.758 161.823C190.842 159.534 196.664 156.455 197.469 150.938C197.497 149.858 197.701 148.789 198.073 147.775C198.636 146.879 199.42 146.142 200.349 145.634C215.187 135.828 230.272 125.903 247.231 120.544C248.113 120.266 248.217 120.575 249.116 120.357C250.375 119.63 249.541 117.618 248.334 116.807C247.128 115.997 245.515 115.375 245.209 113.954C244.984 112.909 245.599 111.884 245.759 110.827C246.152 108.231 243.046 105.834 240.635 106.872C239.272 105.068 241.968 102.972 244.147 102.372C250.692 100.57 257.411 99.473 264.189 99.0978C264.971 98.9735 265.773 99.1098 266.47 99.4857C267.608 100.274 267.463 102.083 266.656 103.209C265.849 104.334 264.594 105.041 263.589 105.993C262.49 107.063 261.707 108.415 261.324 109.9C260.941 111.384 260.973 112.946 261.417 114.414C264.955 116.214 268.802 118.067 272.721 117.433C276.64 116.799 280.119 112.395 278.277 108.879C276.561 105.604 271.408 104.865 270.522 101.276C269.485 97.0736 275.434 93.3361 274.094 89.2203C273.507 87.4175 271.71 86.3565 270.331 85.0549C268.703 83.459 267.596 81.408 267.154 79.1713C266.713 76.9345 266.958 74.6166 267.858 72.5218C265.612 72.9169 263.305 72.7677 261.129 72.0867C258.952 71.4057 256.971 70.2129 255.352 68.6082C252.36 65.5893 249.974 60.827 245.726 60.9621C241.828 61.086 238.47 65.6337 234.825 64.2463C233.929 63.905 232.983 63.2103 232.114 63.6173C231.83 63.8022 231.591 64.0493 231.416 64.3401C231.24 64.6309 231.134 64.9578 231.103 65.2959C230.177 69.7244 231.77 74.7701 229.357 78.5968C226.73 82.7611 220.655 83.3384 217.471 87.0936C215.743 89.132 215.073 91.8787 213.484 94.0278C211.895 96.1768 208.523 97.5432 206.617 95.6704C207.554 93.744 207.81 91.5568 207.343 89.4661C206.876 87.3755 205.713 85.5051 204.045 84.1607C202.275 83.0058 200.367 82.0777 198.366 81.3981C196.129 80.4515 194.002 79.2658 192.021 77.8617C191.028 77.263 190.222 76.4001 189.691 75.3694C189.272 74.0787 189.328 72.6805 189.851 71.428C190.817 68.6561 192.523 66.201 194.783 64.3276C197.043 62.4543 199.772 61.2339 202.675 60.7982C205.214 60.4528 208.169 60.5745 209.849 58.6402C210.738 57.6168 211.204 56.0695 212.494 55.6538C213.32 55.488 214.176 55.5935 214.937 55.9546L224.412 59.2898C225.469 59.767 226.633 59.9595 227.787 59.848C228.36 59.7709 228.882 59.4801 229.249 59.0341C229.616 58.588 229.801 58.0196 229.766 57.443C229.464 55.8695 227.042 55.1144 227.263 53.5273C227.386 53.0129 227.663 52.5481 228.056 52.1942C231.475 48.5546 235.657 45.7161 240.302 43.8819C244.947 42.0476 249.94 41.263 254.924 41.5842C256.119 43.5484 254.228 45.8743 252.654 47.5511C251.08 49.2279 249.816 52.2238 251.719 53.5145C252.499 53.9126 253.367 54.108 254.242 54.0827C256.575 54.3985 258.842 55.0861 260.957 56.1195C264.231 57.5444 267.443 59.1034 270.591 60.7966C270.313 58.7206 270.048 56.5336 270.835 54.5925C271.621 52.6513 273.858 51.1288 275.811 51.8848C277.694 52.6133 278.659 55.106 280.665 55.3344C283.34 55.639 284.396 51.6866 283.278 49.2368C282.161 46.7869 279.948 44.7356 279.764 42.0493C279.639 40.237 280.329 37.9893 278.881 36.8919C278.366 36.5625 277.781 36.3574 277.173 36.293L241.027 29.6414C238.88 29.2465 235.779 29.5492 235.684 31.7296C235.631 32.9467 236.718 34.1508 236.236 35.2698C235.722 36.4641 234.034 36.3549 232.804 36.7773C230.896 37.4328 229.939 39.6984 230.122 41.7075C230.458 43.7038 231.231 45.6012 232.386 47.2635C230.035 46.2802 226.475 46.0995 224.124 45.1162Z" fill="#3F3D56"/>
<path d="M195.283 14.433C193.003 13.6787 190.547 13.6436 188.247 14.3324C185.947 15.0212 183.915 16.4006 182.425 18.2836C181.83 19.0673 181.33 20.1475 181.828 20.9961C182.543 22.2126 184.363 21.7321 185.705 21.2969C187.677 20.5922 189.824 20.541 191.828 21.1509C193.088 21.5835 194.215 22.3481 195.481 22.7644C196.097 23.0221 196.772 23.1072 197.432 23.0107C198.093 22.9141 198.715 22.6395 199.232 22.2163C200.1 21.3304 200.155 19.9532 200.157 18.7126C200.217 18.2974 200.184 17.8741 200.059 17.4734C199.935 17.0727 199.723 16.7048 199.438 16.3966C198.932 16.1032 198.363 15.9348 197.778 15.9054C196.468 15.663 195.285 14.9713 194.43 13.9495" fill="#3F3D56"/>
<path d="M208.317 10.8032C207.806 10.7755 207.298 10.8794 206.839 11.105C206.381 11.3306 205.989 11.6704 205.7 12.0916C205.41 12.5128 205.235 13.0013 205.189 13.5101C205.143 14.0189 205.229 14.5308 205.439 14.9968C207.005 15.424 208.642 15.5307 210.251 15.3106C211.053 15.186 211.801 14.8267 212.399 14.2779C212.998 13.7292 213.42 13.0155 213.614 12.2269C211.72 12.5716 209.765 12.1983 208.132 11.1799" fill="#3F3D56"/>
<path d="M252.046 4.74275C247.782 5.64925 243.64 7.05622 239.707 8.9344C241.561 9.64721 243.137 10.9369 244.203 12.6133C245.27 14.2898 245.769 16.2644 245.628 18.2461C245.461 19.0069 245.481 19.7966 245.684 20.5484C246.137 21.647 247.45 22.0592 248.605 22.3412C250.679 22.9725 252.845 23.2489 255.011 23.1589C256.095 23.1022 257.147 22.7762 258.073 22.2104C258.999 21.6446 259.769 20.8569 260.314 19.9185C260.628 19.0278 260.996 18.1573 261.417 17.3117C264.184 13.0972 272.405 18.1932 275.376 14.1198C276.423 12.6848 276.327 10.5249 277.691 9.38788C278.397 8.89249 279.215 8.58036 280.072 8.47956C286.047 7.29247 292.082 6.43289 298.151 5.9047C301.026 5.65446 304.774 4.62194 304.798 1.73566C293.967 -0.391496 282.737 1.1193 272.853 6.03316C269.292 7.81676 264.582 11.5686 261.152 9.204C259.868 8.31864 259.931 5.93459 258.164 4.93903C256.356 3.92119 253.964 4.33516 252.046 4.74275Z" fill="#3F3D56"/>
<path d="M287.466 11.3671L292.55 12.3441C291.615 12.3026 290.681 12.4612 289.811 12.8093C288.941 13.1574 288.156 13.6869 287.507 14.3626C286.858 15.0383 286.361 15.8446 286.048 16.7278C285.736 17.6109 285.615 18.5505 285.694 19.4839C290.455 21.0744 295.646 19.5267 300.662 19.7381C305.677 19.9495 311.512 23.5321 310.656 28.4784C310.397 29.9739 309.533 31.4685 309.983 32.9183C310.297 33.9345 311.194 34.6555 311.7 35.5914C312.754 37.5416 311.911 40.0083 310.58 41.7811C309.249 43.5539 307.46 44.9684 306.292 46.8524C303.386 51.5382 305.037 57.5959 306.768 62.8308C307.268 64.8087 308.193 66.6544 309.477 68.24C312.041 70.9667 316.22 71.2038 319.963 71.2584C322.687 71.2982 325.807 71.1636 327.53 69.053C329.779 66.2975 328.207 61.9984 329.687 58.7645C331.032 55.8274 334.458 54.5674 337.562 53.6737C343.249 52.0365 349.045 50.6447 354.421 48.1717C361.097 45.101 367.337 40.3155 374.675 39.9202C376.733 39.8093 378.843 40.0523 380.826 39.4882C382.809 38.9242 384.692 37.2098 384.542 35.1537C384.414 33.3969 382.928 32.1068 381.766 30.7824C380.605 29.4581 379.693 27.4216 380.76 26.0204L399.994 22.4279C398.63 18.7124 397.568 13.819 400.701 11.4005C401.832 10.5279 403.345 10.1792 404.307 9.12426C405.948 7.32628 405.123 4.22908 403.229 2.69999C401.336 1.17091 398.776 0.815943 396.35 0.614476C387.917 -0.0859236 379.435 0.376886 370.985 0.840055C354.468 1.74545 337.95 2.65085 321.432 3.55624C318.107 3.73849 314.268 3.46005 311.219 4.59445C308.637 5.55483 306.801 7.31772 303.848 7.93709C298.397 9.08053 292.399 8.30678 287.466 11.3671Z" fill="#3F3D56"/>
<path d="M378.549 51.5539C378.031 51.4719 377.501 51.5921 377.069 51.8895C376.783 52.2041 376.613 52.6066 376.587 53.0307C376.259 54.9024 376.65 56.829 377.682 58.4246C378.208 59.2074 378.933 59.8352 379.783 60.2429C380.634 60.6505 381.578 60.8231 382.517 60.7427C384.806 60.4508 386.493 58.4977 388.598 57.5447C391.842 56.0771 405.618 53.7894 396.088 48.641C392.804 46.8668 390.682 48.433 388.094 49.6015C385.149 51.108 381.849 51.7831 378.549 51.5539Z" fill="#3F3D56"/>
<path d="M462.015 8.46043C460.903 8.91504 459.972 9.72533 459.368 10.7648C459.09 11.2926 459.025 11.9071 459.188 12.4812C459.35 13.0553 459.727 13.5451 460.24 13.8491C460.656 13.9998 461.096 14.0697 461.538 14.055L466.063 14.1902C467.985 14.2476 470.386 14.657 470.902 16.5092C471.286 17.8846 470.427 19.652 471.463 20.6348C471.908 20.979 472.442 21.1875 473.002 21.2351C474.493 21.618 476.049 21.6682 477.561 21.3823C480.853 20.4993 479.123 18.49 480.16 16.701C481.746 13.9636 481.472 15.6207 484.267 14.0518C486.331 12.8932 488.999 10.7915 487.276 7.83848C484.28 2.7033 466.437 6.25438 462.015 8.46043Z" fill="#3F3D56"/>
<path d="M551.317 5.87909L548.69 6.22968C542.765 7.02027 536.807 7.81813 531.101 9.59723C533.571 10.5738 536.163 11.2097 538.804 11.4874C540.258 11.5586 541.703 11.764 543.119 12.1007C545.639 12.851 548.179 14.7884 550.614 13.7959C552.123 13.1806 552.616 11.6086 553.866 10.7755C554.73 10.2003 558.005 9.26922 558.371 8.6886C561.331 3.99471 553.592 5.57546 551.317 5.87909Z" fill="#3F3D56"/>
<path d="M562.853 17.8195C559.344 19.7818 556.088 22.1663 553.158 24.9197C551.924 26.0801 550.663 27.5233 550.775 29.2137C550.924 31.4605 553.317 32.7638 555.391 33.6417L563.789 37.1975C564.808 35.7615 563.876 33.7791 562.823 32.3679C561.77 30.9567 560.518 29.3239 560.983 27.6257C561.514 25.6878 563.877 25.0274 565.859 24.6935C569.087 24.1496 577.796 24.1932 576.75 18.9903C575.517 12.8598 566.094 16.0081 562.853 17.8195Z" fill="#3F3D56"/>
<path d="M561.165 364.752C560.365 367.066 560.289 369.793 561.672 371.814C563.224 374.082 566.33 374.927 569.017 374.352C571.693 373.64 574.078 372.107 575.837 369.968C577.445 368.176 578.768 366.147 579.759 363.953C581.143 360.533 582.118 356.963 582.666 353.315L585.274 339.624C585.857 336.564 585.834 327.182 580.21 330.239C578.674 331.074 575.116 337.667 573.506 339.536C570.604 342.905 570.22 346.175 568.693 350.257C566.779 355.369 562.933 359.631 561.165 364.752Z" fill="#3F3D56"/>
<path d="M858.207 434.815C856.366 434.097 854.58 433.247 852.862 432.271C851.14 437.006 850.224 441.997 850.153 447.036L862.746 439.91C864.64 438.838 866.787 437.349 866.746 435.173C866.764 434.904 866.708 434.636 866.585 434.396C866.463 434.156 866.278 433.954 866.05 433.81C865.77 433.698 865.466 433.662 865.167 433.706C863.3 433.862 861.598 434.781 859.836 435.42C858.075 436.059 856.015 436.396 854.399 435.448" fill="#3F3D56"/>
<path d="M924.635 439.045C923.252 439.422 921.902 439.906 920.596 440.495C917.707 441.965 915.741 444.758 913.14 446.694C910.652 448.547 907.656 449.565 904.715 450.554C903.85 451.319 904.248 452.859 905.187 453.531C906.197 454.105 907.354 454.365 908.513 454.278C911.568 454.346 914.787 454.375 917.463 452.899C918.97 451.921 920.381 450.801 921.676 449.555C924.805 446.944 928.562 445.222 932.282 443.557C933.636 443.046 934.887 442.298 935.978 441.347C938.315 439.045 938.48 435.492 935.11 434.709C932.387 434.076 927.227 438.207 924.635 439.045Z" fill="#3F3D56"/>
<path d="M953.985 419.874C954.137 418.289 953.926 416.691 953.369 415.2C952.812 413.709 951.924 412.364 950.771 411.267C950.737 414.437 950.641 417.814 948.858 420.435C947.587 422.303 945.596 423.565 944.204 425.344C942.812 427.123 942.194 429.943 943.827 431.504C944.87 432.298 946.141 432.736 947.452 432.753C950.702 433.135 954.463 433.348 956.743 431.001C957.987 429.719 958.592 427.821 960.109 426.879C960.674 426.642 961.179 426.281 961.586 425.822C962.212 424.826 961.217 423.514 960.097 423.155C958.976 422.796 957.741 422.965 956.615 422.624C955.489 422.283 954.456 421.017 955.034 419.992" fill="#3F3D56"/>
<path d="M901.82 303.647C900.115 304.062 898.349 304.166 896.608 303.955C893.715 303.423 891.463 301.242 889.127 299.454C883.575 295.227 876.825 292.869 869.848 292.718C863.502 292.599 857.096 294.318 850.862 293.118C851.269 295.384 853.208 297.083 855.276 298.092C857.344 299.102 859.627 299.61 861.705 300.6C865.033 302.2 867.672 304.946 869.14 308.335C869.809 309.897 870.23 311.597 871.244 312.961C873.316 315.749 877.244 316.362 880.71 316.134C885.23 315.836 889.95 314.536 894.155 316.22C897.371 317.508 899.673 320.324 902.359 322.513C905.044 324.702 908.827 326.326 911.911 324.747C908.708 323.71 905.92 321.676 903.954 318.942C901.989 316.209 900.948 312.919 900.985 309.552C904.009 309.83 912.721 309.722 912.252 304.583C911.854 300.227 904.417 303.177 901.82 303.647Z" fill="#3F3D56"/>
<path d="M862.252 339.085C862.79 336.139 865.727 333.538 864.812 330.688C864.179 328.716 861.893 327.743 859.823 327.694C857.753 327.645 855.72 328.262 853.65 328.32C852.303 328.249 850.952 328.268 849.608 328.378C845.499 329.053 842.967 333.359 839.095 334.89C836.74 335.821 834.096 335.644 831.647 336.287C826.089 337.748 822.572 343 818.687 347.235C812.409 354.047 804.23 358.816 795.21 360.926C792.05 361.658 788.653 362.126 786.141 364.178C782.814 366.896 781.996 371.556 781.255 375.787C779.211 387.474 776.086 398.945 771.921 410.054L785.119 411.739C787.628 412.059 790.228 412.372 792.646 411.629C794.403 410.967 796.067 410.08 797.597 408.992C803.475 405.343 810.054 402.968 816.907 402.022C820.363 401.547 823.987 401.46 827.23 402.745C830.473 404.03 833.256 406.943 833.528 410.421C834.93 409.984 836.425 409.937 837.852 410.285C839.28 410.632 840.586 411.36 841.631 412.392C843.698 414.497 845.051 417.199 845.5 420.115C845.848 421.921 846.196 424.084 847.871 424.842C849.238 425.46 850.806 424.794 852.301 424.674C857.376 424.268 861.586 430.185 866.573 429.166C871.922 428.073 873.235 420.063 878.454 418.458C881.451 417.537 885.654 418.657 887.09 415.869C888.355 413.412 885.831 410.577 886.091 407.825C886.411 404.438 890.408 403 893.488 401.554C904.109 396.57 909.149 382.276 904.003 371.733C900.953 365.486 894.953 360.569 893.845 353.707C892.993 348.427 895.074 342.271 891.708 338.115C889.995 336.001 887.096 334.834 886.077 332.311C885.436 330.723 885.693 328.922 885.348 327.244C885.003 325.567 883.54 323.813 881.883 324.247C877.075 325.509 875.541 340.362 872.967 343.971C869.053 349.457 861.02 345.844 862.252 339.085Z" fill="#3F3D56"/>
<path d="M773.381 309.259C771.737 308.798 769.943 308.345 768.369 309.003C766.795 309.661 765.875 311.973 767.139 313.12C777.024 312.735 786.97 312.352 796.771 313.695C808.063 315.242 819.239 319.073 830.581 317.946C824.102 316.034 817.516 314.506 810.858 313.369L799.754 311.248C796.775 310.624 793.766 310.159 790.738 309.855C784.403 309.331 779.609 311.006 773.381 309.259Z" fill="#3F3D56"/>
<path d="M783.277 274.831C782.456 274.763 781.44 274.704 781.015 275.409C780.61 276.083 781.074 276.974 780.856 277.73C780.558 278.763 779.205 279.027 778.14 278.886C777.074 278.745 775.922 278.409 774.977 278.923C774.499 279.25 774.139 279.723 773.952 280.272C773.765 280.821 773.761 281.416 773.941 281.967C774.327 283.062 774.951 284.057 775.769 284.881C777.165 286.64 778.756 288.236 780.511 289.637C783.909 292.145 788.511 293.354 790.651 296.994C790.953 297.7 791.417 298.324 792.006 298.817C793.033 299.468 794.373 298.973 795.479 298.467L799.355 296.696C800.054 296.444 800.677 296.02 801.168 295.463C802.054 294.261 801.51 292.553 800.766 291.258C800.023 289.963 799.071 288.623 799.231 287.139C799.515 284.492 802.918 283.48 804.317 281.216C805.728 278.933 804.809 275.992 804.972 273.314C805.162 270.181 807.13 266.107 803.964 263.767C801.273 261.778 798.7 263.616 796.768 265.812C792.694 270.442 790.767 275.457 783.277 274.831Z" fill="#3F3D56"/>
<path d="M806.81 228.032C808.133 230.566 810.893 232.079 812.336 234.547C813.901 237.222 813.722 240.678 815.42 243.271C817.161 245.932 820.665 247.344 821.642 250.37C822.708 253.673 820.289 257.689 822.217 260.575C822.577 261.047 823.03 261.439 823.549 261.726C824.068 262.013 824.641 262.19 825.232 262.244C825.823 262.298 826.418 262.229 826.981 262.041C827.544 261.853 828.061 261.551 828.501 261.152C829.314 260.267 829.749 259.099 829.713 257.898C829.678 256.697 829.174 255.557 828.311 254.721C827.169 253.68 825.53 253.231 824.576 252.015C824.08 251.313 823.749 250.508 823.609 249.66C823.09 247.214 823.173 244.678 823.852 242.271C824.107 241.66 824.172 240.987 824.038 240.339C823.608 239.091 821.919 239.003 820.734 238.424C818.042 237.11 818.107 233.31 818.577 230.351C818.264 232.321 811.247 228.971 810.512 227.855C809.053 225.638 809.847 221.362 809.558 218.913C806.407 220.431 805.192 224.933 806.81 228.032Z" fill="#3F3D56"/>
<path d="M736.118 267.025C734.823 265.575 732.872 264.058 731.136 264.933C729.811 265.6 729.446 267.433 729.966 268.822C730.598 270.172 731.572 271.333 732.791 272.19C736.409 275.175 740.306 277.868 743.463 281.337C749.112 287.545 752.105 295.922 758.248 301.641C759.483 302.967 761.119 303.852 762.904 304.161C764.694 304.328 766.704 303.182 766.91 301.396C767.079 299.925 766.054 298.608 765.051 297.518C762.665 294.922 760.052 292.533 757.799 289.82C756.758 288.778 756.104 287.412 755.945 285.948C755.934 284.488 757.266 282.959 758.681 283.321C756.96 282.881 755.683 280.014 753.157 279.475C751.046 279.025 750.536 280.331 748.024 279.254C743.232 277.199 739.473 270.781 736.118 267.025Z" fill="#3F3D56"/>
<path d="M848.701 125.851C847.326 125.443 845.975 124.96 844.653 124.405C841.095 123.338 836.389 125.952 836.863 129.636C837.178 132.084 839.456 133.734 840.714 135.857C842.579 139.006 842.082 142.999 841.102 146.525C840.861 147.617 840.403 148.649 839.756 149.561C838.85 150.523 837.768 151.301 836.568 151.854C831.764 154.548 827.527 158.147 824.092 162.453C823.718 162.85 823.458 163.341 823.338 163.873C823.169 165.117 824.419 166.023 825.126 167.06C826.696 169.365 825.561 172.466 825.716 175.25C825.692 175.643 825.77 176.037 825.94 176.392C826.111 176.748 826.37 177.054 826.692 177.281C827.638 177.762 828.76 176.945 829.273 176.016C830.975 172.932 829.693 167.982 832.886 166.495C833.49 166.213 834.222 166.095 834.625 165.564C835.265 164.722 834.648 163.476 834.972 162.47C835.458 160.959 837.525 160.891 839.11 160.958C841.842 161.072 844.572 160.709 847.179 159.884C848.201 159.641 849.13 159.103 849.85 158.337C850.804 157.146 850.72 155.452 850.529 153.937C849.574 146.386 847.182 139.087 843.482 132.435C846.287 132.793 849.339 133.104 851.76 131.642C853.115 130.823 854.741 128.375 854.069 126.709C853.005 124.074 851.085 126.292 848.701 125.851Z" fill="#3F3D56"/>
<path d="M489.078 167.383C489.413 169.183 489.743 171.079 489.153 172.813C488.563 174.547 486.707 175.995 484.954 175.464C483.594 175.052 482.808 173.684 481.842 172.641C476.471 166.842 464.351 170.2 461.033 163.025C459.679 160.097 460.599 156.589 459.675 153.498C459.093 151.712 457.933 150.17 456.379 149.114C454.825 148.058 452.964 147.548 451.088 147.665C449.378 147.912 447.713 148.409 446.146 149.14C435.655 153.342 424.64 156.097 413.406 157.329C411.271 157.459 409.159 157.843 407.115 158.473C402.502 160.146 399.35 164.422 397.107 168.786C394.864 173.15 393.208 177.875 390.201 181.752C387.04 185.827 382.612 188.68 378.48 191.766C376.889 192.792 375.564 194.181 374.614 195.819C373.718 197.657 373.769 199.796 373.838 201.84L374.683 226.666C374.791 229.86 374.928 233.167 376.357 236.025C378.142 239.593 381.667 241.93 384.113 245.083C386.609 248.322 387.909 252.324 387.794 256.412C387.742 258.056 387.578 260 388.858 261.032C389.637 261.537 390.548 261.799 391.476 261.785L425.058 264.533C430.966 265.017 437.512 265.812 441.369 270.312C443.19 272.436 444.652 275.491 447.44 275.719C448.636 275.817 449.799 275.326 450.995 275.231C454.013 274.992 456.664 277.283 458.337 279.805C460.87 283.651 462.019 288.243 461.597 292.828C461.323 295.706 460.43 298.503 460.238 301.388C459.506 312.364 468.811 321.9 468.991 332.898C469.097 339.368 466.026 345.413 463.032 351.148C467.864 358.469 463.907 368.218 465.831 376.777C467.656 384.896 474.426 391.253 476.113 399.403C476.886 403.134 476.93 407.725 480.22 409.646C481.664 410.35 483.264 410.67 484.867 410.577C494.538 410.691 504.098 408.515 512.765 404.226C516.833 402.207 521.049 399.193 521.76 394.708C522.333 391.091 520.498 387.044 522.365 383.894C524.565 380.18 530.202 380.475 533.439 377.619C538.691 372.988 534.595 364.154 536.723 357.483C538.636 351.486 545.22 348.3 548.484 342.918C549.768 340.603 550.69 338.105 551.217 335.511C552.712 329.311 553.643 322.988 553.997 316.62C554.084 312.751 554.37 308.889 554.852 305.049C558.371 283.188 579.983 268.549 587 247.548C587.67 245.542 587.985 242.871 586.2 241.736C585.142 241.231 583.942 241.105 582.802 241.38L567.321 243.332C565.399 243.574 563.36 243.801 561.595 243.002C559.829 242.204 558.563 239.97 559.5 238.273C562.129 233.51 556.721 227.492 554.318 222.611C547.847 209.469 540.141 196.971 531.304 185.288C530.738 184.687 530.384 183.918 530.295 183.097L534.688 183.243C533.205 177.921 530.757 172.098 525.587 170.151C522.674 169.054 519.447 169.433 516.339 169.603C507.435 170.089 497.89 168.745 489.078 167.383Z" fill="#3F3D56"/>
<path d="M516.346 47.454C518.676 49.9282 521.287 52.5514 524.658 52.9826C530.612 53.7444 534.893 47.5873 537.618 42.2392C537.719 43.6026 538.348 44.8729 539.371 45.7799C540.394 46.6868 541.731 47.1589 543.096 47.0957C544.566 46.8484 545.969 46.3 547.217 45.4849C559.013 39.038 572.227 35.6222 585.67 35.5442C585.541 34.5259 585.794 33.4958 586.38 32.6527C586.965 31.8096 587.842 31.2133 588.842 30.9789C591.575 30.437 594.037 32.8001 595.356 35.2549C596.674 37.7097 597.496 40.555 599.591 42.3924C601.686 44.2299 605.742 44.1498 606.569 41.489C607.364 38.9345 604.702 36.7561 602.491 35.25C600.28 33.744 597.95 30.9566 599.439 28.734C610.734 26.2337 622.1 23.7239 633.658 23.227C635.626 23.2955 637.586 22.9577 639.418 22.2347C641.18 21.3697 642.582 19.4063 642.108 17.5009C639.585 18.0938 636.944 17.9221 634.519 17.0077C632.095 16.0933 629.998 14.4776 628.496 12.3666C644.533 11.0431 661.591 9.91509 675.804 17.4615C677.51 21.1229 668.817 24.1692 671.143 27.4716C671.884 28.5249 673.371 28.6484 674.659 28.6723C684.536 28.8557 694.469 29.0355 704.235 27.5444C707.803 26.9994 711.408 26.2302 714.991 26.6721C720.959 27.4081 726.063 31.3899 731.934 32.6882C734.324 33.2166 737.003 33.2345 739.017 31.8446C741.032 30.4547 741.897 27.2899 740.247 25.4831C745.775 20.0653 754.949 21.4081 762.242 24.0019C769.535 26.5956 776.443 30.7786 784.162 31.3567C789.697 31.7713 795.309 30.2825 800.778 31.2288C804.215 31.8235 807.413 33.3524 810.772 34.2918C817.125 36.0684 823.846 35.6934 830.442 35.7789C847.272 36.0056 863.918 39.3133 879.556 45.5383C881.591 46.2006 883.455 47.3018 885.016 48.7641C886.472 50.3223 887.214 52.7437 886.236 54.6382L870.076 52.2771C871.599 55.2743 875.538 55.7851 878.736 56.819C881.935 57.853 885.252 61.3855 883.329 64.1434C879.863 63.0398 876.723 66.505 874.972 69.6933C873.221 72.8816 871.088 76.6999 867.455 76.8941C864.203 77.068 860.269 74.2986 858.149 76.7713C861.078 80.4662 863.586 84.476 865.627 88.7264C867.722 93.0899 869.213 98.588 866.382 102.514C865.937 103.215 865.262 103.739 864.472 103.996C862.16 104.581 860.658 101.752 859 100.038C856.91 97.8779 853.751 97.266 850.921 96.2529C848.092 95.2398 845.111 93.2467 844.89 90.2496C844.752 88.3848 845.737 86.6514 846.462 84.9279C847.681 82.0229 848.214 78.876 848.02 75.7317C847.861 73.202 847.152 70.5706 845.335 68.8031C843.518 67.0356 840.382 66.4749 838.431 68.0937C837.521 68.8491 836.792 70.0573 835.61 70.1025C833.522 70.1824 831.919 66.5419 830.239 67.7846C830.436 69.1087 830.161 70.46 829.463 71.6022C824.45 75.9623 816.748 74.1177 810.285 75.6579C807.212 76.5374 804.27 77.8224 801.536 79.479C800.513 79.9163 799.643 80.6468 799.035 81.5782C798.228 83.146 799.118 85.1538 800.54 86.1962C802.048 87.1211 803.742 87.6995 805.501 87.8897C813.38 89.3819 821.374 91.692 827.595 96.7528C833.815 101.814 837.895 110.18 835.926 117.953L820.388 103.106C820.978 109.34 821.313 115.591 821.393 121.86C821.493 123.084 821.325 124.315 820.9 125.467C819.793 127.914 816.79 128.737 814.16 129.277C813.428 129.416 812.734 129.708 812.123 130.135C811.512 130.561 810.999 131.112 810.616 131.75C810.233 132.389 809.99 133.102 809.902 133.842C809.814 134.581 809.884 135.331 810.106 136.042C811.041 139.089 813.372 141.464 815.506 143.831C817.64 146.198 819.74 148.888 820.019 152.062C820.298 155.237 817.903 158.815 814.724 158.595C812.314 158.427 810.526 156.27 809.498 154.083C808.47 151.897 807.858 149.462 806.314 147.604C801.639 141.981 791.138 144.39 786.95 138.396C785.882 139.607 785.142 141.071 784.799 142.649C784.457 144.226 784.523 145.865 784.991 147.41C786.94 146.19 789.607 147.323 791.071 149.096C792.535 150.868 793.225 153.14 794.375 155.131C795.926 157.817 798.395 160.198 798.612 163.292C798.554 164.462 798.574 165.635 798.671 166.802C799.055 168.677 800.64 170.023 801.739 171.59C804.295 175.237 804.169 180.246 802.521 184.383C800.873 188.52 797.913 191.977 794.981 195.329C789.859 201.183 784.633 207.003 778.561 211.865C776.829 213.252 774.98 214.616 773.901 216.556C772.822 218.495 772.766 221.218 774.424 222.693C773.238 222.752 771.11 223.336 769.924 223.395C769.507 218.636 769.416 213.853 769.652 209.081C764.97 206.833 759.929 212.854 760.533 218.013C761.137 223.171 764.869 227.311 767.525 231.774C769.468 235.038 770.911 238.843 770.263 242.586C769.614 246.328 766.274 249.781 762.49 249.45C756.471 248.925 753.954 240.285 747.994 239.296C747.468 239.173 746.916 239.228 746.425 239.452C745.541 239.938 745.387 241.121 745.337 242.129C745.093 247.077 744.882 252.22 746.813 256.781C749.639 263.454 756.937 269.058 755.406 276.141C747.159 272.307 742.87 263.058 740.923 254.174C738.976 245.289 738.652 235.963 735.162 227.564C732.512 230.961 726.941 228.153 724.52 224.589C722.225 221.211 720.811 217.303 718.584 213.879C716.357 210.455 712.945 207.389 708.865 207.201C704.587 207.004 700.877 209.939 697.614 212.713C694.931 214.994 692.177 217.365 690.609 220.517C688.327 225.105 688.924 230.514 688.814 235.637C688.695 241.176 687.521 247.019 683.746 251.074C679.971 255.129 673.004 256.541 668.84 252.887C666.666 250.979 665.614 248.129 664.677 245.393C660.158 232.204 656.394 218.769 653.405 205.152C652.705 208.26 649.976 212.266 647.369 210.435C646.784 209.943 646.31 209.332 645.978 208.643C641.115 200.401 632.109 195.457 623.01 192.493C613.91 189.528 604.337 188.146 595.338 184.888C590.296 183.061 585.479 180.662 580.984 177.738C579.838 179.421 579.169 181.384 579.047 183.417C578.926 185.45 579.356 187.478 580.294 189.286C582.29 192.82 586.807 194.865 590.673 193.63C592.671 192.991 594.359 191.604 596.341 190.919C598.324 190.234 600.985 190.57 601.852 192.481C602.682 194.309 601.427 196.521 602.049 198.429C602.997 201.337 607.382 201.561 608.915 204.207C610.056 206.175 609.118 208.789 607.489 210.378C605.86 211.966 603.686 212.837 601.698 213.943C595.246 217.531 590.658 223.655 585.019 228.42C579.381 233.185 571.425 236.664 564.706 233.608C566.307 225.497 556.646 219.542 554.868 211.467C554.283 208.81 554.586 205.987 553.751 203.397C552.542 199.647 549.215 197.069 546.486 194.227C543.176 190.743 540.597 186.632 538.902 182.135C537.206 177.638 536.429 172.847 536.615 168.045C536.763 164.708 537.376 161.317 536.616 158.064C535.855 154.811 533.163 151.663 529.825 151.811C522.204 152.147 512.602 152.714 508.603 146.217C507.176 143.898 506.555 140.502 508.619 138.725C510.074 137.472 512.223 137.59 514.134 137.778L531.307 139.468C535.324 139.863 539.665 140.189 543.112 138.089C546.558 135.989 548.052 130.416 544.861 127.945C542.529 126.14 538.351 126.238 537.673 123.368C537.108 120.978 539.754 118.266 538.325 116.269C537.301 114.836 534.997 115.234 533.602 116.307C532.206 117.381 531.193 118.951 529.631 119.764C526.891 121.19 523.617 119.833 520.668 118.911C517.72 117.988 513.768 117.91 512.338 120.648C510.739 123.71 513.757 127.723 512.169 130.792C510.071 134.849 502.965 132.539 500.018 136.029C496.636 140.033 502.319 146.004 501.179 151.12C499.723 151.841 498.104 152.172 496.482 152.081C494.86 151.99 493.289 151.48 491.923 150.6C490.58 149.686 489.509 148.425 488.825 146.951C488.141 145.478 487.869 143.846 488.038 142.23C488.321 139.928 489.52 137.579 488.717 135.405C488.067 133.646 486.301 132.6 484.66 131.693L467.972 122.471C466.423 125.345 468.382 128.909 470.832 131.067C473.281 133.226 476.35 134.852 477.959 137.693C478.977 139.661 479.205 141.944 478.597 144.075C477.989 146.206 476.59 148.025 474.686 149.159C474.448 149.324 474.176 149.435 473.891 149.485C473.605 149.534 473.312 149.522 473.032 149.448C472.766 149.291 472.534 149.083 472.349 148.835C472.165 148.587 472.033 148.305 471.959 148.005C469.015 140.47 464.594 133.041 457.526 129.105C450.459 125.168 440.303 125.978 435.668 132.608C434.567 134.183 433.829 135.978 432.87 137.644C427.775 146.49 416.852 150.679 406.647 150.405C405.649 150.461 404.656 150.227 403.786 149.733C402.137 148.594 402.211 146.177 402.464 144.189L403.535 135.75C403.75 134.056 404.062 132.183 405.403 131.125C407.293 129.634 410.021 130.575 412.428 130.54C414.252 130.455 416.006 129.811 417.451 128.695C418.897 127.579 419.965 126.046 420.509 124.303C420.996 122.543 420.993 120.684 420.501 118.926C420.008 117.167 419.046 115.577 417.716 114.325C416.613 113.289 415.131 111.987 415.714 110.589C415.947 110.203 416.261 109.872 416.635 109.62C417.01 109.368 417.434 109.201 417.88 109.131C422.205 107.875 426.774 107.546 431.027 106.064C435.279 104.582 439.403 101.551 440.41 97.1615C440.719 95.8164 440.859 94.187 442.068 93.5201C442.674 93.2641 443.325 93.1311 443.983 93.1288C446.288 92.8008 448.388 91.6216 449.867 89.8234C451.347 88.0251 452.1 85.7381 451.978 83.4126C454.016 81.9886 456.871 83.0361 458.842 84.5507C460.814 86.0654 462.555 88.0665 464.954 88.7194C469.425 89.9362 473.745 85.9778 478.379 85.9595C480.327 85.9517 482.344 86.6407 484.177 85.9801C486.036 85.3104 487.145 83.4605 488.571 82.0939C489.998 80.7273 492.5 79.8937 493.817 81.3659L492.696 73.059C494.954 73.6296 497.309 73.7103 499.601 73.2959C501.893 72.8815 504.07 71.9814 505.986 70.6562L491.492 65.7589C490.987 65.6329 490.522 65.3839 490.137 65.0342C489.083 63.8995 490.13 62.1313 490.987 60.8414C493.036 57.7558 493.381 52.673 490.01 51.1368C487.709 50.0882 485.068 51.3469 482.859 52.5783L472.28 58.4768C471.944 60.4877 474.403 61.6273 475.927 62.9818C476.849 63.8013 477.501 64.8805 477.799 66.0776C478.096 67.2747 478.024 68.5338 477.593 69.6894C477.162 70.8451 476.391 71.8432 475.382 72.5528C474.373 73.2624 473.173 73.6502 471.94 73.6653C472.636 74.571 473.12 75.6218 473.356 76.7398C473.591 77.8579 473.572 79.0146 473.3 80.1244L466.183 80.6363C465.384 80.797 464.554 80.635 463.874 80.1857C463.113 79.5096 463.216 78.3249 463.04 77.3221C462.614 74.9019 460.244 73.2056 457.825 72.7706C455.407 72.3357 452.932 72.8932 450.537 73.4437C449.52 73.8096 448.404 73.7839 447.405 73.3714C446.832 72.9992 446.397 72.4498 446.165 71.8071C445.115 69.2612 446.097 66.2688 447.783 64.0916C449.47 61.9145 451.778 60.3229 453.851 58.5104C458.809 54.1602 462.452 48.5101 464.368 42.1985C468.286 40.5568 472.343 38.3261 476.261 36.6844C482.302 33.6259 489.077 32.3133 495.823 32.8943L509.093 33.1478C513.021 33.2228 517.056 33.319 520.689 34.8168C524.322 36.3145 527.514 39.554 527.765 43.4754C527.84 43.9194 527.802 44.3752 527.653 44.8003C527.504 45.2253 527.25 45.6056 526.914 45.9054C526.401 46.1854 525.82 46.3163 525.236 46.2835C521.572 46.4123 520.01 47.3252 516.346 47.454Z" fill="#3F3D56"/>
<path d="M410.578 89.0417C411.096 88.551 411.47 87.9268 411.656 87.2379C411.843 86.5489 411.836 85.8218 411.637 85.1364C410.375 84.6496 409.003 84.5246 407.674 84.7755C406.346 85.0264 405.113 85.6433 404.116 86.5566C403.33 87.3517 402.653 88.2474 402.101 89.2202C400.358 92.065 398.815 95.4631 399.826 98.6431C399.908 98.9899 400.059 99.3167 400.269 99.6044C400.48 99.8922 400.745 100.135 401.051 100.319C401.504 100.5 401.992 100.577 402.479 100.542C404.4 100.54 406.319 100.422 408.225 100.189C409.396 100.045 410.756 99.7148 411.209 98.6254C411.804 97.1934 410.364 95.5727 410.784 94.08C411.06 93.4124 411.478 92.8132 412.01 92.324C412.274 92.0777 412.476 91.7733 412.602 91.435C412.727 91.0967 412.772 90.7338 412.733 90.3751C412.564 89.6747 411.491 89.2773 411.105 89.8858" fill="#3F3D56"/>
<path d="M420.539 76.127C418.832 75.7352 417.073 75.6247 415.331 75.8C414.946 75.7885 414.564 75.8753 414.222 76.0521C413.89 76.2969 413.649 76.6453 413.538 77.0424C413.17 78.2233 413.26 79.4995 413.791 80.6167C414.322 81.7339 415.254 82.6103 416.402 83.0711C417.028 83.2149 417.627 83.4557 418.178 83.7848C419.651 84.9275 418.712 87.2633 418.991 89.1064C419.304 91.1761 421.307 92.9134 420.94 94.9742C420.651 96.5978 418.917 97.8833 419.196 99.5087C419.488 101.211 421.648 101.723 423.37 101.859C424.368 102.034 425.395 101.916 426.328 101.52C427.263 100.881 427.927 99.9181 428.194 98.8176C428.899 96.7194 429.195 94.5054 429.066 92.2957C429.059 91.2906 428.806 90.3026 428.331 89.417C427.813 88.7155 427.238 88.0574 426.612 87.4491C423.313 83.6118 426.787 77.8879 420.539 76.127Z" fill="#3F3D56"/>
<path d="M674.862 205.876C676.844 205.876 678.45 204.27 678.45 202.289C678.45 200.308 676.844 198.702 674.862 198.702C672.881 198.702 671.275 200.308 671.275 202.289C671.275 204.27 672.881 205.876 674.862 205.876Z" fill="#6C63FF"/>
<path d="M674.678 172.636C673.074 172.647 671.541 173.294 670.415 174.435C669.289 175.577 668.663 177.118 668.674 178.722C668.697 182.06 674.827 194.656 674.827 194.656C674.827 194.656 680.786 181.978 680.763 178.639C680.753 177.036 680.105 175.503 678.964 174.377C677.823 173.251 676.281 172.625 674.678 172.636ZM674.738 181.559C674.169 181.563 673.611 181.398 673.136 181.085C672.66 180.772 672.288 180.325 672.067 179.8C671.845 179.276 671.784 178.697 671.892 178.138C671.999 177.579 672.27 177.064 672.669 176.659C673.069 176.254 673.58 175.976 674.138 175.861C674.696 175.746 675.275 175.799 675.802 176.014C676.33 176.228 676.782 176.594 677.101 177.065C677.421 177.536 677.593 178.092 677.597 178.661C677.602 179.424 677.304 180.159 676.768 180.702C676.232 181.246 675.502 181.554 674.738 181.559L674.738 181.559Z" fill="#6C63FF"/>
<path d="M689.783 197.953C689.743 197.797 689.687 197.573 689.617 197.28C689.556 196.988 689.486 196.666 689.405 196.315C689.335 195.964 689.264 195.598 689.193 195.218C689.122 194.828 689.056 194.452 688.995 194.091C688.934 193.721 688.883 193.384 688.841 193.081C688.81 192.769 688.794 192.515 688.792 192.32C688.792 192.232 688.8 192.081 688.819 191.866C688.837 191.651 688.864 191.426 688.902 191.191C688.939 190.957 688.972 190.737 689 190.532C689.038 190.326 689.071 190.184 689.1 190.106C689.129 190.096 689.178 190.091 689.246 190.09C689.324 190.09 689.402 190.084 689.48 190.074C689.568 190.064 689.646 190.058 689.714 190.058C689.793 190.048 689.846 190.042 689.876 190.042C690.344 190.039 690.789 190.129 691.21 190.311C691.632 190.494 692.034 190.726 692.416 191.006C692.799 191.287 693.172 191.602 693.536 191.951C693.9 192.3 694.263 192.639 694.627 192.969C695 193.298 695.378 193.599 695.761 193.87C696.144 194.131 696.55 194.328 696.981 194.462C696.981 194.413 696.98 194.34 696.979 194.242C696.988 194.135 696.993 194.022 696.992 193.905C696.991 193.788 696.99 193.68 696.99 193.583C696.999 193.475 697.003 193.397 697.003 193.348C696.998 192.733 696.955 192.133 696.873 191.547C696.791 190.962 696.699 190.377 696.598 189.791C696.496 189.206 696.404 188.621 696.322 188.035C696.24 187.44 696.197 186.83 696.192 186.205C696.261 186.205 696.344 186.209 696.442 186.218C696.549 186.218 696.656 186.231 696.764 186.26C696.872 186.279 696.97 186.317 697.058 186.375C697.146 186.423 697.205 186.501 697.235 186.608C697.279 187.311 697.372 188.019 697.513 188.731C697.655 189.433 697.801 190.14 697.952 190.852C698.104 191.554 698.236 192.261 698.348 192.973C698.47 193.675 698.533 194.373 698.538 195.067C698.539 195.193 698.535 195.33 698.526 195.477C698.527 195.623 698.508 195.765 698.47 195.902C698.442 196.029 698.389 196.137 698.311 196.225C698.234 196.314 698.117 196.358 697.961 196.36C697.453 196.363 696.983 196.254 696.552 196.032C696.121 195.801 695.699 195.515 695.286 195.176C694.884 194.837 694.486 194.464 694.092 194.057C693.709 193.649 693.311 193.276 692.898 192.937C692.495 192.598 692.074 192.312 691.633 192.081C691.201 191.85 690.737 191.736 690.239 191.739C690.242 192.286 690.285 192.813 690.367 193.32C690.448 193.818 690.534 194.315 690.626 194.813C690.727 195.31 690.818 195.807 690.899 196.305C690.981 196.793 691.023 197.29 691.027 197.798C691.028 197.984 690.961 198.111 690.824 198.18C690.698 198.25 690.556 198.285 690.4 198.286C690.273 198.287 690.151 198.278 690.034 198.259C689.926 198.23 689.843 198.129 689.783 197.953ZM699.149 194.447C699.145 193.92 699.205 193.392 699.328 192.864C699.452 192.336 699.649 191.861 699.919 191.439C700.2 191.017 700.559 190.673 700.996 190.406C701.444 190.139 701.985 190.004 702.62 190C702.981 189.997 703.299 190.063 703.573 190.198C703.847 190.323 704.078 190.493 704.265 190.706C704.452 190.92 704.591 191.173 704.68 191.465C704.78 191.748 704.831 192.045 704.833 192.358C704.836 192.856 704.722 193.34 704.491 193.81C704.27 194.281 703.965 194.698 703.577 195.062C703.198 195.416 702.761 195.687 702.264 195.876C701.767 196.055 701.26 196.098 700.741 196.004C700.753 196.287 700.847 196.516 701.024 196.69C701.211 196.855 701.432 196.981 701.686 197.067C701.941 197.153 702.205 197.21 702.478 197.237C702.752 197.255 702.996 197.263 703.211 197.261C703.436 197.26 703.645 197.239 703.84 197.199C704.035 197.158 704.23 197.113 704.425 197.063C704.62 197.013 704.815 196.967 705.01 196.927C705.215 196.886 705.43 196.865 705.655 196.864C705.742 196.863 705.83 196.868 705.918 196.877C706.006 196.886 706.09 196.91 706.168 196.948C706.246 196.977 706.31 197.03 706.359 197.108C706.409 197.176 706.434 197.264 706.434 197.371C706.436 197.557 706.368 197.714 706.233 197.841C706.097 197.96 705.922 198.063 705.707 198.153C705.503 198.242 705.274 198.312 705.02 198.362C704.767 198.403 704.518 198.439 704.274 198.47C704.04 198.491 703.82 198.502 703.615 198.504C703.42 198.515 703.273 198.521 703.176 198.521C702.551 198.526 701.988 198.432 701.489 198.24C700.99 198.038 700.568 197.763 700.224 197.414C699.879 197.055 699.613 196.627 699.424 196.13C699.245 195.623 699.153 195.062 699.149 194.447ZM700.695 193.484C700.697 193.826 700.743 194.075 700.832 194.231C700.931 194.386 701.161 194.463 701.522 194.46C701.776 194.459 702.025 194.413 702.268 194.323C702.512 194.224 702.73 194.091 702.925 193.923C703.129 193.756 703.288 193.56 703.404 193.334C703.52 193.109 703.577 192.864 703.575 192.601C703.574 192.454 703.558 192.303 703.528 192.147C703.507 191.991 703.457 191.849 703.378 191.723C703.299 191.587 703.196 191.48 703.069 191.403C702.951 191.316 702.794 191.273 702.599 191.274C702.306 191.276 702.038 191.346 701.795 191.485C701.561 191.613 701.362 191.786 701.198 192.002C701.033 192.208 700.908 192.443 700.822 192.707C700.735 192.962 700.693 193.221 700.695 193.484ZM706.985 192.197C706.984 192.031 707.017 191.879 707.085 191.742C707.162 191.605 707.293 191.535 707.479 191.534C707.489 191.534 707.503 191.539 707.523 191.548C707.542 191.548 707.562 191.548 707.581 191.548C707.601 191.548 707.621 191.548 707.64 191.548C707.669 191.567 707.724 191.615 707.802 191.693C707.891 191.771 707.945 191.829 707.965 191.868C707.994 191.926 708.054 192.053 708.143 192.247C708.242 192.442 708.356 192.671 708.484 192.934C708.623 193.186 708.761 193.459 708.9 193.751C709.049 194.033 709.187 194.306 709.316 194.569C709.454 194.831 709.568 195.06 709.657 195.255C709.756 195.44 709.826 195.561 709.865 195.62C709.875 195.649 709.919 195.707 709.998 195.794C710.086 195.872 710.15 195.92 710.189 195.94C710.267 195.802 710.343 195.597 710.42 195.323C710.496 195.049 710.572 194.75 710.648 194.428C710.734 194.095 710.819 193.758 710.905 193.415C710.99 193.063 711.086 192.75 711.191 192.476C711.307 192.192 711.432 191.961 711.568 191.785C711.703 191.598 711.859 191.504 712.034 191.503C712.288 191.501 712.528 191.597 712.754 191.791C712.99 191.985 713.211 192.237 713.418 192.548C713.635 192.859 713.838 193.21 714.026 193.599C714.224 193.979 714.407 194.358 714.576 194.738C714.754 195.108 714.918 195.453 715.066 195.775C715.225 196.086 715.378 196.334 715.526 196.519C715.642 196.479 715.739 196.38 715.817 196.224C715.894 196.067 715.951 195.905 715.989 195.739C716.037 195.563 716.07 195.402 716.088 195.255C716.107 195.099 716.121 194.996 716.13 194.947C716.139 194.84 716.153 194.674 716.171 194.449C716.189 194.214 716.206 193.95 716.224 193.657C716.251 193.364 716.274 193.061 716.291 192.749C716.308 192.436 716.326 192.133 716.343 191.84C716.371 191.547 716.388 191.288 716.397 191.063C716.415 190.829 716.423 190.663 716.423 190.565C716.442 190.565 716.491 190.56 716.569 190.549C716.647 190.529 716.701 190.519 716.73 190.519C716.867 190.518 716.989 190.532 717.096 190.561C717.204 190.589 717.288 190.691 717.348 190.866C717.348 190.935 717.349 191.057 717.35 191.233C717.361 191.408 717.367 191.599 717.369 191.804C717.38 191.999 717.386 192.189 717.387 192.375C717.398 192.551 717.404 192.673 717.404 192.741C717.405 192.897 717.407 193.142 717.409 193.474C717.421 193.796 717.419 194.157 717.402 194.558C717.395 194.958 717.368 195.368 717.322 195.789C717.276 196.199 717.201 196.581 717.096 196.933C717 197.275 716.866 197.559 716.691 197.785C716.517 198.001 716.298 198.11 716.034 198.112C715.732 198.114 715.448 198.043 715.183 197.898C714.919 197.753 714.668 197.56 714.432 197.317C714.206 197.074 713.989 196.807 713.782 196.516C713.575 196.214 713.383 195.913 713.205 195.612C713.037 195.3 712.879 195.008 712.73 194.736C712.592 194.454 712.468 194.215 712.359 194.021C712.282 194.197 712.21 194.417 712.144 194.681C712.087 194.945 712.021 195.234 711.945 195.547C711.869 195.85 711.783 196.158 711.687 196.471C711.592 196.775 711.481 197.054 711.356 197.309C711.24 197.554 711.1 197.755 710.935 197.912C710.78 198.069 710.6 198.149 710.395 198.15C710.297 198.151 710.209 198.156 710.131 198.167C710.053 198.167 709.98 198.163 709.912 198.153C709.843 198.134 709.779 198.101 709.72 198.052C709.661 198.004 709.607 197.926 709.558 197.819L707.017 192.489C707.016 192.48 707.011 192.441 707.001 192.372C706.991 192.294 706.986 192.236 706.985 192.197ZM725.065 188.412C725.063 188.002 725.178 187.664 725.41 187.399C725.653 187.133 725.949 186.926 726.3 186.777C726.66 186.619 727.045 186.513 727.455 186.462C727.864 186.4 728.235 186.369 728.567 186.366C729.202 186.362 729.735 186.485 730.167 186.736C730.608 186.978 730.961 187.302 731.228 187.711C731.504 188.119 731.703 188.591 731.823 189.128C731.944 189.664 732.007 190.21 732.01 190.767C732.013 191.138 731.977 191.578 731.902 192.086C731.827 192.585 731.714 193.103 731.561 193.641C731.408 194.17 731.217 194.698 730.986 195.227C730.765 195.746 730.504 196.217 730.204 196.639C729.904 197.051 729.565 197.385 729.186 197.642C728.816 197.898 728.407 198.028 727.958 198.031C727.87 198.032 727.762 197.915 727.633 197.682C727.514 197.438 727.376 197.117 727.217 196.718C727.067 196.318 726.908 195.86 726.739 195.344C726.579 194.818 726.419 194.277 726.259 193.721C726.099 193.156 725.948 192.59 725.808 192.025C725.667 191.459 725.537 190.938 725.416 190.46C725.306 189.982 725.22 189.563 725.159 189.202C725.098 188.841 725.067 188.578 725.065 188.412ZM726.287 189.238C726.289 189.551 726.311 189.907 726.353 190.307C726.404 190.707 726.475 191.122 726.566 191.551C726.667 191.98 726.787 192.414 726.927 192.852C727.076 193.281 727.245 193.685 727.433 194.065C727.621 194.444 727.833 194.79 728.07 195.1C728.306 195.402 728.572 195.639 728.866 195.813C729.195 195.342 729.48 194.92 729.721 194.547C729.963 194.174 730.161 193.802 730.314 193.43C730.468 193.058 730.578 192.661 730.643 192.241C730.719 191.821 730.754 191.332 730.751 190.776C730.748 190.375 730.721 189.985 730.669 189.604C730.618 189.224 730.508 188.887 730.34 188.596C730.182 188.294 729.956 188.056 729.662 187.882C729.367 187.699 728.981 187.609 728.502 187.612C728.112 187.615 727.731 187.681 727.361 187.81C727.001 187.93 726.65 188.088 726.31 188.286C726.31 188.315 726.305 188.374 726.296 188.462C726.297 188.55 726.298 188.647 726.298 188.755C726.299 188.853 726.295 188.95 726.286 189.048C726.286 189.136 726.287 189.199 726.287 189.238ZM732.605 194.22C732.601 193.693 732.661 193.165 732.785 192.637C732.908 192.109 733.105 191.634 733.376 191.212C733.656 190.79 734.015 190.446 734.453 190.179C734.9 189.912 735.441 189.777 736.076 189.773C736.437 189.77 736.755 189.836 737.029 189.971C737.304 190.096 737.534 190.266 737.721 190.479C737.908 190.693 738.047 190.946 738.137 191.238C738.236 191.521 738.287 191.818 738.289 192.131C738.293 192.629 738.179 193.113 737.948 193.583C737.726 194.053 737.421 194.471 737.033 194.835C736.655 195.189 736.217 195.46 735.72 195.649C735.223 195.828 734.716 195.871 734.198 195.777C734.209 196.06 734.304 196.289 734.481 196.463C734.667 196.628 734.888 196.753 735.142 196.84C735.397 196.926 735.661 196.983 735.935 197.01C736.208 197.028 736.452 197.036 736.667 197.034C736.892 197.033 737.102 197.012 737.297 196.971C737.492 196.931 737.687 196.886 737.882 196.836C738.077 196.785 738.272 196.74 738.467 196.7C738.672 196.659 738.886 196.638 739.111 196.637C739.199 196.636 739.287 196.641 739.375 196.65C739.463 196.659 739.546 196.683 739.624 196.721C739.702 196.75 739.766 196.803 739.816 196.881C739.865 196.949 739.89 197.037 739.891 197.144C739.892 197.33 739.825 197.487 739.689 197.614C739.553 197.733 739.378 197.836 739.164 197.926C738.959 198.015 738.73 198.085 738.476 198.135C738.223 198.176 737.974 198.212 737.73 198.243C737.496 198.264 737.276 198.275 737.071 198.277C736.876 198.288 736.729 198.294 736.632 198.294C736.007 198.299 735.445 198.205 734.945 198.013C734.446 197.811 734.024 197.536 733.68 197.186C733.336 196.827 733.069 196.4 732.88 195.903C732.701 195.396 732.609 194.835 732.605 194.22ZM734.151 193.257C734.154 193.599 734.199 193.848 734.288 194.004C734.387 194.159 734.617 194.236 734.978 194.233C735.232 194.232 735.481 194.186 735.724 194.096C735.968 193.997 736.187 193.864 736.381 193.696C736.585 193.529 736.745 193.333 736.86 193.107C736.976 192.882 737.033 192.637 737.031 192.374C737.03 192.227 737.014 192.076 736.984 191.92C736.963 191.764 736.914 191.622 736.835 191.496C736.756 191.36 736.652 191.253 736.525 191.176C736.407 191.089 736.251 191.046 736.055 191.047C735.762 191.049 735.494 191.119 735.251 191.258C735.018 191.386 734.818 191.558 734.654 191.774C734.489 191.981 734.364 192.216 734.278 192.48C734.192 192.735 734.15 192.994 734.151 193.257ZM741.102 189.944C741.1 189.66 741.078 189.387 741.037 189.124C740.997 188.85 740.985 188.611 741.003 188.406C741.021 188.191 741.093 188.02 741.22 187.892C741.355 187.764 741.599 187.699 741.951 187.696C742.06 187.92 742.164 188.261 742.265 188.72C742.376 189.178 742.482 189.705 742.584 190.3C742.685 190.895 742.782 191.543 742.875 192.246C742.968 192.939 743.051 193.636 743.124 194.339C743.207 195.042 743.275 195.735 743.328 196.418C743.391 197.091 743.44 197.706 743.473 198.263C743.152 198.48 742.893 198.496 742.697 198.312C742.5 198.128 742.337 197.816 742.207 197.378C742.077 196.929 741.975 196.388 741.903 195.754C741.83 195.11 741.757 194.446 741.684 193.763C741.621 193.07 741.543 192.392 741.451 191.728C741.358 191.055 741.242 190.46 741.102 189.944ZM744.594 188.689C744.593 188.582 744.602 188.45 744.621 188.294C744.649 188.127 744.692 187.971 744.749 187.824C744.817 187.677 744.899 187.554 744.996 187.456C745.093 187.348 745.219 187.293 745.376 187.292C745.385 187.292 745.41 187.297 745.449 187.307C745.488 187.316 745.513 187.321 745.522 187.321C745.693 187.925 745.794 188.525 745.828 189.12C745.861 189.716 745.855 190.297 745.81 190.864C745.765 191.421 745.696 191.963 745.601 192.491C745.507 193.009 745.428 193.488 745.362 193.928C745.307 194.368 745.27 194.764 745.253 195.116C745.246 195.467 745.301 195.765 745.42 196.008C745.4 195.852 745.384 195.667 745.373 195.452C745.371 195.227 745.389 194.998 745.426 194.763C745.474 194.528 745.545 194.293 745.641 194.058C745.747 193.823 745.897 193.612 746.091 193.425C746.285 193.238 746.533 193.09 746.835 192.981C747.147 192.871 747.532 192.815 747.991 192.812C748.47 192.809 748.881 192.889 749.223 193.053C749.576 193.216 749.866 193.444 750.092 193.735C750.319 194.017 750.487 194.353 750.597 194.742C750.717 195.123 750.778 195.532 750.781 195.972C750.783 196.177 750.78 196.411 750.772 196.675C750.773 196.929 750.741 197.168 750.674 197.393C750.617 197.609 750.506 197.795 750.341 197.952C750.186 198.1 749.952 198.175 749.639 198.177C749.638 198.021 749.646 197.811 749.664 197.547C749.682 197.273 749.69 196.985 749.688 196.682C749.695 196.379 749.683 196.072 749.652 195.76C749.63 195.447 749.565 195.169 749.456 194.926C749.347 194.673 749.194 194.469 748.998 194.314C748.811 194.149 748.552 194.068 748.22 194.07C748.102 194.071 747.956 194.082 747.78 194.102C747.614 194.113 747.444 194.158 747.269 194.238C747.093 194.317 746.923 194.44 746.758 194.607C746.593 194.765 746.463 194.985 746.367 195.269C746.272 195.543 746.215 195.895 746.199 196.325C746.192 196.745 746.249 197.262 746.37 197.877C746.303 198.053 746.216 198.156 746.109 198.186C746.011 198.216 745.885 198.232 745.728 198.233C745.416 198.235 745.156 198.129 744.95 197.916C744.753 197.692 744.6 197.396 744.49 197.025C744.38 196.655 744.304 196.226 744.261 195.738C744.229 195.25 744.215 194.742 744.221 194.214C744.228 193.677 744.248 193.135 744.284 192.588C744.329 192.031 744.369 191.508 744.405 191.02C744.45 190.521 744.491 190.072 744.528 189.671C744.574 189.261 744.596 188.933 744.594 188.689ZM751.96 192.668C751.96 192.609 751.959 192.516 751.958 192.389C751.967 192.253 751.971 192.111 751.97 191.965C751.979 191.818 751.983 191.676 751.982 191.54C751.991 191.403 751.995 191.305 751.995 191.247C752.101 191.09 752.237 190.962 752.402 190.863C752.577 190.764 752.752 190.685 752.928 190.625C752.961 191.152 753.047 191.713 753.188 192.308C753.329 192.903 753.48 193.502 753.64 194.107C753.8 194.701 753.941 195.291 754.062 195.876C754.193 196.461 754.26 197.008 754.264 197.515C754.267 197.955 754.044 198.176 753.594 198.179C753.321 198.181 753.091 198.07 752.904 197.847C752.717 197.624 752.563 197.341 752.444 197C752.334 196.65 752.243 196.265 752.172 195.845C752.101 195.416 752.049 194.996 752.017 194.586C751.995 194.176 751.978 193.8 751.966 193.459C751.963 193.117 751.961 192.853 751.96 192.668ZM752.128 187.173C752.314 187.25 752.471 187.376 752.599 187.551C752.727 187.726 752.782 187.887 752.764 188.033C752.755 188.17 752.648 188.268 752.443 188.328C752.239 188.379 751.897 188.322 751.417 188.16C751.415 187.896 751.462 187.666 751.559 187.47C751.665 187.274 751.855 187.175 752.128 187.173Z" fill="#ADADAD"/>
</svg>
